G75*
%MOIN*%
%OFA0B0*%
%FSLAX24Y24*%
%IPPOS*%
%LPD*%
%AMOC8*
5,1,8,0,0,1.08239X$1,22.5*
%
%ADD10C,0.0000*%
%ADD11C,0.0520*%
%ADD12OC8,0.0520*%
%ADD13C,0.1540*%
%ADD14C,0.0453*%
%ADD15C,0.0900*%
%ADD16C,0.0690*%
%ADD17C,0.0740*%
%ADD18C,0.0680*%
%ADD19OC8,0.0670*%
%ADD20C,0.0670*%
%ADD21C,0.0700*%
D10*
X000675Y000675D02*
X039175Y000675D01*
X039175Y027675D01*
X000675Y027675D01*
X000675Y000675D01*
D11*
X013425Y009310D02*
X013425Y009790D01*
X014425Y009790D02*
X014425Y009310D01*
X015425Y009310D02*
X015425Y009790D01*
X016425Y009790D02*
X016425Y009310D01*
X017425Y009310D02*
X017425Y009790D01*
X018425Y009790D02*
X018425Y009310D01*
X019425Y009310D02*
X019425Y009790D01*
X020425Y009790D02*
X020425Y009310D01*
X021425Y009310D02*
X021425Y009790D01*
X022425Y009790D02*
X022425Y009310D01*
X023425Y009310D02*
X023425Y009790D01*
X024425Y009790D02*
X024425Y009310D01*
X025425Y009310D02*
X025425Y009790D01*
X026425Y009790D02*
X026425Y009310D01*
X026425Y012310D02*
X026425Y012790D01*
X025425Y012790D02*
X025425Y012310D01*
X024425Y012310D02*
X024425Y012790D01*
X023425Y012790D02*
X023425Y012310D01*
X022425Y012310D02*
X022425Y012790D01*
X021425Y012790D02*
X021425Y012310D01*
X020425Y012310D02*
X020425Y012790D01*
X019425Y012790D02*
X019425Y012310D01*
X018425Y012310D02*
X018425Y012790D01*
X017425Y012790D02*
X017425Y012310D01*
X016425Y012310D02*
X016425Y012790D01*
X015425Y012790D02*
X015425Y012310D01*
X014425Y012310D02*
X014425Y012790D01*
X013425Y012790D02*
X013425Y012310D01*
X013175Y018310D02*
X013175Y018790D01*
X014175Y018790D02*
X014175Y018310D01*
X015175Y018310D02*
X015175Y018790D01*
X016175Y018790D02*
X016175Y018310D01*
X012175Y018310D02*
X012175Y018790D01*
X011175Y018790D02*
X011175Y018310D01*
X010175Y018310D02*
X010175Y018790D01*
X009175Y018790D02*
X009175Y018310D01*
X008175Y018310D02*
X008175Y018790D01*
X007175Y018790D02*
X007175Y018310D01*
X006175Y018310D02*
X006175Y018790D01*
X005175Y018790D02*
X005175Y018310D01*
X004175Y018310D02*
X004175Y018790D01*
X003175Y018790D02*
X003175Y018310D01*
X003175Y021310D02*
X003175Y021790D01*
X004175Y021790D02*
X004175Y021310D01*
X005175Y021310D02*
X005175Y021790D01*
X006175Y021790D02*
X006175Y021310D01*
X007175Y021310D02*
X007175Y021790D01*
X008175Y021790D02*
X008175Y021310D01*
X009175Y021310D02*
X009175Y021790D01*
X010175Y021790D02*
X010175Y021310D01*
X011175Y021310D02*
X011175Y021790D01*
X012175Y021790D02*
X012175Y021310D01*
X013175Y021310D02*
X013175Y021790D01*
X014175Y021790D02*
X014175Y021310D01*
X015175Y021310D02*
X015175Y021790D01*
X016175Y021790D02*
X016175Y021310D01*
X023675Y021310D02*
X023675Y021790D01*
X024675Y021790D02*
X024675Y021310D01*
X025675Y021310D02*
X025675Y021790D01*
X026675Y021790D02*
X026675Y021310D01*
X027675Y021310D02*
X027675Y021790D01*
X028675Y021790D02*
X028675Y021310D01*
X029675Y021310D02*
X029675Y021790D01*
X030675Y021790D02*
X030675Y021310D01*
X031675Y021310D02*
X031675Y021790D01*
X032675Y021790D02*
X032675Y021310D01*
X033675Y021310D02*
X033675Y021790D01*
X034675Y021790D02*
X034675Y021310D01*
X035675Y021310D02*
X035675Y021790D01*
X036675Y021790D02*
X036675Y021310D01*
X036675Y018790D02*
X036675Y018310D01*
X035675Y018310D02*
X035675Y018790D01*
X034675Y018790D02*
X034675Y018310D01*
X033675Y018310D02*
X033675Y018790D01*
X032675Y018790D02*
X032675Y018310D01*
X031675Y018310D02*
X031675Y018790D01*
X030675Y018790D02*
X030675Y018310D01*
X029675Y018310D02*
X029675Y018790D01*
X028675Y018790D02*
X028675Y018310D01*
X027675Y018310D02*
X027675Y018790D01*
X026675Y018790D02*
X026675Y018310D01*
X025675Y018310D02*
X025675Y018790D01*
X024675Y018790D02*
X024675Y018310D01*
X023675Y018310D02*
X023675Y018790D01*
D12*
X021425Y019050D03*
X021425Y017050D03*
X018425Y017050D03*
X018425Y019050D03*
X015925Y014800D03*
X011925Y014800D03*
X009175Y016550D03*
X007175Y016550D03*
X018925Y007675D03*
X020925Y007675D03*
X027675Y008550D03*
X031675Y008550D03*
X031175Y012175D03*
X027925Y014800D03*
X027675Y016550D03*
X029675Y016550D03*
X031175Y016175D03*
X023925Y014800D03*
D13*
X002599Y014862D03*
X002599Y011988D03*
D14*
X003702Y013110D02*
X004115Y013110D01*
X004627Y012795D02*
X005040Y012795D01*
X005040Y013425D02*
X004627Y013425D01*
X004115Y013740D02*
X003702Y013740D01*
X004627Y014055D02*
X005040Y014055D01*
D15*
X004300Y004925D03*
X002331Y004925D03*
X006269Y004925D03*
X033081Y004925D03*
X035050Y004925D03*
X037019Y004925D03*
X037425Y012925D03*
X037425Y014925D03*
D16*
X020925Y015300D03*
X018925Y015300D03*
D17*
X019175Y024175D03*
X020675Y024175D03*
X022675Y024175D03*
X024175Y024175D03*
X026175Y024175D03*
X027675Y024175D03*
X029675Y024175D03*
X031175Y024175D03*
X033175Y024175D03*
X034675Y024175D03*
X036675Y024175D03*
X036675Y026175D03*
X034675Y026175D03*
X033175Y026175D03*
X031175Y026175D03*
X029675Y026175D03*
X027675Y026175D03*
X026175Y026175D03*
X024175Y026175D03*
X022675Y026175D03*
X020675Y026175D03*
X019175Y026175D03*
X017175Y026175D03*
X015675Y026175D03*
X013675Y026175D03*
X012175Y026175D03*
X010175Y026175D03*
X008675Y026175D03*
X006675Y026175D03*
X005175Y026175D03*
X003175Y026175D03*
X003175Y024175D03*
X005175Y024175D03*
X006675Y024175D03*
X008675Y024175D03*
X010175Y024175D03*
X012175Y024175D03*
X013675Y024175D03*
X015675Y024175D03*
X017175Y024175D03*
D18*
X010175Y011675D03*
X009175Y011675D03*
X009175Y010675D03*
X010175Y010675D03*
X010175Y009675D03*
X009175Y009675D03*
D19*
X007800Y013800D03*
D20*
X006800Y013800D03*
D21*
X032175Y010300D03*
X036175Y010300D03*
M02*
