G75*
%MOIN*%
%OFA0B0*%
%FSLAX24Y24*%
%IPPOS*%
%LPD*%
%AMOC8*
5,1,8,0,0,1.08239X$1,22.5*
%
%ADD10C,0.0000*%
%ADD11C,0.0480*%
%ADD12OC8,0.0480*%
%ADD13C,0.1500*%
%ADD14C,0.0413*%
%ADD15C,0.0860*%
%ADD16C,0.0650*%
%ADD17C,0.0700*%
%ADD18C,0.0640*%
%ADD19OC8,0.0630*%
%ADD20C,0.0630*%
%ADD21C,0.0660*%
%ADD22C,0.0400*%
%ADD23C,0.0120*%
%ADD24C,0.0356*%
D10*
X000675Y000675D02*
X039175Y000675D01*
X039175Y027675D01*
X000675Y027675D01*
X000675Y000675D01*
D11*
X013425Y009310D02*
X013425Y009790D01*
X014425Y009790D02*
X014425Y009310D01*
X015425Y009310D02*
X015425Y009790D01*
X016425Y009790D02*
X016425Y009310D01*
X017425Y009310D02*
X017425Y009790D01*
X018425Y009790D02*
X018425Y009310D01*
X019425Y009310D02*
X019425Y009790D01*
X020425Y009790D02*
X020425Y009310D01*
X021425Y009310D02*
X021425Y009790D01*
X022425Y009790D02*
X022425Y009310D01*
X023425Y009310D02*
X023425Y009790D01*
X024425Y009790D02*
X024425Y009310D01*
X025425Y009310D02*
X025425Y009790D01*
X026425Y009790D02*
X026425Y009310D01*
X026425Y012310D02*
X026425Y012790D01*
X025425Y012790D02*
X025425Y012310D01*
X024425Y012310D02*
X024425Y012790D01*
X023425Y012790D02*
X023425Y012310D01*
X022425Y012310D02*
X022425Y012790D01*
X021425Y012790D02*
X021425Y012310D01*
X020425Y012310D02*
X020425Y012790D01*
X019425Y012790D02*
X019425Y012310D01*
X018425Y012310D02*
X018425Y012790D01*
X017425Y012790D02*
X017425Y012310D01*
X016425Y012310D02*
X016425Y012790D01*
X015425Y012790D02*
X015425Y012310D01*
X014425Y012310D02*
X014425Y012790D01*
X013425Y012790D02*
X013425Y012310D01*
X013175Y018310D02*
X013175Y018790D01*
X014175Y018790D02*
X014175Y018310D01*
X015175Y018310D02*
X015175Y018790D01*
X016175Y018790D02*
X016175Y018310D01*
X012175Y018310D02*
X012175Y018790D01*
X011175Y018790D02*
X011175Y018310D01*
X010175Y018310D02*
X010175Y018790D01*
X009175Y018790D02*
X009175Y018310D01*
X008175Y018310D02*
X008175Y018790D01*
X007175Y018790D02*
X007175Y018310D01*
X006175Y018310D02*
X006175Y018790D01*
X005175Y018790D02*
X005175Y018310D01*
X004175Y018310D02*
X004175Y018790D01*
X003175Y018790D02*
X003175Y018310D01*
X003175Y021310D02*
X003175Y021790D01*
X004175Y021790D02*
X004175Y021310D01*
X005175Y021310D02*
X005175Y021790D01*
X006175Y021790D02*
X006175Y021310D01*
X007175Y021310D02*
X007175Y021790D01*
X008175Y021790D02*
X008175Y021310D01*
X009175Y021310D02*
X009175Y021790D01*
X010175Y021790D02*
X010175Y021310D01*
X011175Y021310D02*
X011175Y021790D01*
X012175Y021790D02*
X012175Y021310D01*
X013175Y021310D02*
X013175Y021790D01*
X014175Y021790D02*
X014175Y021310D01*
X015175Y021310D02*
X015175Y021790D01*
X016175Y021790D02*
X016175Y021310D01*
X023675Y021310D02*
X023675Y021790D01*
X024675Y021790D02*
X024675Y021310D01*
X025675Y021310D02*
X025675Y021790D01*
X026675Y021790D02*
X026675Y021310D01*
X027675Y021310D02*
X027675Y021790D01*
X028675Y021790D02*
X028675Y021310D01*
X029675Y021310D02*
X029675Y021790D01*
X030675Y021790D02*
X030675Y021310D01*
X031675Y021310D02*
X031675Y021790D01*
X032675Y021790D02*
X032675Y021310D01*
X033675Y021310D02*
X033675Y021790D01*
X034675Y021790D02*
X034675Y021310D01*
X035675Y021310D02*
X035675Y021790D01*
X036675Y021790D02*
X036675Y021310D01*
X036675Y018790D02*
X036675Y018310D01*
X035675Y018310D02*
X035675Y018790D01*
X034675Y018790D02*
X034675Y018310D01*
X033675Y018310D02*
X033675Y018790D01*
X032675Y018790D02*
X032675Y018310D01*
X031675Y018310D02*
X031675Y018790D01*
X030675Y018790D02*
X030675Y018310D01*
X029675Y018310D02*
X029675Y018790D01*
X028675Y018790D02*
X028675Y018310D01*
X027675Y018310D02*
X027675Y018790D01*
X026675Y018790D02*
X026675Y018310D01*
X025675Y018310D02*
X025675Y018790D01*
X024675Y018790D02*
X024675Y018310D01*
X023675Y018310D02*
X023675Y018790D01*
D12*
X021425Y019050D03*
X021425Y017050D03*
X018425Y017050D03*
X018425Y019050D03*
X015925Y014800D03*
X011925Y014800D03*
X009175Y016550D03*
X007175Y016550D03*
X018925Y007675D03*
X020925Y007675D03*
X027675Y008550D03*
X031675Y008550D03*
X031175Y012175D03*
X027925Y014800D03*
X027675Y016550D03*
X029675Y016550D03*
X031175Y016175D03*
X023925Y014800D03*
D13*
X002599Y014862D03*
X002599Y011988D03*
D14*
X003702Y013110D02*
X004115Y013110D01*
X004627Y012795D02*
X005040Y012795D01*
X005040Y013425D02*
X004627Y013425D01*
X004115Y013740D02*
X003702Y013740D01*
X004627Y014055D02*
X005040Y014055D01*
D15*
X004300Y004925D03*
X002331Y004925D03*
X006269Y004925D03*
X033081Y004925D03*
X035050Y004925D03*
X037019Y004925D03*
X037425Y012925D03*
X037425Y014925D03*
D16*
X020925Y015300D03*
X018925Y015300D03*
D17*
X019175Y024175D03*
X020675Y024175D03*
X022675Y024175D03*
X024175Y024175D03*
X026175Y024175D03*
X027675Y024175D03*
X029675Y024175D03*
X031175Y024175D03*
X033175Y024175D03*
X034675Y024175D03*
X036675Y024175D03*
X036675Y026175D03*
X034675Y026175D03*
X033175Y026175D03*
X031175Y026175D03*
X029675Y026175D03*
X027675Y026175D03*
X026175Y026175D03*
X024175Y026175D03*
X022675Y026175D03*
X020675Y026175D03*
X019175Y026175D03*
X017175Y026175D03*
X015675Y026175D03*
X013675Y026175D03*
X012175Y026175D03*
X010175Y026175D03*
X008675Y026175D03*
X006675Y026175D03*
X005175Y026175D03*
X003175Y026175D03*
X003175Y024175D03*
X005175Y024175D03*
X006675Y024175D03*
X008675Y024175D03*
X010175Y024175D03*
X012175Y024175D03*
X013675Y024175D03*
X015675Y024175D03*
X017175Y024175D03*
D18*
X010175Y011675D03*
X009175Y011675D03*
X009175Y010675D03*
X010175Y010675D03*
X010175Y009675D03*
X009175Y009675D03*
D19*
X007800Y013800D03*
D20*
X006800Y013800D03*
D21*
X032175Y010300D03*
X036175Y010300D03*
D22*
X032175Y010300D02*
X032175Y009769D01*
X037019Y004925D01*
X033081Y004925D02*
X031675Y006331D01*
X031675Y008550D01*
X031175Y012175D02*
X031175Y013925D01*
X028550Y016550D01*
X029675Y017675D01*
X029675Y018550D01*
X030675Y018550D02*
X030675Y017550D01*
X029675Y016550D01*
X028550Y016550D02*
X027675Y016550D01*
X027675Y018550D01*
X020425Y012550D02*
X020425Y011550D01*
X019425Y010550D01*
X019425Y009550D01*
X018925Y009050D01*
X018425Y009550D01*
X018925Y009050D02*
X018925Y007675D01*
X021675Y004925D01*
X033050Y004925D01*
X020925Y007675D02*
X020925Y008675D01*
X020425Y009175D01*
X020425Y009550D01*
X018925Y007675D02*
X009675Y007675D01*
X009175Y008175D01*
X009175Y009675D01*
X004675Y009675D01*
X002331Y007331D01*
X002331Y004925D01*
X008675Y009675D02*
X009175Y009675D01*
X008675Y009675D02*
X006800Y011550D01*
X006800Y013800D01*
X005175Y026175D02*
X005175Y026675D01*
X005675Y027175D01*
X007675Y027175D01*
X008675Y026175D01*
X009675Y027175D01*
X011175Y027175D01*
X012175Y026175D01*
X013175Y027175D01*
X014675Y027175D01*
X015675Y026175D01*
X016675Y027175D01*
X018175Y027175D01*
X019175Y026175D01*
X020175Y027175D01*
X021675Y027175D01*
X022675Y026175D01*
X023675Y027175D01*
X025175Y027175D01*
X026175Y026175D01*
X027175Y027175D01*
X028675Y027175D01*
X029675Y026175D01*
X030675Y027175D01*
X032175Y027175D01*
X033175Y026175D01*
X034175Y027175D01*
X035675Y027175D01*
X036675Y026175D01*
X038425Y024425D01*
X038425Y018300D01*
X037425Y017300D01*
X037425Y014925D01*
D23*
X037850Y014488D02*
X039015Y014488D01*
X039015Y014606D02*
X037953Y014606D01*
X037942Y014579D02*
X038035Y014804D01*
X038035Y015046D01*
X037942Y015271D01*
X037805Y015408D01*
X037805Y017143D01*
X038640Y017978D01*
X038747Y018085D01*
X038805Y018224D01*
X038805Y024501D01*
X038747Y024640D01*
X037205Y026182D01*
X037205Y026280D01*
X037124Y026475D01*
X036975Y026624D01*
X036780Y026705D01*
X036682Y026705D01*
X035890Y027497D01*
X035847Y027515D01*
X039015Y027515D01*
X039015Y000835D01*
X000835Y000835D01*
X000835Y027515D01*
X005503Y027515D01*
X005460Y027497D01*
X005353Y027390D01*
X004853Y026890D01*
X004795Y026751D01*
X004795Y026545D01*
X004726Y026475D01*
X004645Y026280D01*
X004645Y026070D01*
X004726Y025875D01*
X004875Y025726D01*
X005070Y025645D01*
X005280Y025645D01*
X005475Y025726D01*
X005624Y025875D01*
X005705Y026070D01*
X005705Y026280D01*
X005624Y026475D01*
X005568Y026531D01*
X005832Y026795D01*
X007518Y026795D01*
X008145Y026168D01*
X008145Y026070D01*
X008226Y025875D01*
X008375Y025726D01*
X008570Y025645D01*
X008780Y025645D01*
X008975Y025726D01*
X009124Y025875D01*
X009205Y026070D01*
X009205Y026168D01*
X009832Y026795D01*
X011018Y026795D01*
X011645Y026168D01*
X011645Y026070D01*
X011726Y025875D01*
X011875Y025726D01*
X012070Y025645D01*
X012280Y025645D01*
X012475Y025726D01*
X012624Y025875D01*
X012705Y026070D01*
X012705Y026168D01*
X013332Y026795D01*
X014518Y026795D01*
X015145Y026168D01*
X015145Y026070D01*
X015226Y025875D01*
X015375Y025726D01*
X015570Y025645D01*
X015780Y025645D01*
X015975Y025726D01*
X016124Y025875D01*
X016205Y026070D01*
X016205Y026168D01*
X016832Y026795D01*
X018018Y026795D01*
X018645Y026168D01*
X018645Y026070D01*
X018726Y025875D01*
X018875Y025726D01*
X019070Y025645D01*
X019280Y025645D01*
X019475Y025726D01*
X019624Y025875D01*
X019705Y026070D01*
X019705Y026168D01*
X020332Y026795D01*
X021518Y026795D01*
X022145Y026168D01*
X022145Y026070D01*
X022226Y025875D01*
X022375Y025726D01*
X022570Y025645D01*
X022780Y025645D01*
X022975Y025726D01*
X023124Y025875D01*
X023205Y026070D01*
X023205Y026168D01*
X023832Y026795D01*
X025018Y026795D01*
X025645Y026168D01*
X025645Y026070D01*
X025726Y025875D01*
X025875Y025726D01*
X026070Y025645D01*
X026280Y025645D01*
X026475Y025726D01*
X026624Y025875D01*
X026705Y026070D01*
X026705Y026168D01*
X027332Y026795D01*
X028518Y026795D01*
X029145Y026168D01*
X029145Y026070D01*
X029226Y025875D01*
X029375Y025726D01*
X029570Y025645D01*
X029780Y025645D01*
X029975Y025726D01*
X030124Y025875D01*
X030205Y026070D01*
X030205Y026168D01*
X030832Y026795D01*
X032018Y026795D01*
X032645Y026168D01*
X032645Y026070D01*
X032726Y025875D01*
X032875Y025726D01*
X033070Y025645D01*
X033280Y025645D01*
X033475Y025726D01*
X033624Y025875D01*
X033705Y026070D01*
X033705Y026168D01*
X034332Y026795D01*
X035518Y026795D01*
X036145Y026168D01*
X036145Y026070D01*
X036226Y025875D01*
X036375Y025726D01*
X036570Y025645D01*
X036668Y025645D01*
X038045Y024268D01*
X038045Y018457D01*
X037103Y017515D01*
X037045Y017376D01*
X037045Y015408D01*
X036908Y015271D01*
X036815Y015046D01*
X036815Y014804D01*
X036908Y014579D01*
X037079Y014408D01*
X037304Y014315D01*
X037546Y014315D01*
X037771Y014408D01*
X037942Y014579D01*
X038002Y014725D02*
X039015Y014725D01*
X039015Y014843D02*
X038035Y014843D01*
X038035Y014962D02*
X039015Y014962D01*
X039015Y015080D02*
X038021Y015080D01*
X037972Y015199D02*
X039015Y015199D01*
X039015Y015317D02*
X037896Y015317D01*
X037805Y015436D02*
X039015Y015436D01*
X039015Y015554D02*
X037805Y015554D01*
X037805Y015673D02*
X039015Y015673D01*
X039015Y015791D02*
X037805Y015791D01*
X037805Y015910D02*
X039015Y015910D01*
X039015Y016028D02*
X037805Y016028D01*
X037805Y016147D02*
X039015Y016147D01*
X039015Y016265D02*
X037805Y016265D01*
X037805Y016384D02*
X039015Y016384D01*
X039015Y016502D02*
X037805Y016502D01*
X037805Y016621D02*
X039015Y016621D01*
X039015Y016739D02*
X037805Y016739D01*
X037805Y016858D02*
X039015Y016858D01*
X039015Y016976D02*
X037805Y016976D01*
X037805Y017095D02*
X039015Y017095D01*
X039015Y017213D02*
X037875Y017213D01*
X037994Y017332D02*
X039015Y017332D01*
X039015Y017450D02*
X038112Y017450D01*
X038231Y017569D02*
X039015Y017569D01*
X039015Y017687D02*
X038349Y017687D01*
X038468Y017806D02*
X039015Y017806D01*
X039015Y017924D02*
X038586Y017924D01*
X038705Y018043D02*
X039015Y018043D01*
X039015Y018161D02*
X038779Y018161D01*
X038805Y018280D02*
X039015Y018280D01*
X039015Y018398D02*
X038805Y018398D01*
X038805Y018517D02*
X039015Y018517D01*
X039015Y018635D02*
X038805Y018635D01*
X038805Y018754D02*
X039015Y018754D01*
X039015Y018872D02*
X038805Y018872D01*
X038805Y018991D02*
X039015Y018991D01*
X039015Y019109D02*
X038805Y019109D01*
X038805Y019228D02*
X039015Y019228D01*
X039015Y019346D02*
X038805Y019346D01*
X038805Y019465D02*
X039015Y019465D01*
X039015Y019583D02*
X038805Y019583D01*
X038805Y019702D02*
X039015Y019702D01*
X039015Y019820D02*
X038805Y019820D01*
X038805Y019939D02*
X039015Y019939D01*
X039015Y020057D02*
X038805Y020057D01*
X038805Y020176D02*
X039015Y020176D01*
X039015Y020294D02*
X038805Y020294D01*
X038805Y020413D02*
X039015Y020413D01*
X039015Y020531D02*
X038805Y020531D01*
X038805Y020650D02*
X039015Y020650D01*
X039015Y020768D02*
X038805Y020768D01*
X038805Y020887D02*
X039015Y020887D01*
X039015Y021005D02*
X038805Y021005D01*
X038805Y021124D02*
X039015Y021124D01*
X039015Y021242D02*
X038805Y021242D01*
X038805Y021361D02*
X039015Y021361D01*
X039015Y021479D02*
X038805Y021479D01*
X038805Y021598D02*
X039015Y021598D01*
X039015Y021716D02*
X038805Y021716D01*
X038805Y021835D02*
X039015Y021835D01*
X039015Y021953D02*
X038805Y021953D01*
X038805Y022072D02*
X039015Y022072D01*
X039015Y022190D02*
X038805Y022190D01*
X038805Y022309D02*
X039015Y022309D01*
X039015Y022427D02*
X038805Y022427D01*
X038805Y022546D02*
X039015Y022546D01*
X039015Y022664D02*
X038805Y022664D01*
X038805Y022783D02*
X039015Y022783D01*
X039015Y022901D02*
X038805Y022901D01*
X038805Y023020D02*
X039015Y023020D01*
X039015Y023138D02*
X038805Y023138D01*
X038805Y023257D02*
X039015Y023257D01*
X039015Y023375D02*
X038805Y023375D01*
X038805Y023494D02*
X039015Y023494D01*
X039015Y023612D02*
X038805Y023612D01*
X038805Y023731D02*
X039015Y023731D01*
X039015Y023849D02*
X038805Y023849D01*
X038805Y023968D02*
X039015Y023968D01*
X039015Y024086D02*
X038805Y024086D01*
X038805Y024205D02*
X039015Y024205D01*
X039015Y024323D02*
X038805Y024323D01*
X038805Y024442D02*
X039015Y024442D01*
X039015Y024560D02*
X038780Y024560D01*
X038709Y024679D02*
X039015Y024679D01*
X039015Y024797D02*
X038590Y024797D01*
X038472Y024916D02*
X039015Y024916D01*
X039015Y025034D02*
X038353Y025034D01*
X038235Y025153D02*
X039015Y025153D01*
X039015Y025271D02*
X038116Y025271D01*
X037998Y025390D02*
X039015Y025390D01*
X039015Y025508D02*
X037879Y025508D01*
X037761Y025627D02*
X039015Y025627D01*
X039015Y025745D02*
X037642Y025745D01*
X037524Y025864D02*
X039015Y025864D01*
X039015Y025982D02*
X037405Y025982D01*
X037287Y026101D02*
X039015Y026101D01*
X039015Y026219D02*
X037205Y026219D01*
X037181Y026338D02*
X039015Y026338D01*
X039015Y026456D02*
X037132Y026456D01*
X037025Y026575D02*
X039015Y026575D01*
X039015Y026693D02*
X036809Y026693D01*
X036576Y026812D02*
X039015Y026812D01*
X039015Y026930D02*
X036457Y026930D01*
X036339Y027049D02*
X039015Y027049D01*
X039015Y027167D02*
X036220Y027167D01*
X036102Y027286D02*
X039015Y027286D01*
X039015Y027404D02*
X035983Y027404D01*
X035620Y026693D02*
X034809Y026693D01*
X034780Y026705D02*
X034570Y026705D01*
X034375Y026624D01*
X034226Y026475D01*
X034145Y026280D01*
X034145Y026070D01*
X034170Y026009D01*
X033722Y025561D01*
X033685Y025473D01*
X033685Y024329D01*
X033624Y024475D01*
X033475Y024624D01*
X033280Y024705D01*
X033070Y024705D01*
X032875Y024624D01*
X032726Y024475D01*
X032645Y024280D01*
X032645Y024070D01*
X032726Y023875D01*
X032875Y023726D01*
X032935Y023701D01*
X032935Y023127D01*
X032972Y023039D01*
X033039Y022972D01*
X033830Y022180D01*
X033759Y022210D01*
X033591Y022210D01*
X033512Y022177D01*
X031680Y024009D01*
X031705Y024070D01*
X031705Y024280D01*
X031624Y024475D01*
X031475Y024624D01*
X031280Y024705D01*
X031070Y024705D01*
X030875Y024624D01*
X030726Y024475D01*
X030665Y024329D01*
X030665Y025326D01*
X031009Y025670D01*
X031070Y025645D01*
X031280Y025645D01*
X031475Y025726D01*
X031624Y025875D01*
X031705Y026070D01*
X031705Y026280D01*
X031624Y026475D01*
X031475Y026624D01*
X031280Y026705D01*
X031070Y026705D01*
X030875Y026624D01*
X030726Y026475D01*
X030645Y026280D01*
X030645Y026070D01*
X030670Y026009D01*
X030222Y025561D01*
X030185Y025473D01*
X030185Y024329D01*
X030124Y024475D01*
X029975Y024624D01*
X029780Y024705D01*
X029570Y024705D01*
X029375Y024624D01*
X029226Y024475D01*
X029145Y024280D01*
X029145Y024070D01*
X029226Y023875D01*
X029375Y023726D01*
X029435Y023701D01*
X029435Y023627D01*
X029472Y023539D01*
X029539Y023472D01*
X030830Y022180D01*
X030759Y022210D01*
X030591Y022210D01*
X030512Y022177D01*
X028378Y024311D01*
X028311Y024378D01*
X028223Y024415D01*
X028149Y024415D01*
X028124Y024475D01*
X027975Y024624D01*
X027780Y024705D01*
X027570Y024705D01*
X027375Y024624D01*
X027226Y024475D01*
X027165Y024329D01*
X027165Y025326D01*
X027509Y025670D01*
X027570Y025645D01*
X027780Y025645D01*
X027975Y025726D01*
X028124Y025875D01*
X028205Y026070D01*
X028205Y026280D01*
X028124Y026475D01*
X027975Y026624D01*
X027780Y026705D01*
X027570Y026705D01*
X027375Y026624D01*
X027226Y026475D01*
X027145Y026280D01*
X027145Y026070D01*
X027170Y026009D01*
X026722Y025561D01*
X026685Y025473D01*
X026685Y024329D01*
X026624Y024475D01*
X026475Y024624D01*
X026280Y024705D01*
X026070Y024705D01*
X025875Y024624D01*
X025726Y024475D01*
X025645Y024280D01*
X025645Y024070D01*
X025726Y023875D01*
X025875Y023726D01*
X025935Y023701D01*
X025935Y023629D01*
X025253Y024311D01*
X025186Y024378D01*
X025098Y024415D01*
X024649Y024415D01*
X024624Y024475D01*
X024475Y024624D01*
X024280Y024705D01*
X024070Y024705D01*
X023875Y024624D01*
X023726Y024475D01*
X023665Y024329D01*
X023665Y025326D01*
X024009Y025670D01*
X024070Y025645D01*
X024280Y025645D01*
X024475Y025726D01*
X024624Y025875D01*
X024705Y026070D01*
X024705Y026280D01*
X024624Y026475D01*
X024475Y026624D01*
X024280Y026705D01*
X024070Y026705D01*
X023875Y026624D01*
X023726Y026475D01*
X023645Y026280D01*
X023645Y026070D01*
X023670Y026009D01*
X023222Y025561D01*
X023185Y025473D01*
X023185Y024329D01*
X023124Y024475D01*
X022975Y024624D01*
X022780Y024705D01*
X022570Y024705D01*
X022375Y024624D01*
X022226Y024475D01*
X022145Y024280D01*
X022145Y024070D01*
X022226Y023875D01*
X022375Y023726D01*
X022560Y023649D01*
X022560Y023252D01*
X022597Y023164D01*
X022664Y023097D01*
X023289Y022472D01*
X023377Y022435D01*
X024701Y022435D01*
X025257Y021879D01*
X025255Y021874D01*
X025255Y021226D01*
X025319Y021072D01*
X025437Y020954D01*
X025591Y020890D01*
X025759Y020890D01*
X025913Y020954D01*
X026031Y021072D01*
X026095Y021226D01*
X026095Y021874D01*
X026065Y021945D01*
X026255Y021756D01*
X026255Y021226D01*
X026319Y021072D01*
X026437Y020954D01*
X026591Y020890D01*
X026759Y020890D01*
X026913Y020954D01*
X027031Y021072D01*
X027095Y021226D01*
X027095Y021791D01*
X027255Y021631D01*
X027255Y021226D01*
X027319Y021072D01*
X027437Y020954D01*
X027591Y020890D01*
X027759Y020890D01*
X027913Y020954D01*
X028031Y021072D01*
X028095Y021226D01*
X028095Y021874D01*
X028031Y022028D01*
X027913Y022146D01*
X027759Y022210D01*
X027591Y022210D01*
X027437Y022146D01*
X027428Y022137D01*
X027254Y022310D01*
X027951Y022310D01*
X028294Y021967D01*
X028255Y021874D01*
X028255Y021226D01*
X028319Y021072D01*
X028437Y020954D01*
X028591Y020890D01*
X028759Y020890D01*
X028913Y020954D01*
X029031Y021072D01*
X029095Y021226D01*
X029095Y021874D01*
X029031Y022028D01*
X028913Y022146D01*
X028759Y022210D01*
X028729Y022210D01*
X028253Y022686D01*
X028186Y022753D01*
X028098Y022790D01*
X027399Y022790D01*
X026467Y023722D01*
X026475Y023726D01*
X026624Y023875D01*
X026685Y024021D01*
X026685Y023627D01*
X026722Y023539D01*
X026789Y023472D01*
X027289Y022972D01*
X027377Y022935D01*
X028201Y022935D01*
X029257Y021879D01*
X029255Y021874D01*
X029255Y021226D01*
X029319Y021072D01*
X029437Y020954D01*
X029591Y020890D01*
X029759Y020890D01*
X029913Y020954D01*
X030031Y021072D01*
X030095Y021226D01*
X030095Y021874D01*
X030065Y021945D01*
X030255Y021756D01*
X030255Y021226D01*
X030319Y021072D01*
X030437Y020954D01*
X030591Y020890D01*
X030759Y020890D01*
X030913Y020954D01*
X031031Y021072D01*
X031095Y021226D01*
X031095Y021874D01*
X031065Y021945D01*
X031255Y021756D01*
X031255Y021226D01*
X031319Y021072D01*
X031437Y020954D01*
X031591Y020890D01*
X031759Y020890D01*
X031913Y020954D01*
X032031Y021072D01*
X032095Y021226D01*
X032095Y021874D01*
X032031Y022028D01*
X031913Y022146D01*
X031759Y022210D01*
X031591Y022210D01*
X031512Y022177D01*
X029967Y023722D01*
X029975Y023726D01*
X030124Y023875D01*
X030185Y024021D01*
X030185Y023627D01*
X030222Y023539D01*
X031289Y022472D01*
X031377Y022435D01*
X031826Y022435D01*
X032294Y021967D01*
X032255Y021874D01*
X032255Y021226D01*
X032319Y021072D01*
X032437Y020954D01*
X032591Y020890D01*
X032759Y020890D01*
X032913Y020954D01*
X033031Y021072D01*
X033095Y021226D01*
X033095Y021874D01*
X033065Y021945D01*
X033255Y021756D01*
X033255Y021226D01*
X033319Y021072D01*
X033437Y020954D01*
X033591Y020890D01*
X033759Y020890D01*
X033913Y020954D01*
X034031Y021072D01*
X034095Y021226D01*
X034095Y021874D01*
X034065Y021945D01*
X034255Y021756D01*
X034255Y021226D01*
X034319Y021072D01*
X034437Y020954D01*
X034591Y020890D01*
X034759Y020890D01*
X034913Y020954D01*
X035031Y021072D01*
X035095Y021226D01*
X035095Y021874D01*
X035031Y022028D01*
X034913Y022146D01*
X034759Y022210D01*
X034591Y022210D01*
X034512Y022177D01*
X033415Y023274D01*
X033415Y023701D01*
X033475Y023726D01*
X033624Y023875D01*
X033685Y024021D01*
X033685Y023627D01*
X033722Y023539D01*
X033789Y023472D01*
X035294Y021967D01*
X035255Y021874D01*
X035255Y021226D01*
X035319Y021072D01*
X035437Y020954D01*
X035591Y020890D01*
X035759Y020890D01*
X035913Y020954D01*
X036031Y021072D01*
X036095Y021226D01*
X036095Y021874D01*
X036031Y022028D01*
X035913Y022146D01*
X035759Y022210D01*
X035729Y022210D01*
X034165Y023774D01*
X034165Y024021D01*
X034226Y023875D01*
X034375Y023726D01*
X034570Y023645D01*
X034780Y023645D01*
X034841Y023670D01*
X036401Y022110D01*
X036319Y022028D01*
X036255Y021874D01*
X036255Y021226D01*
X036319Y021072D01*
X036437Y020954D01*
X036591Y020890D01*
X036759Y020890D01*
X036913Y020954D01*
X037031Y021072D01*
X037095Y021226D01*
X037095Y021874D01*
X037031Y022028D01*
X036915Y022144D01*
X036915Y022223D01*
X036878Y022311D01*
X035180Y024009D01*
X035205Y024070D01*
X035205Y024280D01*
X035124Y024475D01*
X034975Y024624D01*
X034780Y024705D01*
X034570Y024705D01*
X034375Y024624D01*
X034226Y024475D01*
X034165Y024329D01*
X034165Y025326D01*
X034509Y025670D01*
X034570Y025645D01*
X034780Y025645D01*
X034975Y025726D01*
X035124Y025875D01*
X035205Y026070D01*
X035205Y026280D01*
X035124Y026475D01*
X034975Y026624D01*
X034780Y026705D01*
X034541Y026693D02*
X034230Y026693D01*
X034325Y026575D02*
X034112Y026575D01*
X034218Y026456D02*
X033993Y026456D01*
X033875Y026338D02*
X034169Y026338D01*
X034145Y026219D02*
X033756Y026219D01*
X033705Y026101D02*
X034145Y026101D01*
X034143Y025982D02*
X033669Y025982D01*
X033613Y025864D02*
X034024Y025864D01*
X033906Y025745D02*
X033495Y025745D01*
X033700Y025508D02*
X030847Y025508D01*
X030729Y025390D02*
X033685Y025390D01*
X033685Y025271D02*
X030665Y025271D01*
X030665Y025153D02*
X033685Y025153D01*
X033685Y025034D02*
X030665Y025034D01*
X030665Y024916D02*
X033685Y024916D01*
X033685Y024797D02*
X030665Y024797D01*
X030665Y024679D02*
X031006Y024679D01*
X030811Y024560D02*
X030665Y024560D01*
X030665Y024442D02*
X030712Y024442D01*
X031175Y024175D02*
X033675Y021675D01*
X033675Y021550D01*
X034095Y021598D02*
X034255Y021598D01*
X034255Y021716D02*
X034095Y021716D01*
X034095Y021835D02*
X034176Y021835D01*
X034499Y022190D02*
X034543Y022190D01*
X034381Y022309D02*
X034952Y022309D01*
X034834Y022427D02*
X034262Y022427D01*
X034144Y022546D02*
X034715Y022546D01*
X034597Y022664D02*
X034025Y022664D01*
X033907Y022783D02*
X034478Y022783D01*
X034360Y022901D02*
X033788Y022901D01*
X033670Y023020D02*
X034241Y023020D01*
X034123Y023138D02*
X033551Y023138D01*
X033433Y023257D02*
X034004Y023257D01*
X033886Y023375D02*
X033415Y023375D01*
X033415Y023494D02*
X033767Y023494D01*
X033691Y023612D02*
X033415Y023612D01*
X033480Y023731D02*
X033685Y023731D01*
X033685Y023849D02*
X033599Y023849D01*
X033663Y023968D02*
X033685Y023968D01*
X033925Y023675D02*
X033925Y025425D01*
X034675Y026175D01*
X035169Y025982D02*
X036181Y025982D01*
X036145Y026101D02*
X035205Y026101D01*
X035205Y026219D02*
X036094Y026219D01*
X035975Y026338D02*
X035181Y026338D01*
X035132Y026456D02*
X035857Y026456D01*
X035738Y026575D02*
X035025Y026575D01*
X035113Y025864D02*
X036237Y025864D01*
X036355Y025745D02*
X034995Y025745D01*
X034466Y025627D02*
X036686Y025627D01*
X036805Y025508D02*
X034347Y025508D01*
X034229Y025390D02*
X036923Y025390D01*
X037042Y025271D02*
X034165Y025271D01*
X034165Y025153D02*
X037160Y025153D01*
X037279Y025034D02*
X034165Y025034D01*
X034165Y024916D02*
X037397Y024916D01*
X037516Y024797D02*
X034165Y024797D01*
X034165Y024679D02*
X034506Y024679D01*
X034311Y024560D02*
X034165Y024560D01*
X034165Y024442D02*
X034212Y024442D01*
X033685Y024442D02*
X033638Y024442D01*
X033685Y024560D02*
X033539Y024560D01*
X033685Y024679D02*
X033344Y024679D01*
X033006Y024679D02*
X031344Y024679D01*
X031539Y024560D02*
X032811Y024560D01*
X032712Y024442D02*
X031638Y024442D01*
X031687Y024323D02*
X032663Y024323D01*
X032645Y024205D02*
X031705Y024205D01*
X031705Y024086D02*
X032645Y024086D01*
X032687Y023968D02*
X031722Y023968D01*
X031840Y023849D02*
X032751Y023849D01*
X032870Y023731D02*
X031959Y023731D01*
X032077Y023612D02*
X032935Y023612D01*
X032935Y023494D02*
X032196Y023494D01*
X032314Y023375D02*
X032935Y023375D01*
X032935Y023257D02*
X032433Y023257D01*
X032551Y023138D02*
X032935Y023138D01*
X032991Y023020D02*
X032670Y023020D01*
X032788Y022901D02*
X033110Y022901D01*
X033228Y022783D02*
X032907Y022783D01*
X033025Y022664D02*
X033347Y022664D01*
X033465Y022546D02*
X033144Y022546D01*
X033262Y022427D02*
X033584Y022427D01*
X033702Y022309D02*
X033381Y022309D01*
X033499Y022190D02*
X033543Y022190D01*
X033807Y022190D02*
X033821Y022190D01*
X033176Y021835D02*
X033095Y021835D01*
X033095Y021716D02*
X033255Y021716D01*
X033255Y021598D02*
X033095Y021598D01*
X033095Y021479D02*
X033255Y021479D01*
X033255Y021361D02*
X033095Y021361D01*
X033095Y021242D02*
X033255Y021242D01*
X033298Y021124D02*
X033052Y021124D01*
X032964Y021005D02*
X033386Y021005D01*
X033964Y021005D02*
X034386Y021005D01*
X034298Y021124D02*
X034052Y021124D01*
X034095Y021242D02*
X034255Y021242D01*
X034255Y021361D02*
X034095Y021361D01*
X034095Y021479D02*
X034255Y021479D01*
X034675Y021550D02*
X034675Y021675D01*
X033175Y023175D01*
X033175Y024175D01*
X033925Y023675D02*
X035675Y021925D01*
X035675Y021550D01*
X036095Y021598D02*
X036255Y021598D01*
X036255Y021716D02*
X036095Y021716D01*
X036095Y021835D02*
X036255Y021835D01*
X036288Y021953D02*
X036062Y021953D01*
X035987Y022072D02*
X036363Y022072D01*
X036321Y022190D02*
X035807Y022190D01*
X035631Y022309D02*
X036202Y022309D01*
X036084Y022427D02*
X035512Y022427D01*
X035394Y022546D02*
X035965Y022546D01*
X035847Y022664D02*
X035275Y022664D01*
X035157Y022783D02*
X035728Y022783D01*
X035610Y022901D02*
X035038Y022901D01*
X034920Y023020D02*
X035491Y023020D01*
X035373Y023138D02*
X034801Y023138D01*
X034683Y023257D02*
X035254Y023257D01*
X035136Y023375D02*
X034564Y023375D01*
X034446Y023494D02*
X035017Y023494D01*
X034899Y023612D02*
X034327Y023612D01*
X034370Y023731D02*
X034209Y023731D01*
X034165Y023849D02*
X034251Y023849D01*
X034187Y023968D02*
X034165Y023968D01*
X034675Y024175D02*
X036675Y022175D01*
X036675Y021550D01*
X037095Y021598D02*
X037435Y021598D01*
X037435Y021716D02*
X037095Y021716D01*
X037095Y021835D02*
X037435Y021835D01*
X037435Y021953D02*
X037062Y021953D01*
X036987Y022072D02*
X037435Y022072D01*
X037435Y022190D02*
X036915Y022190D01*
X036879Y022309D02*
X037435Y022309D01*
X037435Y022427D02*
X036762Y022427D01*
X036644Y022546D02*
X037435Y022546D01*
X037435Y022664D02*
X036525Y022664D01*
X036407Y022783D02*
X037435Y022783D01*
X037435Y022901D02*
X036288Y022901D01*
X036170Y023020D02*
X037435Y023020D01*
X037435Y023076D02*
X037435Y020774D01*
X036472Y019811D01*
X036435Y019723D01*
X036435Y019144D01*
X036319Y019028D01*
X036255Y018874D01*
X036255Y018226D01*
X036319Y018072D01*
X036437Y017954D01*
X036591Y017890D01*
X036759Y017890D01*
X036913Y017954D01*
X037031Y018072D01*
X037095Y018226D01*
X037095Y018874D01*
X037031Y019028D01*
X036915Y019144D01*
X036915Y019576D01*
X037811Y020472D01*
X037878Y020539D01*
X037915Y020627D01*
X037915Y023223D01*
X037878Y023311D01*
X037180Y024009D01*
X037205Y024070D01*
X037205Y024280D01*
X037124Y024475D01*
X036975Y024624D01*
X036780Y024705D01*
X036570Y024705D01*
X036375Y024624D01*
X036226Y024475D01*
X036145Y024280D01*
X036145Y024070D01*
X036226Y023875D01*
X036375Y023726D01*
X036570Y023645D01*
X036780Y023645D01*
X036841Y023670D01*
X037435Y023076D01*
X037373Y023138D02*
X036051Y023138D01*
X035933Y023257D02*
X037254Y023257D01*
X037136Y023375D02*
X035814Y023375D01*
X035696Y023494D02*
X037017Y023494D01*
X036899Y023612D02*
X035577Y023612D01*
X035459Y023731D02*
X036370Y023731D01*
X036251Y023849D02*
X035340Y023849D01*
X035222Y023968D02*
X036187Y023968D01*
X036145Y024086D02*
X035205Y024086D01*
X035205Y024205D02*
X036145Y024205D01*
X036163Y024323D02*
X035187Y024323D01*
X035138Y024442D02*
X036212Y024442D01*
X036311Y024560D02*
X035039Y024560D01*
X034844Y024679D02*
X036506Y024679D01*
X036844Y024679D02*
X037634Y024679D01*
X037753Y024560D02*
X037039Y024560D01*
X037138Y024442D02*
X037871Y024442D01*
X037990Y024323D02*
X037187Y024323D01*
X037205Y024205D02*
X038045Y024205D01*
X038045Y024086D02*
X037205Y024086D01*
X037222Y023968D02*
X038045Y023968D01*
X038045Y023849D02*
X037340Y023849D01*
X037459Y023731D02*
X038045Y023731D01*
X038045Y023612D02*
X037577Y023612D01*
X037696Y023494D02*
X038045Y023494D01*
X038045Y023375D02*
X037814Y023375D01*
X037901Y023257D02*
X038045Y023257D01*
X038045Y023138D02*
X037915Y023138D01*
X037915Y023020D02*
X038045Y023020D01*
X038045Y022901D02*
X037915Y022901D01*
X037915Y022783D02*
X038045Y022783D01*
X038045Y022664D02*
X037915Y022664D01*
X037915Y022546D02*
X038045Y022546D01*
X038045Y022427D02*
X037915Y022427D01*
X037915Y022309D02*
X038045Y022309D01*
X038045Y022190D02*
X037915Y022190D01*
X037915Y022072D02*
X038045Y022072D01*
X038045Y021953D02*
X037915Y021953D01*
X037915Y021835D02*
X038045Y021835D01*
X038045Y021716D02*
X037915Y021716D01*
X037915Y021598D02*
X038045Y021598D01*
X038045Y021479D02*
X037915Y021479D01*
X037915Y021361D02*
X038045Y021361D01*
X038045Y021242D02*
X037915Y021242D01*
X037915Y021124D02*
X038045Y021124D01*
X038045Y021005D02*
X037915Y021005D01*
X037915Y020887D02*
X038045Y020887D01*
X038045Y020768D02*
X037915Y020768D01*
X037915Y020650D02*
X038045Y020650D01*
X038045Y020531D02*
X037870Y020531D01*
X037752Y020413D02*
X038045Y020413D01*
X038045Y020294D02*
X037633Y020294D01*
X037515Y020176D02*
X038045Y020176D01*
X038045Y020057D02*
X037396Y020057D01*
X037278Y019939D02*
X038045Y019939D01*
X038045Y019820D02*
X037159Y019820D01*
X037041Y019702D02*
X038045Y019702D01*
X038045Y019583D02*
X036922Y019583D01*
X036915Y019465D02*
X038045Y019465D01*
X038045Y019346D02*
X036915Y019346D01*
X036915Y019228D02*
X038045Y019228D01*
X038045Y019109D02*
X036950Y019109D01*
X037047Y018991D02*
X038045Y018991D01*
X038045Y018872D02*
X037095Y018872D01*
X037095Y018754D02*
X038045Y018754D01*
X038045Y018635D02*
X037095Y018635D01*
X037095Y018517D02*
X038045Y018517D01*
X037986Y018398D02*
X037095Y018398D01*
X037095Y018280D02*
X037867Y018280D01*
X037749Y018161D02*
X037068Y018161D01*
X037002Y018043D02*
X037630Y018043D01*
X037512Y017924D02*
X036841Y017924D01*
X036509Y017924D02*
X035785Y017924D01*
X035792Y017925D02*
X035864Y017956D01*
X035930Y017999D01*
X035986Y018055D01*
X036029Y018121D01*
X036060Y018193D01*
X036075Y018271D01*
X036075Y018530D01*
X035695Y018530D01*
X035695Y018570D01*
X035655Y018570D01*
X035655Y019190D01*
X035636Y019190D01*
X035558Y019175D01*
X035486Y019144D01*
X035420Y019101D01*
X035364Y019045D01*
X035321Y018979D01*
X035290Y018907D01*
X035275Y018829D01*
X035275Y018570D01*
X035655Y018570D01*
X035655Y018530D01*
X035275Y018530D01*
X035275Y018271D01*
X035290Y018193D01*
X035321Y018121D01*
X035364Y018055D01*
X035420Y017999D01*
X035486Y017956D01*
X035558Y017925D01*
X035636Y017910D01*
X035655Y017910D01*
X035655Y018530D01*
X035695Y018530D01*
X035695Y017910D01*
X035714Y017910D01*
X035792Y017925D01*
X035695Y017924D02*
X035655Y017924D01*
X035565Y017924D02*
X034841Y017924D01*
X034913Y017954D02*
X035031Y018072D01*
X035095Y018226D01*
X035095Y018874D01*
X035031Y019028D01*
X034913Y019146D01*
X034759Y019210D01*
X034591Y019210D01*
X034437Y019146D01*
X034319Y019028D01*
X034255Y018874D01*
X034255Y018226D01*
X034319Y018072D01*
X034437Y017954D01*
X034591Y017890D01*
X034759Y017890D01*
X034913Y017954D01*
X035002Y018043D02*
X035377Y018043D01*
X035304Y018161D02*
X035068Y018161D01*
X035095Y018280D02*
X035275Y018280D01*
X035275Y018398D02*
X035095Y018398D01*
X035095Y018517D02*
X035275Y018517D01*
X035275Y018635D02*
X035095Y018635D01*
X035095Y018754D02*
X035275Y018754D01*
X035283Y018872D02*
X035095Y018872D01*
X035047Y018991D02*
X035328Y018991D01*
X035432Y019109D02*
X034950Y019109D01*
X034400Y019109D02*
X033950Y019109D01*
X033913Y019146D02*
X033759Y019210D01*
X033591Y019210D01*
X033437Y019146D01*
X033319Y019028D01*
X033255Y018874D01*
X033255Y018226D01*
X033319Y018072D01*
X033437Y017954D01*
X033591Y017890D01*
X033759Y017890D01*
X033913Y017954D01*
X034031Y018072D01*
X034095Y018226D01*
X034095Y018874D01*
X034031Y019028D01*
X033913Y019146D01*
X034047Y018991D02*
X034303Y018991D01*
X034255Y018872D02*
X034095Y018872D01*
X034095Y018754D02*
X034255Y018754D01*
X034255Y018635D02*
X034095Y018635D01*
X034095Y018517D02*
X034255Y018517D01*
X034255Y018398D02*
X034095Y018398D01*
X034095Y018280D02*
X034255Y018280D01*
X034282Y018161D02*
X034068Y018161D01*
X034002Y018043D02*
X034348Y018043D01*
X034509Y017924D02*
X033841Y017924D01*
X033509Y017924D02*
X032841Y017924D01*
X032913Y017954D02*
X033031Y018072D01*
X033095Y018226D01*
X033095Y018874D01*
X033031Y019028D01*
X032915Y019144D01*
X032915Y019723D01*
X032878Y019811D01*
X032811Y019878D01*
X032311Y020378D01*
X032223Y020415D01*
X025941Y020415D01*
X025878Y020479D01*
X025746Y020533D01*
X025604Y020533D01*
X025472Y020479D01*
X025371Y020378D01*
X025317Y020246D01*
X025317Y020104D01*
X025371Y019972D01*
X025472Y019871D01*
X025604Y019817D01*
X025746Y019817D01*
X025878Y019871D01*
X025941Y019935D01*
X032076Y019935D01*
X032435Y019576D01*
X032435Y019144D01*
X032319Y019028D01*
X032255Y018874D01*
X032255Y018226D01*
X032319Y018072D01*
X032437Y017954D01*
X032591Y017890D01*
X032759Y017890D01*
X032913Y017954D01*
X033002Y018043D02*
X033348Y018043D01*
X033282Y018161D02*
X033068Y018161D01*
X033095Y018280D02*
X033255Y018280D01*
X033255Y018398D02*
X033095Y018398D01*
X033095Y018517D02*
X033255Y018517D01*
X033255Y018635D02*
X033095Y018635D01*
X033095Y018754D02*
X033255Y018754D01*
X033255Y018872D02*
X033095Y018872D01*
X033047Y018991D02*
X033303Y018991D01*
X033400Y019109D02*
X032950Y019109D01*
X032915Y019228D02*
X036435Y019228D01*
X036435Y019346D02*
X032915Y019346D01*
X032915Y019465D02*
X036435Y019465D01*
X036435Y019583D02*
X032915Y019583D01*
X032915Y019702D02*
X036435Y019702D01*
X036481Y019820D02*
X032869Y019820D01*
X032751Y019939D02*
X036599Y019939D01*
X036718Y020057D02*
X032632Y020057D01*
X032514Y020176D02*
X036836Y020176D01*
X036955Y020294D02*
X032395Y020294D01*
X032229Y020413D02*
X037073Y020413D01*
X037192Y020531D02*
X025751Y020531D01*
X025599Y020531D02*
X024495Y020531D01*
X024378Y020414D02*
X024878Y020914D01*
X024891Y020945D01*
X024913Y020954D01*
X025031Y021072D01*
X025095Y021226D01*
X025095Y021874D01*
X025031Y022028D01*
X024913Y022146D01*
X024759Y022210D01*
X024591Y022210D01*
X024437Y022146D01*
X024319Y022028D01*
X024255Y021874D01*
X024255Y021226D01*
X024319Y021072D01*
X024338Y021053D01*
X024076Y020790D01*
X023524Y020790D01*
X021040Y023274D01*
X021040Y023790D01*
X021124Y023875D01*
X021205Y024070D01*
X021205Y024280D01*
X021124Y024475D01*
X020975Y024624D01*
X020780Y024705D01*
X020570Y024705D01*
X020375Y024624D01*
X020226Y024475D01*
X020145Y024280D01*
X020145Y024070D01*
X020226Y023875D01*
X020375Y023726D01*
X020560Y023649D01*
X020560Y023127D01*
X020597Y023039D01*
X020664Y022972D01*
X023222Y020414D01*
X023289Y020347D01*
X023377Y020310D01*
X024223Y020310D01*
X024311Y020347D01*
X024378Y020414D01*
X024377Y020413D02*
X025406Y020413D01*
X025337Y020294D02*
X023145Y020294D01*
X023223Y020413D02*
X023027Y020413D01*
X023105Y020531D02*
X022908Y020531D01*
X022986Y020650D02*
X022790Y020650D01*
X022868Y020768D02*
X022671Y020768D01*
X022749Y020887D02*
X022553Y020887D01*
X022631Y021005D02*
X022434Y021005D01*
X022512Y021124D02*
X022316Y021124D01*
X022394Y021242D02*
X022197Y021242D01*
X022275Y021361D02*
X022079Y021361D01*
X022157Y021479D02*
X021960Y021479D01*
X022038Y021598D02*
X021842Y021598D01*
X021920Y021716D02*
X021723Y021716D01*
X021801Y021835D02*
X021605Y021835D01*
X021683Y021953D02*
X021486Y021953D01*
X021564Y022072D02*
X021368Y022072D01*
X021446Y022190D02*
X021249Y022190D01*
X021327Y022309D02*
X021131Y022309D01*
X021209Y022427D02*
X021012Y022427D01*
X021090Y022546D02*
X020894Y022546D01*
X020972Y022664D02*
X020775Y022664D01*
X020853Y022783D02*
X020657Y022783D01*
X020735Y022901D02*
X020538Y022901D01*
X020616Y023020D02*
X020420Y023020D01*
X020301Y023138D02*
X020560Y023138D01*
X020560Y023257D02*
X020183Y023257D01*
X020064Y023375D02*
X020560Y023375D01*
X020560Y023494D02*
X019946Y023494D01*
X019827Y023612D02*
X020560Y023612D01*
X020370Y023731D02*
X019709Y023731D01*
X019594Y023845D02*
X019624Y023875D01*
X019705Y024070D01*
X019705Y024280D01*
X019624Y024475D01*
X019475Y024624D01*
X019280Y024705D01*
X019070Y024705D01*
X018875Y024624D01*
X018726Y024475D01*
X018645Y024280D01*
X018645Y024070D01*
X018726Y023875D01*
X018875Y023726D01*
X019070Y023645D01*
X019116Y023645D01*
X023435Y019326D01*
X023435Y019144D01*
X023319Y019028D01*
X023255Y018874D01*
X023255Y018226D01*
X023319Y018072D01*
X023437Y017954D01*
X023591Y017890D01*
X023759Y017890D01*
X023913Y017954D01*
X024031Y018072D01*
X024095Y018226D01*
X024095Y018874D01*
X024031Y019028D01*
X023915Y019144D01*
X023915Y019473D01*
X023878Y019561D01*
X019594Y023845D01*
X019599Y023849D02*
X020251Y023849D01*
X020187Y023968D02*
X019663Y023968D01*
X019705Y024086D02*
X020145Y024086D01*
X020145Y024205D02*
X019705Y024205D01*
X019687Y024323D02*
X020163Y024323D01*
X020212Y024442D02*
X019638Y024442D01*
X019539Y024560D02*
X020311Y024560D01*
X020506Y024679D02*
X019344Y024679D01*
X019006Y024679D02*
X017344Y024679D01*
X017280Y024705D02*
X017070Y024705D01*
X016875Y024624D01*
X016726Y024475D01*
X016665Y024329D01*
X016665Y025326D01*
X017009Y025670D01*
X017070Y025645D01*
X017280Y025645D01*
X017475Y025726D01*
X017624Y025875D01*
X017705Y026070D01*
X017705Y026280D01*
X017624Y026475D01*
X017475Y026624D01*
X017280Y026705D01*
X017070Y026705D01*
X016875Y026624D01*
X016726Y026475D01*
X016645Y026280D01*
X016645Y026070D01*
X016670Y026009D01*
X016289Y025628D01*
X016222Y025561D01*
X016185Y025473D01*
X016185Y024329D01*
X016124Y024475D01*
X015975Y024624D01*
X015780Y024705D01*
X015570Y024705D01*
X015375Y024624D01*
X015226Y024475D01*
X015145Y024280D01*
X015145Y024070D01*
X015170Y024009D01*
X014972Y023811D01*
X014935Y023723D01*
X014935Y022144D01*
X014819Y022028D01*
X014755Y021874D01*
X014755Y021226D01*
X014819Y021072D01*
X014937Y020954D01*
X015091Y020890D01*
X015259Y020890D01*
X015413Y020954D01*
X015531Y021072D01*
X015595Y021226D01*
X015595Y021874D01*
X015531Y022028D01*
X015415Y022144D01*
X015415Y023576D01*
X015509Y023670D01*
X015570Y023645D01*
X015780Y023645D01*
X015975Y023726D01*
X016124Y023875D01*
X016185Y024021D01*
X016185Y023399D01*
X015972Y023186D01*
X015935Y023098D01*
X015935Y022144D01*
X015819Y022028D01*
X015755Y021874D01*
X015755Y021226D01*
X015819Y021072D01*
X015937Y020954D01*
X016091Y020890D01*
X016259Y020890D01*
X016413Y020954D01*
X016531Y021072D01*
X016595Y021226D01*
X016595Y021874D01*
X016531Y022028D01*
X016415Y022144D01*
X016415Y022951D01*
X016561Y023097D01*
X016628Y023164D01*
X016665Y023252D01*
X016665Y024021D01*
X016726Y023875D01*
X016875Y023726D01*
X016935Y023701D01*
X016935Y021274D01*
X015972Y020311D01*
X015935Y020223D01*
X015935Y019144D01*
X015819Y019028D01*
X015755Y018874D01*
X015755Y018226D01*
X015819Y018072D01*
X015937Y017954D01*
X016091Y017890D01*
X016259Y017890D01*
X016413Y017954D01*
X016531Y018072D01*
X016595Y018226D01*
X016595Y018874D01*
X016531Y019028D01*
X016415Y019144D01*
X016415Y020076D01*
X017311Y020972D01*
X017378Y021039D01*
X017415Y021127D01*
X017415Y023701D01*
X017475Y023726D01*
X017624Y023875D01*
X017705Y024070D01*
X017705Y024280D01*
X017624Y024475D01*
X017475Y024624D01*
X017280Y024705D01*
X017006Y024679D02*
X016665Y024679D01*
X016665Y024797D02*
X021435Y024797D01*
X021435Y024679D02*
X020844Y024679D01*
X021039Y024560D02*
X021435Y024560D01*
X021435Y024442D02*
X021138Y024442D01*
X021187Y024323D02*
X021435Y024323D01*
X021435Y024205D02*
X021205Y024205D01*
X021205Y024086D02*
X021435Y024086D01*
X021435Y023968D02*
X021163Y023968D01*
X021099Y023849D02*
X021435Y023849D01*
X021435Y023731D02*
X021040Y023731D01*
X021040Y023612D02*
X021435Y023612D01*
X021435Y023494D02*
X021040Y023494D01*
X021040Y023375D02*
X021436Y023375D01*
X021435Y023377D02*
X021472Y023289D01*
X021539Y023222D01*
X023255Y021506D01*
X023255Y021226D01*
X023319Y021072D01*
X023437Y020954D01*
X023591Y020890D01*
X023759Y020890D01*
X023913Y020954D01*
X024031Y021072D01*
X024095Y021226D01*
X024095Y021874D01*
X024031Y022028D01*
X023913Y022146D01*
X023759Y022210D01*
X023591Y022210D01*
X023437Y022146D01*
X023365Y022074D01*
X021915Y023524D01*
X021915Y025223D01*
X021878Y025311D01*
X021180Y026009D01*
X021205Y026070D01*
X021205Y026280D01*
X021124Y026475D01*
X020975Y026624D01*
X020780Y026705D01*
X020570Y026705D01*
X020375Y026624D01*
X020226Y026475D01*
X020145Y026280D01*
X020145Y026070D01*
X020226Y025875D01*
X020375Y025726D01*
X020570Y025645D01*
X020780Y025645D01*
X020841Y025670D01*
X021435Y025076D01*
X021435Y023377D01*
X021504Y023257D02*
X021058Y023257D01*
X021176Y023138D02*
X021623Y023138D01*
X021741Y023020D02*
X021295Y023020D01*
X021413Y022901D02*
X021860Y022901D01*
X021978Y022783D02*
X021532Y022783D01*
X021650Y022664D02*
X022097Y022664D01*
X022215Y022546D02*
X021769Y022546D01*
X021887Y022427D02*
X022334Y022427D01*
X022452Y022309D02*
X022006Y022309D01*
X022124Y022190D02*
X022571Y022190D01*
X022689Y022072D02*
X022243Y022072D01*
X022361Y021953D02*
X022808Y021953D01*
X022926Y021835D02*
X022480Y021835D01*
X022598Y021716D02*
X023045Y021716D01*
X023163Y021598D02*
X022717Y021598D01*
X022835Y021479D02*
X023255Y021479D01*
X023255Y021361D02*
X022954Y021361D01*
X023072Y021242D02*
X023255Y021242D01*
X023298Y021124D02*
X023191Y021124D01*
X023309Y021005D02*
X023386Y021005D01*
X023428Y020887D02*
X024172Y020887D01*
X024291Y021005D02*
X023964Y021005D01*
X024052Y021124D02*
X024298Y021124D01*
X024255Y021242D02*
X024095Y021242D01*
X024095Y021361D02*
X024255Y021361D01*
X024255Y021479D02*
X024095Y021479D01*
X024095Y021598D02*
X024255Y021598D01*
X024255Y021716D02*
X024095Y021716D01*
X024095Y021835D02*
X024255Y021835D01*
X024288Y021953D02*
X024062Y021953D01*
X023987Y022072D02*
X024363Y022072D01*
X024543Y022190D02*
X023807Y022190D01*
X023543Y022190D02*
X023249Y022190D01*
X023131Y022309D02*
X024827Y022309D01*
X024807Y022190D02*
X024946Y022190D01*
X024987Y022072D02*
X025064Y022072D01*
X025062Y021953D02*
X025183Y021953D01*
X025255Y021835D02*
X025095Y021835D01*
X025095Y021716D02*
X025255Y021716D01*
X025255Y021598D02*
X025095Y021598D01*
X025095Y021479D02*
X025255Y021479D01*
X025255Y021361D02*
X025095Y021361D01*
X025095Y021242D02*
X025255Y021242D01*
X025298Y021124D02*
X025052Y021124D01*
X024964Y021005D02*
X025386Y021005D01*
X024851Y020887D02*
X037435Y020887D01*
X037435Y021005D02*
X036964Y021005D01*
X037052Y021124D02*
X037435Y021124D01*
X037435Y021242D02*
X037095Y021242D01*
X037095Y021361D02*
X037435Y021361D01*
X037435Y021479D02*
X037095Y021479D01*
X037429Y020768D02*
X024732Y020768D01*
X024614Y020650D02*
X037310Y020650D01*
X037675Y020675D02*
X037675Y023175D01*
X036675Y024175D01*
X035071Y022190D02*
X034807Y022190D01*
X034987Y022072D02*
X035189Y022072D01*
X035288Y021953D02*
X035062Y021953D01*
X035095Y021835D02*
X035255Y021835D01*
X035255Y021716D02*
X035095Y021716D01*
X035095Y021598D02*
X035255Y021598D01*
X035255Y021479D02*
X035095Y021479D01*
X035095Y021361D02*
X035255Y021361D01*
X035255Y021242D02*
X035095Y021242D01*
X035052Y021124D02*
X035298Y021124D01*
X035386Y021005D02*
X034964Y021005D01*
X035964Y021005D02*
X036386Y021005D01*
X036298Y021124D02*
X036052Y021124D01*
X036095Y021242D02*
X036255Y021242D01*
X036255Y021361D02*
X036095Y021361D01*
X036095Y021479D02*
X036255Y021479D01*
X037675Y020675D02*
X036675Y019675D01*
X036675Y018550D01*
X036282Y018161D02*
X036046Y018161D01*
X036075Y018280D02*
X036255Y018280D01*
X036255Y018398D02*
X036075Y018398D01*
X036075Y018517D02*
X036255Y018517D01*
X036255Y018635D02*
X036075Y018635D01*
X036075Y018570D02*
X036075Y018829D01*
X036060Y018907D01*
X036029Y018979D01*
X035986Y019045D01*
X035930Y019101D01*
X035864Y019144D01*
X035792Y019175D01*
X035714Y019190D01*
X035695Y019190D01*
X035695Y018570D01*
X036075Y018570D01*
X036075Y018754D02*
X036255Y018754D01*
X036255Y018872D02*
X036067Y018872D01*
X036022Y018991D02*
X036303Y018991D01*
X036400Y019109D02*
X035918Y019109D01*
X035695Y019109D02*
X035655Y019109D01*
X035655Y018991D02*
X035695Y018991D01*
X035695Y018872D02*
X035655Y018872D01*
X035655Y018754D02*
X035695Y018754D01*
X035695Y018635D02*
X035655Y018635D01*
X035655Y018517D02*
X035695Y018517D01*
X035695Y018398D02*
X035655Y018398D01*
X035655Y018280D02*
X035695Y018280D01*
X035695Y018161D02*
X035655Y018161D01*
X035655Y018043D02*
X035695Y018043D01*
X035973Y018043D02*
X036348Y018043D01*
X037156Y017569D02*
X031915Y017569D01*
X031915Y017687D02*
X037275Y017687D01*
X037393Y017806D02*
X031915Y017806D01*
X031915Y017924D02*
X032509Y017924D01*
X032348Y018043D02*
X032002Y018043D01*
X032031Y018072D02*
X032095Y018226D01*
X032095Y018874D01*
X032031Y019028D01*
X031913Y019146D01*
X031759Y019210D01*
X031591Y019210D01*
X031437Y019146D01*
X031319Y019028D01*
X031255Y018874D01*
X031255Y018226D01*
X031319Y018072D01*
X031435Y017956D01*
X031435Y017274D01*
X030972Y016811D01*
X030935Y016723D01*
X030935Y016529D01*
X030755Y016349D01*
X030755Y016001D01*
X031001Y015755D01*
X031349Y015755D01*
X031595Y016001D01*
X031595Y016349D01*
X031415Y016529D01*
X031415Y016576D01*
X031811Y016972D01*
X031878Y017039D01*
X031915Y017127D01*
X031915Y017956D01*
X032031Y018072D01*
X032068Y018161D02*
X032282Y018161D01*
X032255Y018280D02*
X032095Y018280D01*
X032095Y018398D02*
X032255Y018398D01*
X032255Y018517D02*
X032095Y018517D01*
X032095Y018635D02*
X032255Y018635D01*
X032255Y018754D02*
X032095Y018754D01*
X032095Y018872D02*
X032255Y018872D01*
X032303Y018991D02*
X032047Y018991D01*
X031950Y019109D02*
X032400Y019109D01*
X032435Y019228D02*
X023915Y019228D01*
X023915Y019346D02*
X032435Y019346D01*
X032435Y019465D02*
X023915Y019465D01*
X023856Y019583D02*
X032428Y019583D01*
X032309Y019702D02*
X023738Y019702D01*
X023619Y019820D02*
X025596Y019820D01*
X025754Y019820D02*
X032191Y019820D01*
X032175Y020175D02*
X032675Y019675D01*
X032675Y018550D01*
X031675Y018550D02*
X031675Y017175D01*
X031175Y016675D01*
X031175Y016175D01*
X031595Y016147D02*
X037045Y016147D01*
X037045Y016265D02*
X031595Y016265D01*
X031560Y016384D02*
X037045Y016384D01*
X037045Y016502D02*
X031442Y016502D01*
X031460Y016621D02*
X037045Y016621D01*
X037045Y016739D02*
X031578Y016739D01*
X031697Y016858D02*
X037045Y016858D01*
X037045Y016976D02*
X031815Y016976D01*
X031901Y017095D02*
X037045Y017095D01*
X037045Y017213D02*
X031915Y017213D01*
X031915Y017332D02*
X037045Y017332D01*
X037076Y017450D02*
X031915Y017450D01*
X031435Y017450D02*
X029987Y017450D01*
X029997Y017460D02*
X030055Y017599D01*
X030055Y018130D01*
X030095Y018226D01*
X030095Y018874D01*
X030031Y019028D01*
X029913Y019146D01*
X029759Y019210D01*
X029591Y019210D01*
X029437Y019146D01*
X029319Y019028D01*
X029255Y018874D01*
X029255Y018226D01*
X029295Y018130D01*
X029295Y017832D01*
X028393Y016930D01*
X028055Y016930D01*
X028055Y018130D01*
X028095Y018226D01*
X028095Y018874D01*
X028031Y019028D01*
X027913Y019146D01*
X027759Y019210D01*
X027591Y019210D01*
X027437Y019146D01*
X027319Y019028D01*
X027255Y018874D01*
X027255Y018226D01*
X027295Y018130D01*
X027295Y016764D01*
X027255Y016724D01*
X027255Y016376D01*
X027501Y016130D01*
X027849Y016130D01*
X027889Y016170D01*
X028393Y016170D01*
X030795Y013768D01*
X030795Y012389D01*
X030755Y012349D01*
X030755Y012001D01*
X031001Y011755D01*
X031349Y011755D01*
X031595Y012001D01*
X031595Y012349D01*
X031555Y012389D01*
X031555Y014001D01*
X031497Y014140D01*
X029087Y016550D01*
X029890Y017353D01*
X029997Y017460D01*
X030042Y017569D02*
X031435Y017569D01*
X031435Y017687D02*
X030055Y017687D01*
X030055Y017806D02*
X031435Y017806D01*
X031435Y017924D02*
X030785Y017924D01*
X030792Y017925D02*
X030864Y017956D01*
X030930Y017999D01*
X030986Y018055D01*
X031029Y018121D01*
X031060Y018193D01*
X031075Y018271D01*
X031075Y018530D01*
X030695Y018530D01*
X030695Y018570D01*
X030655Y018570D01*
X030655Y019190D01*
X030636Y019190D01*
X030558Y019175D01*
X030486Y019144D01*
X030420Y019101D01*
X030364Y019045D01*
X030321Y018979D01*
X030290Y018907D01*
X030275Y018829D01*
X030275Y018570D01*
X030655Y018570D01*
X030655Y018530D01*
X030275Y018530D01*
X030275Y018271D01*
X030290Y018193D01*
X030321Y018121D01*
X030364Y018055D01*
X030420Y017999D01*
X030486Y017956D01*
X030558Y017925D01*
X030636Y017910D01*
X030655Y017910D01*
X030655Y018530D01*
X030695Y018530D01*
X030695Y017910D01*
X030714Y017910D01*
X030792Y017925D01*
X030695Y017924D02*
X030655Y017924D01*
X030565Y017924D02*
X030055Y017924D01*
X030055Y018043D02*
X030377Y018043D01*
X030304Y018161D02*
X030068Y018161D01*
X030095Y018280D02*
X030275Y018280D01*
X030275Y018398D02*
X030095Y018398D01*
X030095Y018517D02*
X030275Y018517D01*
X030275Y018635D02*
X030095Y018635D01*
X030095Y018754D02*
X030275Y018754D01*
X030283Y018872D02*
X030095Y018872D01*
X030047Y018991D02*
X030328Y018991D01*
X030432Y019109D02*
X029950Y019109D01*
X030655Y019109D02*
X030695Y019109D01*
X030695Y019190D02*
X030695Y018570D01*
X031075Y018570D01*
X031075Y018829D01*
X031060Y018907D01*
X031029Y018979D01*
X030986Y019045D01*
X030930Y019101D01*
X030864Y019144D01*
X030792Y019175D01*
X030714Y019190D01*
X030695Y019190D01*
X030695Y018991D02*
X030655Y018991D01*
X030655Y018872D02*
X030695Y018872D01*
X030695Y018754D02*
X030655Y018754D01*
X030655Y018635D02*
X030695Y018635D01*
X030695Y018517D02*
X030655Y018517D01*
X030655Y018398D02*
X030695Y018398D01*
X030695Y018280D02*
X030655Y018280D01*
X030655Y018161D02*
X030695Y018161D01*
X030695Y018043D02*
X030655Y018043D01*
X030973Y018043D02*
X031348Y018043D01*
X031282Y018161D02*
X031046Y018161D01*
X031075Y018280D02*
X031255Y018280D01*
X031255Y018398D02*
X031075Y018398D01*
X031075Y018517D02*
X031255Y018517D01*
X031255Y018635D02*
X031075Y018635D01*
X031075Y018754D02*
X031255Y018754D01*
X031255Y018872D02*
X031067Y018872D01*
X031022Y018991D02*
X031303Y018991D01*
X031400Y019109D02*
X030918Y019109D01*
X029400Y019109D02*
X028950Y019109D01*
X028913Y019146D02*
X028759Y019210D01*
X028591Y019210D01*
X028437Y019146D01*
X028319Y019028D01*
X028255Y018874D01*
X028255Y018226D01*
X028319Y018072D01*
X028437Y017954D01*
X028591Y017890D01*
X028759Y017890D01*
X028913Y017954D01*
X029031Y018072D01*
X029095Y018226D01*
X029095Y018874D01*
X029031Y019028D01*
X028913Y019146D01*
X029047Y018991D02*
X029303Y018991D01*
X029255Y018872D02*
X029095Y018872D01*
X029095Y018754D02*
X029255Y018754D01*
X029255Y018635D02*
X029095Y018635D01*
X029095Y018517D02*
X029255Y018517D01*
X029255Y018398D02*
X029095Y018398D01*
X029095Y018280D02*
X029255Y018280D01*
X029282Y018161D02*
X029068Y018161D01*
X029002Y018043D02*
X029295Y018043D01*
X029295Y017924D02*
X028841Y017924D01*
X028509Y017924D02*
X028055Y017924D01*
X028055Y017806D02*
X029268Y017806D01*
X029150Y017687D02*
X028055Y017687D01*
X028055Y017569D02*
X029031Y017569D01*
X028913Y017450D02*
X028055Y017450D01*
X028055Y017332D02*
X028794Y017332D01*
X028676Y017213D02*
X028055Y017213D01*
X028055Y017095D02*
X028557Y017095D01*
X028439Y016976D02*
X028055Y016976D01*
X027295Y016976D02*
X021845Y016976D01*
X021845Y016876D02*
X021845Y017224D01*
X021599Y017470D01*
X021251Y017470D01*
X021005Y017224D01*
X021005Y017035D01*
X020805Y016885D01*
X020789Y016878D01*
X020767Y016857D01*
X020743Y016838D01*
X020734Y016823D01*
X020722Y016811D01*
X020710Y016783D01*
X020694Y016756D01*
X020692Y016739D01*
X019158Y016739D01*
X019156Y016756D01*
X019140Y016783D01*
X019128Y016811D01*
X019116Y016823D01*
X019107Y016838D01*
X019083Y016857D01*
X019061Y016878D01*
X019045Y016885D01*
X018845Y017035D01*
X018845Y017224D01*
X018599Y017470D01*
X018251Y017470D01*
X018005Y017224D01*
X018005Y016876D01*
X018251Y016630D01*
X018585Y016630D01*
X018685Y016555D01*
X018685Y015747D01*
X018639Y015728D01*
X018497Y015586D01*
X018420Y015400D01*
X018420Y015200D01*
X018439Y015153D01*
X017222Y013936D01*
X017185Y013848D01*
X017185Y013144D01*
X017069Y013028D01*
X017005Y012874D01*
X017005Y012226D01*
X017069Y012072D01*
X017187Y011954D01*
X017341Y011890D01*
X017509Y011890D01*
X017663Y011954D01*
X017781Y012072D01*
X017845Y012226D01*
X017845Y012874D01*
X017781Y013028D01*
X017665Y013144D01*
X017665Y013701D01*
X018778Y014814D01*
X018825Y014795D01*
X019025Y014795D01*
X019211Y014872D01*
X019353Y015014D01*
X019430Y015200D01*
X019430Y015400D01*
X019353Y015586D01*
X019211Y015728D01*
X019165Y015747D01*
X019165Y016645D01*
X019169Y016662D01*
X019165Y016692D01*
X019165Y016723D01*
X019158Y016739D01*
X019165Y016621D02*
X020685Y016621D01*
X020685Y016645D02*
X020685Y015747D01*
X020639Y015728D01*
X020497Y015586D01*
X020420Y015400D01*
X020420Y015200D01*
X020439Y015153D01*
X018496Y013210D01*
X018341Y013210D01*
X018187Y013146D01*
X018069Y013028D01*
X018005Y012874D01*
X018005Y012226D01*
X018069Y012072D01*
X018187Y011954D01*
X018341Y011890D01*
X018509Y011890D01*
X018663Y011954D01*
X018781Y012072D01*
X018845Y012226D01*
X018845Y012874D01*
X018843Y012879D01*
X020778Y014814D01*
X020825Y014795D01*
X021025Y014795D01*
X021211Y014872D01*
X021353Y015014D01*
X021430Y015200D01*
X021430Y015400D01*
X021353Y015586D01*
X021211Y015728D01*
X021165Y015747D01*
X021165Y016555D01*
X021265Y016630D01*
X021599Y016630D01*
X021845Y016876D01*
X021827Y016858D02*
X027295Y016858D01*
X027270Y016739D02*
X021708Y016739D01*
X021845Y017095D02*
X027295Y017095D01*
X027295Y017213D02*
X021845Y017213D01*
X021737Y017332D02*
X027295Y017332D01*
X027295Y017450D02*
X021619Y017450D01*
X021231Y017450D02*
X018619Y017450D01*
X018737Y017332D02*
X021113Y017332D01*
X021005Y017213D02*
X018845Y017213D01*
X018845Y017095D02*
X021005Y017095D01*
X020926Y016976D02*
X018924Y016976D01*
X019082Y016858D02*
X020768Y016858D01*
X020692Y016739D02*
X020685Y016723D01*
X020685Y016692D01*
X020681Y016662D01*
X020685Y016645D01*
X020685Y016502D02*
X019165Y016502D01*
X019165Y016384D02*
X020685Y016384D01*
X020685Y016265D02*
X019165Y016265D01*
X019165Y016147D02*
X020685Y016147D01*
X020685Y016028D02*
X019165Y016028D01*
X019165Y015910D02*
X020685Y015910D01*
X020685Y015791D02*
X019165Y015791D01*
X019267Y015673D02*
X020583Y015673D01*
X020484Y015554D02*
X019366Y015554D01*
X019415Y015436D02*
X020435Y015436D01*
X020420Y015317D02*
X019430Y015317D01*
X019430Y015199D02*
X020420Y015199D01*
X020366Y015080D02*
X019380Y015080D01*
X019301Y014962D02*
X020247Y014962D01*
X020129Y014843D02*
X019141Y014843D01*
X018925Y015300D02*
X017425Y013800D01*
X017425Y012550D01*
X017845Y012592D02*
X018005Y012592D01*
X018005Y012710D02*
X017845Y012710D01*
X017845Y012829D02*
X018005Y012829D01*
X018035Y012947D02*
X017815Y012947D01*
X017743Y013066D02*
X018107Y013066D01*
X018279Y013184D02*
X017665Y013184D01*
X017665Y013303D02*
X018588Y013303D01*
X018707Y013421D02*
X017665Y013421D01*
X017665Y013540D02*
X018825Y013540D01*
X018944Y013658D02*
X017665Y013658D01*
X017741Y013777D02*
X019062Y013777D01*
X019181Y013895D02*
X017859Y013895D01*
X017978Y014014D02*
X019299Y014014D01*
X019418Y014132D02*
X018096Y014132D01*
X018215Y014251D02*
X019536Y014251D01*
X019655Y014369D02*
X018333Y014369D01*
X018452Y014488D02*
X019773Y014488D01*
X019892Y014606D02*
X018570Y014606D01*
X018689Y014725D02*
X020010Y014725D01*
X020333Y014369D02*
X030194Y014369D01*
X030312Y014251D02*
X020215Y014251D01*
X020096Y014132D02*
X030431Y014132D01*
X030549Y014014D02*
X019978Y014014D01*
X019859Y013895D02*
X030668Y013895D01*
X030786Y013777D02*
X019741Y013777D01*
X019622Y013658D02*
X030795Y013658D01*
X030795Y013540D02*
X019504Y013540D01*
X019385Y013421D02*
X030795Y013421D01*
X030795Y013303D02*
X019267Y013303D01*
X019308Y013175D02*
X019236Y013144D01*
X019170Y013101D01*
X019114Y013045D01*
X019071Y012979D01*
X019040Y012907D01*
X019025Y012829D01*
X019025Y012570D01*
X019405Y012570D01*
X019405Y013190D01*
X019386Y013190D01*
X019308Y013175D01*
X019356Y013184D02*
X019148Y013184D01*
X019135Y013066D02*
X019030Y013066D01*
X019057Y012947D02*
X018911Y012947D01*
X018845Y012829D02*
X019025Y012829D01*
X019025Y012710D02*
X018845Y012710D01*
X018845Y012592D02*
X019025Y012592D01*
X019025Y012530D02*
X019025Y012271D01*
X019040Y012193D01*
X019071Y012121D01*
X019114Y012055D01*
X019170Y011999D01*
X019236Y011956D01*
X019308Y011925D01*
X019386Y011910D01*
X019405Y011910D01*
X019405Y012530D01*
X019025Y012530D01*
X019025Y012473D02*
X018845Y012473D01*
X018845Y012355D02*
X019025Y012355D01*
X019032Y012236D02*
X018845Y012236D01*
X018800Y012118D02*
X019073Y012118D01*
X019170Y011999D02*
X018708Y011999D01*
X018142Y011999D02*
X017708Y011999D01*
X017800Y012118D02*
X018050Y012118D01*
X018005Y012236D02*
X017845Y012236D01*
X017845Y012355D02*
X018005Y012355D01*
X018005Y012473D02*
X017845Y012473D01*
X017142Y011999D02*
X016708Y011999D01*
X016663Y011954D02*
X016781Y012072D01*
X016845Y012226D01*
X016845Y012874D01*
X016781Y013028D01*
X016663Y013146D01*
X016509Y013210D01*
X016341Y013210D01*
X016187Y013146D01*
X016069Y013028D01*
X016005Y012874D01*
X016005Y012226D01*
X016069Y012072D01*
X016187Y011954D01*
X016341Y011890D01*
X016509Y011890D01*
X016663Y011954D01*
X016800Y012118D02*
X017050Y012118D01*
X017005Y012236D02*
X016845Y012236D01*
X016845Y012355D02*
X017005Y012355D01*
X017005Y012473D02*
X016845Y012473D01*
X016845Y012592D02*
X017005Y012592D01*
X017005Y012710D02*
X016845Y012710D01*
X016845Y012829D02*
X017005Y012829D01*
X017035Y012947D02*
X016815Y012947D01*
X016743Y013066D02*
X017107Y013066D01*
X017185Y013184D02*
X016571Y013184D01*
X016279Y013184D02*
X015571Y013184D01*
X015509Y013210D02*
X015663Y013146D01*
X015781Y013028D01*
X015845Y012874D01*
X015845Y012226D01*
X015781Y012072D01*
X015663Y011954D01*
X015509Y011890D01*
X015341Y011890D01*
X015187Y011954D01*
X015165Y011976D01*
X015165Y011024D01*
X015274Y010915D01*
X016348Y010915D01*
X016436Y010878D01*
X017178Y010137D01*
X017187Y010146D01*
X017341Y010210D01*
X017509Y010210D01*
X017663Y010146D01*
X017781Y010028D01*
X017845Y009874D01*
X017845Y009226D01*
X017781Y009072D01*
X017663Y008954D01*
X017509Y008890D01*
X017341Y008890D01*
X017187Y008954D01*
X017069Y009072D01*
X017005Y009226D01*
X017005Y009631D01*
X016845Y009791D01*
X016845Y009226D01*
X016781Y009072D01*
X016665Y008956D01*
X016665Y008502D01*
X016628Y008414D01*
X016561Y008347D01*
X016269Y008055D01*
X018545Y008055D01*
X018545Y008893D01*
X018536Y008901D01*
X018509Y008890D01*
X018341Y008890D01*
X018187Y008954D01*
X018069Y009072D01*
X018005Y009226D01*
X018005Y009874D01*
X018069Y010028D01*
X018187Y010146D01*
X018341Y010210D01*
X018509Y010210D01*
X018663Y010146D01*
X018781Y010028D01*
X018845Y009874D01*
X018845Y009667D01*
X018925Y009587D01*
X019005Y009667D01*
X019005Y009874D01*
X019045Y009970D01*
X019045Y010626D01*
X019103Y010765D01*
X020045Y011707D01*
X020045Y012130D01*
X020005Y012226D01*
X020005Y012874D01*
X020069Y013028D01*
X020187Y013146D01*
X020341Y013210D01*
X020509Y013210D01*
X020663Y013146D01*
X020781Y013028D01*
X020845Y012874D01*
X020845Y012226D01*
X020805Y012130D01*
X020805Y011474D01*
X020747Y011335D01*
X020640Y011228D01*
X019805Y010393D01*
X019805Y009970D01*
X019845Y009874D01*
X019845Y009226D01*
X019781Y009072D01*
X019663Y008954D01*
X019509Y008890D01*
X019341Y008890D01*
X019314Y008901D01*
X019305Y008893D01*
X019305Y007889D01*
X019345Y007849D01*
X019345Y007792D01*
X021832Y005305D01*
X032164Y005305D01*
X031353Y006116D01*
X031295Y006256D01*
X031295Y008336D01*
X031255Y008376D01*
X031255Y008724D01*
X031501Y008970D01*
X031849Y008970D01*
X032095Y008724D01*
X032095Y008376D01*
X032055Y008336D01*
X032055Y006489D01*
X033009Y005535D01*
X033203Y005535D01*
X033427Y005442D01*
X033599Y005271D01*
X033691Y005046D01*
X033691Y004804D01*
X033599Y004579D01*
X033427Y004408D01*
X033203Y004315D01*
X032960Y004315D01*
X032736Y004408D01*
X032599Y004545D01*
X021599Y004545D01*
X021460Y004603D01*
X018808Y007255D01*
X018751Y007255D01*
X018711Y007295D01*
X009599Y007295D01*
X009460Y007353D01*
X008960Y007853D01*
X008853Y007960D01*
X008795Y008099D01*
X008795Y009295D01*
X004832Y009295D01*
X002711Y007174D01*
X002711Y005408D01*
X002849Y005271D01*
X002941Y005046D01*
X002941Y004804D01*
X002849Y004579D01*
X002677Y004408D01*
X002453Y004315D01*
X002210Y004315D01*
X001986Y004408D01*
X001814Y004579D01*
X001721Y004804D01*
X001721Y005046D01*
X001814Y005271D01*
X001951Y005408D01*
X001951Y007407D01*
X002009Y007547D01*
X004353Y009890D01*
X004460Y009997D01*
X004599Y010055D01*
X007758Y010055D01*
X006478Y011335D01*
X006420Y011474D01*
X006420Y013480D01*
X006380Y013520D01*
X006305Y013702D01*
X006305Y013898D01*
X006380Y014080D01*
X006520Y014220D01*
X006702Y014295D01*
X006898Y014295D01*
X007080Y014220D01*
X007220Y014080D01*
X007295Y013898D01*
X007295Y013702D01*
X007220Y013520D01*
X007180Y013480D01*
X007180Y011707D01*
X008832Y010055D01*
X008848Y010055D01*
X008892Y010099D01*
X009076Y010175D01*
X009274Y010175D01*
X009379Y010132D01*
X009318Y010193D01*
X009274Y010175D01*
X009076Y010175D01*
X008892Y010251D01*
X008751Y010392D01*
X008675Y010576D01*
X008675Y010774D01*
X008751Y010958D01*
X008892Y011099D01*
X009076Y011175D01*
X009274Y011175D01*
X009458Y011099D01*
X009599Y010958D01*
X009675Y010774D01*
X009675Y010576D01*
X009657Y010532D01*
X009718Y010471D01*
X009675Y010576D01*
X009675Y010774D01*
X009751Y010958D01*
X009892Y011099D01*
X010076Y011175D01*
X010274Y011175D01*
X010458Y011099D01*
X010599Y010958D01*
X010617Y010915D01*
X014685Y010915D01*
X014685Y011976D01*
X014663Y011954D01*
X014509Y011890D01*
X014341Y011890D01*
X014187Y011954D01*
X014069Y012072D01*
X014005Y012226D01*
X014005Y012874D01*
X014069Y013028D01*
X014187Y013146D01*
X014341Y013210D01*
X014509Y013210D01*
X014663Y013146D01*
X014685Y013124D01*
X014685Y015826D01*
X012972Y017539D01*
X012935Y017627D01*
X012935Y017956D01*
X012819Y018072D01*
X012755Y018226D01*
X012755Y018874D01*
X012819Y019028D01*
X012937Y019146D01*
X013091Y019210D01*
X013259Y019210D01*
X013413Y019146D01*
X013531Y019028D01*
X013595Y018874D01*
X013595Y018226D01*
X013531Y018072D01*
X013415Y017956D01*
X013415Y017774D01*
X015061Y016128D01*
X015128Y016061D01*
X015165Y015973D01*
X015165Y013124D01*
X015187Y013146D01*
X015341Y013210D01*
X015509Y013210D01*
X015279Y013184D02*
X015165Y013184D01*
X015165Y013303D02*
X017185Y013303D01*
X017185Y013421D02*
X015165Y013421D01*
X015165Y013540D02*
X017185Y013540D01*
X017185Y013658D02*
X015165Y013658D01*
X015165Y013777D02*
X017185Y013777D01*
X017205Y013895D02*
X015165Y013895D01*
X015165Y014014D02*
X017299Y014014D01*
X017418Y014132D02*
X015165Y014132D01*
X015165Y014251D02*
X017536Y014251D01*
X017655Y014369D02*
X015165Y014369D01*
X015165Y014488D02*
X015672Y014488D01*
X015759Y014400D02*
X015905Y014400D01*
X015905Y014780D01*
X015945Y014780D01*
X015945Y014820D01*
X016325Y014820D01*
X016325Y014966D01*
X016091Y015200D01*
X015945Y015200D01*
X015945Y014820D01*
X015905Y014820D01*
X015905Y015200D01*
X015759Y015200D01*
X015525Y014966D01*
X015525Y014820D01*
X015905Y014820D01*
X015905Y014780D01*
X015525Y014780D01*
X015525Y014634D01*
X015759Y014400D01*
X015905Y014488D02*
X015945Y014488D01*
X015945Y014400D02*
X016091Y014400D01*
X016325Y014634D01*
X016325Y014780D01*
X015945Y014780D01*
X015945Y014400D01*
X015945Y014606D02*
X015905Y014606D01*
X015905Y014725D02*
X015945Y014725D01*
X015945Y014843D02*
X015905Y014843D01*
X015905Y014962D02*
X015945Y014962D01*
X015945Y015080D02*
X015905Y015080D01*
X015905Y015199D02*
X015945Y015199D01*
X016092Y015199D02*
X018420Y015199D01*
X018420Y015317D02*
X015165Y015317D01*
X015165Y015199D02*
X015758Y015199D01*
X015639Y015080D02*
X015165Y015080D01*
X015165Y014962D02*
X015525Y014962D01*
X015525Y014843D02*
X015165Y014843D01*
X015165Y014725D02*
X015525Y014725D01*
X015553Y014606D02*
X015165Y014606D01*
X014685Y014606D02*
X012325Y014606D01*
X012345Y014626D02*
X012345Y014974D01*
X012165Y015154D01*
X012165Y015473D01*
X012128Y015561D01*
X012061Y015628D01*
X009936Y017753D01*
X009848Y017790D01*
X008774Y017790D01*
X008512Y018053D01*
X008531Y018072D01*
X008595Y018226D01*
X008595Y018874D01*
X008531Y019028D01*
X008413Y019146D01*
X008259Y019210D01*
X008091Y019210D01*
X007937Y019146D01*
X007819Y019028D01*
X007755Y018874D01*
X007755Y018226D01*
X007819Y018072D01*
X007937Y017954D01*
X007959Y017945D01*
X007972Y017914D01*
X008472Y017414D01*
X008539Y017347D01*
X008627Y017310D01*
X009701Y017310D01*
X011685Y015326D01*
X011685Y015154D01*
X011505Y014974D01*
X011505Y014626D01*
X011751Y014380D01*
X012099Y014380D01*
X012345Y014626D01*
X012345Y014725D02*
X014685Y014725D01*
X014685Y014843D02*
X012345Y014843D01*
X012345Y014962D02*
X014685Y014962D01*
X014685Y015080D02*
X012239Y015080D01*
X012165Y015199D02*
X014685Y015199D01*
X014685Y015317D02*
X012165Y015317D01*
X012165Y015436D02*
X014685Y015436D01*
X014685Y015554D02*
X012131Y015554D01*
X012017Y015673D02*
X014685Y015673D01*
X014685Y015791D02*
X011898Y015791D01*
X011780Y015910D02*
X014601Y015910D01*
X014483Y016028D02*
X011661Y016028D01*
X011543Y016147D02*
X012322Y016147D01*
X012347Y016121D02*
X012479Y016067D01*
X012621Y016067D01*
X012753Y016121D01*
X012854Y016222D01*
X012908Y016354D01*
X012908Y016496D01*
X012854Y016628D01*
X012753Y016729D01*
X012621Y016783D01*
X012531Y016783D01*
X011415Y017899D01*
X011415Y017956D01*
X011531Y018072D01*
X011595Y018226D01*
X011595Y018874D01*
X011531Y019028D01*
X011413Y019146D01*
X011259Y019210D01*
X011091Y019210D01*
X010937Y019146D01*
X010819Y019028D01*
X010755Y018874D01*
X010755Y018226D01*
X010819Y018072D01*
X010935Y017956D01*
X010935Y017752D01*
X010972Y017664D01*
X012192Y016444D01*
X012192Y016354D01*
X012246Y016222D01*
X012347Y016121D01*
X012229Y016265D02*
X011424Y016265D01*
X011306Y016384D02*
X012192Y016384D01*
X012134Y016502D02*
X011187Y016502D01*
X011069Y016621D02*
X012015Y016621D01*
X011897Y016739D02*
X010950Y016739D01*
X010832Y016858D02*
X011778Y016858D01*
X011660Y016976D02*
X010713Y016976D01*
X010595Y017095D02*
X011541Y017095D01*
X011423Y017213D02*
X010476Y017213D01*
X010358Y017332D02*
X011304Y017332D01*
X011186Y017450D02*
X010239Y017450D01*
X010121Y017569D02*
X011067Y017569D01*
X010962Y017687D02*
X010002Y017687D01*
X009800Y017550D02*
X011925Y015425D01*
X011925Y014800D01*
X011643Y014488D02*
X003429Y014488D01*
X003417Y014459D02*
X003463Y014569D01*
X003494Y014684D01*
X003509Y014802D01*
X002659Y014802D01*
X002659Y013952D01*
X002777Y013968D01*
X002892Y013998D01*
X003003Y014044D01*
X003106Y014104D01*
X003201Y014176D01*
X003285Y014261D01*
X003357Y014355D01*
X003417Y014459D01*
X003365Y014369D02*
X004394Y014369D01*
X004408Y014383D02*
X004299Y014274D01*
X004240Y014132D01*
X003143Y014132D01*
X003275Y014251D02*
X004289Y014251D01*
X004240Y014132D02*
X004240Y014107D01*
X004192Y014127D01*
X003625Y014127D01*
X003483Y014068D01*
X003374Y013959D01*
X003315Y013817D01*
X003315Y013663D01*
X003374Y013521D01*
X003470Y013425D01*
X003374Y013329D01*
X003315Y013187D01*
X003315Y013033D01*
X003374Y012891D01*
X003483Y012782D01*
X003625Y012723D01*
X004192Y012723D01*
X004261Y012752D01*
X004274Y012688D01*
X004302Y012621D01*
X004342Y012561D01*
X004393Y012510D01*
X004453Y012470D01*
X004520Y012442D01*
X004591Y012428D01*
X004618Y012428D01*
X004618Y012786D01*
X004636Y012786D01*
X004636Y012804D01*
X005407Y012804D01*
X005407Y012831D01*
X005393Y012902D01*
X005365Y012969D01*
X005325Y013029D01*
X005274Y013080D01*
X005252Y013094D01*
X005259Y013097D01*
X005368Y013206D01*
X005427Y013348D01*
X005427Y013502D01*
X005368Y013644D01*
X005272Y013740D01*
X005368Y013836D01*
X005427Y013978D01*
X005427Y014132D01*
X005368Y014274D01*
X005259Y014383D01*
X005117Y014442D01*
X004550Y014442D01*
X004408Y014383D01*
X005273Y014369D02*
X014685Y014369D01*
X014685Y014251D02*
X008021Y014251D01*
X007997Y014275D02*
X007820Y014275D01*
X007820Y013820D01*
X008275Y013820D01*
X008275Y013997D01*
X007997Y014275D01*
X007820Y014251D02*
X007780Y014251D01*
X007780Y014275D02*
X007603Y014275D01*
X007325Y013997D01*
X007325Y013820D01*
X007780Y013820D01*
X007780Y014275D01*
X007780Y014132D02*
X007820Y014132D01*
X007820Y014014D02*
X007780Y014014D01*
X007780Y013895D02*
X007820Y013895D01*
X007820Y013820D02*
X007780Y013820D01*
X007780Y013780D01*
X007820Y013780D01*
X007820Y013820D01*
X007820Y013780D02*
X008275Y013780D01*
X008275Y013603D01*
X007997Y013325D01*
X007820Y013325D01*
X007820Y013780D01*
X007820Y013777D02*
X007780Y013777D01*
X007780Y013780D02*
X007780Y013325D01*
X007603Y013325D01*
X007325Y013603D01*
X007325Y013780D01*
X007780Y013780D01*
X007780Y013658D02*
X007820Y013658D01*
X007820Y013540D02*
X007780Y013540D01*
X007780Y013421D02*
X007820Y013421D01*
X008093Y013421D02*
X014685Y013421D01*
X014685Y013303D02*
X007180Y013303D01*
X007180Y013421D02*
X007507Y013421D01*
X007389Y013540D02*
X007228Y013540D01*
X007277Y013658D02*
X007325Y013658D01*
X007325Y013777D02*
X007295Y013777D01*
X007295Y013895D02*
X007325Y013895D01*
X007342Y014014D02*
X007247Y014014D01*
X007168Y014132D02*
X007460Y014132D01*
X007579Y014251D02*
X007006Y014251D01*
X006594Y014251D02*
X005378Y014251D01*
X005427Y014132D02*
X006432Y014132D01*
X006353Y014014D02*
X005427Y014014D01*
X005392Y013895D02*
X006305Y013895D01*
X006305Y013777D02*
X005309Y013777D01*
X005354Y013658D02*
X006323Y013658D01*
X006372Y013540D02*
X005411Y013540D01*
X005427Y013421D02*
X006420Y013421D01*
X006420Y013303D02*
X005408Y013303D01*
X005346Y013184D02*
X006420Y013184D01*
X006420Y013066D02*
X005288Y013066D01*
X005374Y012947D02*
X006420Y012947D01*
X006420Y012829D02*
X005407Y012829D01*
X005407Y012786D02*
X004636Y012786D01*
X004636Y012428D01*
X005076Y012428D01*
X005147Y012442D01*
X005214Y012470D01*
X005274Y012510D01*
X005325Y012561D01*
X005365Y012621D01*
X005393Y012688D01*
X005407Y012759D01*
X005407Y012786D01*
X005397Y012710D02*
X006420Y012710D01*
X006420Y012592D02*
X005345Y012592D01*
X005218Y012473D02*
X006420Y012473D01*
X006420Y012355D02*
X003432Y012355D01*
X003417Y012391D02*
X003357Y012495D01*
X003285Y012589D01*
X003201Y012674D01*
X003106Y012746D01*
X003003Y012806D01*
X002892Y012852D01*
X002777Y012882D01*
X002659Y012898D01*
X002659Y012048D01*
X002539Y012048D01*
X002539Y011928D01*
X001689Y011928D01*
X001705Y011810D01*
X001736Y011695D01*
X001781Y011585D01*
X001841Y011481D01*
X001914Y011387D01*
X001998Y011302D01*
X002093Y011230D01*
X002196Y011170D01*
X002306Y011124D01*
X002421Y011094D01*
X002539Y011078D01*
X002539Y011928D01*
X002659Y011928D01*
X002659Y011078D01*
X002777Y011094D01*
X002892Y011124D01*
X003003Y011170D01*
X003106Y011230D01*
X003201Y011302D01*
X003285Y011387D01*
X003357Y011481D01*
X003417Y011585D01*
X003463Y011695D01*
X003494Y011810D01*
X003509Y011928D01*
X002659Y011928D01*
X002659Y012048D01*
X003509Y012048D01*
X003494Y012166D01*
X003463Y012281D01*
X003417Y012391D01*
X003370Y012473D02*
X004449Y012473D01*
X004618Y012473D02*
X004636Y012473D01*
X004636Y012592D02*
X004618Y012592D01*
X004618Y012710D02*
X004636Y012710D01*
X004618Y012786D02*
X004338Y012786D01*
X004356Y012804D01*
X004618Y012804D01*
X004618Y013038D01*
X004636Y013038D01*
X004636Y012804D01*
X004618Y012804D01*
X004618Y012786D01*
X004618Y012829D02*
X004636Y012829D01*
X004636Y012947D02*
X004618Y012947D01*
X004270Y012710D02*
X003153Y012710D01*
X003283Y012592D02*
X004322Y012592D01*
X003436Y012829D02*
X002948Y012829D01*
X002659Y012829D02*
X002539Y012829D01*
X002539Y012898D02*
X002421Y012882D01*
X002306Y012852D01*
X002196Y012806D01*
X002093Y012746D01*
X001998Y012674D01*
X001914Y012589D01*
X001841Y012495D01*
X001781Y012391D01*
X001736Y012281D01*
X001705Y012166D01*
X001689Y012048D01*
X002539Y012048D01*
X002539Y012898D01*
X002539Y012710D02*
X002659Y012710D01*
X002659Y012592D02*
X002539Y012592D01*
X002539Y012473D02*
X002659Y012473D01*
X002659Y012355D02*
X002539Y012355D01*
X002539Y012236D02*
X002659Y012236D01*
X002659Y012118D02*
X002539Y012118D01*
X002539Y011999D02*
X000835Y011999D01*
X000835Y011881D02*
X001696Y011881D01*
X001718Y011762D02*
X000835Y011762D01*
X000835Y011644D02*
X001757Y011644D01*
X001816Y011525D02*
X000835Y011525D01*
X000835Y011407D02*
X001898Y011407D01*
X002017Y011288D02*
X000835Y011288D01*
X000835Y011170D02*
X002197Y011170D01*
X002539Y011170D02*
X002659Y011170D01*
X002659Y011288D02*
X002539Y011288D01*
X002539Y011407D02*
X002659Y011407D01*
X002659Y011525D02*
X002539Y011525D01*
X002539Y011644D02*
X002659Y011644D01*
X002659Y011762D02*
X002539Y011762D01*
X002539Y011881D02*
X002659Y011881D01*
X002659Y011999D02*
X006420Y011999D01*
X006420Y011881D02*
X003503Y011881D01*
X003481Y011762D02*
X006420Y011762D01*
X006420Y011644D02*
X003442Y011644D01*
X003383Y011525D02*
X006420Y011525D01*
X006448Y011407D02*
X003300Y011407D01*
X003182Y011288D02*
X006525Y011288D01*
X006643Y011170D02*
X003001Y011170D01*
X003500Y012118D02*
X006420Y012118D01*
X006420Y012236D02*
X003475Y012236D01*
X003351Y012947D02*
X000835Y012947D01*
X000835Y012829D02*
X002251Y012829D01*
X002045Y012710D02*
X000835Y012710D01*
X000835Y012592D02*
X001916Y012592D01*
X001828Y012473D02*
X000835Y012473D01*
X000835Y012355D02*
X001766Y012355D01*
X001724Y012236D02*
X000835Y012236D01*
X000835Y012118D02*
X001698Y012118D01*
X000835Y013066D02*
X003315Y013066D01*
X003315Y013184D02*
X000835Y013184D01*
X000835Y013303D02*
X003363Y013303D01*
X003466Y013421D02*
X000835Y013421D01*
X000835Y013540D02*
X003366Y013540D01*
X003317Y013658D02*
X000835Y013658D01*
X000835Y013777D02*
X003315Y013777D01*
X003347Y013895D02*
X000835Y013895D01*
X000835Y014014D02*
X002270Y014014D01*
X002306Y013998D02*
X002421Y013968D01*
X002539Y013952D01*
X002539Y014802D01*
X001689Y014802D01*
X001705Y014684D01*
X001736Y014569D01*
X001781Y014459D01*
X001841Y014355D01*
X001914Y014261D01*
X001998Y014176D01*
X002093Y014104D01*
X002196Y014044D01*
X002306Y013998D01*
X002539Y014014D02*
X002659Y014014D01*
X002659Y014132D02*
X002539Y014132D01*
X002539Y014251D02*
X002659Y014251D01*
X002659Y014369D02*
X002539Y014369D01*
X002539Y014488D02*
X002659Y014488D01*
X002659Y014606D02*
X002539Y014606D01*
X002539Y014725D02*
X002659Y014725D01*
X002659Y014802D02*
X002539Y014802D01*
X002539Y014922D01*
X001689Y014922D01*
X001705Y015040D01*
X001736Y015155D01*
X001781Y015265D01*
X001841Y015369D01*
X001914Y015463D01*
X001998Y015548D01*
X002093Y015620D01*
X002196Y015680D01*
X002306Y015726D01*
X002421Y015756D01*
X002539Y015772D01*
X002539Y014922D01*
X002659Y014922D01*
X002659Y015772D01*
X002777Y015756D01*
X002892Y015726D01*
X003003Y015680D01*
X003106Y015620D01*
X003201Y015548D01*
X003285Y015463D01*
X003357Y015369D01*
X003417Y015265D01*
X003463Y015155D01*
X003494Y015040D01*
X003509Y014922D01*
X002659Y014922D01*
X002659Y014802D01*
X002659Y014843D02*
X011505Y014843D01*
X011505Y014725D02*
X003499Y014725D01*
X003473Y014606D02*
X011525Y014606D01*
X011505Y014962D02*
X003504Y014962D01*
X003483Y015080D02*
X011611Y015080D01*
X011685Y015199D02*
X003445Y015199D01*
X003387Y015317D02*
X011685Y015317D01*
X011575Y015436D02*
X003306Y015436D01*
X003192Y015554D02*
X011457Y015554D01*
X011338Y015673D02*
X003015Y015673D01*
X002659Y015673D02*
X002539Y015673D01*
X002539Y015554D02*
X002659Y015554D01*
X002659Y015436D02*
X002539Y015436D01*
X002539Y015317D02*
X002659Y015317D01*
X002659Y015199D02*
X002539Y015199D01*
X002539Y015080D02*
X002659Y015080D01*
X002659Y014962D02*
X002539Y014962D01*
X002539Y014843D02*
X000835Y014843D01*
X000835Y014725D02*
X001699Y014725D01*
X001726Y014606D02*
X000835Y014606D01*
X000835Y014488D02*
X001769Y014488D01*
X001833Y014369D02*
X000835Y014369D01*
X000835Y014251D02*
X001924Y014251D01*
X002056Y014132D02*
X000835Y014132D01*
X000835Y014962D02*
X001694Y014962D01*
X001716Y015080D02*
X000835Y015080D01*
X000835Y015199D02*
X001754Y015199D01*
X001811Y015317D02*
X000835Y015317D01*
X000835Y015436D02*
X001892Y015436D01*
X002006Y015554D02*
X000835Y015554D01*
X000835Y015673D02*
X002183Y015673D01*
X000835Y015791D02*
X011220Y015791D01*
X011101Y015910D02*
X000835Y015910D01*
X000835Y016028D02*
X010983Y016028D01*
X010864Y016147D02*
X007366Y016147D01*
X007349Y016130D02*
X007595Y016376D01*
X007595Y016724D01*
X007349Y016970D01*
X007001Y016970D01*
X006755Y016724D01*
X006755Y016376D01*
X007001Y016130D01*
X007349Y016130D01*
X007484Y016265D02*
X008894Y016265D01*
X009009Y016150D02*
X008775Y016384D01*
X008775Y016530D01*
X009155Y016530D01*
X009195Y016530D01*
X009195Y016570D01*
X009575Y016570D01*
X009575Y016716D01*
X009341Y016950D01*
X009195Y016950D01*
X009195Y016570D01*
X009155Y016570D01*
X009155Y016950D01*
X009009Y016950D01*
X008775Y016716D01*
X008775Y016570D01*
X009155Y016570D01*
X009155Y016530D01*
X009155Y016150D01*
X009009Y016150D01*
X009155Y016265D02*
X009195Y016265D01*
X009195Y016150D02*
X009341Y016150D01*
X009575Y016384D01*
X009575Y016530D01*
X009195Y016530D01*
X009195Y016150D01*
X009195Y016384D02*
X009155Y016384D01*
X009155Y016502D02*
X009195Y016502D01*
X009195Y016621D02*
X009155Y016621D01*
X009155Y016739D02*
X009195Y016739D01*
X009195Y016858D02*
X009155Y016858D01*
X008917Y016858D02*
X007461Y016858D01*
X007580Y016739D02*
X008798Y016739D01*
X008775Y016621D02*
X007595Y016621D01*
X007595Y016502D02*
X008775Y016502D01*
X008776Y016384D02*
X007595Y016384D01*
X006984Y016147D02*
X000835Y016147D01*
X000835Y016265D02*
X006866Y016265D01*
X006755Y016384D02*
X000835Y016384D01*
X000835Y016502D02*
X006755Y016502D01*
X006755Y016621D02*
X000835Y016621D01*
X000835Y016739D02*
X006770Y016739D01*
X006889Y016858D02*
X000835Y016858D01*
X000835Y016976D02*
X010035Y016976D01*
X010153Y016858D02*
X009433Y016858D01*
X009552Y016739D02*
X010272Y016739D01*
X010390Y016621D02*
X009575Y016621D01*
X009575Y016502D02*
X010509Y016502D01*
X010627Y016384D02*
X009574Y016384D01*
X009456Y016265D02*
X010746Y016265D01*
X009916Y017095D02*
X000835Y017095D01*
X000835Y017213D02*
X009798Y017213D01*
X009800Y017550D02*
X008675Y017550D01*
X008175Y018050D01*
X008175Y018550D01*
X008595Y018517D02*
X008755Y018517D01*
X008755Y018635D02*
X008595Y018635D01*
X008595Y018754D02*
X008755Y018754D01*
X008755Y018872D02*
X008595Y018872D01*
X008547Y018991D02*
X008803Y018991D01*
X008819Y019028D02*
X008755Y018874D01*
X008755Y018226D01*
X008819Y018072D01*
X008937Y017954D01*
X009091Y017890D01*
X009259Y017890D01*
X009413Y017954D01*
X009531Y018072D01*
X009595Y018226D01*
X009595Y018874D01*
X009531Y019028D01*
X009413Y019146D01*
X009259Y019210D01*
X009091Y019210D01*
X008937Y019146D01*
X008819Y019028D01*
X008900Y019109D02*
X008450Y019109D01*
X007900Y019109D02*
X007450Y019109D01*
X007413Y019146D02*
X007259Y019210D01*
X007091Y019210D01*
X006937Y019146D01*
X006819Y019028D01*
X006755Y018874D01*
X006755Y018226D01*
X006819Y018072D01*
X006937Y017954D01*
X007091Y017890D01*
X007259Y017890D01*
X007413Y017954D01*
X007531Y018072D01*
X007595Y018226D01*
X007595Y018874D01*
X007531Y019028D01*
X007413Y019146D01*
X007547Y018991D02*
X007803Y018991D01*
X007755Y018872D02*
X007595Y018872D01*
X007595Y018754D02*
X007755Y018754D01*
X007755Y018635D02*
X007595Y018635D01*
X007595Y018517D02*
X007755Y018517D01*
X007755Y018398D02*
X007595Y018398D01*
X007595Y018280D02*
X007755Y018280D01*
X007782Y018161D02*
X007568Y018161D01*
X007502Y018043D02*
X007848Y018043D01*
X007967Y017924D02*
X007341Y017924D01*
X007009Y017924D02*
X006341Y017924D01*
X006413Y017954D02*
X006259Y017890D01*
X006091Y017890D01*
X005937Y017954D01*
X005819Y018072D01*
X005755Y018226D01*
X005755Y018874D01*
X005819Y019028D01*
X005937Y019146D01*
X006091Y019210D01*
X006259Y019210D01*
X006413Y019146D01*
X006531Y019028D01*
X006595Y018874D01*
X006595Y018226D01*
X006531Y018072D01*
X006413Y017954D01*
X006502Y018043D02*
X006848Y018043D01*
X006782Y018161D02*
X006568Y018161D01*
X006595Y018280D02*
X006755Y018280D01*
X006755Y018398D02*
X006595Y018398D01*
X006595Y018517D02*
X006755Y018517D01*
X006755Y018635D02*
X006595Y018635D01*
X006595Y018754D02*
X006755Y018754D01*
X006755Y018872D02*
X006595Y018872D01*
X006547Y018991D02*
X006803Y018991D01*
X006900Y019109D02*
X006450Y019109D01*
X005900Y019109D02*
X005450Y019109D01*
X005413Y019146D02*
X005259Y019210D01*
X005091Y019210D01*
X004937Y019146D01*
X004819Y019028D01*
X004755Y018874D01*
X004755Y018226D01*
X004819Y018072D01*
X004937Y017954D01*
X005091Y017890D01*
X005259Y017890D01*
X005413Y017954D01*
X005531Y018072D01*
X005595Y018226D01*
X005595Y018874D01*
X005531Y019028D01*
X005413Y019146D01*
X005547Y018991D02*
X005803Y018991D01*
X005755Y018872D02*
X005595Y018872D01*
X005595Y018754D02*
X005755Y018754D01*
X005755Y018635D02*
X005595Y018635D01*
X005595Y018517D02*
X005755Y018517D01*
X005755Y018398D02*
X005595Y018398D01*
X005595Y018280D02*
X005755Y018280D01*
X005782Y018161D02*
X005568Y018161D01*
X005502Y018043D02*
X005848Y018043D01*
X006009Y017924D02*
X005341Y017924D01*
X005009Y017924D02*
X004341Y017924D01*
X004413Y017954D02*
X004259Y017890D01*
X004091Y017890D01*
X003937Y017954D01*
X003819Y018072D01*
X003755Y018226D01*
X003755Y018874D01*
X003819Y019028D01*
X003937Y019146D01*
X004091Y019210D01*
X004259Y019210D01*
X004413Y019146D01*
X004531Y019028D01*
X004595Y018874D01*
X004595Y018226D01*
X004531Y018072D01*
X004413Y017954D01*
X004502Y018043D02*
X004848Y018043D01*
X004782Y018161D02*
X004568Y018161D01*
X004595Y018280D02*
X004755Y018280D01*
X004755Y018398D02*
X004595Y018398D01*
X004595Y018517D02*
X004755Y018517D01*
X004755Y018635D02*
X004595Y018635D01*
X004595Y018754D02*
X004755Y018754D01*
X004755Y018872D02*
X004595Y018872D01*
X004547Y018991D02*
X004803Y018991D01*
X004900Y019109D02*
X004450Y019109D01*
X003900Y019109D02*
X003450Y019109D01*
X003413Y019146D02*
X003259Y019210D01*
X003091Y019210D01*
X002937Y019146D01*
X002819Y019028D01*
X002755Y018874D01*
X002755Y018226D01*
X002819Y018072D01*
X002937Y017954D01*
X003091Y017890D01*
X003259Y017890D01*
X003413Y017954D01*
X003531Y018072D01*
X003595Y018226D01*
X003595Y018874D01*
X003531Y019028D01*
X003413Y019146D01*
X003547Y018991D02*
X003803Y018991D01*
X003755Y018872D02*
X003595Y018872D01*
X003595Y018754D02*
X003755Y018754D01*
X003755Y018635D02*
X003595Y018635D01*
X003595Y018517D02*
X003755Y018517D01*
X003755Y018398D02*
X003595Y018398D01*
X003595Y018280D02*
X003755Y018280D01*
X003782Y018161D02*
X003568Y018161D01*
X003502Y018043D02*
X003848Y018043D01*
X004009Y017924D02*
X003341Y017924D01*
X003009Y017924D02*
X000835Y017924D01*
X000835Y017806D02*
X008080Y017806D01*
X008199Y017687D02*
X000835Y017687D01*
X000835Y017569D02*
X008317Y017569D01*
X008436Y017450D02*
X000835Y017450D01*
X000835Y017332D02*
X008575Y017332D01*
X008759Y017806D02*
X010935Y017806D01*
X010935Y017924D02*
X010285Y017924D01*
X010292Y017925D02*
X010364Y017956D01*
X010430Y017999D01*
X010486Y018055D01*
X010529Y018121D01*
X010560Y018193D01*
X010575Y018271D01*
X010575Y018530D01*
X010195Y018530D01*
X010195Y018570D01*
X010155Y018570D01*
X010155Y019190D01*
X010136Y019190D01*
X010058Y019175D01*
X009986Y019144D01*
X009920Y019101D01*
X009864Y019045D01*
X009821Y018979D01*
X009790Y018907D01*
X009775Y018829D01*
X009775Y018570D01*
X010155Y018570D01*
X010155Y018530D01*
X009775Y018530D01*
X009775Y018271D01*
X009790Y018193D01*
X009821Y018121D01*
X009864Y018055D01*
X009920Y017999D01*
X009986Y017956D01*
X010058Y017925D01*
X010136Y017910D01*
X010155Y017910D01*
X010155Y018530D01*
X010195Y018530D01*
X010195Y017910D01*
X010214Y017910D01*
X010292Y017925D01*
X010195Y017924D02*
X010155Y017924D01*
X010065Y017924D02*
X009341Y017924D01*
X009502Y018043D02*
X009877Y018043D01*
X009804Y018161D02*
X009568Y018161D01*
X009595Y018280D02*
X009775Y018280D01*
X009775Y018398D02*
X009595Y018398D01*
X009595Y018517D02*
X009775Y018517D01*
X009775Y018635D02*
X009595Y018635D01*
X009595Y018754D02*
X009775Y018754D01*
X009783Y018872D02*
X009595Y018872D01*
X009547Y018991D02*
X009828Y018991D01*
X009932Y019109D02*
X009450Y019109D01*
X010155Y019109D02*
X010195Y019109D01*
X010195Y019190D02*
X010195Y018570D01*
X010575Y018570D01*
X010575Y018829D01*
X010560Y018907D01*
X010529Y018979D01*
X010486Y019045D01*
X010430Y019101D01*
X010364Y019144D01*
X010292Y019175D01*
X010214Y019190D01*
X010195Y019190D01*
X010195Y018991D02*
X010155Y018991D01*
X010155Y018872D02*
X010195Y018872D01*
X010195Y018754D02*
X010155Y018754D01*
X010155Y018635D02*
X010195Y018635D01*
X010195Y018517D02*
X010155Y018517D01*
X010155Y018398D02*
X010195Y018398D01*
X010195Y018280D02*
X010155Y018280D01*
X010155Y018161D02*
X010195Y018161D01*
X010195Y018043D02*
X010155Y018043D01*
X010473Y018043D02*
X010848Y018043D01*
X010782Y018161D02*
X010546Y018161D01*
X010575Y018280D02*
X010755Y018280D01*
X010755Y018398D02*
X010575Y018398D01*
X010575Y018517D02*
X010755Y018517D01*
X010755Y018635D02*
X010575Y018635D01*
X010575Y018754D02*
X010755Y018754D01*
X010755Y018872D02*
X010567Y018872D01*
X010522Y018991D02*
X010803Y018991D01*
X010900Y019109D02*
X010418Y019109D01*
X011175Y018550D02*
X011175Y017800D01*
X012550Y016425D01*
X012871Y016265D02*
X014246Y016265D01*
X014364Y016147D02*
X012778Y016147D01*
X012908Y016384D02*
X014127Y016384D01*
X014009Y016502D02*
X012906Y016502D01*
X012857Y016621D02*
X013890Y016621D01*
X013772Y016739D02*
X012728Y016739D01*
X012457Y016858D02*
X013653Y016858D01*
X013535Y016976D02*
X012338Y016976D01*
X012220Y017095D02*
X013416Y017095D01*
X013298Y017213D02*
X012101Y017213D01*
X011983Y017332D02*
X013179Y017332D01*
X013061Y017450D02*
X011864Y017450D01*
X011746Y017569D02*
X012959Y017569D01*
X012935Y017687D02*
X011627Y017687D01*
X011509Y017806D02*
X012935Y017806D01*
X012935Y017924D02*
X012341Y017924D01*
X012413Y017954D02*
X012259Y017890D01*
X012091Y017890D01*
X011937Y017954D01*
X011819Y018072D01*
X011755Y018226D01*
X011755Y018874D01*
X011819Y019028D01*
X011937Y019146D01*
X012091Y019210D01*
X012259Y019210D01*
X012413Y019146D01*
X012531Y019028D01*
X012595Y018874D01*
X012595Y018226D01*
X012531Y018072D01*
X012413Y017954D01*
X012502Y018043D02*
X012848Y018043D01*
X012782Y018161D02*
X012568Y018161D01*
X012595Y018280D02*
X012755Y018280D01*
X012755Y018398D02*
X012595Y018398D01*
X012595Y018517D02*
X012755Y018517D01*
X012755Y018635D02*
X012595Y018635D01*
X012595Y018754D02*
X012755Y018754D01*
X012755Y018872D02*
X012595Y018872D01*
X012547Y018991D02*
X012803Y018991D01*
X012900Y019109D02*
X012450Y019109D01*
X011900Y019109D02*
X011450Y019109D01*
X011547Y018991D02*
X011803Y018991D01*
X011755Y018872D02*
X011595Y018872D01*
X011595Y018754D02*
X011755Y018754D01*
X011755Y018635D02*
X011595Y018635D01*
X011595Y018517D02*
X011755Y018517D01*
X011755Y018398D02*
X011595Y018398D01*
X011595Y018280D02*
X011755Y018280D01*
X011782Y018161D02*
X011568Y018161D01*
X011502Y018043D02*
X011848Y018043D01*
X012009Y017924D02*
X011415Y017924D01*
X013175Y017675D02*
X014925Y015925D01*
X014925Y010925D01*
X015175Y010675D01*
X016300Y010675D01*
X017425Y009550D01*
X017845Y009511D02*
X018005Y009511D01*
X018005Y009629D02*
X017845Y009629D01*
X017845Y009748D02*
X018005Y009748D01*
X018005Y009866D02*
X017845Y009866D01*
X017799Y009985D02*
X018051Y009985D01*
X018144Y010103D02*
X017706Y010103D01*
X017093Y010222D02*
X019045Y010222D01*
X019045Y010340D02*
X016974Y010340D01*
X016856Y010459D02*
X019045Y010459D01*
X019045Y010577D02*
X016737Y010577D01*
X016619Y010696D02*
X019074Y010696D01*
X019152Y010814D02*
X016500Y010814D01*
X015257Y010933D02*
X019270Y010933D01*
X019389Y011051D02*
X015165Y011051D01*
X015165Y011170D02*
X019507Y011170D01*
X019626Y011288D02*
X015165Y011288D01*
X015165Y011407D02*
X019744Y011407D01*
X019863Y011525D02*
X015165Y011525D01*
X015165Y011644D02*
X019981Y011644D01*
X020045Y011762D02*
X015165Y011762D01*
X015165Y011881D02*
X020045Y011881D01*
X020045Y011999D02*
X019680Y011999D01*
X019736Y012055D01*
X019779Y012121D01*
X019810Y012193D01*
X019825Y012271D01*
X019825Y012530D01*
X019445Y012530D01*
X019445Y012570D01*
X019405Y012570D01*
X019405Y012530D01*
X019445Y012530D01*
X019445Y011910D01*
X019464Y011910D01*
X019542Y011925D01*
X019614Y011956D01*
X019680Y011999D01*
X019777Y012118D02*
X020045Y012118D01*
X020005Y012236D02*
X019818Y012236D01*
X019825Y012355D02*
X020005Y012355D01*
X020005Y012473D02*
X019825Y012473D01*
X019825Y012570D02*
X019445Y012570D01*
X019445Y013190D01*
X019464Y013190D01*
X019542Y013175D01*
X019614Y013144D01*
X019680Y013101D01*
X019736Y013045D01*
X019779Y012979D01*
X019810Y012907D01*
X019825Y012829D01*
X019825Y012570D01*
X019825Y012592D02*
X020005Y012592D01*
X020005Y012710D02*
X019825Y012710D01*
X019825Y012829D02*
X020005Y012829D01*
X020035Y012947D02*
X019793Y012947D01*
X019715Y013066D02*
X020107Y013066D01*
X020279Y013184D02*
X019494Y013184D01*
X019445Y013184D02*
X019405Y013184D01*
X019405Y013066D02*
X019445Y013066D01*
X019445Y012947D02*
X019405Y012947D01*
X019405Y012829D02*
X019445Y012829D01*
X019445Y012710D02*
X019405Y012710D01*
X019405Y012592D02*
X019445Y012592D01*
X019445Y012473D02*
X019405Y012473D01*
X019405Y012355D02*
X019445Y012355D01*
X019445Y012236D02*
X019405Y012236D01*
X019405Y012118D02*
X019445Y012118D01*
X019445Y011999D02*
X019405Y011999D01*
X018425Y012550D02*
X018425Y012925D01*
X018550Y012925D01*
X020925Y015300D01*
X020925Y016675D01*
X021425Y017050D01*
X021252Y016621D02*
X027255Y016621D01*
X027255Y016502D02*
X021165Y016502D01*
X021165Y016384D02*
X027255Y016384D01*
X027366Y016265D02*
X021165Y016265D01*
X021165Y016147D02*
X027484Y016147D01*
X027866Y016147D02*
X028416Y016147D01*
X028535Y016028D02*
X021165Y016028D01*
X021165Y015910D02*
X028653Y015910D01*
X028772Y015791D02*
X021165Y015791D01*
X021267Y015673D02*
X028890Y015673D01*
X029009Y015554D02*
X021366Y015554D01*
X021415Y015436D02*
X029127Y015436D01*
X029246Y015317D02*
X021430Y015317D01*
X021430Y015199D02*
X023730Y015199D01*
X023751Y015220D02*
X023505Y014974D01*
X023505Y014626D01*
X023751Y014380D01*
X024099Y014380D01*
X024345Y014626D01*
X024345Y014974D01*
X024099Y015220D01*
X023751Y015220D01*
X023611Y015080D02*
X021380Y015080D01*
X021301Y014962D02*
X023505Y014962D01*
X023505Y014843D02*
X021141Y014843D01*
X020689Y014725D02*
X023505Y014725D01*
X023525Y014606D02*
X020570Y014606D01*
X020452Y014488D02*
X023643Y014488D01*
X024206Y014488D02*
X027672Y014488D01*
X027759Y014400D02*
X027525Y014634D01*
X027525Y014780D01*
X027905Y014780D01*
X027945Y014780D01*
X027945Y014820D01*
X028325Y014820D01*
X028325Y014966D01*
X028091Y015200D01*
X027945Y015200D01*
X027945Y014820D01*
X027905Y014820D01*
X027905Y015200D01*
X027759Y015200D01*
X027525Y014966D01*
X027525Y014820D01*
X027905Y014820D01*
X027905Y014780D01*
X027905Y014400D01*
X027759Y014400D01*
X027905Y014488D02*
X027945Y014488D01*
X027945Y014400D02*
X028091Y014400D01*
X028325Y014634D01*
X028325Y014780D01*
X027945Y014780D01*
X027945Y014400D01*
X027945Y014606D02*
X027905Y014606D01*
X027905Y014725D02*
X027945Y014725D01*
X027945Y014843D02*
X027905Y014843D01*
X027905Y014962D02*
X027945Y014962D01*
X027945Y015080D02*
X027905Y015080D01*
X027905Y015199D02*
X027945Y015199D01*
X028092Y015199D02*
X029364Y015199D01*
X029483Y015080D02*
X028211Y015080D01*
X028325Y014962D02*
X029601Y014962D01*
X029720Y014843D02*
X028325Y014843D01*
X028325Y014725D02*
X029838Y014725D01*
X029957Y014606D02*
X028297Y014606D01*
X028178Y014488D02*
X030075Y014488D01*
X030676Y014962D02*
X036815Y014962D01*
X036829Y015080D02*
X030557Y015080D01*
X030439Y015199D02*
X036878Y015199D01*
X036954Y015317D02*
X030320Y015317D01*
X030202Y015436D02*
X037045Y015436D01*
X037045Y015554D02*
X030083Y015554D01*
X029965Y015673D02*
X037045Y015673D01*
X037045Y015791D02*
X031385Y015791D01*
X031504Y015910D02*
X037045Y015910D01*
X037045Y016028D02*
X031595Y016028D01*
X030965Y015791D02*
X029846Y015791D01*
X029728Y015910D02*
X030846Y015910D01*
X030755Y016028D02*
X029609Y016028D01*
X029655Y016150D02*
X029655Y016530D01*
X029695Y016530D01*
X029695Y016570D01*
X030075Y016570D01*
X030075Y016716D01*
X029841Y016950D01*
X029695Y016950D01*
X029695Y016570D01*
X029655Y016570D01*
X029655Y016950D01*
X029509Y016950D01*
X029275Y016716D01*
X029275Y016570D01*
X029655Y016570D01*
X029655Y016530D01*
X029275Y016530D01*
X029275Y016384D01*
X029509Y016150D01*
X029655Y016150D01*
X029695Y016150D02*
X029841Y016150D01*
X030075Y016384D01*
X030075Y016530D01*
X029695Y016530D01*
X029695Y016150D01*
X029695Y016265D02*
X029655Y016265D01*
X029655Y016384D02*
X029695Y016384D01*
X029695Y016502D02*
X029655Y016502D01*
X029655Y016621D02*
X029695Y016621D01*
X029695Y016739D02*
X029655Y016739D01*
X029655Y016858D02*
X029695Y016858D01*
X029513Y016976D02*
X031137Y016976D01*
X031255Y017095D02*
X029632Y017095D01*
X029750Y017213D02*
X031374Y017213D01*
X031435Y017332D02*
X029869Y017332D01*
X029933Y016858D02*
X031018Y016858D01*
X030942Y016739D02*
X030052Y016739D01*
X030075Y016621D02*
X030935Y016621D01*
X030908Y016502D02*
X030075Y016502D01*
X030074Y016384D02*
X030790Y016384D01*
X030755Y016265D02*
X029956Y016265D01*
X029491Y016147D02*
X030755Y016147D01*
X030794Y014843D02*
X036815Y014843D01*
X036848Y014725D02*
X030913Y014725D01*
X031031Y014606D02*
X036897Y014606D01*
X037000Y014488D02*
X031150Y014488D01*
X031268Y014369D02*
X037173Y014369D01*
X037677Y014369D02*
X039015Y014369D01*
X039015Y014251D02*
X031387Y014251D01*
X031501Y014132D02*
X039015Y014132D01*
X039015Y014014D02*
X031550Y014014D01*
X031555Y013895D02*
X039015Y013895D01*
X039015Y013777D02*
X031555Y013777D01*
X031555Y013658D02*
X039015Y013658D01*
X039015Y013540D02*
X031555Y013540D01*
X031555Y013421D02*
X037058Y013421D01*
X037079Y013442D02*
X036908Y013271D01*
X036815Y013046D01*
X036815Y012804D01*
X036908Y012579D01*
X037079Y012408D01*
X037304Y012315D01*
X037546Y012315D01*
X037771Y012408D01*
X037942Y012579D01*
X038035Y012804D01*
X038035Y013046D01*
X037942Y013271D01*
X037771Y013442D01*
X037546Y013535D01*
X037304Y013535D01*
X037079Y013442D01*
X036940Y013303D02*
X031555Y013303D01*
X031555Y013184D02*
X036872Y013184D01*
X036823Y013066D02*
X031555Y013066D01*
X031555Y012947D02*
X036815Y012947D01*
X036815Y012829D02*
X031555Y012829D01*
X031555Y012710D02*
X036854Y012710D01*
X036903Y012592D02*
X031555Y012592D01*
X031555Y012473D02*
X037014Y012473D01*
X037208Y012355D02*
X031589Y012355D01*
X031595Y012236D02*
X039015Y012236D01*
X039015Y012118D02*
X031595Y012118D01*
X031593Y011999D02*
X039015Y011999D01*
X039015Y011881D02*
X031474Y011881D01*
X031356Y011762D02*
X039015Y011762D01*
X039015Y011644D02*
X028915Y011644D01*
X028915Y011762D02*
X030994Y011762D01*
X030876Y011881D02*
X028915Y011881D01*
X028915Y011999D02*
X030757Y011999D01*
X030755Y012118D02*
X028915Y012118D01*
X028915Y012236D02*
X030755Y012236D01*
X030761Y012355D02*
X028915Y012355D01*
X028915Y012409D02*
X028979Y012472D01*
X029033Y012604D01*
X029033Y012746D01*
X028979Y012878D01*
X028878Y012979D01*
X028746Y013033D01*
X028604Y013033D01*
X028472Y012979D01*
X028371Y012878D01*
X028317Y012746D01*
X028317Y012604D01*
X028371Y012472D01*
X028435Y012409D01*
X028435Y010691D01*
X028371Y010628D01*
X028317Y010496D01*
X028317Y010354D01*
X028371Y010222D01*
X028472Y010121D01*
X028604Y010067D01*
X028746Y010067D01*
X028878Y010121D01*
X028979Y010222D01*
X029033Y010354D01*
X029033Y010496D01*
X028979Y010628D01*
X028915Y010691D01*
X028915Y012409D01*
X028979Y012473D02*
X030795Y012473D01*
X030795Y012592D02*
X029028Y012592D01*
X029033Y012710D02*
X030795Y012710D01*
X030795Y012829D02*
X028999Y012829D01*
X028909Y012947D02*
X030795Y012947D01*
X030795Y013066D02*
X026743Y013066D01*
X026781Y013028D02*
X026663Y013146D01*
X026509Y013210D01*
X026341Y013210D01*
X026187Y013146D01*
X026069Y013028D01*
X026005Y012874D01*
X026005Y012226D01*
X026069Y012072D01*
X026187Y011954D01*
X026341Y011890D01*
X026509Y011890D01*
X026663Y011954D01*
X026672Y011963D01*
X027435Y011201D01*
X027435Y008904D01*
X027255Y008724D01*
X027255Y008376D01*
X027501Y008130D01*
X027849Y008130D01*
X028095Y008376D01*
X028095Y008724D01*
X027915Y008904D01*
X027915Y011348D01*
X027878Y011436D01*
X026845Y012469D01*
X026845Y012874D01*
X026781Y013028D01*
X026815Y012947D02*
X028441Y012947D01*
X028351Y012829D02*
X026845Y012829D01*
X026845Y012710D02*
X028317Y012710D01*
X028322Y012592D02*
X026845Y012592D01*
X026845Y012473D02*
X028371Y012473D01*
X028435Y012355D02*
X026960Y012355D01*
X027078Y012236D02*
X028435Y012236D01*
X028435Y012118D02*
X027197Y012118D01*
X027315Y011999D02*
X028435Y011999D01*
X028435Y011881D02*
X027434Y011881D01*
X027552Y011762D02*
X028435Y011762D01*
X028435Y011644D02*
X027671Y011644D01*
X027789Y011525D02*
X028435Y011525D01*
X028435Y011407D02*
X027891Y011407D01*
X027915Y011288D02*
X028435Y011288D01*
X028435Y011170D02*
X027915Y011170D01*
X027915Y011051D02*
X028435Y011051D01*
X028435Y010933D02*
X027915Y010933D01*
X027915Y010814D02*
X028435Y010814D01*
X028435Y010696D02*
X027915Y010696D01*
X027915Y010577D02*
X028350Y010577D01*
X028317Y010459D02*
X027915Y010459D01*
X027915Y010340D02*
X028323Y010340D01*
X028372Y010222D02*
X027915Y010222D01*
X027915Y010103D02*
X028517Y010103D01*
X028833Y010103D02*
X031725Y010103D01*
X031721Y010112D02*
X031756Y010043D01*
X031801Y009981D01*
X031856Y009926D01*
X031918Y009881D01*
X031987Y009846D01*
X032060Y009822D01*
X032125Y009812D01*
X032125Y010250D01*
X032225Y010250D01*
X032225Y010350D01*
X032663Y010350D01*
X032653Y010415D01*
X032629Y010488D01*
X032594Y010557D01*
X032549Y010619D01*
X032494Y010674D01*
X032432Y010719D01*
X032363Y010754D01*
X032290Y010778D01*
X032225Y010788D01*
X032225Y010350D01*
X032125Y010350D01*
X032125Y010788D01*
X032060Y010778D01*
X031987Y010754D01*
X031918Y010719D01*
X031856Y010674D01*
X031801Y010619D01*
X031756Y010557D01*
X031721Y010488D01*
X031697Y010415D01*
X031687Y010350D01*
X032125Y010350D01*
X032125Y010250D01*
X031687Y010250D01*
X031697Y010185D01*
X031721Y010112D01*
X031691Y010222D02*
X028978Y010222D01*
X029027Y010340D02*
X032125Y010340D01*
X032225Y010340D02*
X035665Y010340D01*
X035665Y010401D02*
X035665Y010199D01*
X035743Y010011D01*
X035886Y009868D01*
X036074Y009790D01*
X036276Y009790D01*
X036464Y009868D01*
X036607Y010011D01*
X036685Y010199D01*
X036685Y010401D01*
X036607Y010589D01*
X036464Y010732D01*
X036276Y010810D01*
X036074Y010810D01*
X035886Y010732D01*
X035743Y010589D01*
X035665Y010401D01*
X035689Y010459D02*
X032639Y010459D01*
X032579Y010577D02*
X035738Y010577D01*
X035849Y010696D02*
X032464Y010696D01*
X032225Y010696D02*
X032125Y010696D01*
X032125Y010577D02*
X032225Y010577D01*
X032225Y010459D02*
X032125Y010459D01*
X032225Y010250D02*
X032663Y010250D01*
X032653Y010185D01*
X032629Y010112D01*
X032594Y010043D01*
X032549Y009981D01*
X032494Y009926D01*
X032432Y009881D01*
X032363Y009846D01*
X032290Y009822D01*
X032225Y009812D01*
X032225Y010250D01*
X032225Y010222D02*
X032125Y010222D01*
X032125Y010103D02*
X032225Y010103D01*
X032225Y009985D02*
X032125Y009985D01*
X032125Y009866D02*
X032225Y009866D01*
X032403Y009866D02*
X035890Y009866D01*
X035769Y009985D02*
X032551Y009985D01*
X032625Y010103D02*
X035705Y010103D01*
X035665Y010222D02*
X032659Y010222D01*
X031886Y010696D02*
X028915Y010696D01*
X028915Y010814D02*
X039015Y010814D01*
X039015Y010696D02*
X036501Y010696D01*
X036612Y010577D02*
X039015Y010577D01*
X039015Y010459D02*
X036661Y010459D01*
X036685Y010340D02*
X039015Y010340D01*
X039015Y010222D02*
X036685Y010222D01*
X036645Y010103D02*
X039015Y010103D01*
X039015Y009985D02*
X036581Y009985D01*
X036460Y009866D02*
X039015Y009866D01*
X039015Y009748D02*
X027915Y009748D01*
X027915Y009866D02*
X031947Y009866D01*
X031799Y009985D02*
X027915Y009985D01*
X028675Y010425D02*
X028675Y012675D01*
X028915Y011525D02*
X039015Y011525D01*
X039015Y011407D02*
X028915Y011407D01*
X028915Y011288D02*
X039015Y011288D01*
X039015Y011170D02*
X028915Y011170D01*
X028915Y011051D02*
X039015Y011051D01*
X039015Y010933D02*
X028915Y010933D01*
X029000Y010577D02*
X031771Y010577D01*
X031711Y010459D02*
X029033Y010459D01*
X027915Y009629D02*
X039015Y009629D01*
X039015Y009511D02*
X027915Y009511D01*
X027915Y009392D02*
X039015Y009392D01*
X039015Y009274D02*
X027915Y009274D01*
X027915Y009155D02*
X039015Y009155D01*
X039015Y009037D02*
X027915Y009037D01*
X027915Y008918D02*
X031449Y008918D01*
X031331Y008800D02*
X028019Y008800D01*
X028095Y008681D02*
X031255Y008681D01*
X031255Y008563D02*
X028095Y008563D01*
X028095Y008444D02*
X031255Y008444D01*
X031295Y008326D02*
X028044Y008326D01*
X027926Y008207D02*
X031295Y008207D01*
X031295Y008089D02*
X025226Y008089D01*
X025107Y008207D02*
X027424Y008207D01*
X027306Y008326D02*
X024989Y008326D01*
X024870Y008444D02*
X027255Y008444D01*
X027255Y008563D02*
X024752Y008563D01*
X024665Y008649D02*
X024665Y008956D01*
X024781Y009072D01*
X024845Y009226D01*
X024845Y009874D01*
X024781Y010028D01*
X024663Y010146D01*
X024509Y010210D01*
X024341Y010210D01*
X024187Y010146D01*
X024069Y010028D01*
X024005Y009874D01*
X024005Y009226D01*
X024069Y009072D01*
X024185Y008956D01*
X024185Y008502D01*
X024222Y008414D01*
X025097Y007539D01*
X025164Y007472D01*
X025252Y007435D01*
X026034Y007435D01*
X026097Y007371D01*
X026229Y007317D01*
X026371Y007317D01*
X026503Y007371D01*
X026604Y007472D01*
X026658Y007604D01*
X026658Y007746D01*
X026604Y007878D01*
X026503Y007979D01*
X026371Y008033D01*
X026229Y008033D01*
X026097Y007979D01*
X026034Y007915D01*
X025399Y007915D01*
X024665Y008649D01*
X024665Y008681D02*
X027255Y008681D01*
X027331Y008800D02*
X024665Y008800D01*
X024665Y008918D02*
X025274Y008918D01*
X025341Y008890D02*
X025509Y008890D01*
X025663Y008954D01*
X025781Y009072D01*
X025845Y009226D01*
X025845Y009874D01*
X025781Y010028D01*
X025663Y010146D01*
X025509Y010210D01*
X025341Y010210D01*
X025187Y010146D01*
X025069Y010028D01*
X025005Y009874D01*
X025005Y009226D01*
X025069Y009072D01*
X025187Y008954D01*
X025341Y008890D01*
X025576Y008918D02*
X026274Y008918D01*
X026341Y008890D02*
X026187Y008954D01*
X026069Y009072D01*
X026005Y009226D01*
X026005Y009874D01*
X026069Y010028D01*
X026187Y010146D01*
X026341Y010210D01*
X026509Y010210D01*
X026663Y010146D01*
X026781Y010028D01*
X026845Y009874D01*
X026845Y009226D01*
X026781Y009072D01*
X026663Y008954D01*
X026509Y008890D01*
X026341Y008890D01*
X026576Y008918D02*
X027435Y008918D01*
X027435Y009037D02*
X026745Y009037D01*
X026815Y009155D02*
X027435Y009155D01*
X027435Y009274D02*
X026845Y009274D01*
X026845Y009392D02*
X027435Y009392D01*
X027435Y009511D02*
X026845Y009511D01*
X026845Y009629D02*
X027435Y009629D01*
X027435Y009748D02*
X026845Y009748D01*
X026845Y009866D02*
X027435Y009866D01*
X027435Y009985D02*
X026799Y009985D01*
X026706Y010103D02*
X027435Y010103D01*
X027435Y010222D02*
X019805Y010222D01*
X019805Y010340D02*
X027435Y010340D01*
X027435Y010459D02*
X019871Y010459D01*
X019989Y010577D02*
X027435Y010577D01*
X027435Y010696D02*
X020108Y010696D01*
X020226Y010814D02*
X027435Y010814D01*
X027435Y010933D02*
X020345Y010933D01*
X020463Y011051D02*
X027435Y011051D01*
X027435Y011170D02*
X020582Y011170D01*
X020700Y011288D02*
X027348Y011288D01*
X027229Y011407D02*
X020777Y011407D01*
X020805Y011525D02*
X027111Y011525D01*
X026992Y011644D02*
X020805Y011644D01*
X020805Y011762D02*
X026874Y011762D01*
X026755Y011881D02*
X020805Y011881D01*
X020805Y011999D02*
X021142Y011999D01*
X021187Y011954D02*
X021341Y011890D01*
X021509Y011890D01*
X021663Y011954D01*
X021781Y012072D01*
X021845Y012226D01*
X021845Y012874D01*
X021781Y013028D01*
X021663Y013146D01*
X021509Y013210D01*
X021341Y013210D01*
X021187Y013146D01*
X021069Y013028D01*
X021005Y012874D01*
X021005Y012226D01*
X021069Y012072D01*
X021187Y011954D01*
X021050Y012118D02*
X020805Y012118D01*
X020845Y012236D02*
X021005Y012236D01*
X021005Y012355D02*
X020845Y012355D01*
X020845Y012473D02*
X021005Y012473D01*
X021005Y012592D02*
X020845Y012592D01*
X020845Y012710D02*
X021005Y012710D01*
X021005Y012829D02*
X020845Y012829D01*
X020815Y012947D02*
X021035Y012947D01*
X021107Y013066D02*
X020743Y013066D01*
X020571Y013184D02*
X021279Y013184D01*
X021571Y013184D02*
X022279Y013184D01*
X022341Y013210D02*
X022187Y013146D01*
X022069Y013028D01*
X022005Y012874D01*
X022005Y012226D01*
X022069Y012072D01*
X022187Y011954D01*
X022341Y011890D01*
X022509Y011890D01*
X022663Y011954D01*
X022781Y012072D01*
X022845Y012226D01*
X022845Y012874D01*
X022781Y013028D01*
X022663Y013146D01*
X022509Y013210D01*
X022341Y013210D01*
X022571Y013184D02*
X023279Y013184D01*
X023341Y013210D02*
X023187Y013146D01*
X023069Y013028D01*
X023005Y012874D01*
X023005Y012226D01*
X023069Y012072D01*
X023187Y011954D01*
X023341Y011890D01*
X023509Y011890D01*
X023663Y011954D01*
X023781Y012072D01*
X023845Y012226D01*
X023845Y012874D01*
X023781Y013028D01*
X023663Y013146D01*
X023509Y013210D01*
X023341Y013210D01*
X023571Y013184D02*
X024279Y013184D01*
X024341Y013210D02*
X024187Y013146D01*
X024069Y013028D01*
X024005Y012874D01*
X024005Y012226D01*
X024069Y012072D01*
X024187Y011954D01*
X024341Y011890D01*
X024509Y011890D01*
X024663Y011954D01*
X024781Y012072D01*
X024845Y012226D01*
X024845Y012874D01*
X024781Y013028D01*
X024663Y013146D01*
X024509Y013210D01*
X024341Y013210D01*
X024571Y013184D02*
X025279Y013184D01*
X025341Y013210D02*
X025187Y013146D01*
X025069Y013028D01*
X025005Y012874D01*
X025005Y012226D01*
X025069Y012072D01*
X025187Y011954D01*
X025341Y011890D01*
X025509Y011890D01*
X025663Y011954D01*
X025781Y012072D01*
X025845Y012226D01*
X025845Y012874D01*
X025781Y013028D01*
X025663Y013146D01*
X025509Y013210D01*
X025341Y013210D01*
X025571Y013184D02*
X026279Y013184D01*
X026107Y013066D02*
X025743Y013066D01*
X025815Y012947D02*
X026035Y012947D01*
X026005Y012829D02*
X025845Y012829D01*
X025845Y012710D02*
X026005Y012710D01*
X026005Y012592D02*
X025845Y012592D01*
X025845Y012473D02*
X026005Y012473D01*
X026005Y012355D02*
X025845Y012355D01*
X025845Y012236D02*
X026005Y012236D01*
X026050Y012118D02*
X025800Y012118D01*
X025708Y011999D02*
X026142Y011999D01*
X026425Y012550D02*
X027675Y011300D01*
X027675Y008550D01*
X026614Y007852D02*
X031295Y007852D01*
X031295Y007970D02*
X026511Y007970D01*
X026658Y007733D02*
X031295Y007733D01*
X031295Y007615D02*
X026658Y007615D01*
X026613Y007496D02*
X031295Y007496D01*
X031295Y007378D02*
X026509Y007378D01*
X026300Y007675D02*
X025300Y007675D01*
X024425Y008550D01*
X024425Y009550D01*
X024845Y009511D02*
X025005Y009511D01*
X025005Y009629D02*
X024845Y009629D01*
X024845Y009748D02*
X025005Y009748D01*
X025005Y009866D02*
X024845Y009866D01*
X024799Y009985D02*
X025051Y009985D01*
X025144Y010103D02*
X024706Y010103D01*
X024144Y010103D02*
X023706Y010103D01*
X023663Y010146D02*
X023509Y010210D01*
X023341Y010210D01*
X023187Y010146D01*
X023069Y010028D01*
X023005Y009874D01*
X023005Y009226D01*
X023069Y009072D01*
X023185Y008956D01*
X023185Y007941D01*
X023121Y007878D01*
X023067Y007746D01*
X023067Y007604D01*
X023121Y007472D01*
X023222Y007371D01*
X023354Y007317D01*
X023496Y007317D01*
X023628Y007371D01*
X023729Y007472D01*
X023783Y007604D01*
X023783Y007746D01*
X023729Y007878D01*
X023665Y007941D01*
X023665Y008956D01*
X023781Y009072D01*
X023845Y009226D01*
X023845Y009874D01*
X023781Y010028D01*
X023663Y010146D01*
X023799Y009985D02*
X024051Y009985D01*
X024005Y009866D02*
X023845Y009866D01*
X023845Y009748D02*
X024005Y009748D01*
X024005Y009629D02*
X023845Y009629D01*
X023845Y009511D02*
X024005Y009511D01*
X024005Y009392D02*
X023845Y009392D01*
X023845Y009274D02*
X024005Y009274D01*
X024035Y009155D02*
X023815Y009155D01*
X023745Y009037D02*
X024105Y009037D01*
X024185Y008918D02*
X023665Y008918D01*
X023665Y008800D02*
X024185Y008800D01*
X024185Y008681D02*
X023665Y008681D01*
X023665Y008563D02*
X024185Y008563D01*
X024209Y008444D02*
X023665Y008444D01*
X023665Y008326D02*
X024310Y008326D01*
X024429Y008207D02*
X023665Y008207D01*
X023665Y008089D02*
X024547Y008089D01*
X024666Y007970D02*
X023665Y007970D01*
X023739Y007852D02*
X024784Y007852D01*
X024903Y007733D02*
X023783Y007733D01*
X023783Y007615D02*
X025021Y007615D01*
X025140Y007496D02*
X023738Y007496D01*
X023634Y007378D02*
X026091Y007378D01*
X026089Y007970D02*
X025344Y007970D01*
X025105Y009037D02*
X024745Y009037D01*
X024815Y009155D02*
X025035Y009155D01*
X025005Y009274D02*
X024845Y009274D01*
X024845Y009392D02*
X025005Y009392D01*
X025745Y009037D02*
X026105Y009037D01*
X026035Y009155D02*
X025815Y009155D01*
X025845Y009274D02*
X026005Y009274D01*
X026005Y009392D02*
X025845Y009392D01*
X025845Y009511D02*
X026005Y009511D01*
X026005Y009629D02*
X025845Y009629D01*
X025845Y009748D02*
X026005Y009748D01*
X026005Y009866D02*
X025845Y009866D01*
X025799Y009985D02*
X026051Y009985D01*
X026144Y010103D02*
X025706Y010103D01*
X023425Y009550D02*
X023425Y007675D01*
X023111Y007852D02*
X021314Y007852D01*
X021325Y007841D02*
X021091Y008075D01*
X020945Y008075D01*
X020945Y007695D01*
X021325Y007695D01*
X021325Y007841D01*
X021325Y007733D02*
X023067Y007733D01*
X023067Y007615D02*
X021325Y007615D01*
X021325Y007655D02*
X021325Y007509D01*
X021091Y007275D01*
X020945Y007275D01*
X020945Y007655D01*
X020945Y007695D01*
X020905Y007695D01*
X020905Y008075D01*
X020759Y008075D01*
X020525Y007841D01*
X020525Y007695D01*
X020905Y007695D01*
X020905Y007655D01*
X020945Y007655D01*
X021325Y007655D01*
X021312Y007496D02*
X023112Y007496D01*
X023216Y007378D02*
X021193Y007378D01*
X020945Y007378D02*
X020905Y007378D01*
X020905Y007275D02*
X020905Y007655D01*
X020525Y007655D01*
X020525Y007509D01*
X020759Y007275D01*
X020905Y007275D01*
X020905Y007496D02*
X020945Y007496D01*
X020945Y007615D02*
X020905Y007615D01*
X020905Y007733D02*
X020945Y007733D01*
X020945Y007852D02*
X020905Y007852D01*
X020905Y007970D02*
X020945Y007970D01*
X021196Y007970D02*
X023185Y007970D01*
X023185Y008089D02*
X019305Y008089D01*
X019305Y008207D02*
X023185Y008207D01*
X023185Y008326D02*
X019305Y008326D01*
X019305Y008444D02*
X023185Y008444D01*
X023185Y008563D02*
X019305Y008563D01*
X019305Y008681D02*
X023185Y008681D01*
X023185Y008800D02*
X019305Y008800D01*
X019576Y008918D02*
X020345Y008918D01*
X020308Y008925D02*
X020386Y008910D01*
X020405Y008910D01*
X020405Y009530D01*
X020025Y009530D01*
X020025Y009271D01*
X020040Y009193D01*
X020071Y009121D01*
X020114Y009055D01*
X020170Y008999D01*
X020236Y008956D01*
X020308Y008925D01*
X020405Y008918D02*
X020445Y008918D01*
X020445Y008910D02*
X020464Y008910D01*
X020542Y008925D01*
X020614Y008956D01*
X020680Y008999D01*
X020736Y009055D01*
X020779Y009121D01*
X020810Y009193D01*
X020825Y009271D01*
X020825Y009530D01*
X020445Y009530D01*
X020445Y009570D01*
X020405Y009570D01*
X020405Y010190D01*
X020386Y010190D01*
X020308Y010175D01*
X020236Y010144D01*
X020170Y010101D01*
X020114Y010045D01*
X020071Y009979D01*
X020040Y009907D01*
X020025Y009829D01*
X020025Y009570D01*
X020405Y009570D01*
X020405Y009530D01*
X020445Y009530D01*
X020445Y008910D01*
X020505Y008918D02*
X021274Y008918D01*
X021341Y008890D02*
X021509Y008890D01*
X021663Y008954D01*
X021781Y009072D01*
X021845Y009226D01*
X021845Y009874D01*
X021781Y010028D01*
X021663Y010146D01*
X021509Y010210D01*
X021341Y010210D01*
X021187Y010146D01*
X021069Y010028D01*
X021005Y009874D01*
X021005Y009226D01*
X021069Y009072D01*
X021187Y008954D01*
X021341Y008890D01*
X021576Y008918D02*
X022274Y008918D01*
X022341Y008890D02*
X022187Y008954D01*
X022069Y009072D01*
X022005Y009226D01*
X022005Y009874D01*
X022069Y010028D01*
X022187Y010146D01*
X022341Y010210D01*
X022509Y010210D01*
X022663Y010146D01*
X022781Y010028D01*
X022845Y009874D01*
X022845Y009226D01*
X022781Y009072D01*
X022663Y008954D01*
X022509Y008890D01*
X022341Y008890D01*
X022576Y008918D02*
X023185Y008918D01*
X023105Y009037D02*
X022745Y009037D01*
X022815Y009155D02*
X023035Y009155D01*
X023005Y009274D02*
X022845Y009274D01*
X022845Y009392D02*
X023005Y009392D01*
X023005Y009511D02*
X022845Y009511D01*
X022845Y009629D02*
X023005Y009629D01*
X023005Y009748D02*
X022845Y009748D01*
X022845Y009866D02*
X023005Y009866D01*
X023051Y009985D02*
X022799Y009985D01*
X022706Y010103D02*
X023144Y010103D01*
X022144Y010103D02*
X021706Y010103D01*
X021799Y009985D02*
X022051Y009985D01*
X022005Y009866D02*
X021845Y009866D01*
X021845Y009748D02*
X022005Y009748D01*
X022005Y009629D02*
X021845Y009629D01*
X021845Y009511D02*
X022005Y009511D01*
X022005Y009392D02*
X021845Y009392D01*
X021845Y009274D02*
X022005Y009274D01*
X022035Y009155D02*
X021815Y009155D01*
X021745Y009037D02*
X022105Y009037D01*
X021105Y009037D02*
X020717Y009037D01*
X020794Y009155D02*
X021035Y009155D01*
X021005Y009274D02*
X020825Y009274D01*
X020825Y009392D02*
X021005Y009392D01*
X021005Y009511D02*
X020825Y009511D01*
X020825Y009570D02*
X020825Y009829D01*
X020810Y009907D01*
X020779Y009979D01*
X020736Y010045D01*
X020680Y010101D01*
X020614Y010144D01*
X020542Y010175D01*
X020464Y010190D01*
X020445Y010190D01*
X020445Y009570D01*
X020825Y009570D01*
X020825Y009629D02*
X021005Y009629D01*
X021005Y009748D02*
X020825Y009748D01*
X020818Y009866D02*
X021005Y009866D01*
X021051Y009985D02*
X020776Y009985D01*
X020677Y010103D02*
X021144Y010103D01*
X020445Y010103D02*
X020405Y010103D01*
X020405Y009985D02*
X020445Y009985D01*
X020445Y009866D02*
X020405Y009866D01*
X020405Y009748D02*
X020445Y009748D01*
X020445Y009629D02*
X020405Y009629D01*
X020405Y009511D02*
X020445Y009511D01*
X020445Y009392D02*
X020405Y009392D01*
X020405Y009274D02*
X020445Y009274D01*
X020445Y009155D02*
X020405Y009155D01*
X020405Y009037D02*
X020445Y009037D01*
X020133Y009037D02*
X019745Y009037D01*
X019815Y009155D02*
X020056Y009155D01*
X020025Y009274D02*
X019845Y009274D01*
X019845Y009392D02*
X020025Y009392D01*
X020025Y009511D02*
X019845Y009511D01*
X019845Y009629D02*
X020025Y009629D01*
X020025Y009748D02*
X019845Y009748D01*
X019845Y009866D02*
X020032Y009866D01*
X020074Y009985D02*
X019805Y009985D01*
X019805Y010103D02*
X020173Y010103D01*
X019045Y010103D02*
X018706Y010103D01*
X018799Y009985D02*
X019045Y009985D01*
X019005Y009866D02*
X018845Y009866D01*
X018845Y009748D02*
X019005Y009748D01*
X018967Y009629D02*
X018883Y009629D01*
X018545Y008800D02*
X016665Y008800D01*
X016665Y008918D02*
X017274Y008918D01*
X017105Y009037D02*
X016745Y009037D01*
X016815Y009155D02*
X017035Y009155D01*
X017005Y009274D02*
X016845Y009274D01*
X016845Y009392D02*
X017005Y009392D01*
X017005Y009511D02*
X016845Y009511D01*
X016845Y009629D02*
X017005Y009629D01*
X016888Y009748D02*
X016845Y009748D01*
X016425Y009550D02*
X016425Y008550D01*
X016050Y008175D01*
X012175Y008175D01*
X010675Y009675D01*
X010175Y009675D01*
X009675Y010175D02*
X009175Y010675D01*
X009675Y010696D02*
X009675Y010696D01*
X009675Y010577D02*
X009675Y010577D01*
X009659Y010814D02*
X009691Y010814D01*
X009740Y010933D02*
X009610Y010933D01*
X009506Y011051D02*
X009844Y011051D01*
X009892Y011251D02*
X010076Y011175D01*
X010274Y011175D01*
X010458Y011251D01*
X010599Y011392D01*
X010675Y011576D01*
X010675Y011774D01*
X010599Y011958D01*
X010458Y012099D01*
X010274Y012175D01*
X010076Y012175D01*
X009892Y012099D01*
X009751Y011958D01*
X009675Y011774D01*
X009675Y011576D01*
X009751Y011392D01*
X009892Y011251D01*
X009855Y011288D02*
X009459Y011288D01*
X009488Y011309D02*
X009541Y011362D01*
X009586Y011423D01*
X009620Y011491D01*
X009643Y011563D01*
X009655Y011637D01*
X009655Y011646D01*
X009204Y011646D01*
X009204Y011704D01*
X009655Y011704D01*
X009655Y011713D01*
X009643Y011787D01*
X009620Y011859D01*
X009586Y011927D01*
X009541Y011988D01*
X009488Y012041D01*
X009427Y012086D01*
X009359Y012120D01*
X009287Y012143D01*
X009213Y012155D01*
X009204Y012155D01*
X009204Y011704D01*
X009146Y011704D01*
X009146Y012155D01*
X009137Y012155D01*
X009063Y012143D01*
X008991Y012120D01*
X008923Y012086D01*
X008862Y012041D01*
X008809Y011988D01*
X008764Y011927D01*
X008730Y011859D01*
X008707Y011787D01*
X008695Y011713D01*
X008695Y011704D01*
X009146Y011704D01*
X009146Y011646D01*
X009204Y011646D01*
X009204Y011195D01*
X009213Y011195D01*
X009287Y011207D01*
X009359Y011230D01*
X009427Y011264D01*
X009488Y011309D01*
X009573Y011407D02*
X009745Y011407D01*
X009696Y011525D02*
X009631Y011525D01*
X009655Y011644D02*
X009675Y011644D01*
X009675Y011762D02*
X009647Y011762D01*
X009609Y011881D02*
X009719Y011881D01*
X009792Y011999D02*
X009530Y011999D01*
X009364Y012118D02*
X009937Y012118D01*
X009204Y012118D02*
X009146Y012118D01*
X009146Y011999D02*
X009204Y011999D01*
X009204Y011881D02*
X009146Y011881D01*
X009146Y011762D02*
X009204Y011762D01*
X009204Y011644D02*
X009146Y011644D01*
X009146Y011646D02*
X009146Y011195D01*
X009137Y011195D01*
X009063Y011207D01*
X008991Y011230D01*
X008923Y011264D01*
X008862Y011309D01*
X008809Y011362D01*
X008764Y011423D01*
X008730Y011491D01*
X008707Y011563D01*
X008695Y011637D01*
X008695Y011646D01*
X009146Y011646D01*
X009146Y011525D02*
X009204Y011525D01*
X009204Y011407D02*
X009146Y011407D01*
X009146Y011288D02*
X009204Y011288D01*
X009288Y011170D02*
X010062Y011170D01*
X010288Y011170D02*
X014685Y011170D01*
X014685Y011288D02*
X010495Y011288D01*
X010605Y011407D02*
X014685Y011407D01*
X014685Y011525D02*
X010654Y011525D01*
X010675Y011644D02*
X014685Y011644D01*
X014685Y011762D02*
X010675Y011762D01*
X010631Y011881D02*
X014685Y011881D01*
X014142Y011999D02*
X013708Y011999D01*
X013663Y011954D02*
X013781Y012072D01*
X013845Y012226D01*
X013845Y012874D01*
X013781Y013028D01*
X013663Y013146D01*
X013509Y013210D01*
X013341Y013210D01*
X013187Y013146D01*
X013069Y013028D01*
X013005Y012874D01*
X013005Y012226D01*
X013069Y012072D01*
X013187Y011954D01*
X013341Y011890D01*
X013509Y011890D01*
X013663Y011954D01*
X013800Y012118D02*
X014050Y012118D01*
X014005Y012236D02*
X013845Y012236D01*
X013845Y012355D02*
X014005Y012355D01*
X014005Y012473D02*
X013845Y012473D01*
X013845Y012592D02*
X014005Y012592D01*
X014005Y012710D02*
X013845Y012710D01*
X013845Y012829D02*
X014005Y012829D01*
X014035Y012947D02*
X013815Y012947D01*
X013743Y013066D02*
X014107Y013066D01*
X014279Y013184D02*
X013571Y013184D01*
X013279Y013184D02*
X007180Y013184D01*
X007180Y013066D02*
X013107Y013066D01*
X013035Y012947D02*
X007180Y012947D01*
X007180Y012829D02*
X013005Y012829D01*
X013005Y012710D02*
X007180Y012710D01*
X007180Y012592D02*
X013005Y012592D01*
X013005Y012473D02*
X007180Y012473D01*
X007180Y012355D02*
X013005Y012355D01*
X013005Y012236D02*
X007180Y012236D01*
X007180Y012118D02*
X008986Y012118D01*
X008820Y011999D02*
X007180Y011999D01*
X007180Y011881D02*
X008741Y011881D01*
X008703Y011762D02*
X007180Y011762D01*
X007244Y011644D02*
X008695Y011644D01*
X008719Y011525D02*
X007362Y011525D01*
X007481Y011407D02*
X008777Y011407D01*
X008891Y011288D02*
X007599Y011288D01*
X007718Y011170D02*
X009062Y011170D01*
X008844Y011051D02*
X007836Y011051D01*
X007955Y010933D02*
X008740Y010933D01*
X008691Y010814D02*
X008073Y010814D01*
X008192Y010696D02*
X008675Y010696D01*
X008675Y010577D02*
X008310Y010577D01*
X008429Y010459D02*
X008723Y010459D01*
X008803Y010340D02*
X008547Y010340D01*
X008666Y010222D02*
X008963Y010222D01*
X008902Y010103D02*
X008784Y010103D01*
X009675Y010175D02*
X012050Y010175D01*
X012175Y010300D01*
X014675Y010300D01*
X015300Y010300D01*
X015425Y010175D01*
X015425Y009550D01*
X016665Y008681D02*
X018545Y008681D01*
X018545Y008563D02*
X016665Y008563D01*
X016641Y008444D02*
X018545Y008444D01*
X018545Y008326D02*
X016540Y008326D01*
X016421Y008207D02*
X018545Y008207D01*
X018545Y008089D02*
X016303Y008089D01*
X017576Y008918D02*
X018274Y008918D01*
X018105Y009037D02*
X017745Y009037D01*
X017815Y009155D02*
X018035Y009155D01*
X018005Y009274D02*
X017845Y009274D01*
X017845Y009392D02*
X018005Y009392D01*
X019305Y007970D02*
X020654Y007970D01*
X020536Y007852D02*
X019342Y007852D01*
X019404Y007733D02*
X020525Y007733D01*
X020525Y007615D02*
X019523Y007615D01*
X019641Y007496D02*
X020538Y007496D01*
X020657Y007378D02*
X019760Y007378D01*
X019878Y007259D02*
X031295Y007259D01*
X031295Y007141D02*
X019997Y007141D01*
X020115Y007022D02*
X031295Y007022D01*
X031295Y006904D02*
X020234Y006904D01*
X020352Y006785D02*
X031295Y006785D01*
X031295Y006667D02*
X020471Y006667D01*
X020589Y006548D02*
X031295Y006548D01*
X031295Y006430D02*
X020708Y006430D01*
X020826Y006311D02*
X031295Y006311D01*
X031321Y006193D02*
X020945Y006193D01*
X021063Y006074D02*
X031395Y006074D01*
X031514Y005956D02*
X021182Y005956D01*
X021300Y005837D02*
X031632Y005837D01*
X031751Y005719D02*
X021419Y005719D01*
X021537Y005600D02*
X031869Y005600D01*
X031988Y005482D02*
X021656Y005482D01*
X021774Y005363D02*
X032106Y005363D01*
X032707Y005837D02*
X039015Y005837D01*
X039015Y005719D02*
X032825Y005719D01*
X032944Y005600D02*
X039015Y005600D01*
X039015Y005482D02*
X037215Y005482D01*
X037245Y005472D02*
X037157Y005500D01*
X037077Y005513D01*
X037077Y004983D01*
X037607Y004983D01*
X037594Y005063D01*
X037565Y005151D01*
X037523Y005234D01*
X037469Y005309D01*
X037403Y005375D01*
X037328Y005430D01*
X037245Y005472D01*
X037077Y005482D02*
X036960Y005482D01*
X036960Y005513D02*
X036880Y005500D01*
X036792Y005472D01*
X036709Y005430D01*
X036634Y005375D01*
X036568Y005309D01*
X036514Y005234D01*
X036472Y005151D01*
X036443Y005063D01*
X036430Y004983D01*
X036960Y004983D01*
X036960Y004867D01*
X036430Y004867D01*
X036443Y004787D01*
X036472Y004699D01*
X036514Y004616D01*
X036568Y004541D01*
X036634Y004475D01*
X036709Y004420D01*
X036792Y004378D01*
X036880Y004350D01*
X036960Y004337D01*
X036960Y004867D01*
X037077Y004867D01*
X037077Y004983D01*
X036960Y004983D01*
X036960Y005513D01*
X036822Y005482D02*
X035300Y005482D01*
X035396Y005442D02*
X035171Y005535D01*
X034929Y005535D01*
X034704Y005442D01*
X034533Y005271D01*
X034440Y005046D01*
X034440Y004804D01*
X034533Y004579D01*
X034704Y004408D01*
X034929Y004315D01*
X035171Y004315D01*
X035396Y004408D01*
X035567Y004579D01*
X035660Y004804D01*
X035660Y005046D01*
X035567Y005271D01*
X035396Y005442D01*
X035475Y005363D02*
X036622Y005363D01*
X036521Y005245D02*
X035578Y005245D01*
X035627Y005126D02*
X036463Y005126D01*
X036434Y005008D02*
X035660Y005008D01*
X035660Y004889D02*
X036960Y004889D01*
X037077Y004889D02*
X039015Y004889D01*
X039015Y004771D02*
X037589Y004771D01*
X037594Y004787D02*
X037607Y004867D01*
X037077Y004867D01*
X037077Y004337D01*
X037157Y004350D01*
X037245Y004378D01*
X037328Y004420D01*
X037403Y004475D01*
X037469Y004541D01*
X037523Y004616D01*
X037565Y004699D01*
X037594Y004787D01*
X037542Y004652D02*
X039015Y004652D01*
X039015Y004534D02*
X037461Y004534D01*
X037317Y004415D02*
X039015Y004415D01*
X039015Y004297D02*
X000835Y004297D01*
X000835Y004415D02*
X001979Y004415D01*
X001860Y004534D02*
X000835Y004534D01*
X000835Y004652D02*
X001784Y004652D01*
X001735Y004771D02*
X000835Y004771D01*
X000835Y004889D02*
X001721Y004889D01*
X001721Y005008D02*
X000835Y005008D01*
X000835Y005126D02*
X001754Y005126D01*
X001804Y005245D02*
X000835Y005245D01*
X000835Y005363D02*
X001907Y005363D01*
X001951Y005482D02*
X000835Y005482D01*
X000835Y005600D02*
X001951Y005600D01*
X001951Y005719D02*
X000835Y005719D01*
X000835Y005837D02*
X001951Y005837D01*
X001951Y005956D02*
X000835Y005956D01*
X000835Y006074D02*
X001951Y006074D01*
X001951Y006193D02*
X000835Y006193D01*
X000835Y006311D02*
X001951Y006311D01*
X001951Y006430D02*
X000835Y006430D01*
X000835Y006548D02*
X001951Y006548D01*
X001951Y006667D02*
X000835Y006667D01*
X000835Y006785D02*
X001951Y006785D01*
X001951Y006904D02*
X000835Y006904D01*
X000835Y007022D02*
X001951Y007022D01*
X001951Y007141D02*
X000835Y007141D01*
X000835Y007259D02*
X001951Y007259D01*
X001951Y007378D02*
X000835Y007378D01*
X000835Y007496D02*
X001988Y007496D01*
X002077Y007615D02*
X000835Y007615D01*
X000835Y007733D02*
X002196Y007733D01*
X002314Y007852D02*
X000835Y007852D01*
X000835Y007970D02*
X002433Y007970D01*
X002551Y008089D02*
X000835Y008089D01*
X000835Y008207D02*
X002670Y008207D01*
X002788Y008326D02*
X000835Y008326D01*
X000835Y008444D02*
X002907Y008444D01*
X003025Y008563D02*
X000835Y008563D01*
X000835Y008681D02*
X003144Y008681D01*
X003262Y008800D02*
X000835Y008800D01*
X000835Y008918D02*
X003381Y008918D01*
X003499Y009037D02*
X000835Y009037D01*
X000835Y009155D02*
X003618Y009155D01*
X003736Y009274D02*
X000835Y009274D01*
X000835Y009392D02*
X003855Y009392D01*
X003973Y009511D02*
X000835Y009511D01*
X000835Y009629D02*
X004092Y009629D01*
X004210Y009748D02*
X000835Y009748D01*
X000835Y009866D02*
X004329Y009866D01*
X004447Y009985D02*
X000835Y009985D01*
X000835Y010103D02*
X007710Y010103D01*
X007591Y010222D02*
X000835Y010222D01*
X000835Y010340D02*
X007473Y010340D01*
X007354Y010459D02*
X000835Y010459D01*
X000835Y010577D02*
X007236Y010577D01*
X007117Y010696D02*
X000835Y010696D01*
X000835Y010814D02*
X006999Y010814D01*
X006880Y010933D02*
X000835Y010933D01*
X000835Y011051D02*
X006762Y011051D01*
X004811Y009274D02*
X008795Y009274D01*
X008795Y009155D02*
X004692Y009155D01*
X004574Y009037D02*
X008795Y009037D01*
X008795Y008918D02*
X004455Y008918D01*
X004337Y008800D02*
X008795Y008800D01*
X008795Y008681D02*
X004218Y008681D01*
X004100Y008563D02*
X008795Y008563D01*
X008795Y008444D02*
X003981Y008444D01*
X003863Y008326D02*
X008795Y008326D01*
X008795Y008207D02*
X003744Y008207D01*
X003626Y008089D02*
X008800Y008089D01*
X008849Y007970D02*
X003507Y007970D01*
X003389Y007852D02*
X008961Y007852D01*
X009080Y007733D02*
X003270Y007733D01*
X003152Y007615D02*
X009198Y007615D01*
X009317Y007496D02*
X003033Y007496D01*
X002915Y007378D02*
X009435Y007378D01*
X006653Y005375D02*
X006578Y005430D01*
X006495Y005472D01*
X006407Y005500D01*
X006327Y005513D01*
X006327Y004983D01*
X006857Y004983D01*
X006844Y005063D01*
X006815Y005151D01*
X006773Y005234D01*
X006719Y005309D01*
X006653Y005375D01*
X006665Y005363D02*
X020700Y005363D01*
X020818Y005245D02*
X006766Y005245D01*
X006824Y005126D02*
X020937Y005126D01*
X021055Y005008D02*
X006853Y005008D01*
X006857Y004867D02*
X006327Y004867D01*
X006327Y004983D01*
X006210Y004983D01*
X006210Y004867D01*
X005680Y004867D01*
X005693Y004787D01*
X005722Y004699D01*
X005764Y004616D01*
X005818Y004541D01*
X005884Y004475D01*
X005959Y004420D01*
X006042Y004378D01*
X006130Y004350D01*
X006210Y004337D01*
X006210Y004867D01*
X006327Y004867D01*
X006327Y004337D01*
X006407Y004350D01*
X006495Y004378D01*
X006578Y004420D01*
X006653Y004475D01*
X006719Y004541D01*
X006773Y004616D01*
X006815Y004699D01*
X006844Y004787D01*
X006857Y004867D01*
X006839Y004771D02*
X021292Y004771D01*
X021174Y004889D02*
X006327Y004889D01*
X006210Y004889D02*
X004910Y004889D01*
X004910Y004804D02*
X004910Y005046D01*
X004817Y005271D01*
X004646Y005442D01*
X004421Y005535D01*
X004179Y005535D01*
X003954Y005442D01*
X003783Y005271D01*
X003690Y005046D01*
X003690Y004804D01*
X003783Y004579D01*
X003954Y004408D01*
X004179Y004315D01*
X004421Y004315D01*
X004646Y004408D01*
X004817Y004579D01*
X004910Y004804D01*
X004896Y004771D02*
X005698Y004771D01*
X005745Y004652D02*
X004847Y004652D01*
X004771Y004534D02*
X005826Y004534D01*
X005970Y004415D02*
X004653Y004415D01*
X004910Y005008D02*
X005684Y005008D01*
X005680Y004983D02*
X006210Y004983D01*
X006210Y005513D01*
X006130Y005500D01*
X006042Y005472D01*
X005959Y005430D01*
X005884Y005375D01*
X005818Y005309D01*
X005764Y005234D01*
X005722Y005151D01*
X005693Y005063D01*
X005680Y004983D01*
X005713Y005126D02*
X004877Y005126D01*
X004828Y005245D02*
X005771Y005245D01*
X005872Y005363D02*
X004725Y005363D01*
X004550Y005482D02*
X006072Y005482D01*
X006210Y005482D02*
X006327Y005482D01*
X006327Y005363D02*
X006210Y005363D01*
X006210Y005245D02*
X006327Y005245D01*
X006327Y005126D02*
X006210Y005126D01*
X006210Y005008D02*
X006327Y005008D01*
X006327Y004771D02*
X006210Y004771D01*
X006210Y004652D02*
X006327Y004652D01*
X006327Y004534D02*
X006210Y004534D01*
X006210Y004415D02*
X006327Y004415D01*
X006567Y004415D02*
X032729Y004415D01*
X032610Y004534D02*
X006711Y004534D01*
X006792Y004652D02*
X021411Y004652D01*
X020581Y005482D02*
X006465Y005482D01*
X004050Y005482D02*
X002711Y005482D01*
X002711Y005600D02*
X020463Y005600D01*
X020344Y005719D02*
X002711Y005719D01*
X002711Y005837D02*
X020226Y005837D01*
X020107Y005956D02*
X002711Y005956D01*
X002711Y006074D02*
X019989Y006074D01*
X019870Y006193D02*
X002711Y006193D01*
X002711Y006311D02*
X019752Y006311D01*
X019633Y006430D02*
X002711Y006430D01*
X002711Y006548D02*
X019515Y006548D01*
X019396Y006667D02*
X002711Y006667D01*
X002711Y006785D02*
X019278Y006785D01*
X019159Y006904D02*
X002711Y006904D01*
X002711Y007022D02*
X019041Y007022D01*
X018922Y007141D02*
X002711Y007141D01*
X002796Y007259D02*
X018747Y007259D01*
X015175Y010675D02*
X010175Y010675D01*
X010506Y011051D02*
X014685Y011051D01*
X014685Y010933D02*
X010610Y010933D01*
X010558Y011999D02*
X013142Y011999D01*
X013050Y012118D02*
X010413Y012118D01*
X008211Y013540D02*
X014685Y013540D01*
X014685Y013658D02*
X008275Y013658D01*
X008275Y013777D02*
X014685Y013777D01*
X014685Y013895D02*
X008275Y013895D01*
X008258Y014014D02*
X014685Y014014D01*
X014685Y014132D02*
X008140Y014132D01*
X012206Y014488D02*
X014685Y014488D01*
X015165Y015436D02*
X018435Y015436D01*
X018484Y015554D02*
X015165Y015554D01*
X015165Y015673D02*
X018583Y015673D01*
X018685Y015791D02*
X015165Y015791D01*
X015165Y015910D02*
X018685Y015910D01*
X018685Y016028D02*
X015142Y016028D01*
X015043Y016147D02*
X018685Y016147D01*
X018685Y016265D02*
X014924Y016265D01*
X014806Y016384D02*
X018685Y016384D01*
X018685Y016502D02*
X014687Y016502D01*
X014569Y016621D02*
X018598Y016621D01*
X018925Y016675D02*
X018425Y017050D01*
X018142Y016739D02*
X014450Y016739D01*
X014332Y016858D02*
X018023Y016858D01*
X018005Y016976D02*
X014213Y016976D01*
X014095Y017095D02*
X018005Y017095D01*
X018005Y017213D02*
X013976Y017213D01*
X013858Y017332D02*
X018113Y017332D01*
X018231Y017450D02*
X013739Y017450D01*
X013621Y017569D02*
X027295Y017569D01*
X027295Y017687D02*
X013502Y017687D01*
X013415Y017806D02*
X027295Y017806D01*
X027295Y017924D02*
X026841Y017924D01*
X026913Y017954D02*
X027031Y018072D01*
X027095Y018226D01*
X027095Y018874D01*
X027031Y019028D01*
X026913Y019146D01*
X026759Y019210D01*
X026591Y019210D01*
X026437Y019146D01*
X026319Y019028D01*
X026255Y018874D01*
X026255Y018226D01*
X026319Y018072D01*
X026437Y017954D01*
X026591Y017890D01*
X026759Y017890D01*
X026913Y017954D01*
X027002Y018043D02*
X027295Y018043D01*
X027282Y018161D02*
X027068Y018161D01*
X027095Y018280D02*
X027255Y018280D01*
X027255Y018398D02*
X027095Y018398D01*
X027095Y018517D02*
X027255Y018517D01*
X027255Y018635D02*
X027095Y018635D01*
X027095Y018754D02*
X027255Y018754D01*
X027255Y018872D02*
X027095Y018872D01*
X027047Y018991D02*
X027303Y018991D01*
X027400Y019109D02*
X026950Y019109D01*
X026400Y019109D02*
X025950Y019109D01*
X025913Y019146D02*
X025759Y019210D01*
X025591Y019210D01*
X025437Y019146D01*
X025319Y019028D01*
X025255Y018874D01*
X025255Y018226D01*
X025319Y018072D01*
X025437Y017954D01*
X025591Y017890D01*
X025759Y017890D01*
X025913Y017954D01*
X026031Y018072D01*
X026095Y018226D01*
X026095Y018874D01*
X026031Y019028D01*
X025913Y019146D01*
X026047Y018991D02*
X026303Y018991D01*
X026255Y018872D02*
X026095Y018872D01*
X026095Y018754D02*
X026255Y018754D01*
X026255Y018635D02*
X026095Y018635D01*
X026095Y018517D02*
X026255Y018517D01*
X026255Y018398D02*
X026095Y018398D01*
X026095Y018280D02*
X026255Y018280D01*
X026282Y018161D02*
X026068Y018161D01*
X026002Y018043D02*
X026348Y018043D01*
X026509Y017924D02*
X025841Y017924D01*
X025509Y017924D02*
X024841Y017924D01*
X024913Y017954D02*
X025031Y018072D01*
X025095Y018226D01*
X025095Y018874D01*
X025031Y019028D01*
X024913Y019146D01*
X024759Y019210D01*
X024591Y019210D01*
X024437Y019146D01*
X024319Y019028D01*
X024255Y018874D01*
X024255Y018226D01*
X024319Y018072D01*
X024437Y017954D01*
X024591Y017890D01*
X024759Y017890D01*
X024913Y017954D01*
X025002Y018043D02*
X025348Y018043D01*
X025282Y018161D02*
X025068Y018161D01*
X025095Y018280D02*
X025255Y018280D01*
X025255Y018398D02*
X025095Y018398D01*
X025095Y018517D02*
X025255Y018517D01*
X025255Y018635D02*
X025095Y018635D01*
X025095Y018754D02*
X025255Y018754D01*
X025255Y018872D02*
X025095Y018872D01*
X025047Y018991D02*
X025303Y018991D01*
X025400Y019109D02*
X024950Y019109D01*
X024400Y019109D02*
X023950Y019109D01*
X024047Y018991D02*
X024303Y018991D01*
X024255Y018872D02*
X024095Y018872D01*
X024095Y018754D02*
X024255Y018754D01*
X024255Y018635D02*
X024095Y018635D01*
X024095Y018517D02*
X024255Y018517D01*
X024255Y018398D02*
X024095Y018398D01*
X024095Y018280D02*
X024255Y018280D01*
X024282Y018161D02*
X024068Y018161D01*
X024002Y018043D02*
X024348Y018043D01*
X024509Y017924D02*
X023841Y017924D01*
X023509Y017924D02*
X016341Y017924D01*
X016502Y018043D02*
X023348Y018043D01*
X023282Y018161D02*
X016568Y018161D01*
X016595Y018280D02*
X023255Y018280D01*
X023255Y018398D02*
X016595Y018398D01*
X016595Y018517D02*
X023255Y018517D01*
X023255Y018635D02*
X016595Y018635D01*
X016595Y018754D02*
X018156Y018754D01*
X018259Y018650D02*
X018025Y018884D01*
X018025Y019030D01*
X018405Y019030D01*
X018405Y019070D01*
X018405Y019450D01*
X018259Y019450D01*
X018025Y019216D01*
X018025Y019070D01*
X018405Y019070D01*
X018445Y019070D01*
X018445Y019450D01*
X018591Y019450D01*
X018825Y019216D01*
X018825Y019070D01*
X018445Y019070D01*
X018445Y019030D01*
X018825Y019030D01*
X018825Y018884D01*
X018591Y018650D01*
X018445Y018650D01*
X018445Y019030D01*
X018405Y019030D01*
X018405Y018650D01*
X018259Y018650D01*
X018405Y018754D02*
X018445Y018754D01*
X018445Y018872D02*
X018405Y018872D01*
X018405Y018991D02*
X018445Y018991D01*
X018445Y019109D02*
X018405Y019109D01*
X018405Y019228D02*
X018445Y019228D01*
X018445Y019346D02*
X018405Y019346D01*
X018155Y019346D02*
X016415Y019346D01*
X016415Y019228D02*
X018037Y019228D01*
X018025Y019109D02*
X016450Y019109D01*
X016547Y018991D02*
X018025Y018991D01*
X018037Y018872D02*
X016595Y018872D01*
X016175Y018550D02*
X016175Y020175D01*
X017175Y021175D01*
X017175Y024175D01*
X017663Y023968D02*
X018687Y023968D01*
X018645Y024086D02*
X017705Y024086D01*
X017705Y024205D02*
X018645Y024205D01*
X018663Y024323D02*
X017687Y024323D01*
X017638Y024442D02*
X018712Y024442D01*
X018811Y024560D02*
X017539Y024560D01*
X017599Y023849D02*
X018751Y023849D01*
X018870Y023731D02*
X017480Y023731D01*
X017415Y023612D02*
X019149Y023612D01*
X019267Y023494D02*
X017415Y023494D01*
X017415Y023375D02*
X019386Y023375D01*
X019504Y023257D02*
X017415Y023257D01*
X017415Y023138D02*
X019623Y023138D01*
X019741Y023020D02*
X017415Y023020D01*
X017415Y022901D02*
X019860Y022901D01*
X019978Y022783D02*
X017415Y022783D01*
X017415Y022664D02*
X020097Y022664D01*
X020215Y022546D02*
X017415Y022546D01*
X017415Y022427D02*
X020334Y022427D01*
X020452Y022309D02*
X017415Y022309D01*
X017415Y022190D02*
X020571Y022190D01*
X020689Y022072D02*
X017415Y022072D01*
X017415Y021953D02*
X020808Y021953D01*
X020926Y021835D02*
X017415Y021835D01*
X017415Y021716D02*
X021045Y021716D01*
X021163Y021598D02*
X017415Y021598D01*
X017415Y021479D02*
X021282Y021479D01*
X021400Y021361D02*
X017415Y021361D01*
X017415Y021242D02*
X021519Y021242D01*
X021637Y021124D02*
X017413Y021124D01*
X017344Y021005D02*
X021756Y021005D01*
X021874Y020887D02*
X017226Y020887D01*
X017107Y020768D02*
X021993Y020768D01*
X022111Y020650D02*
X016989Y020650D01*
X016870Y020531D02*
X022230Y020531D01*
X022348Y020413D02*
X016752Y020413D01*
X016633Y020294D02*
X022467Y020294D01*
X022585Y020176D02*
X016515Y020176D01*
X016415Y020057D02*
X022704Y020057D01*
X022822Y019939D02*
X016415Y019939D01*
X016415Y019820D02*
X022941Y019820D01*
X023059Y019702D02*
X016415Y019702D01*
X016415Y019583D02*
X023178Y019583D01*
X023296Y019465D02*
X016415Y019465D01*
X015935Y019465D02*
X000835Y019465D01*
X000835Y019583D02*
X015935Y019583D01*
X015935Y019702D02*
X000835Y019702D01*
X000835Y019820D02*
X015935Y019820D01*
X015935Y019939D02*
X000835Y019939D01*
X000835Y020057D02*
X015935Y020057D01*
X015935Y020176D02*
X000835Y020176D01*
X000835Y020294D02*
X015965Y020294D01*
X016073Y020413D02*
X000835Y020413D01*
X000835Y020531D02*
X016192Y020531D01*
X016310Y020650D02*
X000835Y020650D01*
X000835Y020768D02*
X016429Y020768D01*
X016547Y020887D02*
X000835Y020887D01*
X000835Y021005D02*
X002886Y021005D01*
X002937Y020954D02*
X002819Y021072D01*
X002755Y021226D01*
X002755Y021874D01*
X002819Y022028D01*
X002937Y022146D01*
X003091Y022210D01*
X003259Y022210D01*
X003413Y022146D01*
X003531Y022028D01*
X003595Y021874D01*
X003595Y021226D01*
X003531Y021072D01*
X003413Y020954D01*
X003259Y020890D01*
X003091Y020890D01*
X002937Y020954D01*
X002798Y021124D02*
X000835Y021124D01*
X000835Y021242D02*
X002755Y021242D01*
X002755Y021361D02*
X000835Y021361D01*
X000835Y021479D02*
X002755Y021479D01*
X002755Y021598D02*
X000835Y021598D01*
X000835Y021716D02*
X002755Y021716D01*
X002755Y021835D02*
X000835Y021835D01*
X000835Y021953D02*
X002788Y021953D01*
X002863Y022072D02*
X000835Y022072D01*
X000835Y022190D02*
X003043Y022190D01*
X003307Y022190D02*
X003571Y022190D01*
X003487Y022072D02*
X003689Y022072D01*
X003794Y021967D02*
X003755Y021874D01*
X003755Y021226D01*
X003819Y021072D01*
X003937Y020954D01*
X004091Y020890D01*
X004259Y020890D01*
X004413Y020954D01*
X004531Y021072D01*
X004595Y021226D01*
X004595Y021874D01*
X004531Y022028D01*
X004413Y022146D01*
X004259Y022210D01*
X004229Y022210D01*
X002665Y023774D01*
X002665Y024021D01*
X002726Y023875D01*
X002875Y023726D01*
X003070Y023645D01*
X003280Y023645D01*
X003341Y023670D01*
X004901Y022110D01*
X004819Y022028D01*
X004755Y021874D01*
X004755Y021226D01*
X004819Y021072D01*
X004937Y020954D01*
X005091Y020890D01*
X005259Y020890D01*
X005413Y020954D01*
X005531Y021072D01*
X005595Y021226D01*
X005595Y021874D01*
X005531Y022028D01*
X005415Y022144D01*
X005415Y022223D01*
X005378Y022311D01*
X003680Y024009D01*
X003705Y024070D01*
X003705Y024280D01*
X003624Y024475D01*
X003475Y024624D01*
X003280Y024705D01*
X003070Y024705D01*
X002875Y024624D01*
X002726Y024475D01*
X002665Y024329D01*
X002665Y025326D01*
X003009Y025670D01*
X003070Y025645D01*
X003280Y025645D01*
X003475Y025726D01*
X003624Y025875D01*
X003705Y026070D01*
X003705Y026280D01*
X003624Y026475D01*
X003475Y026624D01*
X003280Y026705D01*
X003070Y026705D01*
X002875Y026624D01*
X002726Y026475D01*
X002645Y026280D01*
X002645Y026070D01*
X002670Y026009D01*
X002222Y025561D01*
X002185Y025473D01*
X002185Y023627D01*
X002222Y023539D01*
X002289Y023472D01*
X003794Y021967D01*
X003788Y021953D02*
X003562Y021953D01*
X003595Y021835D02*
X003755Y021835D01*
X003755Y021716D02*
X003595Y021716D01*
X003595Y021598D02*
X003755Y021598D01*
X003755Y021479D02*
X003595Y021479D01*
X003595Y021361D02*
X003755Y021361D01*
X003755Y021242D02*
X003595Y021242D01*
X003552Y021124D02*
X003798Y021124D01*
X003886Y021005D02*
X003464Y021005D01*
X004175Y021550D02*
X004175Y021925D01*
X002425Y023675D01*
X002425Y025425D01*
X003175Y026175D01*
X002825Y026575D02*
X000835Y026575D01*
X000835Y026693D02*
X003041Y026693D01*
X003309Y026693D02*
X004795Y026693D01*
X004795Y026575D02*
X003525Y026575D01*
X003632Y026456D02*
X004718Y026456D01*
X004669Y026338D02*
X003681Y026338D01*
X003705Y026219D02*
X004645Y026219D01*
X004645Y026101D02*
X003705Y026101D01*
X003669Y025982D02*
X004681Y025982D01*
X004737Y025864D02*
X003613Y025864D01*
X003495Y025745D02*
X004855Y025745D01*
X005495Y025745D02*
X005906Y025745D01*
X006024Y025864D02*
X005613Y025864D01*
X005669Y025982D02*
X006143Y025982D01*
X006170Y026009D02*
X005722Y025561D01*
X005685Y025473D01*
X005685Y024329D01*
X005624Y024475D01*
X005475Y024624D01*
X005280Y024705D01*
X005070Y024705D01*
X004875Y024624D01*
X004726Y024475D01*
X004645Y024280D01*
X004645Y024070D01*
X004726Y023875D01*
X004875Y023726D01*
X004935Y023701D01*
X004935Y023377D01*
X004972Y023289D01*
X005039Y023222D01*
X005935Y022326D01*
X005935Y022144D01*
X005819Y022028D01*
X005755Y021874D01*
X005755Y021226D01*
X005819Y021072D01*
X005937Y020954D01*
X006091Y020890D01*
X006259Y020890D01*
X006413Y020954D01*
X006531Y021072D01*
X006595Y021226D01*
X006595Y021874D01*
X006531Y022028D01*
X006415Y022144D01*
X006415Y022473D01*
X006378Y022561D01*
X005415Y023524D01*
X005415Y023701D01*
X005475Y023726D01*
X005624Y023875D01*
X005685Y024021D01*
X005685Y023627D01*
X005722Y023539D01*
X005789Y023472D01*
X006935Y022326D01*
X006935Y022144D01*
X006819Y022028D01*
X006755Y021874D01*
X006755Y021226D01*
X006819Y021072D01*
X006937Y020954D01*
X007091Y020890D01*
X007259Y020890D01*
X007413Y020954D01*
X007531Y021072D01*
X007595Y021226D01*
X007595Y021874D01*
X007531Y022028D01*
X007415Y022144D01*
X007415Y022473D01*
X007378Y022561D01*
X006165Y023774D01*
X006165Y024021D01*
X006226Y023875D01*
X006375Y023726D01*
X006570Y023645D01*
X006780Y023645D01*
X006841Y023670D01*
X007935Y022576D01*
X007935Y022144D01*
X007819Y022028D01*
X007755Y021874D01*
X007755Y021226D01*
X007819Y021072D01*
X007937Y020954D01*
X008091Y020890D01*
X008259Y020890D01*
X008413Y020954D01*
X008531Y021072D01*
X008595Y021226D01*
X008595Y021874D01*
X008531Y022028D01*
X008415Y022144D01*
X008415Y022723D01*
X008378Y022811D01*
X007180Y024009D01*
X007205Y024070D01*
X007205Y024280D01*
X007124Y024475D01*
X006975Y024624D01*
X006780Y024705D01*
X006570Y024705D01*
X006375Y024624D01*
X006226Y024475D01*
X006165Y024329D01*
X006165Y025326D01*
X006509Y025670D01*
X006570Y025645D01*
X006780Y025645D01*
X006975Y025726D01*
X007124Y025875D01*
X007205Y026070D01*
X007205Y026280D01*
X007124Y026475D01*
X006975Y026624D01*
X006780Y026705D01*
X006570Y026705D01*
X006375Y026624D01*
X006226Y026475D01*
X006145Y026280D01*
X006145Y026070D01*
X006170Y026009D01*
X006145Y026101D02*
X005705Y026101D01*
X005705Y026219D02*
X006145Y026219D01*
X006169Y026338D02*
X005681Y026338D01*
X005632Y026456D02*
X006218Y026456D01*
X006325Y026575D02*
X005612Y026575D01*
X005730Y026693D02*
X006541Y026693D01*
X006809Y026693D02*
X007620Y026693D01*
X007738Y026575D02*
X007025Y026575D01*
X007132Y026456D02*
X007857Y026456D01*
X007975Y026338D02*
X007181Y026338D01*
X007205Y026219D02*
X008094Y026219D01*
X008145Y026101D02*
X007205Y026101D01*
X007169Y025982D02*
X008181Y025982D01*
X008237Y025864D02*
X007113Y025864D01*
X006995Y025745D02*
X008355Y025745D01*
X008995Y025745D02*
X009406Y025745D01*
X009524Y025864D02*
X009113Y025864D01*
X009169Y025982D02*
X009643Y025982D01*
X009670Y026009D02*
X009222Y025561D01*
X009185Y025473D01*
X009185Y024329D01*
X009124Y024475D01*
X008975Y024624D01*
X008780Y024705D01*
X008570Y024705D01*
X008375Y024624D01*
X008226Y024475D01*
X008145Y024280D01*
X008145Y024070D01*
X008226Y023875D01*
X008375Y023726D01*
X008435Y023701D01*
X008435Y023377D01*
X008472Y023289D01*
X008539Y023222D01*
X008935Y022826D01*
X008935Y022144D01*
X008819Y022028D01*
X008755Y021874D01*
X008755Y021226D01*
X008819Y021072D01*
X008937Y020954D01*
X009091Y020890D01*
X009259Y020890D01*
X009413Y020954D01*
X009531Y021072D01*
X009595Y021226D01*
X009595Y021874D01*
X009531Y022028D01*
X009415Y022144D01*
X009415Y022973D01*
X009378Y023061D01*
X008915Y023524D01*
X008915Y023701D01*
X008975Y023726D01*
X009124Y023875D01*
X009185Y024021D01*
X009185Y023627D01*
X009222Y023539D01*
X009289Y023472D01*
X009935Y022826D01*
X009935Y022144D01*
X009819Y022028D01*
X009755Y021874D01*
X009755Y021226D01*
X009819Y021072D01*
X009937Y020954D01*
X010091Y020890D01*
X010259Y020890D01*
X010413Y020954D01*
X010531Y021072D01*
X010595Y021226D01*
X010595Y021874D01*
X010531Y022028D01*
X010415Y022144D01*
X010415Y022973D01*
X010378Y023061D01*
X009665Y023774D01*
X009665Y024021D01*
X009726Y023875D01*
X009875Y023726D01*
X010070Y023645D01*
X010185Y023645D01*
X010185Y023627D01*
X010222Y023539D01*
X010289Y023472D01*
X010935Y022826D01*
X010935Y022144D01*
X010819Y022028D01*
X010755Y021874D01*
X010755Y021226D01*
X010819Y021072D01*
X010937Y020954D01*
X011091Y020890D01*
X011259Y020890D01*
X011413Y020954D01*
X011531Y021072D01*
X011595Y021226D01*
X011595Y021874D01*
X011531Y022028D01*
X011415Y022144D01*
X011415Y022973D01*
X011378Y023061D01*
X010665Y023774D01*
X010665Y023973D01*
X010705Y024070D01*
X010705Y024280D01*
X010624Y024475D01*
X010475Y024624D01*
X010280Y024705D01*
X010070Y024705D01*
X009875Y024624D01*
X009726Y024475D01*
X009665Y024329D01*
X009665Y025326D01*
X010009Y025670D01*
X010070Y025645D01*
X010280Y025645D01*
X010475Y025726D01*
X010624Y025875D01*
X010705Y026070D01*
X010705Y026280D01*
X010624Y026475D01*
X010475Y026624D01*
X010280Y026705D01*
X010070Y026705D01*
X009875Y026624D01*
X009726Y026475D01*
X009645Y026280D01*
X009645Y026070D01*
X009670Y026009D01*
X009645Y026101D02*
X009205Y026101D01*
X009256Y026219D02*
X009645Y026219D01*
X009669Y026338D02*
X009375Y026338D01*
X009493Y026456D02*
X009718Y026456D01*
X009612Y026575D02*
X009825Y026575D01*
X009730Y026693D02*
X010041Y026693D01*
X010309Y026693D02*
X011120Y026693D01*
X011238Y026575D02*
X010525Y026575D01*
X010632Y026456D02*
X011357Y026456D01*
X011475Y026338D02*
X010681Y026338D01*
X010705Y026219D02*
X011594Y026219D01*
X011645Y026101D02*
X010705Y026101D01*
X010669Y025982D02*
X011681Y025982D01*
X011737Y025864D02*
X010613Y025864D01*
X010495Y025745D02*
X011855Y025745D01*
X012495Y025745D02*
X012906Y025745D01*
X013024Y025864D02*
X012613Y025864D01*
X012669Y025982D02*
X013143Y025982D01*
X013170Y026009D02*
X013145Y026070D01*
X013145Y026280D01*
X013226Y026475D01*
X013375Y026624D01*
X013570Y026705D01*
X013780Y026705D01*
X013975Y026624D01*
X014124Y026475D01*
X014205Y026280D01*
X014205Y026070D01*
X014124Y025875D01*
X013975Y025726D01*
X013780Y025645D01*
X013570Y025645D01*
X013509Y025670D01*
X013165Y025326D01*
X013165Y024329D01*
X013226Y024475D01*
X013375Y024624D01*
X013570Y024705D01*
X013780Y024705D01*
X013975Y024624D01*
X014124Y024475D01*
X014205Y024280D01*
X014205Y024070D01*
X014180Y024009D01*
X014378Y023811D01*
X014415Y023723D01*
X014415Y022144D01*
X014531Y022028D01*
X014595Y021874D01*
X014595Y021226D01*
X014531Y021072D01*
X014413Y020954D01*
X014259Y020890D01*
X014091Y020890D01*
X013937Y020954D01*
X013819Y021072D01*
X013755Y021226D01*
X013755Y021874D01*
X013819Y022028D01*
X013935Y022144D01*
X013935Y023576D01*
X013841Y023670D01*
X013780Y023645D01*
X013570Y023645D01*
X013375Y023726D01*
X013226Y023875D01*
X013165Y024021D01*
X013165Y023774D01*
X013378Y023561D01*
X013415Y023473D01*
X013415Y022144D01*
X013531Y022028D01*
X013595Y021874D01*
X013595Y021226D01*
X013531Y021072D01*
X013413Y020954D01*
X013259Y020890D01*
X013091Y020890D01*
X012937Y020954D01*
X012819Y021072D01*
X012755Y021226D01*
X012755Y021874D01*
X012819Y022028D01*
X012935Y022144D01*
X012935Y023326D01*
X012789Y023472D01*
X012722Y023539D01*
X012685Y023627D01*
X012685Y024021D01*
X012624Y023875D01*
X012475Y023726D01*
X012415Y023701D01*
X012415Y022144D01*
X012531Y022028D01*
X012595Y021874D01*
X012595Y021226D01*
X012531Y021072D01*
X012413Y020954D01*
X012259Y020890D01*
X012091Y020890D01*
X011937Y020954D01*
X011819Y021072D01*
X011755Y021226D01*
X011755Y021874D01*
X011819Y022028D01*
X011935Y022144D01*
X011935Y023701D01*
X011875Y023726D01*
X011726Y023875D01*
X011645Y024070D01*
X011645Y024280D01*
X011726Y024475D01*
X011875Y024624D01*
X012070Y024705D01*
X012280Y024705D01*
X012475Y024624D01*
X012624Y024475D01*
X012685Y024329D01*
X012685Y025473D01*
X012722Y025561D01*
X013170Y026009D01*
X013145Y026101D02*
X012705Y026101D01*
X012756Y026219D02*
X013145Y026219D01*
X013169Y026338D02*
X012875Y026338D01*
X012993Y026456D02*
X013218Y026456D01*
X013112Y026575D02*
X013325Y026575D01*
X013230Y026693D02*
X013541Y026693D01*
X013809Y026693D02*
X014620Y026693D01*
X014738Y026575D02*
X014025Y026575D01*
X014132Y026456D02*
X014857Y026456D01*
X014975Y026338D02*
X014181Y026338D01*
X014205Y026219D02*
X015094Y026219D01*
X015145Y026101D02*
X014205Y026101D01*
X014169Y025982D02*
X015181Y025982D01*
X015237Y025864D02*
X014113Y025864D01*
X013995Y025745D02*
X015355Y025745D01*
X015995Y025745D02*
X016406Y025745D01*
X016524Y025864D02*
X016113Y025864D01*
X016169Y025982D02*
X016643Y025982D01*
X016645Y026101D02*
X016205Y026101D01*
X016256Y026219D02*
X016645Y026219D01*
X016669Y026338D02*
X016375Y026338D01*
X016493Y026456D02*
X016718Y026456D01*
X016612Y026575D02*
X016825Y026575D01*
X016730Y026693D02*
X017041Y026693D01*
X017309Y026693D02*
X018120Y026693D01*
X018238Y026575D02*
X017525Y026575D01*
X017632Y026456D02*
X018357Y026456D01*
X018475Y026338D02*
X017681Y026338D01*
X017705Y026219D02*
X018594Y026219D01*
X018645Y026101D02*
X017705Y026101D01*
X017669Y025982D02*
X018681Y025982D01*
X018737Y025864D02*
X017613Y025864D01*
X017495Y025745D02*
X018855Y025745D01*
X019495Y025745D02*
X020355Y025745D01*
X020237Y025864D02*
X019613Y025864D01*
X019669Y025982D02*
X020181Y025982D01*
X020145Y026101D02*
X019705Y026101D01*
X019756Y026219D02*
X020145Y026219D01*
X020169Y026338D02*
X019875Y026338D01*
X019993Y026456D02*
X020218Y026456D01*
X020112Y026575D02*
X020325Y026575D01*
X020230Y026693D02*
X020541Y026693D01*
X020809Y026693D02*
X021620Y026693D01*
X021738Y026575D02*
X021025Y026575D01*
X021132Y026456D02*
X021857Y026456D01*
X021975Y026338D02*
X021181Y026338D01*
X021205Y026219D02*
X022094Y026219D01*
X022145Y026101D02*
X021205Y026101D01*
X021207Y025982D02*
X022181Y025982D01*
X022237Y025864D02*
X021326Y025864D01*
X021444Y025745D02*
X022355Y025745D01*
X022995Y025745D02*
X023406Y025745D01*
X023524Y025864D02*
X023113Y025864D01*
X023169Y025982D02*
X023643Y025982D01*
X023645Y026101D02*
X023205Y026101D01*
X023256Y026219D02*
X023645Y026219D01*
X023669Y026338D02*
X023375Y026338D01*
X023493Y026456D02*
X023718Y026456D01*
X023612Y026575D02*
X023825Y026575D01*
X023730Y026693D02*
X024041Y026693D01*
X024309Y026693D02*
X025120Y026693D01*
X025238Y026575D02*
X024525Y026575D01*
X024632Y026456D02*
X025357Y026456D01*
X025475Y026338D02*
X024681Y026338D01*
X024705Y026219D02*
X025594Y026219D01*
X025645Y026101D02*
X024705Y026101D01*
X024669Y025982D02*
X025681Y025982D01*
X025737Y025864D02*
X024613Y025864D01*
X024495Y025745D02*
X025855Y025745D01*
X026495Y025745D02*
X026906Y025745D01*
X027024Y025864D02*
X026613Y025864D01*
X026669Y025982D02*
X027143Y025982D01*
X027145Y026101D02*
X026705Y026101D01*
X026756Y026219D02*
X027145Y026219D01*
X027169Y026338D02*
X026875Y026338D01*
X026993Y026456D02*
X027218Y026456D01*
X027112Y026575D02*
X027325Y026575D01*
X027230Y026693D02*
X027541Y026693D01*
X027809Y026693D02*
X028620Y026693D01*
X028738Y026575D02*
X028025Y026575D01*
X028132Y026456D02*
X028857Y026456D01*
X028975Y026338D02*
X028181Y026338D01*
X028205Y026219D02*
X029094Y026219D01*
X029145Y026101D02*
X028205Y026101D01*
X028169Y025982D02*
X029181Y025982D01*
X029237Y025864D02*
X028113Y025864D01*
X027995Y025745D02*
X029355Y025745D01*
X029995Y025745D02*
X030406Y025745D01*
X030524Y025864D02*
X030113Y025864D01*
X030169Y025982D02*
X030643Y025982D01*
X030645Y026101D02*
X030205Y026101D01*
X030256Y026219D02*
X030645Y026219D01*
X030669Y026338D02*
X030375Y026338D01*
X030493Y026456D02*
X030718Y026456D01*
X030612Y026575D02*
X030825Y026575D01*
X030730Y026693D02*
X031041Y026693D01*
X031309Y026693D02*
X032120Y026693D01*
X032238Y026575D02*
X031525Y026575D01*
X031632Y026456D02*
X032357Y026456D01*
X032475Y026338D02*
X031681Y026338D01*
X031705Y026219D02*
X032594Y026219D01*
X032645Y026101D02*
X031705Y026101D01*
X031669Y025982D02*
X032681Y025982D01*
X032737Y025864D02*
X031613Y025864D01*
X031495Y025745D02*
X032855Y025745D01*
X033787Y025627D02*
X030966Y025627D01*
X030425Y025425D02*
X031175Y026175D01*
X030287Y025627D02*
X027466Y025627D01*
X027347Y025508D02*
X030200Y025508D01*
X030185Y025390D02*
X027229Y025390D01*
X027165Y025271D02*
X030185Y025271D01*
X030185Y025153D02*
X027165Y025153D01*
X027165Y025034D02*
X030185Y025034D01*
X030185Y024916D02*
X027165Y024916D01*
X027165Y024797D02*
X030185Y024797D01*
X030185Y024679D02*
X029844Y024679D01*
X030039Y024560D02*
X030185Y024560D01*
X030185Y024442D02*
X030138Y024442D01*
X029675Y024175D02*
X029675Y023675D01*
X031675Y021675D01*
X031675Y021550D01*
X032095Y021598D02*
X032255Y021598D01*
X032255Y021716D02*
X032095Y021716D01*
X032095Y021835D02*
X032255Y021835D01*
X032288Y021953D02*
X032062Y021953D01*
X031987Y022072D02*
X032189Y022072D01*
X032071Y022190D02*
X031807Y022190D01*
X031952Y022309D02*
X031381Y022309D01*
X031262Y022427D02*
X031834Y022427D01*
X031925Y022675D02*
X031425Y022675D01*
X030425Y023675D01*
X030425Y025425D01*
X029506Y024679D02*
X027844Y024679D01*
X028039Y024560D02*
X029311Y024560D01*
X029212Y024442D02*
X028138Y024442D01*
X028366Y024323D02*
X029163Y024323D01*
X029145Y024205D02*
X028485Y024205D01*
X028603Y024086D02*
X029145Y024086D01*
X029187Y023968D02*
X028722Y023968D01*
X028840Y023849D02*
X029251Y023849D01*
X029370Y023731D02*
X028959Y023731D01*
X029077Y023612D02*
X029441Y023612D01*
X029517Y023494D02*
X029196Y023494D01*
X029314Y023375D02*
X029636Y023375D01*
X029754Y023257D02*
X029433Y023257D01*
X029551Y023138D02*
X029873Y023138D01*
X029991Y023020D02*
X029670Y023020D01*
X029788Y022901D02*
X030110Y022901D01*
X030228Y022783D02*
X029907Y022783D01*
X030025Y022664D02*
X030347Y022664D01*
X030465Y022546D02*
X030144Y022546D01*
X030262Y022427D02*
X030584Y022427D01*
X030702Y022309D02*
X030381Y022309D01*
X030499Y022190D02*
X030543Y022190D01*
X030807Y022190D02*
X030821Y022190D01*
X031095Y021835D02*
X031176Y021835D01*
X031255Y021716D02*
X031095Y021716D01*
X031095Y021598D02*
X031255Y021598D01*
X031255Y021479D02*
X031095Y021479D01*
X031095Y021361D02*
X031255Y021361D01*
X031255Y021242D02*
X031095Y021242D01*
X031052Y021124D02*
X031298Y021124D01*
X031386Y021005D02*
X030964Y021005D01*
X030386Y021005D02*
X029964Y021005D01*
X030052Y021124D02*
X030298Y021124D01*
X030255Y021242D02*
X030095Y021242D01*
X030095Y021361D02*
X030255Y021361D01*
X030255Y021479D02*
X030095Y021479D01*
X030095Y021598D02*
X030255Y021598D01*
X030255Y021716D02*
X030095Y021716D01*
X030095Y021835D02*
X030176Y021835D01*
X029675Y021800D02*
X028300Y023175D01*
X027425Y023175D01*
X026925Y023675D01*
X026925Y025425D01*
X027675Y026175D01*
X026787Y025627D02*
X023966Y025627D01*
X023847Y025508D02*
X026700Y025508D01*
X026685Y025390D02*
X023729Y025390D01*
X023665Y025271D02*
X026685Y025271D01*
X026685Y025153D02*
X023665Y025153D01*
X023665Y025034D02*
X026685Y025034D01*
X026685Y024916D02*
X023665Y024916D01*
X023665Y024797D02*
X026685Y024797D01*
X026685Y024679D02*
X026344Y024679D01*
X026539Y024560D02*
X026685Y024560D01*
X026685Y024442D02*
X026638Y024442D01*
X026175Y024175D02*
X026175Y023675D01*
X027300Y022550D01*
X028050Y022550D01*
X028675Y021925D01*
X028675Y021550D01*
X028255Y021598D02*
X028095Y021598D01*
X028095Y021716D02*
X028255Y021716D01*
X028255Y021835D02*
X028095Y021835D01*
X028062Y021953D02*
X028288Y021953D01*
X028189Y022072D02*
X027987Y022072D01*
X028071Y022190D02*
X027807Y022190D01*
X027952Y022309D02*
X027256Y022309D01*
X027374Y022190D02*
X027543Y022190D01*
X028275Y022664D02*
X028472Y022664D01*
X028394Y022546D02*
X028590Y022546D01*
X028512Y022427D02*
X028709Y022427D01*
X028631Y022309D02*
X028827Y022309D01*
X028807Y022190D02*
X028946Y022190D01*
X028987Y022072D02*
X029064Y022072D01*
X029062Y021953D02*
X029183Y021953D01*
X029255Y021835D02*
X029095Y021835D01*
X029095Y021716D02*
X029255Y021716D01*
X029255Y021598D02*
X029095Y021598D01*
X029095Y021479D02*
X029255Y021479D01*
X029255Y021361D02*
X029095Y021361D01*
X029095Y021242D02*
X029255Y021242D01*
X029298Y021124D02*
X029052Y021124D01*
X028964Y021005D02*
X029386Y021005D01*
X029675Y021550D02*
X029675Y021800D01*
X030675Y021675D02*
X028175Y024175D01*
X027675Y024175D01*
X027311Y024560D02*
X027165Y024560D01*
X027165Y024442D02*
X027212Y024442D01*
X027165Y024679D02*
X027506Y024679D01*
X026685Y023968D02*
X026663Y023968D01*
X026685Y023849D02*
X026599Y023849D01*
X026685Y023731D02*
X026480Y023731D01*
X026577Y023612D02*
X026691Y023612D01*
X026696Y023494D02*
X026767Y023494D01*
X026814Y023375D02*
X026886Y023375D01*
X026933Y023257D02*
X027004Y023257D01*
X027051Y023138D02*
X027123Y023138D01*
X027170Y023020D02*
X027241Y023020D01*
X027288Y022901D02*
X028235Y022901D01*
X028353Y022783D02*
X028116Y022783D01*
X027675Y021550D02*
X025050Y024175D01*
X024175Y024175D01*
X023811Y024560D02*
X023665Y024560D01*
X023665Y024442D02*
X023712Y024442D01*
X023665Y024679D02*
X024006Y024679D01*
X024344Y024679D02*
X026006Y024679D01*
X025811Y024560D02*
X024539Y024560D01*
X024638Y024442D02*
X025712Y024442D01*
X025663Y024323D02*
X025241Y024323D01*
X025360Y024205D02*
X025645Y024205D01*
X025645Y024086D02*
X025478Y024086D01*
X025597Y023968D02*
X025687Y023968D01*
X025715Y023849D02*
X025751Y023849D01*
X025834Y023731D02*
X025870Y023731D01*
X025175Y023175D02*
X023800Y023175D01*
X023425Y023550D01*
X023425Y025425D01*
X024175Y026175D01*
X023287Y025627D02*
X021563Y025627D01*
X021681Y025508D02*
X023200Y025508D01*
X023185Y025390D02*
X021800Y025390D01*
X021895Y025271D02*
X023185Y025271D01*
X023185Y025153D02*
X021915Y025153D01*
X021915Y025034D02*
X023185Y025034D01*
X023185Y024916D02*
X021915Y024916D01*
X021915Y024797D02*
X023185Y024797D01*
X023185Y024679D02*
X022844Y024679D01*
X023039Y024560D02*
X023185Y024560D01*
X023185Y024442D02*
X023138Y024442D01*
X022800Y024050D02*
X022675Y024175D01*
X022800Y024050D02*
X022800Y023300D01*
X023425Y022675D01*
X024800Y022675D01*
X025675Y021800D01*
X025675Y021550D01*
X026095Y021598D02*
X026255Y021598D01*
X026255Y021716D02*
X026095Y021716D01*
X026095Y021835D02*
X026176Y021835D01*
X026675Y021675D02*
X025175Y023175D01*
X024709Y022427D02*
X023012Y022427D01*
X022894Y022546D02*
X023215Y022546D01*
X023097Y022664D02*
X022775Y022664D01*
X022657Y022783D02*
X022978Y022783D01*
X022860Y022901D02*
X022538Y022901D01*
X022420Y023020D02*
X022741Y023020D01*
X022623Y023138D02*
X022301Y023138D01*
X022183Y023257D02*
X022560Y023257D01*
X022560Y023375D02*
X022064Y023375D01*
X021946Y023494D02*
X022560Y023494D01*
X022560Y023612D02*
X021915Y023612D01*
X021915Y023731D02*
X022370Y023731D01*
X022251Y023849D02*
X021915Y023849D01*
X021915Y023968D02*
X022187Y023968D01*
X022145Y024086D02*
X021915Y024086D01*
X021915Y024205D02*
X022145Y024205D01*
X022163Y024323D02*
X021915Y024323D01*
X021915Y024442D02*
X022212Y024442D01*
X022311Y024560D02*
X021915Y024560D01*
X021915Y024679D02*
X022506Y024679D01*
X021675Y025175D02*
X020675Y026175D01*
X020884Y025627D02*
X016966Y025627D01*
X016847Y025508D02*
X021003Y025508D01*
X021121Y025390D02*
X016729Y025390D01*
X016665Y025271D02*
X021240Y025271D01*
X021358Y025153D02*
X016665Y025153D01*
X016665Y025034D02*
X021435Y025034D01*
X021435Y024916D02*
X016665Y024916D01*
X016665Y024560D02*
X016811Y024560D01*
X016712Y024442D02*
X016665Y024442D01*
X016185Y024442D02*
X016138Y024442D01*
X016185Y024560D02*
X016039Y024560D01*
X016185Y024679D02*
X015844Y024679D01*
X015506Y024679D02*
X013844Y024679D01*
X014039Y024560D02*
X015311Y024560D01*
X015212Y024442D02*
X014138Y024442D01*
X014187Y024323D02*
X015163Y024323D01*
X015145Y024205D02*
X014205Y024205D01*
X014205Y024086D02*
X015145Y024086D01*
X015128Y023968D02*
X014222Y023968D01*
X014340Y023849D02*
X015010Y023849D01*
X014938Y023731D02*
X014412Y023731D01*
X014415Y023612D02*
X014935Y023612D01*
X014935Y023494D02*
X014415Y023494D01*
X014415Y023375D02*
X014935Y023375D01*
X014935Y023257D02*
X014415Y023257D01*
X014415Y023138D02*
X014935Y023138D01*
X014935Y023020D02*
X014415Y023020D01*
X014415Y022901D02*
X014935Y022901D01*
X014935Y022783D02*
X014415Y022783D01*
X014415Y022664D02*
X014935Y022664D01*
X014935Y022546D02*
X014415Y022546D01*
X014415Y022427D02*
X014935Y022427D01*
X014935Y022309D02*
X014415Y022309D01*
X014415Y022190D02*
X014935Y022190D01*
X014863Y022072D02*
X014487Y022072D01*
X014562Y021953D02*
X014788Y021953D01*
X014755Y021835D02*
X014595Y021835D01*
X014595Y021716D02*
X014755Y021716D01*
X014755Y021598D02*
X014595Y021598D01*
X014595Y021479D02*
X014755Y021479D01*
X014755Y021361D02*
X014595Y021361D01*
X014595Y021242D02*
X014755Y021242D01*
X014798Y021124D02*
X014552Y021124D01*
X014464Y021005D02*
X014886Y021005D01*
X015464Y021005D02*
X015886Y021005D01*
X015798Y021124D02*
X015552Y021124D01*
X015595Y021242D02*
X015755Y021242D01*
X015755Y021361D02*
X015595Y021361D01*
X015595Y021479D02*
X015755Y021479D01*
X015755Y021598D02*
X015595Y021598D01*
X015595Y021716D02*
X015755Y021716D01*
X015755Y021835D02*
X015595Y021835D01*
X015562Y021953D02*
X015788Y021953D01*
X015863Y022072D02*
X015487Y022072D01*
X015415Y022190D02*
X015935Y022190D01*
X015935Y022309D02*
X015415Y022309D01*
X015415Y022427D02*
X015935Y022427D01*
X015935Y022546D02*
X015415Y022546D01*
X015415Y022664D02*
X015935Y022664D01*
X015935Y022783D02*
X015415Y022783D01*
X015415Y022901D02*
X015935Y022901D01*
X015935Y023020D02*
X015415Y023020D01*
X015415Y023138D02*
X015952Y023138D01*
X016042Y023257D02*
X015415Y023257D01*
X015415Y023375D02*
X016161Y023375D01*
X016185Y023494D02*
X015415Y023494D01*
X015451Y023612D02*
X016185Y023612D01*
X016185Y023731D02*
X015980Y023731D01*
X016099Y023849D02*
X016185Y023849D01*
X016185Y023968D02*
X016163Y023968D01*
X016665Y023968D02*
X016687Y023968D01*
X016665Y023849D02*
X016751Y023849D01*
X016665Y023731D02*
X016870Y023731D01*
X016935Y023612D02*
X016665Y023612D01*
X016665Y023494D02*
X016935Y023494D01*
X016935Y023375D02*
X016665Y023375D01*
X016665Y023257D02*
X016935Y023257D01*
X016935Y023138D02*
X016602Y023138D01*
X016484Y023020D02*
X016935Y023020D01*
X016935Y022901D02*
X016415Y022901D01*
X016415Y022783D02*
X016935Y022783D01*
X016935Y022664D02*
X016415Y022664D01*
X016415Y022546D02*
X016935Y022546D01*
X016935Y022427D02*
X016415Y022427D01*
X016415Y022309D02*
X016935Y022309D01*
X016935Y022190D02*
X016415Y022190D01*
X016487Y022072D02*
X016935Y022072D01*
X016935Y021953D02*
X016562Y021953D01*
X016595Y021835D02*
X016935Y021835D01*
X016935Y021716D02*
X016595Y021716D01*
X016595Y021598D02*
X016935Y021598D01*
X016935Y021479D02*
X016595Y021479D01*
X016595Y021361D02*
X016935Y021361D01*
X016903Y021242D02*
X016595Y021242D01*
X016552Y021124D02*
X016784Y021124D01*
X016666Y021005D02*
X016464Y021005D01*
X016175Y021550D02*
X016175Y023050D01*
X016425Y023300D01*
X016425Y025425D01*
X017175Y026175D01*
X016287Y025627D02*
X013466Y025627D01*
X013347Y025508D02*
X016200Y025508D01*
X016185Y025390D02*
X013229Y025390D01*
X013165Y025271D02*
X016185Y025271D01*
X016185Y025153D02*
X013165Y025153D01*
X013165Y025034D02*
X016185Y025034D01*
X016185Y024916D02*
X013165Y024916D01*
X013165Y024797D02*
X016185Y024797D01*
X015675Y024175D02*
X015175Y023675D01*
X015175Y021550D01*
X014175Y021550D02*
X014175Y023675D01*
X013675Y024175D01*
X013187Y023968D02*
X013165Y023968D01*
X013165Y023849D02*
X013251Y023849D01*
X013209Y023731D02*
X013370Y023731D01*
X013327Y023612D02*
X013899Y023612D01*
X013935Y023494D02*
X013406Y023494D01*
X013415Y023375D02*
X013935Y023375D01*
X013935Y023257D02*
X013415Y023257D01*
X013415Y023138D02*
X013935Y023138D01*
X013935Y023020D02*
X013415Y023020D01*
X013415Y022901D02*
X013935Y022901D01*
X013935Y022783D02*
X013415Y022783D01*
X013415Y022664D02*
X013935Y022664D01*
X013935Y022546D02*
X013415Y022546D01*
X013415Y022427D02*
X013935Y022427D01*
X013935Y022309D02*
X013415Y022309D01*
X013415Y022190D02*
X013935Y022190D01*
X013863Y022072D02*
X013487Y022072D01*
X013562Y021953D02*
X013788Y021953D01*
X013755Y021835D02*
X013595Y021835D01*
X013595Y021716D02*
X013755Y021716D01*
X013755Y021598D02*
X013595Y021598D01*
X013595Y021479D02*
X013755Y021479D01*
X013755Y021361D02*
X013595Y021361D01*
X013595Y021242D02*
X013755Y021242D01*
X013798Y021124D02*
X013552Y021124D01*
X013464Y021005D02*
X013886Y021005D01*
X013175Y021550D02*
X013175Y023425D01*
X012925Y023675D01*
X012925Y025425D01*
X013675Y026175D01*
X012787Y025627D02*
X009966Y025627D01*
X009847Y025508D02*
X012700Y025508D01*
X012685Y025390D02*
X009729Y025390D01*
X009665Y025271D02*
X012685Y025271D01*
X012685Y025153D02*
X009665Y025153D01*
X009665Y025034D02*
X012685Y025034D01*
X012685Y024916D02*
X009665Y024916D01*
X009665Y024797D02*
X012685Y024797D01*
X012685Y024679D02*
X012344Y024679D01*
X012539Y024560D02*
X012685Y024560D01*
X012685Y024442D02*
X012638Y024442D01*
X012175Y024175D02*
X012175Y021550D01*
X012595Y021598D02*
X012755Y021598D01*
X012755Y021716D02*
X012595Y021716D01*
X012595Y021835D02*
X012755Y021835D01*
X012788Y021953D02*
X012562Y021953D01*
X012487Y022072D02*
X012863Y022072D01*
X012935Y022190D02*
X012415Y022190D01*
X012415Y022309D02*
X012935Y022309D01*
X012935Y022427D02*
X012415Y022427D01*
X012415Y022546D02*
X012935Y022546D01*
X012935Y022664D02*
X012415Y022664D01*
X012415Y022783D02*
X012935Y022783D01*
X012935Y022901D02*
X012415Y022901D01*
X012415Y023020D02*
X012935Y023020D01*
X012935Y023138D02*
X012415Y023138D01*
X012415Y023257D02*
X012935Y023257D01*
X012886Y023375D02*
X012415Y023375D01*
X012415Y023494D02*
X012767Y023494D01*
X012691Y023612D02*
X012415Y023612D01*
X012480Y023731D02*
X012685Y023731D01*
X012685Y023849D02*
X012599Y023849D01*
X012663Y023968D02*
X012685Y023968D01*
X013165Y024442D02*
X013212Y024442D01*
X013165Y024560D02*
X013311Y024560D01*
X013165Y024679D02*
X013506Y024679D01*
X012006Y024679D02*
X010344Y024679D01*
X010539Y024560D02*
X011811Y024560D01*
X011712Y024442D02*
X010638Y024442D01*
X010687Y024323D02*
X011663Y024323D01*
X011645Y024205D02*
X010705Y024205D01*
X010705Y024086D02*
X011645Y024086D01*
X011687Y023968D02*
X010665Y023968D01*
X010665Y023973D02*
X010665Y023973D01*
X010665Y023849D02*
X011751Y023849D01*
X011870Y023731D02*
X010709Y023731D01*
X010827Y023612D02*
X011935Y023612D01*
X011935Y023494D02*
X010946Y023494D01*
X011064Y023375D02*
X011935Y023375D01*
X011935Y023257D02*
X011183Y023257D01*
X011301Y023138D02*
X011935Y023138D01*
X011935Y023020D02*
X011396Y023020D01*
X011415Y022901D02*
X011935Y022901D01*
X011935Y022783D02*
X011415Y022783D01*
X011415Y022664D02*
X011935Y022664D01*
X011935Y022546D02*
X011415Y022546D01*
X011415Y022427D02*
X011935Y022427D01*
X011935Y022309D02*
X011415Y022309D01*
X011415Y022190D02*
X011935Y022190D01*
X011863Y022072D02*
X011487Y022072D01*
X011562Y021953D02*
X011788Y021953D01*
X011755Y021835D02*
X011595Y021835D01*
X011595Y021716D02*
X011755Y021716D01*
X011755Y021598D02*
X011595Y021598D01*
X011595Y021479D02*
X011755Y021479D01*
X011755Y021361D02*
X011595Y021361D01*
X011595Y021242D02*
X011755Y021242D01*
X011798Y021124D02*
X011552Y021124D01*
X011464Y021005D02*
X011886Y021005D01*
X012464Y021005D02*
X012886Y021005D01*
X012798Y021124D02*
X012552Y021124D01*
X012595Y021242D02*
X012755Y021242D01*
X012755Y021361D02*
X012595Y021361D01*
X012595Y021479D02*
X012755Y021479D01*
X011175Y021550D02*
X011175Y022925D01*
X010425Y023675D01*
X010425Y023925D01*
X010175Y024175D01*
X009687Y023968D02*
X009665Y023968D01*
X009665Y023849D02*
X009751Y023849D01*
X009709Y023731D02*
X009870Y023731D01*
X009827Y023612D02*
X010191Y023612D01*
X010267Y023494D02*
X009946Y023494D01*
X010064Y023375D02*
X010386Y023375D01*
X010504Y023257D02*
X010183Y023257D01*
X010301Y023138D02*
X010623Y023138D01*
X010741Y023020D02*
X010396Y023020D01*
X010415Y022901D02*
X010860Y022901D01*
X010935Y022783D02*
X010415Y022783D01*
X010415Y022664D02*
X010935Y022664D01*
X010935Y022546D02*
X010415Y022546D01*
X010415Y022427D02*
X010935Y022427D01*
X010935Y022309D02*
X010415Y022309D01*
X010415Y022190D02*
X010935Y022190D01*
X010863Y022072D02*
X010487Y022072D01*
X010562Y021953D02*
X010788Y021953D01*
X010755Y021835D02*
X010595Y021835D01*
X010595Y021716D02*
X010755Y021716D01*
X010755Y021598D02*
X010595Y021598D01*
X010595Y021479D02*
X010755Y021479D01*
X010755Y021361D02*
X010595Y021361D01*
X010595Y021242D02*
X010755Y021242D01*
X010798Y021124D02*
X010552Y021124D01*
X010464Y021005D02*
X010886Y021005D01*
X010175Y021550D02*
X010175Y022925D01*
X009425Y023675D01*
X009425Y025425D01*
X010175Y026175D01*
X009287Y025627D02*
X006466Y025627D01*
X006347Y025508D02*
X009200Y025508D01*
X009185Y025390D02*
X006229Y025390D01*
X006165Y025271D02*
X009185Y025271D01*
X009185Y025153D02*
X006165Y025153D01*
X006165Y025034D02*
X009185Y025034D01*
X009185Y024916D02*
X006165Y024916D01*
X006165Y024797D02*
X009185Y024797D01*
X009185Y024679D02*
X008844Y024679D01*
X009039Y024560D02*
X009185Y024560D01*
X009185Y024442D02*
X009138Y024442D01*
X008675Y024175D02*
X008675Y023425D01*
X009175Y022925D01*
X009175Y021550D01*
X009595Y021598D02*
X009755Y021598D01*
X009755Y021716D02*
X009595Y021716D01*
X009595Y021835D02*
X009755Y021835D01*
X009788Y021953D02*
X009562Y021953D01*
X009487Y022072D02*
X009863Y022072D01*
X009935Y022190D02*
X009415Y022190D01*
X009415Y022309D02*
X009935Y022309D01*
X009935Y022427D02*
X009415Y022427D01*
X009415Y022546D02*
X009935Y022546D01*
X009935Y022664D02*
X009415Y022664D01*
X009415Y022783D02*
X009935Y022783D01*
X009860Y022901D02*
X009415Y022901D01*
X009396Y023020D02*
X009741Y023020D01*
X009623Y023138D02*
X009301Y023138D01*
X009183Y023257D02*
X009504Y023257D01*
X009386Y023375D02*
X009064Y023375D01*
X008946Y023494D02*
X009267Y023494D01*
X009191Y023612D02*
X008915Y023612D01*
X008980Y023731D02*
X009185Y023731D01*
X009185Y023849D02*
X009099Y023849D01*
X009163Y023968D02*
X009185Y023968D01*
X009665Y024442D02*
X009712Y024442D01*
X009665Y024560D02*
X009811Y024560D01*
X009665Y024679D02*
X010006Y024679D01*
X008506Y024679D02*
X006844Y024679D01*
X007039Y024560D02*
X008311Y024560D01*
X008212Y024442D02*
X007138Y024442D01*
X007187Y024323D02*
X008163Y024323D01*
X008145Y024205D02*
X007205Y024205D01*
X007205Y024086D02*
X008145Y024086D01*
X008187Y023968D02*
X007222Y023968D01*
X007340Y023849D02*
X008251Y023849D01*
X008370Y023731D02*
X007459Y023731D01*
X007577Y023612D02*
X008435Y023612D01*
X008435Y023494D02*
X007696Y023494D01*
X007814Y023375D02*
X008436Y023375D01*
X008504Y023257D02*
X007933Y023257D01*
X008051Y023138D02*
X008623Y023138D01*
X008741Y023020D02*
X008170Y023020D01*
X008288Y022901D02*
X008860Y022901D01*
X008935Y022783D02*
X008390Y022783D01*
X008415Y022664D02*
X008935Y022664D01*
X008935Y022546D02*
X008415Y022546D01*
X008415Y022427D02*
X008935Y022427D01*
X008935Y022309D02*
X008415Y022309D01*
X008415Y022190D02*
X008935Y022190D01*
X008863Y022072D02*
X008487Y022072D01*
X008562Y021953D02*
X008788Y021953D01*
X008755Y021835D02*
X008595Y021835D01*
X008595Y021716D02*
X008755Y021716D01*
X008755Y021598D02*
X008595Y021598D01*
X008595Y021479D02*
X008755Y021479D01*
X008755Y021361D02*
X008595Y021361D01*
X008595Y021242D02*
X008755Y021242D01*
X008798Y021124D02*
X008552Y021124D01*
X008464Y021005D02*
X008886Y021005D01*
X009464Y021005D02*
X009886Y021005D01*
X009798Y021124D02*
X009552Y021124D01*
X009595Y021242D02*
X009755Y021242D01*
X009755Y021361D02*
X009595Y021361D01*
X009595Y021479D02*
X009755Y021479D01*
X008175Y021550D02*
X008175Y022675D01*
X006675Y024175D01*
X006187Y023968D02*
X006165Y023968D01*
X006165Y023849D02*
X006251Y023849D01*
X006209Y023731D02*
X006370Y023731D01*
X006327Y023612D02*
X006899Y023612D01*
X007017Y023494D02*
X006446Y023494D01*
X006564Y023375D02*
X007136Y023375D01*
X007254Y023257D02*
X006683Y023257D01*
X006801Y023138D02*
X007373Y023138D01*
X007491Y023020D02*
X006920Y023020D01*
X007038Y022901D02*
X007610Y022901D01*
X007728Y022783D02*
X007157Y022783D01*
X007275Y022664D02*
X007847Y022664D01*
X007935Y022546D02*
X007385Y022546D01*
X007415Y022427D02*
X007935Y022427D01*
X007935Y022309D02*
X007415Y022309D01*
X007415Y022190D02*
X007935Y022190D01*
X007863Y022072D02*
X007487Y022072D01*
X007562Y021953D02*
X007788Y021953D01*
X007755Y021835D02*
X007595Y021835D01*
X007595Y021716D02*
X007755Y021716D01*
X007755Y021598D02*
X007595Y021598D01*
X007595Y021479D02*
X007755Y021479D01*
X007755Y021361D02*
X007595Y021361D01*
X007595Y021242D02*
X007755Y021242D01*
X007798Y021124D02*
X007552Y021124D01*
X007464Y021005D02*
X007886Y021005D01*
X007175Y021550D02*
X007175Y022425D01*
X005925Y023675D01*
X005925Y025425D01*
X006675Y026175D01*
X005787Y025627D02*
X002966Y025627D01*
X002847Y025508D02*
X005700Y025508D01*
X005685Y025390D02*
X002729Y025390D01*
X002665Y025271D02*
X005685Y025271D01*
X005685Y025153D02*
X002665Y025153D01*
X002665Y025034D02*
X005685Y025034D01*
X005685Y024916D02*
X002665Y024916D01*
X002665Y024797D02*
X005685Y024797D01*
X005685Y024679D02*
X005344Y024679D01*
X005539Y024560D02*
X005685Y024560D01*
X005685Y024442D02*
X005638Y024442D01*
X006165Y024442D02*
X006212Y024442D01*
X006165Y024560D02*
X006311Y024560D01*
X006165Y024679D02*
X006506Y024679D01*
X005685Y023968D02*
X005663Y023968D01*
X005685Y023849D02*
X005599Y023849D01*
X005685Y023731D02*
X005480Y023731D01*
X005415Y023612D02*
X005691Y023612D01*
X005767Y023494D02*
X005446Y023494D01*
X005564Y023375D02*
X005886Y023375D01*
X006004Y023257D02*
X005683Y023257D01*
X005801Y023138D02*
X006123Y023138D01*
X006241Y023020D02*
X005920Y023020D01*
X006038Y022901D02*
X006360Y022901D01*
X006478Y022783D02*
X006157Y022783D01*
X006275Y022664D02*
X006597Y022664D01*
X006715Y022546D02*
X006385Y022546D01*
X006415Y022427D02*
X006834Y022427D01*
X006935Y022309D02*
X006415Y022309D01*
X006415Y022190D02*
X006935Y022190D01*
X006863Y022072D02*
X006487Y022072D01*
X006562Y021953D02*
X006788Y021953D01*
X006755Y021835D02*
X006595Y021835D01*
X006595Y021716D02*
X006755Y021716D01*
X006755Y021598D02*
X006595Y021598D01*
X006595Y021479D02*
X006755Y021479D01*
X006755Y021361D02*
X006595Y021361D01*
X006595Y021242D02*
X006755Y021242D01*
X006798Y021124D02*
X006552Y021124D01*
X006464Y021005D02*
X006886Y021005D01*
X006175Y021550D02*
X006175Y022425D01*
X005175Y023425D01*
X005175Y024175D01*
X004687Y023968D02*
X003722Y023968D01*
X003705Y024086D02*
X004645Y024086D01*
X004645Y024205D02*
X003705Y024205D01*
X003687Y024323D02*
X004663Y024323D01*
X004712Y024442D02*
X003638Y024442D01*
X003539Y024560D02*
X004811Y024560D01*
X005006Y024679D02*
X003344Y024679D01*
X003006Y024679D02*
X002665Y024679D01*
X002665Y024560D02*
X002811Y024560D01*
X002712Y024442D02*
X002665Y024442D01*
X002185Y024442D02*
X000835Y024442D01*
X000835Y024560D02*
X002185Y024560D01*
X002185Y024679D02*
X000835Y024679D01*
X000835Y024797D02*
X002185Y024797D01*
X002185Y024916D02*
X000835Y024916D01*
X000835Y025034D02*
X002185Y025034D01*
X002185Y025153D02*
X000835Y025153D01*
X000835Y025271D02*
X002185Y025271D01*
X002185Y025390D02*
X000835Y025390D01*
X000835Y025508D02*
X002200Y025508D01*
X002287Y025627D02*
X000835Y025627D01*
X000835Y025745D02*
X002406Y025745D01*
X002524Y025864D02*
X000835Y025864D01*
X000835Y025982D02*
X002643Y025982D01*
X002645Y026101D02*
X000835Y026101D01*
X000835Y026219D02*
X002645Y026219D01*
X002669Y026338D02*
X000835Y026338D01*
X000835Y026456D02*
X002718Y026456D01*
X000835Y026812D02*
X004820Y026812D01*
X004893Y026930D02*
X000835Y026930D01*
X000835Y027049D02*
X005011Y027049D01*
X005130Y027167D02*
X000835Y027167D01*
X000835Y027286D02*
X005248Y027286D01*
X005367Y027404D02*
X000835Y027404D01*
X000835Y024323D02*
X002185Y024323D01*
X002185Y024205D02*
X000835Y024205D01*
X000835Y024086D02*
X002185Y024086D01*
X002185Y023968D02*
X000835Y023968D01*
X000835Y023849D02*
X002185Y023849D01*
X002185Y023731D02*
X000835Y023731D01*
X000835Y023612D02*
X002191Y023612D01*
X002267Y023494D02*
X000835Y023494D01*
X000835Y023375D02*
X002386Y023375D01*
X002504Y023257D02*
X000835Y023257D01*
X000835Y023138D02*
X002623Y023138D01*
X002741Y023020D02*
X000835Y023020D01*
X000835Y022901D02*
X002860Y022901D01*
X002978Y022783D02*
X000835Y022783D01*
X000835Y022664D02*
X003097Y022664D01*
X003215Y022546D02*
X000835Y022546D01*
X000835Y022427D02*
X003334Y022427D01*
X003452Y022309D02*
X000835Y022309D01*
X002709Y023731D02*
X002870Y023731D01*
X002827Y023612D02*
X003399Y023612D01*
X003517Y023494D02*
X002946Y023494D01*
X003064Y023375D02*
X003636Y023375D01*
X003754Y023257D02*
X003183Y023257D01*
X003301Y023138D02*
X003873Y023138D01*
X003991Y023020D02*
X003420Y023020D01*
X003538Y022901D02*
X004110Y022901D01*
X004228Y022783D02*
X003657Y022783D01*
X003775Y022664D02*
X004347Y022664D01*
X004465Y022546D02*
X003894Y022546D01*
X004012Y022427D02*
X004584Y022427D01*
X004702Y022309D02*
X004131Y022309D01*
X004307Y022190D02*
X004821Y022190D01*
X004863Y022072D02*
X004487Y022072D01*
X004562Y021953D02*
X004788Y021953D01*
X004755Y021835D02*
X004595Y021835D01*
X004595Y021716D02*
X004755Y021716D01*
X004755Y021598D02*
X004595Y021598D01*
X004595Y021479D02*
X004755Y021479D01*
X004755Y021361D02*
X004595Y021361D01*
X004595Y021242D02*
X004755Y021242D01*
X004798Y021124D02*
X004552Y021124D01*
X004464Y021005D02*
X004886Y021005D01*
X005464Y021005D02*
X005886Y021005D01*
X005798Y021124D02*
X005552Y021124D01*
X005595Y021242D02*
X005755Y021242D01*
X005755Y021361D02*
X005595Y021361D01*
X005595Y021479D02*
X005755Y021479D01*
X005755Y021598D02*
X005595Y021598D01*
X005595Y021716D02*
X005755Y021716D01*
X005755Y021835D02*
X005595Y021835D01*
X005562Y021953D02*
X005788Y021953D01*
X005863Y022072D02*
X005487Y022072D01*
X005415Y022190D02*
X005935Y022190D01*
X005935Y022309D02*
X005379Y022309D01*
X005262Y022427D02*
X005834Y022427D01*
X005715Y022546D02*
X005144Y022546D01*
X005025Y022664D02*
X005597Y022664D01*
X005478Y022783D02*
X004907Y022783D01*
X004788Y022901D02*
X005360Y022901D01*
X005241Y023020D02*
X004670Y023020D01*
X004551Y023138D02*
X005123Y023138D01*
X005039Y023222D02*
X005039Y023222D01*
X005004Y023257D02*
X004433Y023257D01*
X004314Y023375D02*
X004936Y023375D01*
X004935Y023494D02*
X004196Y023494D01*
X004077Y023612D02*
X004935Y023612D01*
X004870Y023731D02*
X003959Y023731D01*
X003840Y023849D02*
X004751Y023849D01*
X003175Y024175D02*
X005175Y022175D01*
X005175Y021550D01*
X002751Y023849D02*
X002665Y023849D01*
X002665Y023968D02*
X002687Y023968D01*
X000835Y019346D02*
X015935Y019346D01*
X015935Y019228D02*
X000835Y019228D01*
X000835Y019109D02*
X002900Y019109D01*
X002803Y018991D02*
X000835Y018991D01*
X000835Y018872D02*
X002755Y018872D01*
X002755Y018754D02*
X000835Y018754D01*
X000835Y018635D02*
X002755Y018635D01*
X002755Y018517D02*
X000835Y018517D01*
X000835Y018398D02*
X002755Y018398D01*
X002755Y018280D02*
X000835Y018280D01*
X000835Y018161D02*
X002782Y018161D01*
X002848Y018043D02*
X000835Y018043D01*
X002929Y014014D02*
X003428Y014014D01*
X008522Y018043D02*
X008848Y018043D01*
X008782Y018161D02*
X008568Y018161D01*
X008595Y018280D02*
X008755Y018280D01*
X008755Y018398D02*
X008595Y018398D01*
X008640Y017924D02*
X009009Y017924D01*
X013175Y017675D02*
X013175Y018550D01*
X013595Y018517D02*
X013755Y018517D01*
X013755Y018635D02*
X013595Y018635D01*
X013595Y018754D02*
X013755Y018754D01*
X013755Y018872D02*
X013595Y018872D01*
X013547Y018991D02*
X013803Y018991D01*
X013819Y019028D02*
X013755Y018874D01*
X013755Y018226D01*
X013819Y018072D01*
X013937Y017954D01*
X014091Y017890D01*
X014259Y017890D01*
X014413Y017954D01*
X014531Y018072D01*
X014595Y018226D01*
X014595Y018874D01*
X014531Y019028D01*
X014413Y019146D01*
X014259Y019210D01*
X014091Y019210D01*
X013937Y019146D01*
X013819Y019028D01*
X013900Y019109D02*
X013450Y019109D01*
X013595Y018398D02*
X013755Y018398D01*
X013755Y018280D02*
X013595Y018280D01*
X013568Y018161D02*
X013782Y018161D01*
X013848Y018043D02*
X013502Y018043D01*
X013415Y017924D02*
X014009Y017924D01*
X014341Y017924D02*
X015065Y017924D01*
X015058Y017925D02*
X015136Y017910D01*
X015155Y017910D01*
X015155Y018530D01*
X014775Y018530D01*
X014775Y018271D01*
X014790Y018193D01*
X014821Y018121D01*
X014864Y018055D01*
X014920Y017999D01*
X014986Y017956D01*
X015058Y017925D01*
X015155Y017924D02*
X015195Y017924D01*
X015195Y017910D02*
X015214Y017910D01*
X015292Y017925D01*
X015364Y017956D01*
X015430Y017999D01*
X015486Y018055D01*
X015529Y018121D01*
X015560Y018193D01*
X015575Y018271D01*
X015575Y018530D01*
X015195Y018530D01*
X015195Y018570D01*
X015155Y018570D01*
X015155Y019190D01*
X015136Y019190D01*
X015058Y019175D01*
X014986Y019144D01*
X014920Y019101D01*
X014864Y019045D01*
X014821Y018979D01*
X014790Y018907D01*
X014775Y018829D01*
X014775Y018570D01*
X015155Y018570D01*
X015155Y018530D01*
X015195Y018530D01*
X015195Y017910D01*
X015285Y017924D02*
X016009Y017924D01*
X015848Y018043D02*
X015473Y018043D01*
X015546Y018161D02*
X015782Y018161D01*
X015755Y018280D02*
X015575Y018280D01*
X015575Y018398D02*
X015755Y018398D01*
X015755Y018517D02*
X015575Y018517D01*
X015575Y018570D02*
X015575Y018829D01*
X015560Y018907D01*
X015529Y018979D01*
X015486Y019045D01*
X015430Y019101D01*
X015364Y019144D01*
X015292Y019175D01*
X015214Y019190D01*
X015195Y019190D01*
X015195Y018570D01*
X015575Y018570D01*
X015575Y018635D02*
X015755Y018635D01*
X015755Y018754D02*
X015575Y018754D01*
X015567Y018872D02*
X015755Y018872D01*
X015803Y018991D02*
X015522Y018991D01*
X015418Y019109D02*
X015900Y019109D01*
X015195Y019109D02*
X015155Y019109D01*
X015155Y018991D02*
X015195Y018991D01*
X015195Y018872D02*
X015155Y018872D01*
X015155Y018754D02*
X015195Y018754D01*
X015195Y018635D02*
X015155Y018635D01*
X015155Y018517D02*
X015195Y018517D01*
X015195Y018398D02*
X015155Y018398D01*
X015155Y018280D02*
X015195Y018280D01*
X015195Y018161D02*
X015155Y018161D01*
X015155Y018043D02*
X015195Y018043D01*
X014877Y018043D02*
X014502Y018043D01*
X014568Y018161D02*
X014804Y018161D01*
X014775Y018280D02*
X014595Y018280D01*
X014595Y018398D02*
X014775Y018398D01*
X014775Y018517D02*
X014595Y018517D01*
X014595Y018635D02*
X014775Y018635D01*
X014775Y018754D02*
X014595Y018754D01*
X014595Y018872D02*
X014783Y018872D01*
X014828Y018991D02*
X014547Y018991D01*
X014450Y019109D02*
X014932Y019109D01*
X018695Y019346D02*
X021155Y019346D01*
X021259Y019450D02*
X021025Y019216D01*
X021025Y019070D01*
X021405Y019070D01*
X021405Y019450D01*
X021259Y019450D01*
X021405Y019346D02*
X021445Y019346D01*
X021445Y019450D02*
X021445Y019070D01*
X021405Y019070D01*
X021405Y019030D01*
X021025Y019030D01*
X021025Y018884D01*
X021259Y018650D01*
X021405Y018650D01*
X021405Y019030D01*
X021445Y019030D01*
X021445Y019070D01*
X021825Y019070D01*
X021825Y019216D01*
X021591Y019450D01*
X021445Y019450D01*
X021445Y019228D02*
X021405Y019228D01*
X021405Y019109D02*
X021445Y019109D01*
X021445Y019030D02*
X021825Y019030D01*
X021825Y018884D01*
X021591Y018650D01*
X021445Y018650D01*
X021445Y019030D01*
X021445Y018991D02*
X021405Y018991D01*
X021405Y018872D02*
X021445Y018872D01*
X021445Y018754D02*
X021405Y018754D01*
X021156Y018754D02*
X018694Y018754D01*
X018813Y018872D02*
X021037Y018872D01*
X021025Y018991D02*
X018825Y018991D01*
X018825Y019109D02*
X021025Y019109D01*
X021037Y019228D02*
X018813Y019228D01*
X021695Y019346D02*
X023415Y019346D01*
X023435Y019228D02*
X021813Y019228D01*
X021825Y019109D02*
X023400Y019109D01*
X023303Y018991D02*
X021825Y018991D01*
X021813Y018872D02*
X023255Y018872D01*
X023255Y018754D02*
X021694Y018754D01*
X023382Y020057D02*
X025336Y020057D01*
X025317Y020176D02*
X023264Y020176D01*
X023222Y020414D02*
X023222Y020414D01*
X023425Y020550D02*
X020800Y023175D01*
X020800Y024050D01*
X020675Y024175D01*
X021675Y023425D02*
X021675Y025175D01*
X021675Y023425D02*
X023550Y021550D01*
X023675Y021550D01*
X024675Y021550D02*
X024675Y021050D01*
X024175Y020550D01*
X023425Y020550D01*
X023501Y019939D02*
X025405Y019939D01*
X025675Y020175D02*
X032175Y020175D01*
X031964Y021005D02*
X032386Y021005D01*
X032298Y021124D02*
X032052Y021124D01*
X032095Y021242D02*
X032255Y021242D01*
X032255Y021361D02*
X032095Y021361D01*
X032095Y021479D02*
X032255Y021479D01*
X032675Y021550D02*
X032675Y021925D01*
X031925Y022675D01*
X031543Y022190D02*
X031499Y022190D01*
X031215Y022546D02*
X031144Y022546D01*
X031097Y022664D02*
X031025Y022664D01*
X030978Y022783D02*
X030907Y022783D01*
X030860Y022901D02*
X030788Y022901D01*
X030741Y023020D02*
X030670Y023020D01*
X030623Y023138D02*
X030551Y023138D01*
X030504Y023257D02*
X030433Y023257D01*
X030386Y023375D02*
X030314Y023375D01*
X030267Y023494D02*
X030196Y023494D01*
X030191Y023612D02*
X030077Y023612D01*
X029980Y023731D02*
X030185Y023731D01*
X030185Y023849D02*
X030099Y023849D01*
X030163Y023968D02*
X030185Y023968D01*
X030675Y021675D02*
X030675Y021550D01*
X028386Y021005D02*
X027964Y021005D01*
X028052Y021124D02*
X028298Y021124D01*
X028255Y021242D02*
X028095Y021242D01*
X028095Y021361D02*
X028255Y021361D01*
X028255Y021479D02*
X028095Y021479D01*
X027255Y021479D02*
X027095Y021479D01*
X027095Y021361D02*
X027255Y021361D01*
X027255Y021242D02*
X027095Y021242D01*
X027052Y021124D02*
X027298Y021124D01*
X027386Y021005D02*
X026964Y021005D01*
X026386Y021005D02*
X025964Y021005D01*
X026052Y021124D02*
X026298Y021124D01*
X026255Y021242D02*
X026095Y021242D01*
X026095Y021361D02*
X026255Y021361D01*
X026255Y021479D02*
X026095Y021479D01*
X026675Y021550D02*
X026675Y021675D01*
X027095Y021716D02*
X027170Y021716D01*
X027095Y021598D02*
X027255Y021598D01*
X027950Y019109D02*
X028400Y019109D01*
X028303Y018991D02*
X028047Y018991D01*
X028095Y018872D02*
X028255Y018872D01*
X028255Y018754D02*
X028095Y018754D01*
X028095Y018635D02*
X028255Y018635D01*
X028255Y018517D02*
X028095Y018517D01*
X028095Y018398D02*
X028255Y018398D01*
X028255Y018280D02*
X028095Y018280D01*
X028068Y018161D02*
X028282Y018161D01*
X028348Y018043D02*
X028055Y018043D01*
X029276Y016739D02*
X029298Y016739D01*
X029275Y016621D02*
X029158Y016621D01*
X029135Y016502D02*
X029275Y016502D01*
X029276Y016384D02*
X029254Y016384D01*
X029372Y016265D02*
X029394Y016265D01*
X029395Y016858D02*
X029417Y016858D01*
X027758Y015199D02*
X024120Y015199D01*
X024239Y015080D02*
X027639Y015080D01*
X027525Y014962D02*
X024345Y014962D01*
X024345Y014843D02*
X027525Y014843D01*
X027525Y014725D02*
X024345Y014725D01*
X024325Y014606D02*
X027553Y014606D01*
X026571Y013184D02*
X030795Y013184D01*
X025107Y013066D02*
X024743Y013066D01*
X024815Y012947D02*
X025035Y012947D01*
X025005Y012829D02*
X024845Y012829D01*
X024845Y012710D02*
X025005Y012710D01*
X025005Y012592D02*
X024845Y012592D01*
X024845Y012473D02*
X025005Y012473D01*
X025005Y012355D02*
X024845Y012355D01*
X024845Y012236D02*
X025005Y012236D01*
X025050Y012118D02*
X024800Y012118D01*
X024708Y011999D02*
X025142Y011999D01*
X024142Y011999D02*
X023708Y011999D01*
X023800Y012118D02*
X024050Y012118D01*
X024005Y012236D02*
X023845Y012236D01*
X023845Y012355D02*
X024005Y012355D01*
X024005Y012473D02*
X023845Y012473D01*
X023845Y012592D02*
X024005Y012592D01*
X024005Y012710D02*
X023845Y012710D01*
X023845Y012829D02*
X024005Y012829D01*
X024035Y012947D02*
X023815Y012947D01*
X023743Y013066D02*
X024107Y013066D01*
X023107Y013066D02*
X022743Y013066D01*
X022815Y012947D02*
X023035Y012947D01*
X023005Y012829D02*
X022845Y012829D01*
X022845Y012710D02*
X023005Y012710D01*
X023005Y012592D02*
X022845Y012592D01*
X022845Y012473D02*
X023005Y012473D01*
X023005Y012355D02*
X022845Y012355D01*
X022845Y012236D02*
X023005Y012236D01*
X023050Y012118D02*
X022800Y012118D01*
X022708Y011999D02*
X023142Y011999D01*
X022142Y011999D02*
X021708Y011999D01*
X021800Y012118D02*
X022050Y012118D01*
X022005Y012236D02*
X021845Y012236D01*
X021845Y012355D02*
X022005Y012355D01*
X022005Y012473D02*
X021845Y012473D01*
X021845Y012592D02*
X022005Y012592D01*
X022005Y012710D02*
X021845Y012710D01*
X021845Y012829D02*
X022005Y012829D01*
X022035Y012947D02*
X021815Y012947D01*
X021743Y013066D02*
X022107Y013066D01*
X018925Y015300D02*
X018925Y016675D01*
X018366Y015080D02*
X016211Y015080D01*
X016325Y014962D02*
X018247Y014962D01*
X018129Y014843D02*
X016325Y014843D01*
X016325Y014725D02*
X018010Y014725D01*
X017892Y014606D02*
X016297Y014606D01*
X016178Y014488D02*
X017773Y014488D01*
X016107Y013066D02*
X015743Y013066D01*
X015815Y012947D02*
X016035Y012947D01*
X016005Y012829D02*
X015845Y012829D01*
X015845Y012710D02*
X016005Y012710D01*
X016005Y012592D02*
X015845Y012592D01*
X015845Y012473D02*
X016005Y012473D01*
X016005Y012355D02*
X015845Y012355D01*
X015845Y012236D02*
X016005Y012236D01*
X016050Y012118D02*
X015800Y012118D01*
X015708Y011999D02*
X016142Y011999D01*
X014685Y013184D02*
X014571Y013184D01*
X023675Y018550D02*
X023675Y019425D01*
X019175Y023925D01*
X019175Y024175D01*
X020664Y022972D02*
X020664Y022972D01*
X037792Y013421D02*
X039015Y013421D01*
X039015Y013303D02*
X037910Y013303D01*
X037978Y013184D02*
X039015Y013184D01*
X039015Y013066D02*
X038027Y013066D01*
X038035Y012947D02*
X039015Y012947D01*
X039015Y012829D02*
X038035Y012829D01*
X037996Y012710D02*
X039015Y012710D01*
X039015Y012592D02*
X037947Y012592D01*
X037836Y012473D02*
X039015Y012473D01*
X039015Y012355D02*
X037642Y012355D01*
X039015Y008918D02*
X031901Y008918D01*
X032019Y008800D02*
X039015Y008800D01*
X039015Y008681D02*
X032095Y008681D01*
X032095Y008563D02*
X039015Y008563D01*
X039015Y008444D02*
X032095Y008444D01*
X032055Y008326D02*
X039015Y008326D01*
X039015Y008207D02*
X032055Y008207D01*
X032055Y008089D02*
X039015Y008089D01*
X039015Y007970D02*
X032055Y007970D01*
X032055Y007852D02*
X039015Y007852D01*
X039015Y007733D02*
X032055Y007733D01*
X032055Y007615D02*
X039015Y007615D01*
X039015Y007496D02*
X032055Y007496D01*
X032055Y007378D02*
X039015Y007378D01*
X039015Y007259D02*
X032055Y007259D01*
X032055Y007141D02*
X039015Y007141D01*
X039015Y007022D02*
X032055Y007022D01*
X032055Y006904D02*
X039015Y006904D01*
X039015Y006785D02*
X032055Y006785D01*
X032055Y006667D02*
X039015Y006667D01*
X039015Y006548D02*
X032055Y006548D01*
X032114Y006430D02*
X039015Y006430D01*
X039015Y006311D02*
X032233Y006311D01*
X032351Y006193D02*
X039015Y006193D01*
X039015Y006074D02*
X032470Y006074D01*
X032588Y005956D02*
X039015Y005956D01*
X039015Y005363D02*
X037415Y005363D01*
X037516Y005245D02*
X039015Y005245D01*
X039015Y005126D02*
X037574Y005126D01*
X037603Y005008D02*
X039015Y005008D01*
X039015Y004178D02*
X000835Y004178D01*
X000835Y004060D02*
X039015Y004060D01*
X039015Y003941D02*
X000835Y003941D01*
X000835Y003823D02*
X039015Y003823D01*
X039015Y003704D02*
X000835Y003704D01*
X000835Y003586D02*
X039015Y003586D01*
X039015Y003467D02*
X000835Y003467D01*
X000835Y003349D02*
X039015Y003349D01*
X039015Y003230D02*
X000835Y003230D01*
X000835Y003112D02*
X039015Y003112D01*
X039015Y002993D02*
X000835Y002993D01*
X000835Y002875D02*
X039015Y002875D01*
X039015Y002756D02*
X000835Y002756D01*
X000835Y002638D02*
X039015Y002638D01*
X039015Y002519D02*
X000835Y002519D01*
X000835Y002401D02*
X039015Y002401D01*
X039015Y002282D02*
X000835Y002282D01*
X000835Y002164D02*
X039015Y002164D01*
X039015Y002045D02*
X000835Y002045D01*
X000835Y001927D02*
X039015Y001927D01*
X039015Y001808D02*
X000835Y001808D01*
X000835Y001690D02*
X039015Y001690D01*
X039015Y001571D02*
X000835Y001571D01*
X000835Y001453D02*
X039015Y001453D01*
X039015Y001334D02*
X000835Y001334D01*
X000835Y001216D02*
X039015Y001216D01*
X039015Y001097D02*
X000835Y001097D01*
X000835Y000979D02*
X039015Y000979D01*
X039015Y000860D02*
X000835Y000860D01*
X002684Y004415D02*
X003947Y004415D01*
X003829Y004534D02*
X002803Y004534D01*
X002879Y004652D02*
X003753Y004652D01*
X003704Y004771D02*
X002928Y004771D01*
X002941Y004889D02*
X003690Y004889D01*
X003690Y005008D02*
X002941Y005008D01*
X002908Y005126D02*
X003723Y005126D01*
X003772Y005245D02*
X002859Y005245D01*
X002756Y005363D02*
X003875Y005363D01*
X033332Y005482D02*
X034800Y005482D01*
X034625Y005363D02*
X033506Y005363D01*
X033609Y005245D02*
X034522Y005245D01*
X034473Y005126D02*
X033658Y005126D01*
X033691Y005008D02*
X034440Y005008D01*
X034440Y004889D02*
X033691Y004889D01*
X033678Y004771D02*
X034454Y004771D01*
X034503Y004652D02*
X033629Y004652D01*
X033553Y004534D02*
X034579Y004534D01*
X034697Y004415D02*
X033434Y004415D01*
X035403Y004415D02*
X036720Y004415D01*
X036576Y004534D02*
X035521Y004534D01*
X035597Y004652D02*
X036495Y004652D01*
X036448Y004771D02*
X035646Y004771D01*
X036960Y004771D02*
X037077Y004771D01*
X037077Y004652D02*
X036960Y004652D01*
X036960Y004534D02*
X037077Y004534D01*
X037077Y004415D02*
X036960Y004415D01*
X036960Y005008D02*
X037077Y005008D01*
X037077Y005126D02*
X036960Y005126D01*
X036960Y005245D02*
X037077Y005245D01*
X037077Y005363D02*
X036960Y005363D01*
D24*
X028675Y010425D03*
X028675Y012675D03*
X026300Y007675D03*
X023425Y007675D03*
X012550Y016425D03*
X025675Y020175D03*
M02*
