%
M48
M72
T01C0.0236
T02C0.0276
T03C0.0320
T04C0.0354
T05C0.0440
T06C0.0472
T07C0.0787
%
T01
X12550Y16425
X23425Y7675
X26300Y7675
X28675Y10425
X28675Y12675
X25675Y20175
T02
X20925Y15300
X18925Y15300
X4627Y14055
X4115Y13740
X4627Y13425
X4115Y13110
X4627Y12795
T03
X13425Y9550
X14425Y9550
X15425Y9550
X16425Y9550
X17425Y9550
X18425Y9550
X19425Y9550
X20425Y9550
X21425Y9550
X22425Y9550
X23425Y9550
X24425Y9550
X25425Y9550
X26425Y9550
X27675Y8550
X31675Y8550
X31175Y12175
X27925Y14800
X27675Y16550
X29675Y16550
X31175Y16175
X30675Y18550
X29675Y18550
X28675Y18550
X27675Y18550
X26675Y18550
X25675Y18550
X24675Y18550
X23675Y18550
X21425Y19050
X21425Y17050
X18425Y17050
X16175Y18550
X15175Y18550
X14175Y18550
X13175Y18550
X12175Y18550
X11175Y18550
X10175Y18550
X9175Y18550
X8175Y18550
X7175Y18550
X6175Y18550
X5175Y18550
X4175Y18550
X3175Y18550
X3175Y21550
X4175Y21550
X5175Y21550
X6175Y21550
X7175Y21550
X8175Y21550
X9175Y21550
X10175Y21550
X11175Y21550
X12175Y21550
X13175Y21550
X14175Y21550
X15175Y21550
X16175Y21550
X18425Y19050
X23675Y21550
X24675Y21550
X25675Y21550
X26675Y21550
X27675Y21550
X28675Y21550
X29675Y21550
X30675Y21550
X31675Y21550
X32675Y21550
X33675Y21550
X34675Y21550
X35675Y21550
X36675Y21550
X36675Y18550
X35675Y18550
X34675Y18550
X33675Y18550
X32675Y18550
X31675Y18550
X23925Y14800
X23425Y12550
X22425Y12550
X21425Y12550
X20425Y12550
X19425Y12550
X18425Y12550
X17425Y12550
X16425Y12550
X15425Y12550
X14425Y12550
X13425Y12550
X11925Y14800
X9175Y16550
X7175Y16550
X6800Y13800
X7800Y13800
X15925Y14800
X24425Y12550
X25425Y12550
X26425Y12550
X20925Y7675
X18925Y7675
T04
X9175Y9675
X10175Y9675
X10175Y10675
X9175Y10675
X9175Y11675
X10175Y11675
X10175Y24175
X8675Y24175
X6675Y24175
X5175Y24175
X3175Y24175
X3175Y26175
X5175Y26175
X6675Y26175
X8675Y26175
X10175Y26175
X12175Y26175
X13675Y26175
X15675Y26175
X17175Y26175
X19175Y26175
X20675Y26175
X22675Y26175
X24175Y26175
X26175Y26175
X27675Y26175
X29675Y26175
X31175Y26175
X33175Y26175
X34675Y26175
X36675Y26175
X36675Y24175
X34675Y24175
X33175Y24175
X31175Y24175
X29675Y24175
X27675Y24175
X26175Y24175
X24175Y24175
X22675Y24175
X20675Y24175
X19175Y24175
X17175Y24175
X15675Y24175
X13675Y24175
X12175Y24175
T05
X32175Y10300
X36175Y10300
T06
X37019Y4925
X35050Y4925
X33081Y4925
X37425Y12925
X37425Y14925
X6269Y4925
X4300Y4925
X2331Y4925
T07
X2599Y11988
X2599Y14862
M30
