G75*
%MOIN*%
%OFA0B0*%
%FSLAX24Y24*%
%IPPOS*%
%LPD*%
%AMOC8*
5,1,8,0,0,1.08239X$1,22.5*
%
%ADD10C,0.0000*%
%ADD11C,0.0480*%
%ADD12OC8,0.0480*%
%ADD13C,0.1500*%
%ADD14C,0.0413*%
%ADD15C,0.0860*%
%ADD16C,0.0650*%
%ADD17C,0.0700*%
%ADD18C,0.0640*%
%ADD19OC8,0.0630*%
%ADD20C,0.0630*%
%ADD21C,0.0660*%
%ADD22C,0.0400*%
%ADD23C,0.0150*%
%ADD24C,0.0120*%
%ADD25C,0.0356*%
D10*
X000675Y000675D02*
X039175Y000675D01*
X039175Y027675D01*
X000675Y027675D01*
X000675Y000675D01*
D11*
X013425Y009310D02*
X013425Y009790D01*
X014425Y009790D02*
X014425Y009310D01*
X015425Y009310D02*
X015425Y009790D01*
X016425Y009790D02*
X016425Y009310D01*
X017425Y009310D02*
X017425Y009790D01*
X018425Y009790D02*
X018425Y009310D01*
X019425Y009310D02*
X019425Y009790D01*
X020425Y009790D02*
X020425Y009310D01*
X021425Y009310D02*
X021425Y009790D01*
X022425Y009790D02*
X022425Y009310D01*
X023425Y009310D02*
X023425Y009790D01*
X024425Y009790D02*
X024425Y009310D01*
X025425Y009310D02*
X025425Y009790D01*
X026425Y009790D02*
X026425Y009310D01*
X026425Y012310D02*
X026425Y012790D01*
X025425Y012790D02*
X025425Y012310D01*
X024425Y012310D02*
X024425Y012790D01*
X023425Y012790D02*
X023425Y012310D01*
X022425Y012310D02*
X022425Y012790D01*
X021425Y012790D02*
X021425Y012310D01*
X020425Y012310D02*
X020425Y012790D01*
X019425Y012790D02*
X019425Y012310D01*
X018425Y012310D02*
X018425Y012790D01*
X017425Y012790D02*
X017425Y012310D01*
X016425Y012310D02*
X016425Y012790D01*
X015425Y012790D02*
X015425Y012310D01*
X014425Y012310D02*
X014425Y012790D01*
X013425Y012790D02*
X013425Y012310D01*
X013175Y018310D02*
X013175Y018790D01*
X014175Y018790D02*
X014175Y018310D01*
X015175Y018310D02*
X015175Y018790D01*
X016175Y018790D02*
X016175Y018310D01*
X012175Y018310D02*
X012175Y018790D01*
X011175Y018790D02*
X011175Y018310D01*
X010175Y018310D02*
X010175Y018790D01*
X009175Y018790D02*
X009175Y018310D01*
X008175Y018310D02*
X008175Y018790D01*
X007175Y018790D02*
X007175Y018310D01*
X006175Y018310D02*
X006175Y018790D01*
X005175Y018790D02*
X005175Y018310D01*
X004175Y018310D02*
X004175Y018790D01*
X003175Y018790D02*
X003175Y018310D01*
X003175Y021310D02*
X003175Y021790D01*
X004175Y021790D02*
X004175Y021310D01*
X005175Y021310D02*
X005175Y021790D01*
X006175Y021790D02*
X006175Y021310D01*
X007175Y021310D02*
X007175Y021790D01*
X008175Y021790D02*
X008175Y021310D01*
X009175Y021310D02*
X009175Y021790D01*
X010175Y021790D02*
X010175Y021310D01*
X011175Y021310D02*
X011175Y021790D01*
X012175Y021790D02*
X012175Y021310D01*
X013175Y021310D02*
X013175Y021790D01*
X014175Y021790D02*
X014175Y021310D01*
X015175Y021310D02*
X015175Y021790D01*
X016175Y021790D02*
X016175Y021310D01*
X023675Y021310D02*
X023675Y021790D01*
X024675Y021790D02*
X024675Y021310D01*
X025675Y021310D02*
X025675Y021790D01*
X026675Y021790D02*
X026675Y021310D01*
X027675Y021310D02*
X027675Y021790D01*
X028675Y021790D02*
X028675Y021310D01*
X029675Y021310D02*
X029675Y021790D01*
X030675Y021790D02*
X030675Y021310D01*
X031675Y021310D02*
X031675Y021790D01*
X032675Y021790D02*
X032675Y021310D01*
X033675Y021310D02*
X033675Y021790D01*
X034675Y021790D02*
X034675Y021310D01*
X035675Y021310D02*
X035675Y021790D01*
X036675Y021790D02*
X036675Y021310D01*
X036675Y018790D02*
X036675Y018310D01*
X035675Y018310D02*
X035675Y018790D01*
X034675Y018790D02*
X034675Y018310D01*
X033675Y018310D02*
X033675Y018790D01*
X032675Y018790D02*
X032675Y018310D01*
X031675Y018310D02*
X031675Y018790D01*
X030675Y018790D02*
X030675Y018310D01*
X029675Y018310D02*
X029675Y018790D01*
X028675Y018790D02*
X028675Y018310D01*
X027675Y018310D02*
X027675Y018790D01*
X026675Y018790D02*
X026675Y018310D01*
X025675Y018310D02*
X025675Y018790D01*
X024675Y018790D02*
X024675Y018310D01*
X023675Y018310D02*
X023675Y018790D01*
D12*
X021425Y019050D03*
X021425Y017050D03*
X018425Y017050D03*
X018425Y019050D03*
X015925Y014800D03*
X011925Y014800D03*
X009175Y016550D03*
X007175Y016550D03*
X018925Y007675D03*
X020925Y007675D03*
X027675Y008550D03*
X031675Y008550D03*
X031175Y012175D03*
X027925Y014800D03*
X027675Y016550D03*
X029675Y016550D03*
X031175Y016175D03*
X023925Y014800D03*
D13*
X002599Y014862D03*
X002599Y011988D03*
D14*
X003702Y013110D02*
X004115Y013110D01*
X004627Y012795D02*
X005040Y012795D01*
X005040Y013425D02*
X004627Y013425D01*
X004115Y013740D02*
X003702Y013740D01*
X004627Y014055D02*
X005040Y014055D01*
D15*
X004300Y004925D03*
X002331Y004925D03*
X006269Y004925D03*
X033081Y004925D03*
X035050Y004925D03*
X037019Y004925D03*
X037425Y012925D03*
X037425Y014925D03*
D16*
X020925Y015300D03*
X018925Y015300D03*
D17*
X019175Y024175D03*
X020675Y024175D03*
X022675Y024175D03*
X024175Y024175D03*
X026175Y024175D03*
X027675Y024175D03*
X029675Y024175D03*
X031175Y024175D03*
X033175Y024175D03*
X034675Y024175D03*
X036675Y024175D03*
X036675Y026175D03*
X034675Y026175D03*
X033175Y026175D03*
X031175Y026175D03*
X029675Y026175D03*
X027675Y026175D03*
X026175Y026175D03*
X024175Y026175D03*
X022675Y026175D03*
X020675Y026175D03*
X019175Y026175D03*
X017175Y026175D03*
X015675Y026175D03*
X013675Y026175D03*
X012175Y026175D03*
X010175Y026175D03*
X008675Y026175D03*
X006675Y026175D03*
X005175Y026175D03*
X003175Y026175D03*
X003175Y024175D03*
X005175Y024175D03*
X006675Y024175D03*
X008675Y024175D03*
X010175Y024175D03*
X012175Y024175D03*
X013675Y024175D03*
X015675Y024175D03*
X017175Y024175D03*
D18*
X010175Y011675D03*
X009175Y011675D03*
X009175Y010675D03*
X010175Y010675D03*
X010175Y009675D03*
X009175Y009675D03*
D19*
X007800Y013800D03*
D20*
X006800Y013800D03*
D21*
X032175Y010300D03*
X036175Y010300D03*
D22*
X036175Y010675D01*
X037425Y011925D01*
X037425Y012925D01*
X037425Y014925D02*
X034675Y012175D01*
X031175Y012175D01*
X031175Y009175D01*
X031675Y008675D01*
X031675Y008550D01*
X027925Y014800D02*
X029675Y016550D01*
X010175Y017675D02*
X010175Y018550D01*
X009175Y018550D02*
X009175Y018300D01*
X007425Y016550D01*
X007175Y016550D01*
X007175Y018550D01*
X007175Y016550D02*
X006800Y016175D01*
X006800Y013800D01*
X006050Y013800D01*
X005795Y014055D01*
X004627Y014055D01*
X004627Y012795D02*
X008055Y012795D01*
X009175Y011675D01*
X007800Y013050D01*
X007800Y013800D01*
X007800Y015175D01*
X009175Y016550D01*
X009175Y016675D01*
X010175Y017675D01*
D23*
X010170Y017895D02*
X010170Y018545D01*
X009760Y018545D01*
X009760Y018277D01*
X009770Y018213D01*
X009790Y018151D01*
X009820Y018092D01*
X009858Y018040D01*
X009905Y017993D01*
X009957Y017955D01*
X010016Y017925D01*
X010078Y017905D01*
X010142Y017895D01*
X010170Y017895D01*
X010180Y017895D02*
X010208Y017895D01*
X010272Y017905D01*
X010334Y017925D01*
X010393Y017955D01*
X010445Y017993D01*
X010492Y018040D01*
X010530Y018092D01*
X010560Y018151D01*
X010580Y018213D01*
X010590Y018277D01*
X010590Y018545D01*
X010180Y018545D01*
X010180Y018555D01*
X010170Y018555D01*
X010170Y019205D01*
X010142Y019205D01*
X010078Y019195D01*
X010016Y019175D01*
X009957Y019145D01*
X009905Y019107D01*
X009858Y019060D01*
X009820Y019008D01*
X009790Y018949D01*
X009770Y018887D01*
X009760Y018823D01*
X009760Y018555D01*
X010170Y018555D01*
X010170Y018545D01*
X010180Y018545D01*
X010180Y017895D01*
X010180Y017941D02*
X010170Y017941D01*
X010170Y018089D02*
X010180Y018089D01*
X010170Y018238D02*
X010180Y018238D01*
X010170Y018386D02*
X010180Y018386D01*
X010170Y018535D02*
X010180Y018535D01*
X010180Y018555D02*
X010590Y018555D01*
X010590Y018823D01*
X010580Y018887D01*
X010560Y018949D01*
X010530Y019008D01*
X010492Y019060D01*
X010445Y019107D01*
X010393Y019145D01*
X010334Y019175D01*
X010272Y019195D01*
X010208Y019205D01*
X010180Y019205D01*
X010180Y018555D01*
X010170Y018683D02*
X010180Y018683D01*
X010170Y018832D02*
X010180Y018832D01*
X010170Y018980D02*
X010180Y018980D01*
X010170Y019129D02*
X010180Y019129D01*
X010415Y019129D02*
X010898Y019129D01*
X010929Y019159D02*
X010806Y019036D01*
X010740Y018877D01*
X010740Y018223D01*
X010806Y018064D01*
X010929Y017941D01*
X011088Y017875D01*
X011262Y017875D01*
X011421Y017941D01*
X011544Y018064D01*
X011610Y018223D01*
X011610Y018877D01*
X011544Y019036D01*
X011421Y019159D01*
X011262Y019225D01*
X011088Y019225D01*
X010929Y019159D01*
X010783Y018980D02*
X010544Y018980D01*
X010589Y018832D02*
X010740Y018832D01*
X010740Y018683D02*
X010590Y018683D01*
X010590Y018535D02*
X010740Y018535D01*
X010740Y018386D02*
X010590Y018386D01*
X010584Y018238D02*
X010740Y018238D01*
X010796Y018089D02*
X010527Y018089D01*
X010364Y017941D02*
X010930Y017941D01*
X011420Y017941D02*
X011920Y017941D01*
X011920Y017950D02*
X011920Y017531D01*
X010281Y015891D01*
X010209Y015819D01*
X010170Y015726D01*
X010170Y013874D01*
X010209Y013781D01*
X010281Y013709D01*
X013170Y010819D01*
X013170Y010150D01*
X013056Y010036D01*
X012990Y009877D01*
X012990Y009223D01*
X013056Y009064D01*
X013179Y008941D01*
X013338Y008875D01*
X013512Y008875D01*
X013671Y008941D01*
X013794Y009064D01*
X013860Y009223D01*
X013860Y009877D01*
X013794Y010036D01*
X013680Y010150D01*
X013680Y010976D01*
X013641Y011069D01*
X013569Y011141D01*
X010680Y014031D01*
X010680Y015569D01*
X012391Y017281D01*
X012430Y017374D01*
X012430Y017950D01*
X012544Y018064D01*
X012610Y018223D01*
X012610Y018877D01*
X012544Y019036D01*
X012470Y019110D01*
X013281Y019920D01*
X014559Y019920D01*
X013959Y019319D01*
X013920Y019226D01*
X013920Y019150D01*
X013806Y019036D01*
X013740Y018877D01*
X013740Y018223D01*
X013806Y018064D01*
X013929Y017941D01*
X014088Y017875D01*
X014262Y017875D01*
X014421Y017941D01*
X014544Y018064D01*
X014610Y018223D01*
X014610Y018877D01*
X014544Y019036D01*
X014470Y019110D01*
X014906Y019545D01*
X024944Y019545D01*
X025380Y019110D01*
X025306Y019036D01*
X025240Y018877D01*
X025240Y018223D01*
X025306Y018064D01*
X025429Y017941D01*
X025588Y017875D01*
X025762Y017875D01*
X025921Y017941D01*
X026044Y018064D01*
X026110Y018223D01*
X026110Y018877D01*
X026044Y019036D01*
X025930Y019150D01*
X025930Y019226D01*
X025891Y019319D01*
X025819Y019391D01*
X025291Y019920D01*
X025402Y019920D01*
X025464Y019859D01*
X025601Y019802D01*
X025749Y019802D01*
X025886Y019859D01*
X025991Y019964D01*
X026048Y020101D01*
X026048Y020249D01*
X025991Y020386D01*
X025958Y020420D01*
X026069Y020420D01*
X026420Y020069D01*
X026420Y019150D01*
X026306Y019036D01*
X026240Y018877D01*
X026240Y018223D01*
X026276Y018137D01*
X024569Y016430D01*
X024124Y016430D01*
X024031Y016391D01*
X023031Y015391D01*
X022959Y015319D01*
X022920Y015226D01*
X022920Y014281D01*
X022281Y013641D01*
X022209Y013569D01*
X022170Y013476D01*
X022170Y013150D01*
X022056Y013036D01*
X021990Y012877D01*
X021990Y012223D01*
X022056Y012064D01*
X022179Y011941D01*
X022206Y011930D01*
X021644Y011930D01*
X021671Y011941D01*
X021794Y012064D01*
X021860Y012223D01*
X021860Y012877D01*
X021794Y013036D01*
X021671Y013159D01*
X021512Y013225D01*
X021338Y013225D01*
X021179Y013159D01*
X021056Y013036D01*
X020990Y012877D01*
X020990Y012223D01*
X021056Y012064D01*
X021179Y011941D01*
X021206Y011930D01*
X020644Y011930D01*
X020671Y011941D01*
X020794Y012064D01*
X020860Y012223D01*
X020860Y012877D01*
X020794Y013036D01*
X020671Y013159D01*
X020512Y013225D01*
X020338Y013225D01*
X020179Y013159D01*
X020056Y013036D01*
X019990Y012877D01*
X019990Y012223D01*
X020056Y012064D01*
X020179Y011941D01*
X020206Y011930D01*
X019593Y011930D01*
X019643Y011955D01*
X019695Y011993D01*
X019742Y012040D01*
X019780Y012092D01*
X019810Y012151D01*
X019830Y012213D01*
X019840Y012277D01*
X019840Y012545D01*
X019430Y012545D01*
X019430Y012555D01*
X019420Y012555D01*
X019420Y013205D01*
X019392Y013205D01*
X019328Y013195D01*
X019266Y013175D01*
X019207Y013145D01*
X019155Y013107D01*
X019108Y013060D01*
X019070Y013008D01*
X019040Y012949D01*
X019020Y012887D01*
X019010Y012823D01*
X019010Y012555D01*
X019420Y012555D01*
X019420Y012545D01*
X019010Y012545D01*
X019010Y012277D01*
X019020Y012213D01*
X019040Y012151D01*
X019070Y012092D01*
X019108Y012040D01*
X019155Y011993D01*
X019207Y011955D01*
X019257Y011930D01*
X018644Y011930D01*
X018671Y011941D01*
X018794Y012064D01*
X018860Y012223D01*
X018860Y012877D01*
X018794Y013036D01*
X018671Y013159D01*
X018512Y013225D01*
X018338Y013225D01*
X018179Y013159D01*
X018056Y013036D01*
X017990Y012877D01*
X017990Y012223D01*
X018056Y012064D01*
X018179Y011941D01*
X018206Y011930D01*
X017644Y011930D01*
X017671Y011941D01*
X017794Y012064D01*
X017860Y012223D01*
X017860Y012877D01*
X017794Y013036D01*
X017671Y013159D01*
X017512Y013225D01*
X017338Y013225D01*
X017179Y013159D01*
X017056Y013036D01*
X016990Y012877D01*
X016990Y012223D01*
X017056Y012064D01*
X017179Y011941D01*
X017206Y011930D01*
X016644Y011930D01*
X016671Y011941D01*
X016794Y012064D01*
X016860Y012223D01*
X016860Y012877D01*
X016794Y013036D01*
X016671Y013159D01*
X016512Y013225D01*
X016338Y013225D01*
X016179Y013159D01*
X016056Y013036D01*
X015990Y012877D01*
X015990Y012223D01*
X016056Y012064D01*
X016179Y011941D01*
X016206Y011930D01*
X015644Y011930D01*
X015671Y011941D01*
X015794Y012064D01*
X015860Y012223D01*
X015860Y012877D01*
X015794Y013036D01*
X015671Y013159D01*
X015512Y013225D01*
X015338Y013225D01*
X015179Y013159D01*
X015056Y013036D01*
X014990Y012877D01*
X014990Y012223D01*
X015056Y012064D01*
X015179Y011941D01*
X015206Y011930D01*
X014999Y011930D01*
X014906Y011891D01*
X014425Y011411D01*
X014180Y011656D01*
X014180Y011941D01*
X014338Y011875D01*
X014512Y011875D01*
X014671Y011941D01*
X014794Y012064D01*
X014860Y012223D01*
X014860Y012877D01*
X014794Y013036D01*
X014671Y013159D01*
X014512Y013225D01*
X014338Y013225D01*
X014180Y013159D01*
X014180Y014351D01*
X014141Y014444D01*
X014069Y014516D01*
X013555Y015031D01*
X013555Y015726D01*
X013516Y015819D01*
X012923Y016413D01*
X012923Y016499D01*
X012866Y016636D01*
X012761Y016741D01*
X012624Y016798D01*
X012476Y016798D01*
X012339Y016741D01*
X012234Y016636D01*
X012177Y016499D01*
X012177Y016351D01*
X012234Y016214D01*
X012339Y016109D01*
X012476Y016052D01*
X012562Y016052D01*
X013045Y015569D01*
X013045Y014874D01*
X013084Y014781D01*
X013670Y014194D01*
X013670Y013159D01*
X013512Y013225D01*
X013338Y013225D01*
X013179Y013159D01*
X013056Y013036D01*
X012990Y012877D01*
X012990Y012223D01*
X013056Y012064D01*
X013179Y011941D01*
X013338Y011875D01*
X013512Y011875D01*
X013670Y011941D01*
X013670Y011499D01*
X013709Y011406D01*
X013781Y011334D01*
X014170Y010944D01*
X014170Y010150D01*
X014056Y010036D01*
X013990Y009877D01*
X013990Y009223D01*
X014056Y009064D01*
X014179Y008941D01*
X014338Y008875D01*
X014512Y008875D01*
X014671Y008941D01*
X014794Y009064D01*
X014860Y009223D01*
X014860Y009877D01*
X014794Y010036D01*
X014680Y010150D01*
X014680Y010944D01*
X015156Y011420D01*
X015725Y011420D01*
X015656Y011391D01*
X015584Y011319D01*
X015281Y011016D01*
X015281Y011016D01*
X015209Y010944D01*
X015170Y010851D01*
X015170Y010150D01*
X015056Y010036D01*
X014990Y009877D01*
X014990Y009223D01*
X015056Y009064D01*
X015179Y008941D01*
X015338Y008875D01*
X015512Y008875D01*
X015671Y008941D01*
X015794Y009064D01*
X015860Y009223D01*
X015860Y009877D01*
X015794Y010036D01*
X015680Y010150D01*
X015680Y010694D01*
X015906Y010920D01*
X028226Y010920D01*
X028319Y010959D01*
X030281Y012920D01*
X031726Y012920D01*
X031819Y012959D01*
X034891Y016031D01*
X034930Y016124D01*
X034930Y017950D01*
X035044Y018064D01*
X035110Y018223D01*
X035110Y018877D01*
X035044Y019036D01*
X034921Y019159D01*
X034762Y019225D01*
X034588Y019225D01*
X034429Y019159D01*
X034306Y019036D01*
X034240Y018877D01*
X034240Y018223D01*
X034306Y018064D01*
X034420Y017950D01*
X034420Y016281D01*
X031569Y013430D01*
X030124Y013430D01*
X030031Y013391D01*
X029959Y013319D01*
X028069Y011430D01*
X026750Y011430D01*
X026819Y011459D01*
X026891Y011531D01*
X027891Y012531D01*
X027930Y012624D01*
X027930Y013319D01*
X030531Y015920D01*
X030815Y015920D01*
X030995Y015740D01*
X031355Y015740D01*
X031610Y015995D01*
X031610Y016355D01*
X031355Y016610D01*
X030995Y016610D01*
X030815Y016430D01*
X030374Y016430D01*
X030281Y016391D01*
X027531Y013641D01*
X027459Y013569D01*
X027420Y013476D01*
X027420Y012781D01*
X026858Y012219D01*
X026860Y012223D01*
X026860Y012877D01*
X026794Y013036D01*
X026671Y013159D01*
X026512Y013225D01*
X026338Y013225D01*
X026179Y013159D01*
X026056Y013036D01*
X025990Y012877D01*
X025990Y012223D01*
X026056Y012064D01*
X026179Y011941D01*
X026206Y011930D01*
X025644Y011930D01*
X025671Y011941D01*
X025794Y012064D01*
X025860Y012223D01*
X025860Y012877D01*
X025794Y013036D01*
X025671Y013159D01*
X025512Y013225D01*
X025338Y013225D01*
X025179Y013159D01*
X025056Y013036D01*
X024990Y012877D01*
X024990Y012223D01*
X025056Y012064D01*
X025179Y011941D01*
X025206Y011930D01*
X024644Y011930D01*
X024671Y011941D01*
X024794Y012064D01*
X024860Y012223D01*
X024860Y012877D01*
X024794Y013036D01*
X024671Y013159D01*
X024512Y013225D01*
X024338Y013225D01*
X024179Y013159D01*
X024056Y013036D01*
X023990Y012877D01*
X023990Y012223D01*
X024056Y012064D01*
X024179Y011941D01*
X024206Y011930D01*
X023644Y011930D01*
X023671Y011941D01*
X023794Y012064D01*
X023860Y012223D01*
X023860Y012877D01*
X023794Y013036D01*
X023671Y013159D01*
X023512Y013225D01*
X023338Y013225D01*
X023179Y013159D01*
X023056Y013036D01*
X022990Y012877D01*
X022990Y012223D01*
X023056Y012064D01*
X023179Y011941D01*
X023206Y011930D01*
X022644Y011930D01*
X022671Y011941D01*
X022794Y012064D01*
X022860Y012223D01*
X022860Y012877D01*
X022794Y013036D01*
X022680Y013150D01*
X022680Y013319D01*
X023391Y014031D01*
X023430Y014124D01*
X023430Y015069D01*
X024281Y015920D01*
X024726Y015920D01*
X024819Y015959D01*
X024891Y016031D01*
X026736Y017875D01*
X026762Y017875D01*
X026921Y017941D01*
X027044Y018064D01*
X027110Y018223D01*
X027110Y018877D01*
X027044Y019036D01*
X026930Y019150D01*
X026930Y020226D01*
X026891Y020319D01*
X026319Y020891D01*
X026226Y020930D01*
X025894Y020930D01*
X025921Y020941D01*
X026044Y021064D01*
X026110Y021223D01*
X026110Y021877D01*
X026044Y022036D01*
X025921Y022159D01*
X025762Y022225D01*
X025588Y022225D01*
X025429Y022159D01*
X025306Y022036D01*
X025240Y021877D01*
X025240Y021223D01*
X025306Y021064D01*
X025429Y020941D01*
X025456Y020930D01*
X024894Y020930D01*
X024921Y020941D01*
X025044Y021064D01*
X025110Y021223D01*
X025110Y021877D01*
X025044Y022036D01*
X024921Y022159D01*
X024762Y022225D01*
X024588Y022225D01*
X024429Y022159D01*
X024306Y022036D01*
X024240Y021877D01*
X024240Y021223D01*
X024306Y021064D01*
X024429Y020941D01*
X024456Y020930D01*
X023894Y020930D01*
X023921Y020941D01*
X024044Y021064D01*
X024110Y021223D01*
X024110Y021877D01*
X024044Y022036D01*
X023921Y022159D01*
X023762Y022225D01*
X023588Y022225D01*
X023429Y022159D01*
X023306Y022036D01*
X023240Y021877D01*
X023240Y021223D01*
X023306Y021064D01*
X023429Y020941D01*
X023456Y020930D01*
X016394Y020930D01*
X016421Y020941D01*
X016544Y021064D01*
X016610Y021223D01*
X016610Y021877D01*
X016544Y022036D01*
X016421Y022159D01*
X016262Y022225D01*
X016088Y022225D01*
X015929Y022159D01*
X015806Y022036D01*
X015740Y021877D01*
X015740Y021223D01*
X015806Y021064D01*
X015929Y020941D01*
X015956Y020930D01*
X015394Y020930D01*
X015421Y020941D01*
X015544Y021064D01*
X015610Y021223D01*
X015610Y021877D01*
X015544Y022036D01*
X015421Y022159D01*
X015262Y022225D01*
X015088Y022225D01*
X014929Y022159D01*
X014806Y022036D01*
X014740Y021877D01*
X014740Y021223D01*
X014806Y021064D01*
X014929Y020941D01*
X014956Y020930D01*
X014394Y020930D01*
X014421Y020941D01*
X014544Y021064D01*
X014610Y021223D01*
X014610Y021877D01*
X014544Y022036D01*
X014421Y022159D01*
X014262Y022225D01*
X014088Y022225D01*
X013929Y022159D01*
X013806Y022036D01*
X013740Y021877D01*
X013740Y021223D01*
X013806Y021064D01*
X013929Y020941D01*
X013956Y020930D01*
X013394Y020930D01*
X013421Y020941D01*
X013544Y021064D01*
X013610Y021223D01*
X013610Y021877D01*
X013544Y022036D01*
X013421Y022159D01*
X013262Y022225D01*
X013088Y022225D01*
X012929Y022159D01*
X012806Y022036D01*
X012740Y021877D01*
X012740Y021223D01*
X012806Y021064D01*
X012929Y020941D01*
X012956Y020930D01*
X012394Y020930D01*
X012421Y020941D01*
X012544Y021064D01*
X012610Y021223D01*
X012610Y021877D01*
X012544Y022036D01*
X012421Y022159D01*
X012262Y022225D01*
X012088Y022225D01*
X011929Y022159D01*
X011806Y022036D01*
X011740Y021877D01*
X011740Y021223D01*
X011806Y021064D01*
X011929Y020941D01*
X011956Y020930D01*
X011394Y020930D01*
X011421Y020941D01*
X011544Y021064D01*
X011610Y021223D01*
X011610Y021877D01*
X011544Y022036D01*
X011421Y022159D01*
X011262Y022225D01*
X011088Y022225D01*
X010929Y022159D01*
X010806Y022036D01*
X010740Y021877D01*
X010740Y021223D01*
X010806Y021064D01*
X010929Y020941D01*
X010956Y020930D01*
X010394Y020930D01*
X010421Y020941D01*
X010544Y021064D01*
X010610Y021223D01*
X010610Y021877D01*
X010544Y022036D01*
X010421Y022159D01*
X010262Y022225D01*
X010088Y022225D01*
X009929Y022159D01*
X009806Y022036D01*
X009740Y021877D01*
X009740Y021223D01*
X009806Y021064D01*
X009929Y020941D01*
X009956Y020930D01*
X009394Y020930D01*
X009421Y020941D01*
X009544Y021064D01*
X009610Y021223D01*
X009610Y021877D01*
X009544Y022036D01*
X009421Y022159D01*
X009262Y022225D01*
X009088Y022225D01*
X008929Y022159D01*
X008806Y022036D01*
X008740Y021877D01*
X008740Y021223D01*
X008806Y021064D01*
X008929Y020941D01*
X008956Y020930D01*
X008394Y020930D01*
X008421Y020941D01*
X008544Y021064D01*
X008610Y021223D01*
X008610Y021877D01*
X008544Y022036D01*
X008421Y022159D01*
X008262Y022225D01*
X008088Y022225D01*
X007929Y022159D01*
X007806Y022036D01*
X007740Y021877D01*
X007740Y021223D01*
X007806Y021064D01*
X007929Y020941D01*
X007956Y020930D01*
X007394Y020930D01*
X007421Y020941D01*
X007544Y021064D01*
X007610Y021223D01*
X007610Y021877D01*
X007544Y022036D01*
X007421Y022159D01*
X007262Y022225D01*
X007088Y022225D01*
X006929Y022159D01*
X006806Y022036D01*
X006740Y021877D01*
X006740Y021223D01*
X006806Y021064D01*
X006929Y020941D01*
X006956Y020930D01*
X006624Y020930D01*
X006531Y020891D01*
X005959Y020319D01*
X005920Y020226D01*
X005920Y019150D01*
X005806Y019036D01*
X005740Y018877D01*
X005740Y018223D01*
X005806Y018064D01*
X005929Y017941D01*
X006088Y017875D01*
X006262Y017875D01*
X006421Y017941D01*
X006544Y018064D01*
X006610Y018223D01*
X006610Y018877D01*
X006544Y019036D01*
X006430Y019150D01*
X006430Y020069D01*
X006781Y020420D01*
X013100Y020420D01*
X013031Y020391D01*
X012959Y020319D01*
X011959Y019319D01*
X011920Y019226D01*
X011920Y019150D01*
X011806Y019036D01*
X011740Y018877D01*
X011740Y018223D01*
X011806Y018064D01*
X011920Y017950D01*
X011920Y017792D02*
X009226Y017792D01*
X009342Y017908D02*
X009421Y017941D01*
X009544Y018064D01*
X009610Y018223D01*
X009610Y018877D01*
X009544Y019036D01*
X009421Y019159D01*
X009262Y019225D01*
X009088Y019225D01*
X008929Y019159D01*
X008806Y019036D01*
X008740Y018877D01*
X008740Y018424D01*
X008610Y018294D01*
X008610Y018877D01*
X008544Y019036D01*
X008421Y019159D01*
X008262Y019225D01*
X008088Y019225D01*
X007929Y019159D01*
X007806Y019036D01*
X007740Y018877D01*
X007740Y018223D01*
X007806Y018064D01*
X007929Y017941D01*
X008088Y017875D01*
X008191Y017875D01*
X007570Y017254D01*
X007570Y018127D01*
X007610Y018223D01*
X007610Y018877D01*
X007544Y019036D01*
X007421Y019159D01*
X007262Y019225D01*
X007088Y019225D01*
X006929Y019159D01*
X006806Y019036D01*
X006740Y018877D01*
X006740Y018223D01*
X006780Y018127D01*
X006780Y016770D01*
X006740Y016730D01*
X006740Y016674D01*
X006465Y016399D01*
X006405Y016254D01*
X006405Y014195D01*
X006214Y014195D01*
X006019Y014390D01*
X005874Y014450D01*
X005136Y014450D01*
X005120Y014457D01*
X004547Y014457D01*
X004399Y014395D01*
X004286Y014282D01*
X004225Y014135D01*
X004225Y014129D01*
X004195Y014142D01*
X003622Y014142D01*
X003474Y014080D01*
X003361Y013968D01*
X003300Y013820D01*
X003300Y013660D01*
X003361Y013512D01*
X003448Y013425D01*
X003361Y013338D01*
X003300Y013190D01*
X003300Y013030D01*
X003361Y012882D01*
X003474Y012770D01*
X003622Y012708D01*
X004195Y012708D01*
X004250Y012731D01*
X004260Y012684D01*
X004289Y012614D01*
X004330Y012552D01*
X004383Y012499D01*
X004446Y012457D01*
X004515Y012428D01*
X004589Y012413D01*
X004627Y012413D01*
X005078Y012413D01*
X005151Y012428D01*
X005221Y012457D01*
X005283Y012499D01*
X005337Y012552D01*
X005378Y012614D01*
X005407Y012684D01*
X005422Y012757D01*
X005422Y012795D01*
X004627Y012795D01*
X004627Y012795D01*
X005422Y012795D01*
X005422Y012833D01*
X005407Y012906D01*
X005378Y012976D01*
X005337Y013038D01*
X005283Y013092D01*
X005278Y013095D01*
X005381Y013197D01*
X005442Y013345D01*
X005442Y013505D01*
X005381Y013653D01*
X005373Y013660D01*
X005631Y013660D01*
X005715Y013576D01*
X005826Y013465D01*
X005971Y013405D01*
X006474Y013405D01*
X006511Y013368D01*
X006699Y013290D01*
X006901Y013290D01*
X007089Y013368D01*
X007232Y013511D01*
X007310Y013699D01*
X007310Y013901D01*
X007232Y014089D01*
X007195Y014126D01*
X007195Y016011D01*
X007299Y016115D01*
X007355Y016115D01*
X007395Y016155D01*
X007504Y016155D01*
X007649Y016215D01*
X007760Y016326D01*
X009342Y017908D01*
X009420Y017941D02*
X009986Y017941D01*
X009823Y018089D02*
X009554Y018089D01*
X009610Y018238D02*
X009766Y018238D01*
X009760Y018386D02*
X009610Y018386D01*
X009610Y018535D02*
X009760Y018535D01*
X009760Y018683D02*
X009610Y018683D01*
X009610Y018832D02*
X009761Y018832D01*
X009806Y018980D02*
X009567Y018980D01*
X009452Y019129D02*
X009935Y019129D01*
X008898Y019129D02*
X008452Y019129D01*
X008567Y018980D02*
X008783Y018980D01*
X008740Y018832D02*
X008610Y018832D01*
X008610Y018683D02*
X008740Y018683D01*
X008740Y018535D02*
X008610Y018535D01*
X008610Y018386D02*
X008702Y018386D01*
X009077Y017644D02*
X011920Y017644D01*
X011884Y017495D02*
X008929Y017495D01*
X008780Y017347D02*
X011736Y017347D01*
X011587Y017198D02*
X008632Y017198D01*
X008483Y017050D02*
X011439Y017050D01*
X011290Y016901D02*
X009411Y016901D01*
X009347Y016965D02*
X009180Y016965D01*
X009180Y016555D01*
X009590Y016555D01*
X009590Y016722D01*
X009347Y016965D01*
X009170Y016965D02*
X009003Y016965D01*
X008760Y016722D01*
X008760Y016555D01*
X009170Y016555D01*
X009170Y016965D01*
X009170Y016901D02*
X009180Y016901D01*
X009170Y016753D02*
X009180Y016753D01*
X009170Y016604D02*
X009180Y016604D01*
X009180Y016555D02*
X009170Y016555D01*
X009170Y016545D01*
X009180Y016545D01*
X009180Y016555D01*
X009180Y016545D02*
X009590Y016545D01*
X009590Y016378D01*
X009347Y016135D01*
X009180Y016135D01*
X009180Y016545D01*
X009170Y016545D02*
X009170Y016135D01*
X009003Y016135D01*
X008760Y016378D01*
X008760Y016545D01*
X009170Y016545D01*
X009170Y016456D02*
X009180Y016456D01*
X009170Y016307D02*
X009180Y016307D01*
X009170Y016159D02*
X009180Y016159D01*
X009370Y016159D02*
X010548Y016159D01*
X010696Y016307D02*
X009519Y016307D01*
X009590Y016456D02*
X010845Y016456D01*
X010993Y016604D02*
X009590Y016604D01*
X009559Y016753D02*
X011142Y016753D01*
X011566Y016456D02*
X012177Y016456D01*
X012195Y016307D02*
X011418Y016307D01*
X011269Y016159D02*
X012289Y016159D01*
X012604Y016010D02*
X011121Y016010D01*
X010972Y015862D02*
X012753Y015862D01*
X012901Y015713D02*
X010824Y015713D01*
X010680Y015565D02*
X013045Y015565D01*
X013045Y015416D02*
X010680Y015416D01*
X010680Y015268D02*
X013045Y015268D01*
X013045Y015119D02*
X012221Y015119D01*
X012105Y015235D02*
X011745Y015235D01*
X011490Y014980D01*
X011490Y014620D01*
X011745Y014365D01*
X012105Y014365D01*
X012360Y014620D01*
X012360Y014980D01*
X012105Y015235D01*
X012360Y014971D02*
X013045Y014971D01*
X013067Y014822D02*
X012360Y014822D01*
X012360Y014674D02*
X013191Y014674D01*
X013339Y014525D02*
X012265Y014525D01*
X012117Y014377D02*
X013488Y014377D01*
X013636Y014228D02*
X010680Y014228D01*
X010680Y014080D02*
X013670Y014080D01*
X013670Y013931D02*
X010780Y013931D01*
X010928Y013783D02*
X013670Y013783D01*
X013670Y013634D02*
X011077Y013634D01*
X011225Y013486D02*
X013670Y013486D01*
X013670Y013337D02*
X011374Y013337D01*
X011522Y013189D02*
X013250Y013189D01*
X013060Y013040D02*
X011671Y013040D01*
X011819Y012892D02*
X012996Y012892D01*
X012990Y012743D02*
X011968Y012743D01*
X012116Y012595D02*
X012990Y012595D01*
X012990Y012446D02*
X012265Y012446D01*
X012413Y012298D02*
X012990Y012298D01*
X013021Y012149D02*
X012562Y012149D01*
X012710Y012001D02*
X013119Y012001D01*
X012859Y011852D02*
X013670Y011852D01*
X013670Y011704D02*
X013007Y011704D01*
X013156Y011555D02*
X013670Y011555D01*
X013708Y011407D02*
X013304Y011407D01*
X013453Y011258D02*
X013856Y011258D01*
X013781Y011334D02*
X013781Y011334D01*
X013569Y011141D02*
X013569Y011141D01*
X013601Y011110D02*
X014005Y011110D01*
X014153Y010961D02*
X013680Y010961D01*
X013680Y010813D02*
X014170Y010813D01*
X014170Y010664D02*
X013680Y010664D01*
X013680Y010516D02*
X014170Y010516D01*
X014170Y010367D02*
X013680Y010367D01*
X013680Y010219D02*
X014170Y010219D01*
X014090Y010070D02*
X013760Y010070D01*
X013841Y009922D02*
X014009Y009922D01*
X013990Y009773D02*
X013860Y009773D01*
X013860Y009625D02*
X013990Y009625D01*
X013990Y009476D02*
X013860Y009476D01*
X013860Y009328D02*
X013990Y009328D01*
X014008Y009179D02*
X013842Y009179D01*
X013761Y009031D02*
X014089Y009031D01*
X014322Y008882D02*
X013528Y008882D01*
X013322Y008882D02*
X012329Y008882D01*
X012406Y008805D02*
X011930Y009281D01*
X011930Y011226D01*
X011891Y011319D01*
X011819Y011391D01*
X011319Y011891D01*
X011226Y011930D01*
X010627Y011930D01*
X010612Y011967D01*
X010467Y012112D01*
X010277Y012190D01*
X010073Y012190D01*
X009883Y012112D01*
X009738Y011967D01*
X009660Y011777D01*
X009658Y011791D01*
X009634Y011865D01*
X009598Y011934D01*
X009553Y011997D01*
X009497Y012053D01*
X009434Y012098D01*
X009365Y012134D01*
X009291Y012158D01*
X009214Y012170D01*
X009189Y012170D01*
X009189Y011689D01*
X009161Y011689D01*
X009161Y012170D01*
X009136Y012170D01*
X009059Y012158D01*
X008985Y012134D01*
X008916Y012098D01*
X008853Y012053D01*
X008797Y011997D01*
X008752Y011934D01*
X008716Y011865D01*
X008692Y011791D01*
X008680Y011714D01*
X008680Y011689D01*
X009161Y011689D01*
X009161Y011661D01*
X008680Y011661D01*
X008680Y011636D01*
X008692Y011559D01*
X008716Y011485D01*
X008752Y011416D01*
X008797Y011353D01*
X008853Y011297D01*
X008916Y011252D01*
X008985Y011216D01*
X009059Y011192D01*
X009073Y011190D01*
X009073Y011190D01*
X008883Y011112D01*
X008738Y010967D01*
X008660Y010777D01*
X008660Y010573D01*
X008738Y010383D01*
X008883Y010238D01*
X009036Y010175D01*
X008883Y010112D01*
X008738Y009967D01*
X008660Y009777D01*
X008660Y009573D01*
X008738Y009383D01*
X008883Y009238D01*
X009073Y009160D01*
X009277Y009160D01*
X009467Y009238D01*
X009612Y009383D01*
X009675Y009536D01*
X009738Y009383D01*
X009883Y009238D01*
X010073Y009160D01*
X010277Y009160D01*
X010467Y009238D01*
X010612Y009383D01*
X010690Y009573D01*
X010690Y009777D01*
X010612Y009967D01*
X010467Y010112D01*
X010314Y010175D01*
X010467Y010238D01*
X010612Y010383D01*
X010690Y010573D01*
X010690Y010777D01*
X010612Y010967D01*
X010467Y011112D01*
X010314Y011175D01*
X010467Y011238D01*
X010612Y011383D01*
X010627Y011420D01*
X011069Y011420D01*
X011420Y011069D01*
X011420Y009124D01*
X011459Y009031D01*
X012084Y008406D01*
X012156Y008334D01*
X012249Y008295D01*
X027315Y008295D01*
X027495Y008115D01*
X027855Y008115D01*
X028110Y008370D01*
X028110Y008730D01*
X027855Y008985D01*
X027495Y008985D01*
X027315Y008805D01*
X012406Y008805D01*
X012180Y009031D02*
X013089Y009031D01*
X013008Y009179D02*
X012032Y009179D01*
X011930Y009328D02*
X012990Y009328D01*
X012990Y009476D02*
X011930Y009476D01*
X011930Y009625D02*
X012990Y009625D01*
X012990Y009773D02*
X011930Y009773D01*
X011930Y009922D02*
X013009Y009922D01*
X013090Y010070D02*
X011930Y010070D01*
X011930Y010219D02*
X013170Y010219D01*
X013170Y010367D02*
X011930Y010367D01*
X011930Y010516D02*
X013170Y010516D01*
X013170Y010664D02*
X011930Y010664D01*
X011930Y010813D02*
X013170Y010813D01*
X013028Y010961D02*
X011930Y010961D01*
X011930Y011110D02*
X012880Y011110D01*
X012731Y011258D02*
X011917Y011258D01*
X011804Y011407D02*
X012583Y011407D01*
X012434Y011555D02*
X011656Y011555D01*
X011507Y011704D02*
X012286Y011704D01*
X012137Y011852D02*
X011359Y011852D01*
X011083Y011407D02*
X010621Y011407D01*
X010486Y011258D02*
X011231Y011258D01*
X011380Y011110D02*
X010469Y011110D01*
X010614Y010961D02*
X011420Y010961D01*
X011420Y010813D02*
X010675Y010813D01*
X010690Y010664D02*
X011420Y010664D01*
X011420Y010516D02*
X010666Y010516D01*
X010595Y010367D02*
X011420Y010367D01*
X011420Y010219D02*
X010419Y010219D01*
X010508Y010070D02*
X011420Y010070D01*
X011420Y009922D02*
X010630Y009922D01*
X010690Y009773D02*
X011420Y009773D01*
X011420Y009625D02*
X010690Y009625D01*
X010650Y009476D02*
X011420Y009476D01*
X011420Y009328D02*
X010556Y009328D01*
X010323Y009179D02*
X011420Y009179D01*
X011459Y009031D02*
X000850Y009031D01*
X000850Y009179D02*
X009027Y009179D01*
X008794Y009328D02*
X000850Y009328D01*
X000850Y009476D02*
X008700Y009476D01*
X008660Y009625D02*
X000850Y009625D01*
X000850Y009773D02*
X008660Y009773D01*
X008720Y009922D02*
X000850Y009922D01*
X000850Y010070D02*
X008842Y010070D01*
X008931Y010219D02*
X000850Y010219D01*
X000850Y010367D02*
X008755Y010367D01*
X008684Y010516D02*
X000850Y010516D01*
X000850Y010664D02*
X008660Y010664D01*
X008675Y010813D02*
X000850Y010813D01*
X000850Y010961D02*
X008736Y010961D01*
X008881Y011110D02*
X002889Y011110D01*
X002856Y011098D02*
X002954Y011132D01*
X003047Y011177D01*
X003135Y011232D01*
X003217Y011297D01*
X003290Y011371D01*
X003355Y011452D01*
X003410Y011540D01*
X003455Y011633D01*
X003489Y011732D01*
X003513Y011833D01*
X003522Y011913D01*
X002674Y011913D01*
X002674Y011066D01*
X002754Y011075D01*
X002856Y011098D01*
X002674Y011110D02*
X002524Y011110D01*
X002524Y011066D02*
X002524Y011913D01*
X001677Y011913D01*
X001686Y011833D01*
X001709Y011732D01*
X001743Y011633D01*
X001788Y011540D01*
X001844Y011452D01*
X001908Y011371D01*
X001982Y011297D01*
X002063Y011232D01*
X002151Y011177D01*
X002245Y011132D01*
X002343Y011098D01*
X002444Y011075D01*
X002524Y011066D01*
X002524Y011258D02*
X002674Y011258D01*
X002674Y011407D02*
X002524Y011407D01*
X002524Y011555D02*
X002674Y011555D01*
X002674Y011704D02*
X002524Y011704D01*
X002524Y011852D02*
X002674Y011852D01*
X002674Y011913D02*
X002524Y011913D01*
X002524Y012063D01*
X001677Y012063D01*
X001686Y012143D01*
X001709Y012244D01*
X001743Y012343D01*
X001788Y012436D01*
X001844Y012524D01*
X001908Y012605D01*
X001982Y012679D01*
X002063Y012744D01*
X002151Y012799D01*
X002245Y012844D01*
X002343Y012878D01*
X002444Y012901D01*
X002524Y012910D01*
X002524Y012063D01*
X002674Y012063D01*
X002674Y012910D01*
X002754Y012901D01*
X002856Y012878D01*
X002954Y012844D01*
X003047Y012799D01*
X003135Y012744D01*
X003217Y012679D01*
X003290Y012605D01*
X003355Y012524D01*
X003410Y012436D01*
X003455Y012343D01*
X003489Y012244D01*
X003513Y012143D01*
X003522Y012063D01*
X002674Y012063D01*
X002674Y011913D01*
X002674Y012001D02*
X008800Y012001D01*
X008712Y011852D02*
X003515Y011852D01*
X003480Y011704D02*
X008680Y011704D01*
X008694Y011555D02*
X003417Y011555D01*
X003319Y011407D02*
X008758Y011407D01*
X008907Y011258D02*
X003167Y011258D01*
X002309Y011110D02*
X000850Y011110D01*
X000850Y011258D02*
X002031Y011258D01*
X001880Y011407D02*
X000850Y011407D01*
X000850Y011555D02*
X001781Y011555D01*
X001719Y011704D02*
X000850Y011704D01*
X000850Y011852D02*
X001684Y011852D01*
X001687Y012149D02*
X000850Y012149D01*
X000850Y012001D02*
X002524Y012001D01*
X002524Y012149D02*
X002674Y012149D01*
X002674Y012298D02*
X002524Y012298D01*
X002524Y012446D02*
X002674Y012446D01*
X002674Y012595D02*
X002524Y012595D01*
X002524Y012743D02*
X002674Y012743D01*
X002674Y012892D02*
X002524Y012892D01*
X002401Y012892D02*
X000850Y012892D01*
X000850Y013040D02*
X003300Y013040D01*
X003300Y013189D02*
X000850Y013189D01*
X000850Y013337D02*
X003361Y013337D01*
X003388Y013486D02*
X000850Y013486D01*
X000850Y013634D02*
X003311Y013634D01*
X003300Y013783D02*
X000850Y013783D01*
X000850Y013931D02*
X003346Y013931D01*
X003473Y014080D02*
X003093Y014080D01*
X003135Y014106D02*
X003217Y014171D01*
X003290Y014245D01*
X003355Y014326D01*
X003410Y014414D01*
X003455Y014507D01*
X003489Y014606D01*
X003513Y014707D01*
X003522Y014787D01*
X002674Y014787D01*
X002674Y013940D01*
X002754Y013949D01*
X002856Y013972D01*
X002954Y014006D01*
X003047Y014051D01*
X003135Y014106D01*
X003273Y014228D02*
X004264Y014228D01*
X004380Y014377D02*
X003387Y014377D01*
X003461Y014525D02*
X006405Y014525D01*
X006405Y014377D02*
X006032Y014377D01*
X006181Y014228D02*
X006405Y014228D01*
X006405Y014674D02*
X003505Y014674D01*
X003522Y014937D02*
X003513Y015017D01*
X003489Y015118D01*
X003455Y015217D01*
X003410Y015310D01*
X003355Y015398D01*
X003290Y015479D01*
X003217Y015553D01*
X003135Y015618D01*
X003047Y015673D01*
X002954Y015718D01*
X002856Y015752D01*
X002754Y015775D01*
X002674Y015784D01*
X002674Y014937D01*
X002524Y014937D01*
X002524Y014787D01*
X001677Y014787D01*
X001686Y014707D01*
X001709Y014606D01*
X001743Y014507D01*
X001788Y014414D01*
X001844Y014326D01*
X001908Y014245D01*
X001982Y014171D01*
X002063Y014106D01*
X002151Y014051D01*
X002245Y014006D01*
X002343Y013972D01*
X002444Y013949D01*
X002524Y013940D01*
X002524Y014787D01*
X002674Y014787D01*
X002674Y014937D01*
X003522Y014937D01*
X003518Y014971D02*
X006405Y014971D01*
X006405Y015119D02*
X003489Y015119D01*
X003431Y015268D02*
X006405Y015268D01*
X006405Y015416D02*
X003341Y015416D01*
X003202Y015565D02*
X006405Y015565D01*
X006405Y015713D02*
X002964Y015713D01*
X002674Y015713D02*
X002524Y015713D01*
X002524Y015784D02*
X002444Y015775D01*
X002343Y015752D01*
X002245Y015718D01*
X002151Y015673D01*
X002063Y015618D01*
X001982Y015553D01*
X001908Y015479D01*
X001844Y015398D01*
X001788Y015310D01*
X001743Y015217D01*
X001709Y015118D01*
X001686Y015017D01*
X001677Y014937D01*
X002524Y014937D01*
X002524Y015784D01*
X002524Y015565D02*
X002674Y015565D01*
X002674Y015416D02*
X002524Y015416D01*
X002524Y015268D02*
X002674Y015268D01*
X002674Y015119D02*
X002524Y015119D01*
X002524Y014971D02*
X002674Y014971D01*
X002674Y014822D02*
X006405Y014822D01*
X007195Y014822D02*
X010170Y014822D01*
X010170Y014674D02*
X007195Y014674D01*
X007195Y014525D02*
X010170Y014525D01*
X010170Y014377D02*
X007195Y014377D01*
X007195Y014228D02*
X007535Y014228D01*
X007597Y014290D02*
X007310Y014003D01*
X007310Y013805D01*
X007795Y013805D01*
X007795Y014290D01*
X007597Y014290D01*
X007795Y014228D02*
X007805Y014228D01*
X007805Y014290D02*
X008003Y014290D01*
X008290Y014003D01*
X008290Y013805D01*
X007805Y013805D01*
X007805Y013795D01*
X008290Y013795D01*
X008290Y013597D01*
X008003Y013310D01*
X007805Y013310D01*
X007805Y013795D01*
X007795Y013795D01*
X007795Y013310D01*
X007597Y013310D01*
X007310Y013597D01*
X007310Y013795D01*
X007795Y013795D01*
X007795Y013805D01*
X007805Y013805D01*
X007805Y014290D01*
X007795Y014080D02*
X007805Y014080D01*
X007795Y013931D02*
X007805Y013931D01*
X007795Y013783D02*
X007805Y013783D01*
X007795Y013634D02*
X007805Y013634D01*
X007795Y013486D02*
X007805Y013486D01*
X007795Y013337D02*
X007805Y013337D01*
X008030Y013337D02*
X010652Y013337D01*
X010504Y013486D02*
X008178Y013486D01*
X008290Y013634D02*
X010355Y013634D01*
X010281Y013709D02*
X010281Y013709D01*
X010208Y013783D02*
X008290Y013783D01*
X008290Y013931D02*
X010170Y013931D01*
X010170Y014080D02*
X008213Y014080D01*
X008065Y014228D02*
X010170Y014228D01*
X010680Y014377D02*
X011733Y014377D01*
X011585Y014525D02*
X010680Y014525D01*
X010680Y014674D02*
X011490Y014674D01*
X011490Y014822D02*
X010680Y014822D01*
X010680Y014971D02*
X011490Y014971D01*
X011629Y015119D02*
X010680Y015119D01*
X010170Y015119D02*
X007195Y015119D01*
X007195Y014971D02*
X010170Y014971D01*
X010170Y015268D02*
X007195Y015268D01*
X007195Y015416D02*
X010170Y015416D01*
X010170Y015565D02*
X007195Y015565D01*
X007195Y015713D02*
X010170Y015713D01*
X010251Y015862D02*
X007195Y015862D01*
X007195Y016010D02*
X010399Y016010D01*
X011715Y016604D02*
X012220Y016604D01*
X012366Y016753D02*
X011863Y016753D01*
X012012Y016901D02*
X017990Y016901D01*
X017990Y016870D02*
X018245Y016615D01*
X018605Y016615D01*
X018860Y016870D01*
X018860Y017230D01*
X018605Y017485D01*
X018245Y017485D01*
X017990Y017230D01*
X017990Y016870D01*
X018107Y016753D02*
X012734Y016753D01*
X012880Y016604D02*
X024743Y016604D01*
X024595Y016456D02*
X012923Y016456D01*
X013029Y016307D02*
X023946Y016307D01*
X023798Y016159D02*
X013177Y016159D01*
X013326Y016010D02*
X023649Y016010D01*
X023501Y015862D02*
X013474Y015862D01*
X013555Y015713D02*
X018603Y015713D01*
X018630Y015741D02*
X018484Y015595D01*
X018405Y015403D01*
X018405Y015197D01*
X018484Y015005D01*
X018630Y014859D01*
X018822Y014780D01*
X019028Y014780D01*
X019220Y014859D01*
X019366Y015005D01*
X019445Y015197D01*
X019445Y015403D01*
X019366Y015595D01*
X019220Y015741D01*
X019028Y015820D01*
X018822Y015820D01*
X018630Y015741D01*
X018472Y015565D02*
X013555Y015565D01*
X013555Y015416D02*
X018410Y015416D01*
X018405Y015268D02*
X013555Y015268D01*
X013555Y015119D02*
X015657Y015119D01*
X015753Y015215D02*
X015510Y014972D01*
X015510Y014805D01*
X015920Y014805D01*
X015920Y015215D01*
X015753Y015215D01*
X015930Y015215D02*
X016097Y015215D01*
X016340Y014972D01*
X016340Y014805D01*
X015930Y014805D01*
X015930Y014795D01*
X016340Y014795D01*
X016340Y014628D01*
X016097Y014385D01*
X015930Y014385D01*
X015930Y014795D01*
X015920Y014795D01*
X015920Y014385D01*
X015753Y014385D01*
X015510Y014628D01*
X015510Y014795D01*
X015920Y014795D01*
X015920Y014805D01*
X015930Y014805D01*
X015930Y015215D01*
X015920Y015119D02*
X015930Y015119D01*
X015920Y014971D02*
X015930Y014971D01*
X015920Y014822D02*
X015930Y014822D01*
X015920Y014674D02*
X015930Y014674D01*
X015920Y014525D02*
X015930Y014525D01*
X016237Y014525D02*
X022920Y014525D01*
X022920Y014377D02*
X014169Y014377D01*
X014180Y014228D02*
X022867Y014228D01*
X022719Y014080D02*
X014180Y014080D01*
X014180Y013931D02*
X022570Y013931D01*
X022422Y013783D02*
X014180Y013783D01*
X014180Y013634D02*
X022273Y013634D01*
X022174Y013486D02*
X014180Y013486D01*
X014180Y013337D02*
X022170Y013337D01*
X022170Y013189D02*
X021600Y013189D01*
X021790Y013040D02*
X022060Y013040D01*
X021996Y012892D02*
X021854Y012892D01*
X021860Y012743D02*
X021990Y012743D01*
X021990Y012595D02*
X021860Y012595D01*
X021860Y012446D02*
X021990Y012446D01*
X021990Y012298D02*
X021860Y012298D01*
X021829Y012149D02*
X022021Y012149D01*
X022119Y012001D02*
X021731Y012001D01*
X021119Y012001D02*
X020731Y012001D01*
X020829Y012149D02*
X021021Y012149D01*
X020990Y012298D02*
X020860Y012298D01*
X020860Y012446D02*
X020990Y012446D01*
X020990Y012595D02*
X020860Y012595D01*
X020860Y012743D02*
X020990Y012743D01*
X020996Y012892D02*
X020854Y012892D01*
X020790Y013040D02*
X021060Y013040D01*
X021250Y013189D02*
X020600Y013189D01*
X020250Y013189D02*
X019541Y013189D01*
X019522Y013195D02*
X019584Y013175D01*
X019643Y013145D01*
X019695Y013107D01*
X019742Y013060D01*
X019780Y013008D01*
X019810Y012949D01*
X019830Y012887D01*
X019840Y012823D01*
X019840Y012555D01*
X019430Y012555D01*
X019430Y013205D01*
X019458Y013205D01*
X019522Y013195D01*
X019430Y013189D02*
X019420Y013189D01*
X019309Y013189D02*
X018600Y013189D01*
X018790Y013040D02*
X019094Y013040D01*
X019022Y012892D02*
X018854Y012892D01*
X018860Y012743D02*
X019010Y012743D01*
X019010Y012595D02*
X018860Y012595D01*
X018860Y012446D02*
X019010Y012446D01*
X019010Y012298D02*
X018860Y012298D01*
X018829Y012149D02*
X019041Y012149D01*
X019148Y012001D02*
X018731Y012001D01*
X018119Y012001D02*
X017731Y012001D01*
X017829Y012149D02*
X018021Y012149D01*
X017990Y012298D02*
X017860Y012298D01*
X017860Y012446D02*
X017990Y012446D01*
X017990Y012595D02*
X017860Y012595D01*
X017860Y012743D02*
X017990Y012743D01*
X017996Y012892D02*
X017854Y012892D01*
X017790Y013040D02*
X018060Y013040D01*
X018250Y013189D02*
X017600Y013189D01*
X017250Y013189D02*
X016600Y013189D01*
X016790Y013040D02*
X017060Y013040D01*
X016996Y012892D02*
X016854Y012892D01*
X016860Y012743D02*
X016990Y012743D01*
X016990Y012595D02*
X016860Y012595D01*
X016860Y012446D02*
X016990Y012446D01*
X016990Y012298D02*
X016860Y012298D01*
X016829Y012149D02*
X017021Y012149D01*
X017119Y012001D02*
X016731Y012001D01*
X016119Y012001D02*
X015731Y012001D01*
X015829Y012149D02*
X016021Y012149D01*
X015990Y012298D02*
X015860Y012298D01*
X015860Y012446D02*
X015990Y012446D01*
X015990Y012595D02*
X015860Y012595D01*
X015860Y012743D02*
X015990Y012743D01*
X015996Y012892D02*
X015854Y012892D01*
X015790Y013040D02*
X016060Y013040D01*
X016250Y013189D02*
X015600Y013189D01*
X015250Y013189D02*
X014600Y013189D01*
X014790Y013040D02*
X015060Y013040D01*
X014996Y012892D02*
X014854Y012892D01*
X014860Y012743D02*
X014990Y012743D01*
X014990Y012595D02*
X014860Y012595D01*
X014860Y012446D02*
X014990Y012446D01*
X014990Y012298D02*
X014860Y012298D01*
X014829Y012149D02*
X015021Y012149D01*
X015119Y012001D02*
X014731Y012001D01*
X014866Y011852D02*
X014180Y011852D01*
X014180Y011704D02*
X014718Y011704D01*
X014569Y011555D02*
X014281Y011555D01*
X014845Y011110D02*
X015374Y011110D01*
X015522Y011258D02*
X014994Y011258D01*
X015142Y011407D02*
X015693Y011407D01*
X015584Y011319D02*
X015584Y011319D01*
X015225Y010961D02*
X014697Y010961D01*
X014680Y010813D02*
X015170Y010813D01*
X015170Y010664D02*
X014680Y010664D01*
X014680Y010516D02*
X015170Y010516D01*
X015170Y010367D02*
X014680Y010367D01*
X014680Y010219D02*
X015170Y010219D01*
X015090Y010070D02*
X014760Y010070D01*
X014841Y009922D02*
X015009Y009922D01*
X014990Y009773D02*
X014860Y009773D01*
X014860Y009625D02*
X014990Y009625D01*
X014990Y009476D02*
X014860Y009476D01*
X014860Y009328D02*
X014990Y009328D01*
X015008Y009179D02*
X014842Y009179D01*
X014761Y009031D02*
X015089Y009031D01*
X015322Y008882D02*
X014528Y008882D01*
X015528Y008882D02*
X016322Y008882D01*
X016338Y008875D02*
X016179Y008941D01*
X016056Y009064D01*
X015990Y009223D01*
X015990Y009877D01*
X016056Y010036D01*
X016179Y010159D01*
X016338Y010225D01*
X016512Y010225D01*
X016671Y010159D01*
X016794Y010036D01*
X016860Y009877D01*
X016860Y009223D01*
X016794Y009064D01*
X016671Y008941D01*
X016512Y008875D01*
X016338Y008875D01*
X016528Y008882D02*
X017322Y008882D01*
X017338Y008875D02*
X017512Y008875D01*
X017671Y008941D01*
X017794Y009064D01*
X017860Y009223D01*
X017860Y009499D01*
X017990Y009629D01*
X017990Y009223D01*
X018056Y009064D01*
X018179Y008941D01*
X018338Y008875D01*
X018512Y008875D01*
X018671Y008941D01*
X018794Y009064D01*
X018860Y009223D01*
X018860Y009877D01*
X018794Y010036D01*
X018671Y010159D01*
X018644Y010170D01*
X019206Y010170D01*
X019179Y010159D01*
X019056Y010036D01*
X018990Y009877D01*
X018990Y009223D01*
X019056Y009064D01*
X019179Y008941D01*
X019338Y008875D01*
X019512Y008875D01*
X019671Y008941D01*
X019794Y009064D01*
X019860Y009223D01*
X019860Y009877D01*
X019794Y010036D01*
X019671Y010159D01*
X019644Y010170D01*
X020257Y010170D01*
X020207Y010145D01*
X020155Y010107D01*
X020108Y010060D01*
X020070Y010008D01*
X020040Y009949D01*
X020020Y009887D01*
X020010Y009823D01*
X020010Y009555D01*
X020420Y009555D01*
X020420Y009545D01*
X020430Y009545D01*
X020430Y009555D01*
X020840Y009555D01*
X020840Y009823D01*
X020830Y009887D01*
X020810Y009949D01*
X020780Y010008D01*
X020742Y010060D01*
X020695Y010107D01*
X020643Y010145D01*
X020593Y010170D01*
X021206Y010170D01*
X021179Y010159D01*
X021056Y010036D01*
X020990Y009877D01*
X020990Y009223D01*
X021056Y009064D01*
X021179Y008941D01*
X021338Y008875D01*
X021512Y008875D01*
X021671Y008941D01*
X021794Y009064D01*
X021860Y009223D01*
X021860Y009877D01*
X021794Y010036D01*
X021671Y010159D01*
X021644Y010170D01*
X022206Y010170D01*
X022179Y010159D01*
X022056Y010036D01*
X021990Y009877D01*
X021990Y009223D01*
X022056Y009064D01*
X022179Y008941D01*
X022338Y008875D01*
X022512Y008875D01*
X022671Y008941D01*
X022794Y009064D01*
X022860Y009223D01*
X022860Y009877D01*
X022794Y010036D01*
X022671Y010159D01*
X022644Y010170D01*
X023206Y010170D01*
X023179Y010159D01*
X023056Y010036D01*
X022990Y009877D01*
X022990Y009223D01*
X023056Y009064D01*
X023179Y008941D01*
X023338Y008875D01*
X023512Y008875D01*
X023671Y008941D01*
X023794Y009064D01*
X023860Y009223D01*
X023860Y009877D01*
X023794Y010036D01*
X023671Y010159D01*
X023644Y010170D01*
X024206Y010170D01*
X024179Y010159D01*
X024056Y010036D01*
X023990Y009877D01*
X023990Y009223D01*
X024056Y009064D01*
X024179Y008941D01*
X024338Y008875D01*
X024512Y008875D01*
X024671Y008941D01*
X024794Y009064D01*
X024860Y009223D01*
X024860Y009877D01*
X024794Y010036D01*
X024671Y010159D01*
X024644Y010170D01*
X025206Y010170D01*
X025179Y010159D01*
X025056Y010036D01*
X024990Y009877D01*
X024990Y009223D01*
X025056Y009064D01*
X025179Y008941D01*
X025338Y008875D01*
X025512Y008875D01*
X025671Y008941D01*
X025794Y009064D01*
X025860Y009223D01*
X025860Y009877D01*
X025794Y010036D01*
X025671Y010159D01*
X025644Y010170D01*
X026206Y010170D01*
X026179Y010159D01*
X026056Y010036D01*
X025990Y009877D01*
X025990Y009223D01*
X026056Y009064D01*
X026179Y008941D01*
X026338Y008875D01*
X026512Y008875D01*
X026671Y008941D01*
X026794Y009064D01*
X026860Y009223D01*
X026860Y009877D01*
X026794Y010036D01*
X026671Y010159D01*
X026644Y010170D01*
X028402Y010170D01*
X028464Y010109D01*
X028601Y010052D01*
X028749Y010052D01*
X028886Y010109D01*
X028991Y010214D01*
X029048Y010351D01*
X029048Y010499D01*
X028991Y010636D01*
X028886Y010741D01*
X028749Y010798D01*
X028601Y010798D01*
X028464Y010741D01*
X028402Y010680D01*
X018374Y010680D01*
X018281Y010641D01*
X018209Y010569D01*
X017735Y010095D01*
X017671Y010159D01*
X017512Y010225D01*
X017338Y010225D01*
X017179Y010159D01*
X017056Y010036D01*
X016990Y009877D01*
X016990Y009223D01*
X017056Y009064D01*
X017179Y008941D01*
X017338Y008875D01*
X017528Y008882D02*
X018322Y008882D01*
X018528Y008882D02*
X019322Y008882D01*
X019528Y008882D02*
X021322Y008882D01*
X021528Y008882D02*
X022322Y008882D01*
X022528Y008882D02*
X023322Y008882D01*
X023528Y008882D02*
X024322Y008882D01*
X024528Y008882D02*
X025322Y008882D01*
X025528Y008882D02*
X026322Y008882D01*
X026528Y008882D02*
X027392Y008882D01*
X026842Y009179D02*
X030780Y009179D01*
X030780Y009096D02*
X030840Y008951D01*
X030951Y008840D01*
X031240Y008551D01*
X031240Y008370D01*
X031495Y008115D01*
X031855Y008115D01*
X032110Y008370D01*
X032110Y008730D01*
X032058Y008782D01*
X032010Y008899D01*
X031570Y009339D01*
X031570Y011780D01*
X034754Y011780D01*
X034899Y011840D01*
X037359Y014300D01*
X037549Y014300D01*
X037779Y014395D01*
X037955Y014571D01*
X038050Y014801D01*
X038050Y015049D01*
X037955Y015279D01*
X037779Y015455D01*
X037549Y015550D01*
X037301Y015550D01*
X037071Y015455D01*
X036895Y015279D01*
X036800Y015049D01*
X036800Y014859D01*
X034511Y012570D01*
X031395Y012570D01*
X031355Y012610D01*
X030995Y012610D01*
X030740Y012355D01*
X030740Y011995D01*
X030780Y011955D01*
X030780Y009096D01*
X030807Y009031D02*
X026761Y009031D01*
X026860Y009328D02*
X030780Y009328D01*
X030780Y009476D02*
X026860Y009476D01*
X026860Y009625D02*
X030780Y009625D01*
X030780Y009773D02*
X026860Y009773D01*
X026841Y009922D02*
X030780Y009922D01*
X030780Y010070D02*
X028793Y010070D01*
X028557Y010070D02*
X026760Y010070D01*
X026090Y010070D02*
X025760Y010070D01*
X025841Y009922D02*
X026009Y009922D01*
X025990Y009773D02*
X025860Y009773D01*
X025860Y009625D02*
X025990Y009625D01*
X025990Y009476D02*
X025860Y009476D01*
X025860Y009328D02*
X025990Y009328D01*
X026008Y009179D02*
X025842Y009179D01*
X025761Y009031D02*
X026089Y009031D01*
X026226Y008048D02*
X026089Y007991D01*
X025984Y007886D01*
X025927Y007749D01*
X025927Y007601D01*
X025984Y007464D01*
X026089Y007359D01*
X026226Y007302D01*
X026374Y007302D01*
X026511Y007359D01*
X026573Y007420D01*
X032569Y007420D01*
X034615Y005374D01*
X034520Y005279D01*
X034425Y005049D01*
X034425Y004801D01*
X034520Y004571D01*
X034696Y004395D01*
X034926Y004300D01*
X035174Y004300D01*
X035404Y004395D01*
X035580Y004571D01*
X035675Y004801D01*
X035675Y005049D01*
X035580Y005279D01*
X035404Y005455D01*
X035174Y005550D01*
X035161Y005550D01*
X032891Y007819D01*
X032819Y007891D01*
X032726Y007930D01*
X026573Y007930D01*
X026511Y007991D01*
X026374Y008048D01*
X026226Y008048D01*
X026088Y007991D02*
X023637Y007991D01*
X023636Y007991D02*
X023499Y008048D01*
X023351Y008048D01*
X023214Y007991D01*
X023109Y007886D01*
X023052Y007749D01*
X023052Y007663D01*
X022319Y006930D01*
X006124Y006930D01*
X006031Y006891D01*
X004612Y005472D01*
X004424Y005550D01*
X004176Y005550D01*
X003946Y005455D01*
X003770Y005279D01*
X003675Y005049D01*
X003675Y004801D01*
X003770Y004571D01*
X003946Y004395D01*
X004176Y004300D01*
X004424Y004300D01*
X004654Y004395D01*
X004830Y004571D01*
X004925Y004801D01*
X004925Y005049D01*
X004921Y005060D01*
X006281Y006420D01*
X022374Y006420D01*
X022476Y006420D01*
X022569Y006459D01*
X023413Y007302D01*
X023499Y007302D01*
X023636Y007359D01*
X023741Y007464D01*
X023798Y007601D01*
X023798Y007749D01*
X023741Y007886D01*
X023636Y007991D01*
X023759Y007843D02*
X025966Y007843D01*
X025927Y007694D02*
X023798Y007694D01*
X023775Y007546D02*
X025950Y007546D01*
X026050Y007397D02*
X023675Y007397D01*
X023359Y007249D02*
X032741Y007249D01*
X032592Y007397D02*
X026550Y007397D01*
X026512Y007991D02*
X039000Y007991D01*
X039000Y007843D02*
X032868Y007843D01*
X033017Y007694D02*
X039000Y007694D01*
X039000Y007546D02*
X033165Y007546D01*
X033314Y007397D02*
X039000Y007397D01*
X039000Y007249D02*
X033462Y007249D01*
X033611Y007100D02*
X039000Y007100D01*
X039000Y006952D02*
X033759Y006952D01*
X033908Y006803D02*
X039000Y006803D01*
X039000Y006655D02*
X034056Y006655D01*
X034205Y006506D02*
X039000Y006506D01*
X039000Y006358D02*
X034353Y006358D01*
X034502Y006209D02*
X039000Y006209D01*
X039000Y006061D02*
X034650Y006061D01*
X034799Y005912D02*
X039000Y005912D01*
X039000Y005764D02*
X034947Y005764D01*
X035096Y005615D02*
X039000Y005615D01*
X039000Y005467D02*
X037288Y005467D01*
X037251Y005486D02*
X037160Y005515D01*
X037066Y005530D01*
X037062Y005530D01*
X037062Y004968D01*
X037624Y004968D01*
X037624Y004973D01*
X037609Y005067D01*
X037579Y005157D01*
X037536Y005242D01*
X037480Y005319D01*
X037413Y005386D01*
X037336Y005442D01*
X037251Y005486D01*
X037062Y005467D02*
X036975Y005467D01*
X036975Y005530D02*
X036971Y005530D01*
X036877Y005515D01*
X036786Y005486D01*
X036701Y005442D01*
X036624Y005386D01*
X036557Y005319D01*
X036501Y005242D01*
X036458Y005157D01*
X036428Y005067D01*
X036414Y004973D01*
X036414Y004968D01*
X036975Y004968D01*
X036975Y004882D01*
X036414Y004882D01*
X036414Y004877D01*
X036428Y004783D01*
X036458Y004693D01*
X036501Y004608D01*
X036557Y004531D01*
X036624Y004464D01*
X036701Y004408D01*
X036786Y004364D01*
X036877Y004335D01*
X036971Y004320D01*
X036975Y004320D01*
X036975Y004882D01*
X037062Y004882D01*
X037062Y004968D01*
X036975Y004968D01*
X036975Y005530D01*
X036975Y005318D02*
X037062Y005318D01*
X037062Y005170D02*
X036975Y005170D01*
X036975Y005021D02*
X037062Y005021D01*
X037062Y004882D02*
X037624Y004882D01*
X037624Y004877D01*
X037609Y004783D01*
X037579Y004693D01*
X037536Y004608D01*
X037480Y004531D01*
X037413Y004464D01*
X037336Y004408D01*
X037251Y004364D01*
X037160Y004335D01*
X037066Y004320D01*
X037062Y004320D01*
X037062Y004882D01*
X037062Y004873D02*
X036975Y004873D01*
X036975Y004724D02*
X037062Y004724D01*
X037062Y004576D02*
X036975Y004576D01*
X036975Y004427D02*
X037062Y004427D01*
X037362Y004427D02*
X039000Y004427D01*
X039000Y004279D02*
X000850Y004279D01*
X000850Y004427D02*
X001946Y004427D01*
X001977Y004395D02*
X002207Y004300D01*
X002456Y004300D01*
X002686Y004395D01*
X002861Y004571D01*
X002956Y004801D01*
X002956Y005049D01*
X002861Y005279D01*
X002686Y005455D01*
X002456Y005550D01*
X002207Y005550D01*
X001977Y005455D01*
X001802Y005279D01*
X001706Y005049D01*
X001706Y004801D01*
X001802Y004571D01*
X001977Y004395D01*
X001800Y004576D02*
X000850Y004576D01*
X000850Y004724D02*
X001738Y004724D01*
X001706Y004873D02*
X000850Y004873D01*
X000850Y005021D02*
X001706Y005021D01*
X001756Y005170D02*
X000850Y005170D01*
X000850Y005318D02*
X001841Y005318D01*
X002006Y005467D02*
X000850Y005467D01*
X000850Y005615D02*
X004754Y005615D01*
X004903Y005764D02*
X000850Y005764D01*
X000850Y005912D02*
X005051Y005912D01*
X005200Y006061D02*
X000850Y006061D01*
X000850Y006209D02*
X005348Y006209D01*
X005497Y006358D02*
X000850Y006358D01*
X000850Y006506D02*
X005645Y006506D01*
X005794Y006655D02*
X000850Y006655D01*
X000850Y006803D02*
X005942Y006803D01*
X006218Y006358D02*
X033632Y006358D01*
X033483Y006506D02*
X022617Y006506D01*
X022765Y006655D02*
X033335Y006655D01*
X033186Y006803D02*
X022914Y006803D01*
X023062Y006952D02*
X033038Y006952D01*
X032889Y007100D02*
X023211Y007100D01*
X022786Y007397D02*
X021234Y007397D01*
X021340Y007503D02*
X021340Y007670D01*
X020930Y007670D01*
X020930Y007680D01*
X021340Y007680D01*
X021340Y007847D01*
X021097Y008090D01*
X020930Y008090D01*
X020930Y007680D01*
X020920Y007680D01*
X020920Y008090D01*
X020753Y008090D01*
X020510Y007847D01*
X020510Y007680D01*
X020920Y007680D01*
X020920Y007670D01*
X020930Y007670D01*
X020930Y007260D01*
X021097Y007260D01*
X021340Y007503D01*
X021340Y007546D02*
X022935Y007546D01*
X023052Y007694D02*
X021340Y007694D01*
X021340Y007843D02*
X023091Y007843D01*
X023213Y007991D02*
X021196Y007991D01*
X020930Y007991D02*
X020920Y007991D01*
X020920Y007843D02*
X020930Y007843D01*
X020920Y007694D02*
X020930Y007694D01*
X020920Y007670D02*
X020510Y007670D01*
X020510Y007503D01*
X020753Y007260D01*
X020920Y007260D01*
X020920Y007670D01*
X020920Y007546D02*
X020930Y007546D01*
X020920Y007397D02*
X020930Y007397D01*
X020616Y007397D02*
X019262Y007397D01*
X019360Y007495D02*
X019105Y007240D01*
X018745Y007240D01*
X018490Y007495D01*
X018490Y007855D01*
X018745Y008110D01*
X019105Y008110D01*
X019360Y007855D01*
X019360Y007495D01*
X019360Y007546D02*
X020510Y007546D01*
X020510Y007694D02*
X019360Y007694D01*
X019360Y007843D02*
X020510Y007843D01*
X020654Y007991D02*
X019224Y007991D01*
X018626Y007991D02*
X000850Y007991D01*
X000850Y007843D02*
X018490Y007843D01*
X018490Y007694D02*
X000850Y007694D01*
X000850Y007546D02*
X018490Y007546D01*
X018588Y007397D02*
X000850Y007397D01*
X000850Y007249D02*
X018736Y007249D01*
X019114Y007249D02*
X022638Y007249D01*
X022489Y007100D02*
X000850Y007100D01*
X000850Y006952D02*
X022341Y006952D01*
X022089Y009031D02*
X021761Y009031D01*
X021842Y009179D02*
X022008Y009179D01*
X021990Y009328D02*
X021860Y009328D01*
X021860Y009476D02*
X021990Y009476D01*
X021990Y009625D02*
X021860Y009625D01*
X021860Y009773D02*
X021990Y009773D01*
X022009Y009922D02*
X021841Y009922D01*
X021760Y010070D02*
X022090Y010070D01*
X022760Y010070D02*
X023090Y010070D01*
X023009Y009922D02*
X022841Y009922D01*
X022860Y009773D02*
X022990Y009773D01*
X022990Y009625D02*
X022860Y009625D01*
X022860Y009476D02*
X022990Y009476D01*
X022990Y009328D02*
X022860Y009328D01*
X022842Y009179D02*
X023008Y009179D01*
X023089Y009031D02*
X022761Y009031D01*
X023761Y009031D02*
X024089Y009031D01*
X024008Y009179D02*
X023842Y009179D01*
X023860Y009328D02*
X023990Y009328D01*
X023990Y009476D02*
X023860Y009476D01*
X023860Y009625D02*
X023990Y009625D01*
X023990Y009773D02*
X023860Y009773D01*
X023841Y009922D02*
X024009Y009922D01*
X024090Y010070D02*
X023760Y010070D01*
X024760Y010070D02*
X025090Y010070D01*
X025009Y009922D02*
X024841Y009922D01*
X024860Y009773D02*
X024990Y009773D01*
X024990Y009625D02*
X024860Y009625D01*
X024860Y009476D02*
X024990Y009476D01*
X024990Y009328D02*
X024860Y009328D01*
X024842Y009179D02*
X025008Y009179D01*
X025089Y009031D02*
X024761Y009031D01*
X027322Y008288D02*
X000850Y008288D01*
X000850Y008140D02*
X027470Y008140D01*
X027880Y008140D02*
X031470Y008140D01*
X031322Y008288D02*
X028028Y008288D01*
X028110Y008437D02*
X031240Y008437D01*
X031206Y008585D02*
X028110Y008585D01*
X028107Y008734D02*
X031058Y008734D01*
X030909Y008882D02*
X027958Y008882D01*
X028993Y010219D02*
X030780Y010219D01*
X030780Y010367D02*
X029048Y010367D01*
X029041Y010516D02*
X030780Y010516D01*
X030780Y010664D02*
X028964Y010664D01*
X028322Y010961D02*
X030780Y010961D01*
X030780Y010813D02*
X015798Y010813D01*
X015680Y010664D02*
X018336Y010664D01*
X018155Y010516D02*
X015680Y010516D01*
X015680Y010367D02*
X018006Y010367D01*
X017858Y010219D02*
X017527Y010219D01*
X017323Y010219D02*
X016527Y010219D01*
X016323Y010219D02*
X015680Y010219D01*
X015760Y010070D02*
X016090Y010070D01*
X016009Y009922D02*
X015841Y009922D01*
X015860Y009773D02*
X015990Y009773D01*
X015990Y009625D02*
X015860Y009625D01*
X015860Y009476D02*
X015990Y009476D01*
X015990Y009328D02*
X015860Y009328D01*
X015842Y009179D02*
X016008Y009179D01*
X016089Y009031D02*
X015761Y009031D01*
X016761Y009031D02*
X017089Y009031D01*
X017008Y009179D02*
X016842Y009179D01*
X016860Y009328D02*
X016990Y009328D01*
X016990Y009476D02*
X016860Y009476D01*
X016860Y009625D02*
X016990Y009625D01*
X016990Y009773D02*
X016860Y009773D01*
X016841Y009922D02*
X017009Y009922D01*
X017090Y010070D02*
X016760Y010070D01*
X017860Y009476D02*
X017990Y009476D01*
X017990Y009328D02*
X017860Y009328D01*
X017842Y009179D02*
X018008Y009179D01*
X018089Y009031D02*
X017761Y009031D01*
X017985Y009625D02*
X017990Y009625D01*
X018860Y009625D02*
X018990Y009625D01*
X018990Y009773D02*
X018860Y009773D01*
X018841Y009922D02*
X019009Y009922D01*
X019090Y010070D02*
X018760Y010070D01*
X018860Y009476D02*
X018990Y009476D01*
X018990Y009328D02*
X018860Y009328D01*
X018842Y009179D02*
X019008Y009179D01*
X019089Y009031D02*
X018761Y009031D01*
X019761Y009031D02*
X020118Y009031D01*
X020108Y009040D02*
X020155Y008993D01*
X020207Y008955D01*
X020266Y008925D01*
X020328Y008905D01*
X020392Y008895D01*
X020420Y008895D01*
X020420Y009545D01*
X020010Y009545D01*
X020010Y009277D01*
X020020Y009213D01*
X020040Y009151D01*
X020070Y009092D01*
X020108Y009040D01*
X020031Y009179D02*
X019842Y009179D01*
X019860Y009328D02*
X020010Y009328D01*
X020010Y009476D02*
X019860Y009476D01*
X019860Y009625D02*
X020010Y009625D01*
X020010Y009773D02*
X019860Y009773D01*
X019841Y009922D02*
X020031Y009922D01*
X020118Y010070D02*
X019760Y010070D01*
X020430Y009545D02*
X020430Y008895D01*
X020458Y008895D01*
X020522Y008905D01*
X020584Y008925D01*
X020643Y008955D01*
X020695Y008993D01*
X020742Y009040D01*
X020780Y009092D01*
X020810Y009151D01*
X020830Y009213D01*
X020840Y009277D01*
X020840Y009545D01*
X020430Y009545D01*
X020420Y009476D02*
X020430Y009476D01*
X020420Y009328D02*
X020430Y009328D01*
X020420Y009179D02*
X020430Y009179D01*
X020420Y009031D02*
X020430Y009031D01*
X020732Y009031D02*
X021089Y009031D01*
X021008Y009179D02*
X020819Y009179D01*
X020840Y009328D02*
X020990Y009328D01*
X020990Y009476D02*
X020840Y009476D01*
X020840Y009625D02*
X020990Y009625D01*
X020990Y009773D02*
X020840Y009773D01*
X020819Y009922D02*
X021009Y009922D01*
X021090Y010070D02*
X020732Y010070D01*
X020119Y012001D02*
X019702Y012001D01*
X019809Y012149D02*
X020021Y012149D01*
X019990Y012298D02*
X019840Y012298D01*
X019840Y012446D02*
X019990Y012446D01*
X019990Y012595D02*
X019840Y012595D01*
X019840Y012743D02*
X019990Y012743D01*
X019996Y012892D02*
X019828Y012892D01*
X019756Y013040D02*
X020060Y013040D01*
X019430Y013040D02*
X019420Y013040D01*
X019420Y012892D02*
X019430Y012892D01*
X019420Y012743D02*
X019430Y012743D01*
X019420Y012595D02*
X019430Y012595D01*
X016340Y014674D02*
X022920Y014674D01*
X022920Y014822D02*
X021130Y014822D01*
X021220Y014859D02*
X021366Y015005D01*
X021445Y015197D01*
X021445Y015403D01*
X021366Y015595D01*
X021220Y015741D01*
X021028Y015820D01*
X020822Y015820D01*
X020630Y015741D01*
X020484Y015595D01*
X020405Y015403D01*
X020405Y015197D01*
X020484Y015005D01*
X020630Y014859D01*
X020822Y014780D01*
X021028Y014780D01*
X021220Y014859D01*
X021331Y014971D02*
X022920Y014971D01*
X022920Y015119D02*
X021413Y015119D01*
X021445Y015268D02*
X022937Y015268D01*
X023055Y015416D02*
X021440Y015416D01*
X021378Y015565D02*
X023204Y015565D01*
X023352Y015713D02*
X021247Y015713D01*
X020603Y015713D02*
X019247Y015713D01*
X019378Y015565D02*
X020472Y015565D01*
X020410Y015416D02*
X019440Y015416D01*
X019445Y015268D02*
X020405Y015268D01*
X020437Y015119D02*
X019413Y015119D01*
X019331Y014971D02*
X020519Y014971D01*
X020720Y014822D02*
X019130Y014822D01*
X018720Y014822D02*
X016340Y014822D01*
X016340Y014971D02*
X018519Y014971D01*
X018437Y015119D02*
X016193Y015119D01*
X015510Y014971D02*
X013615Y014971D01*
X013764Y014822D02*
X015510Y014822D01*
X015510Y014674D02*
X013912Y014674D01*
X014061Y014525D02*
X015613Y014525D01*
X014250Y013189D02*
X014180Y013189D01*
X013670Y013189D02*
X013600Y013189D01*
X011989Y012001D02*
X010578Y012001D01*
X010376Y012149D02*
X011840Y012149D01*
X011692Y012298D02*
X003471Y012298D01*
X003511Y012149D02*
X009032Y012149D01*
X009161Y012149D02*
X009189Y012149D01*
X009318Y012149D02*
X009974Y012149D01*
X009772Y012001D02*
X009550Y012001D01*
X009638Y011852D02*
X009691Y011852D01*
X009660Y011777D02*
X009660Y011777D01*
X009660Y011689D02*
X009189Y011689D01*
X009189Y011661D01*
X009660Y011661D01*
X009660Y011689D01*
X009189Y011704D02*
X009161Y011704D01*
X009161Y011661D02*
X009189Y011661D01*
X009189Y011190D01*
X009161Y011190D01*
X009161Y011661D01*
X009161Y011555D02*
X009189Y011555D01*
X009189Y011407D02*
X009161Y011407D01*
X009161Y011258D02*
X009189Y011258D01*
X009161Y011852D02*
X009189Y011852D01*
X009189Y012001D02*
X009161Y012001D01*
X010801Y013189D02*
X005372Y013189D01*
X005335Y013040D02*
X010949Y013040D01*
X011098Y012892D02*
X005410Y012892D01*
X005419Y012743D02*
X011246Y012743D01*
X011395Y012595D02*
X005365Y012595D01*
X005195Y012446D02*
X011543Y012446D01*
X009700Y009476D02*
X009650Y009476D01*
X009556Y009328D02*
X009794Y009328D01*
X010027Y009179D02*
X009323Y009179D01*
X011607Y008882D02*
X000850Y008882D01*
X000850Y008734D02*
X011756Y008734D01*
X011904Y008585D02*
X000850Y008585D01*
X000850Y008437D02*
X012053Y008437D01*
X006786Y005242D02*
X006730Y005319D01*
X006663Y005386D01*
X006586Y005442D01*
X006501Y005486D01*
X006410Y005515D01*
X006316Y005530D01*
X006312Y005530D01*
X006312Y004968D01*
X006874Y004968D01*
X006874Y004973D01*
X006859Y005067D01*
X006829Y005157D01*
X006786Y005242D01*
X006823Y005170D02*
X032506Y005170D01*
X032552Y005279D02*
X032456Y005049D01*
X032456Y004801D01*
X032552Y004571D01*
X032727Y004395D01*
X032957Y004300D01*
X033206Y004300D01*
X033436Y004395D01*
X033611Y004571D01*
X033706Y004801D01*
X033706Y005049D01*
X033611Y005279D01*
X033436Y005455D01*
X033206Y005550D01*
X032957Y005550D01*
X032727Y005455D01*
X032552Y005279D01*
X032591Y005318D02*
X006731Y005318D01*
X006538Y005467D02*
X032756Y005467D01*
X033407Y005467D02*
X034523Y005467D01*
X034559Y005318D02*
X033572Y005318D01*
X033657Y005170D02*
X034475Y005170D01*
X034425Y005021D02*
X033706Y005021D01*
X033706Y004873D02*
X034425Y004873D01*
X034457Y004724D02*
X033675Y004724D01*
X033613Y004576D02*
X034518Y004576D01*
X034664Y004427D02*
X033467Y004427D01*
X032696Y004427D02*
X006612Y004427D01*
X006586Y004408D02*
X006663Y004464D01*
X006730Y004531D01*
X006786Y004608D01*
X006829Y004693D01*
X006859Y004783D01*
X006874Y004877D01*
X006874Y004882D01*
X006312Y004882D01*
X006312Y004968D01*
X006225Y004968D01*
X006225Y004882D01*
X005664Y004882D01*
X005664Y004877D01*
X005678Y004783D01*
X005708Y004693D01*
X005751Y004608D01*
X005807Y004531D01*
X005874Y004464D01*
X005951Y004408D01*
X006036Y004364D01*
X006127Y004335D01*
X006221Y004320D01*
X006225Y004320D01*
X006225Y004882D01*
X006312Y004882D01*
X006312Y004320D01*
X006316Y004320D01*
X006410Y004335D01*
X006501Y004364D01*
X006586Y004408D01*
X006762Y004576D02*
X032550Y004576D01*
X032488Y004724D02*
X006839Y004724D01*
X006873Y004873D02*
X032456Y004873D01*
X032456Y005021D02*
X006866Y005021D01*
X006312Y005021D02*
X006225Y005021D01*
X006225Y004968D02*
X006225Y005530D01*
X006221Y005530D01*
X006127Y005515D01*
X006036Y005486D01*
X005951Y005442D01*
X005874Y005386D01*
X005807Y005319D01*
X005751Y005242D01*
X005708Y005157D01*
X005678Y005067D01*
X005664Y004973D01*
X005664Y004968D01*
X006225Y004968D01*
X006225Y004873D02*
X006312Y004873D01*
X006312Y004724D02*
X006225Y004724D01*
X006225Y004576D02*
X006312Y004576D01*
X006312Y004427D02*
X006225Y004427D01*
X005925Y004427D02*
X004686Y004427D01*
X004832Y004576D02*
X005775Y004576D01*
X005698Y004724D02*
X004893Y004724D01*
X004925Y004873D02*
X005664Y004873D01*
X005671Y005021D02*
X004925Y005021D01*
X005030Y005170D02*
X005714Y005170D01*
X005806Y005318D02*
X005179Y005318D01*
X005327Y005467D02*
X005999Y005467D01*
X006225Y005467D02*
X006312Y005467D01*
X006312Y005318D02*
X006225Y005318D01*
X006225Y005170D02*
X006312Y005170D01*
X005624Y005764D02*
X034226Y005764D01*
X034077Y005912D02*
X005773Y005912D01*
X005921Y006061D02*
X033929Y006061D01*
X033780Y006209D02*
X006070Y006209D01*
X005476Y005615D02*
X034374Y005615D01*
X035376Y005467D02*
X036749Y005467D01*
X036556Y005318D02*
X035541Y005318D01*
X035625Y005170D02*
X036464Y005170D01*
X036421Y005021D02*
X035675Y005021D01*
X035675Y004873D02*
X036414Y004873D01*
X036448Y004724D02*
X035643Y004724D01*
X035582Y004576D02*
X036525Y004576D01*
X036675Y004427D02*
X035436Y004427D01*
X037512Y004576D02*
X039000Y004576D01*
X039000Y004724D02*
X037589Y004724D01*
X037623Y004873D02*
X039000Y004873D01*
X039000Y005021D02*
X037616Y005021D01*
X037573Y005170D02*
X039000Y005170D01*
X039000Y005318D02*
X037481Y005318D01*
X039000Y004130D02*
X000850Y004130D01*
X000850Y003982D02*
X039000Y003982D01*
X039000Y003833D02*
X000850Y003833D01*
X000850Y003685D02*
X039000Y003685D01*
X039000Y003536D02*
X000850Y003536D01*
X000850Y003388D02*
X039000Y003388D01*
X039000Y003239D02*
X000850Y003239D01*
X000850Y003091D02*
X039000Y003091D01*
X039000Y002942D02*
X000850Y002942D01*
X000850Y002794D02*
X039000Y002794D01*
X039000Y002645D02*
X000850Y002645D01*
X000850Y002497D02*
X039000Y002497D01*
X039000Y002348D02*
X000850Y002348D01*
X000850Y002200D02*
X039000Y002200D01*
X039000Y002051D02*
X000850Y002051D01*
X000850Y001903D02*
X039000Y001903D01*
X039000Y001754D02*
X000850Y001754D01*
X000850Y001606D02*
X039000Y001606D01*
X039000Y001457D02*
X000850Y001457D01*
X000850Y001309D02*
X039000Y001309D01*
X039000Y001160D02*
X000850Y001160D01*
X000850Y001012D02*
X039000Y001012D01*
X039000Y000863D02*
X000850Y000863D01*
X000850Y000850D02*
X000850Y027500D01*
X039000Y027500D01*
X039000Y000850D01*
X000850Y000850D01*
X002717Y004427D02*
X003914Y004427D01*
X003768Y004576D02*
X002863Y004576D01*
X002925Y004724D02*
X003707Y004724D01*
X003675Y004873D02*
X002956Y004873D01*
X002956Y005021D02*
X003675Y005021D01*
X003725Y005170D02*
X002907Y005170D01*
X002822Y005318D02*
X003809Y005318D01*
X003974Y005467D02*
X002657Y005467D01*
X001728Y012298D02*
X000850Y012298D01*
X000850Y012446D02*
X001795Y012446D01*
X001900Y012595D02*
X000850Y012595D01*
X000850Y012743D02*
X002062Y012743D01*
X002797Y012892D02*
X003357Y012892D01*
X003538Y012743D02*
X003136Y012743D01*
X003299Y012595D02*
X004302Y012595D01*
X004368Y012795D02*
X004368Y012795D01*
X004627Y012795D01*
X004627Y012413D01*
X004627Y012795D01*
X004627Y012795D01*
X004627Y013023D01*
X004627Y013023D01*
X004627Y012795D01*
X004627Y012795D01*
X004627Y012795D01*
X004368Y012795D01*
X004627Y012743D02*
X004627Y012743D01*
X004627Y012595D02*
X004627Y012595D01*
X004627Y012446D02*
X004627Y012446D01*
X004472Y012446D02*
X003404Y012446D01*
X004627Y012892D02*
X004627Y012892D01*
X005439Y013337D02*
X006585Y013337D01*
X007015Y013337D02*
X007570Y013337D01*
X007422Y013486D02*
X007207Y013486D01*
X007283Y013634D02*
X007310Y013634D01*
X007310Y013783D02*
X007310Y013783D01*
X007298Y013931D02*
X007310Y013931D01*
X007236Y014080D02*
X007387Y014080D01*
X005806Y013486D02*
X005442Y013486D01*
X005388Y013634D02*
X005657Y013634D01*
X006405Y015862D02*
X000850Y015862D01*
X000850Y016010D02*
X006405Y016010D01*
X006405Y016159D02*
X000850Y016159D01*
X000850Y016307D02*
X006427Y016307D01*
X006522Y016456D02*
X000850Y016456D01*
X000850Y016604D02*
X006670Y016604D01*
X006762Y016753D02*
X000850Y016753D01*
X000850Y016901D02*
X006780Y016901D01*
X006780Y017050D02*
X000850Y017050D01*
X000850Y017198D02*
X006780Y017198D01*
X006780Y017347D02*
X000850Y017347D01*
X000850Y017495D02*
X006780Y017495D01*
X006780Y017644D02*
X000850Y017644D01*
X000850Y017792D02*
X006780Y017792D01*
X006780Y017941D02*
X006420Y017941D01*
X006554Y018089D02*
X006780Y018089D01*
X006740Y018238D02*
X006610Y018238D01*
X006610Y018386D02*
X006740Y018386D01*
X006740Y018535D02*
X006610Y018535D01*
X006610Y018683D02*
X006740Y018683D01*
X006740Y018832D02*
X006610Y018832D01*
X006567Y018980D02*
X006783Y018980D01*
X006898Y019129D02*
X006452Y019129D01*
X006430Y019277D02*
X011941Y019277D01*
X011898Y019129D02*
X011452Y019129D01*
X011567Y018980D02*
X011783Y018980D01*
X011740Y018832D02*
X011610Y018832D01*
X011610Y018683D02*
X011740Y018683D01*
X011740Y018535D02*
X011610Y018535D01*
X011610Y018386D02*
X011740Y018386D01*
X011740Y018238D02*
X011610Y018238D01*
X011554Y018089D02*
X011796Y018089D01*
X012430Y017941D02*
X012930Y017941D01*
X012929Y017941D02*
X013088Y017875D01*
X013262Y017875D01*
X013421Y017941D01*
X013544Y018064D01*
X013610Y018223D01*
X013610Y018877D01*
X013544Y019036D01*
X013421Y019159D01*
X013262Y019225D01*
X013088Y019225D01*
X012929Y019159D01*
X012806Y019036D01*
X012740Y018877D01*
X012740Y018223D01*
X012806Y018064D01*
X012929Y017941D01*
X012796Y018089D02*
X012554Y018089D01*
X012610Y018238D02*
X012740Y018238D01*
X012740Y018386D02*
X012610Y018386D01*
X012610Y018535D02*
X012740Y018535D01*
X012740Y018683D02*
X012610Y018683D01*
X012610Y018832D02*
X012740Y018832D01*
X012783Y018980D02*
X012567Y018980D01*
X012489Y019129D02*
X012898Y019129D01*
X012638Y019277D02*
X013941Y019277D01*
X013898Y019129D02*
X013452Y019129D01*
X013567Y018980D02*
X013783Y018980D01*
X013740Y018832D02*
X013610Y018832D01*
X013610Y018683D02*
X013740Y018683D01*
X013740Y018535D02*
X013610Y018535D01*
X013610Y018386D02*
X013740Y018386D01*
X013740Y018238D02*
X013610Y018238D01*
X013554Y018089D02*
X013796Y018089D01*
X013930Y017941D02*
X013420Y017941D01*
X012430Y017792D02*
X025931Y017792D01*
X025920Y017941D02*
X026080Y017941D01*
X026054Y018089D02*
X026228Y018089D01*
X026240Y018238D02*
X026110Y018238D01*
X026110Y018386D02*
X026240Y018386D01*
X026240Y018535D02*
X026110Y018535D01*
X026110Y018683D02*
X026240Y018683D01*
X026240Y018832D02*
X026110Y018832D01*
X026067Y018980D02*
X026283Y018980D01*
X026398Y019129D02*
X025952Y019129D01*
X025909Y019277D02*
X026420Y019277D01*
X026420Y019426D02*
X025785Y019426D01*
X025637Y019574D02*
X026420Y019574D01*
X026420Y019723D02*
X025488Y019723D01*
X025451Y019871D02*
X025340Y019871D01*
X025899Y019871D02*
X026420Y019871D01*
X026420Y020020D02*
X026014Y020020D01*
X026048Y020168D02*
X026321Y020168D01*
X026173Y020317D02*
X026020Y020317D01*
X026597Y020614D02*
X039000Y020614D01*
X039000Y020762D02*
X026449Y020762D01*
X026503Y020911D02*
X026273Y020911D01*
X026311Y021059D02*
X026039Y021059D01*
X026103Y021208D02*
X026247Y021208D01*
X026240Y021223D02*
X026306Y021064D01*
X026429Y020941D01*
X026588Y020875D01*
X026762Y020875D01*
X026921Y020941D01*
X027044Y021064D01*
X027110Y021223D01*
X027110Y021877D01*
X027044Y022036D01*
X026921Y022159D01*
X026762Y022225D01*
X026588Y022225D01*
X026429Y022159D01*
X026306Y022036D01*
X026240Y021877D01*
X026240Y021223D01*
X026240Y021356D02*
X026110Y021356D01*
X026110Y021505D02*
X026240Y021505D01*
X026240Y021653D02*
X026110Y021653D01*
X026110Y021802D02*
X026240Y021802D01*
X026270Y021950D02*
X026080Y021950D01*
X025982Y022099D02*
X026368Y022099D01*
X026982Y022099D02*
X027368Y022099D01*
X027429Y022159D02*
X027306Y022036D01*
X027240Y021877D01*
X027240Y021223D01*
X027306Y021064D01*
X027429Y020941D01*
X027588Y020875D01*
X027762Y020875D01*
X027921Y020941D01*
X028044Y021064D01*
X028110Y021223D01*
X028110Y021877D01*
X028044Y022036D01*
X027921Y022159D01*
X027762Y022225D01*
X027588Y022225D01*
X027429Y022159D01*
X027270Y021950D02*
X027080Y021950D01*
X027110Y021802D02*
X027240Y021802D01*
X027240Y021653D02*
X027110Y021653D01*
X027110Y021505D02*
X027240Y021505D01*
X027240Y021356D02*
X027110Y021356D01*
X027103Y021208D02*
X027247Y021208D01*
X027311Y021059D02*
X027039Y021059D01*
X026847Y020911D02*
X027503Y020911D01*
X027847Y020911D02*
X028503Y020911D01*
X028429Y020941D02*
X028588Y020875D01*
X028762Y020875D01*
X028921Y020941D01*
X029044Y021064D01*
X029110Y021223D01*
X029110Y021877D01*
X029044Y022036D01*
X028921Y022159D01*
X028762Y022225D01*
X028588Y022225D01*
X028429Y022159D01*
X028306Y022036D01*
X028240Y021877D01*
X028240Y021223D01*
X028306Y021064D01*
X028429Y020941D01*
X028311Y021059D02*
X028039Y021059D01*
X028103Y021208D02*
X028247Y021208D01*
X028240Y021356D02*
X028110Y021356D01*
X028110Y021505D02*
X028240Y021505D01*
X028240Y021653D02*
X028110Y021653D01*
X028110Y021802D02*
X028240Y021802D01*
X028270Y021950D02*
X028080Y021950D01*
X027982Y022099D02*
X028368Y022099D01*
X028982Y022099D02*
X029368Y022099D01*
X029429Y022159D02*
X029306Y022036D01*
X029240Y021877D01*
X029240Y021223D01*
X029306Y021064D01*
X029429Y020941D01*
X029588Y020875D01*
X029762Y020875D01*
X029921Y020941D01*
X030044Y021064D01*
X030110Y021223D01*
X030110Y021877D01*
X030044Y022036D01*
X029921Y022159D01*
X029762Y022225D01*
X029588Y022225D01*
X029429Y022159D01*
X029270Y021950D02*
X029080Y021950D01*
X029110Y021802D02*
X029240Y021802D01*
X029240Y021653D02*
X029110Y021653D01*
X029110Y021505D02*
X029240Y021505D01*
X029240Y021356D02*
X029110Y021356D01*
X029103Y021208D02*
X029247Y021208D01*
X029311Y021059D02*
X029039Y021059D01*
X028847Y020911D02*
X029503Y020911D01*
X029847Y020911D02*
X030503Y020911D01*
X030429Y020941D02*
X030588Y020875D01*
X030762Y020875D01*
X030921Y020941D01*
X031044Y021064D01*
X031110Y021223D01*
X031110Y021877D01*
X031044Y022036D01*
X030921Y022159D01*
X030762Y022225D01*
X030588Y022225D01*
X030429Y022159D01*
X030306Y022036D01*
X030240Y021877D01*
X030240Y021223D01*
X030306Y021064D01*
X030429Y020941D01*
X030311Y021059D02*
X030039Y021059D01*
X030103Y021208D02*
X030247Y021208D01*
X030240Y021356D02*
X030110Y021356D01*
X030110Y021505D02*
X030240Y021505D01*
X030240Y021653D02*
X030110Y021653D01*
X030110Y021802D02*
X030240Y021802D01*
X030270Y021950D02*
X030080Y021950D01*
X029982Y022099D02*
X030368Y022099D01*
X030982Y022099D02*
X031368Y022099D01*
X031429Y022159D02*
X031306Y022036D01*
X031240Y021877D01*
X031240Y021223D01*
X031306Y021064D01*
X031429Y020941D01*
X031588Y020875D01*
X031762Y020875D01*
X031921Y020941D01*
X032044Y021064D01*
X032110Y021223D01*
X032110Y021877D01*
X032044Y022036D01*
X031921Y022159D01*
X031762Y022225D01*
X031588Y022225D01*
X031429Y022159D01*
X031270Y021950D02*
X031080Y021950D01*
X031110Y021802D02*
X031240Y021802D01*
X031240Y021653D02*
X031110Y021653D01*
X031110Y021505D02*
X031240Y021505D01*
X031240Y021356D02*
X031110Y021356D01*
X031103Y021208D02*
X031247Y021208D01*
X031311Y021059D02*
X031039Y021059D01*
X030847Y020911D02*
X031503Y020911D01*
X031847Y020911D02*
X032503Y020911D01*
X032429Y020941D02*
X032588Y020875D01*
X032762Y020875D01*
X032921Y020941D01*
X033044Y021064D01*
X033110Y021223D01*
X033110Y021877D01*
X033044Y022036D01*
X032921Y022159D01*
X032762Y022225D01*
X032588Y022225D01*
X032429Y022159D01*
X032306Y022036D01*
X032240Y021877D01*
X032240Y021223D01*
X032306Y021064D01*
X032429Y020941D01*
X032311Y021059D02*
X032039Y021059D01*
X032103Y021208D02*
X032247Y021208D01*
X032240Y021356D02*
X032110Y021356D01*
X032110Y021505D02*
X032240Y021505D01*
X032240Y021653D02*
X032110Y021653D01*
X032110Y021802D02*
X032240Y021802D01*
X032270Y021950D02*
X032080Y021950D01*
X031982Y022099D02*
X032368Y022099D01*
X032982Y022099D02*
X033368Y022099D01*
X033429Y022159D02*
X033306Y022036D01*
X033240Y021877D01*
X033240Y021223D01*
X033306Y021064D01*
X033429Y020941D01*
X033588Y020875D01*
X033762Y020875D01*
X033921Y020941D01*
X034044Y021064D01*
X034110Y021223D01*
X034110Y021877D01*
X034044Y022036D01*
X033921Y022159D01*
X033762Y022225D01*
X033588Y022225D01*
X033429Y022159D01*
X033270Y021950D02*
X033080Y021950D01*
X033110Y021802D02*
X033240Y021802D01*
X033240Y021653D02*
X033110Y021653D01*
X033110Y021505D02*
X033240Y021505D01*
X033240Y021356D02*
X033110Y021356D01*
X033103Y021208D02*
X033247Y021208D01*
X033311Y021059D02*
X033039Y021059D01*
X032847Y020911D02*
X033503Y020911D01*
X033847Y020911D02*
X034503Y020911D01*
X034429Y020941D02*
X034588Y020875D01*
X034762Y020875D01*
X034921Y020941D01*
X035044Y021064D01*
X035110Y021223D01*
X035110Y021877D01*
X035044Y022036D01*
X034921Y022159D01*
X034762Y022225D01*
X034588Y022225D01*
X034429Y022159D01*
X034306Y022036D01*
X034240Y021877D01*
X034240Y021223D01*
X034306Y021064D01*
X034429Y020941D01*
X034311Y021059D02*
X034039Y021059D01*
X034103Y021208D02*
X034247Y021208D01*
X034240Y021356D02*
X034110Y021356D01*
X034110Y021505D02*
X034240Y021505D01*
X034240Y021653D02*
X034110Y021653D01*
X034110Y021802D02*
X034240Y021802D01*
X034270Y021950D02*
X034080Y021950D01*
X033982Y022099D02*
X034368Y022099D01*
X034982Y022099D02*
X035368Y022099D01*
X035429Y022159D02*
X035306Y022036D01*
X035240Y021877D01*
X035240Y021223D01*
X035306Y021064D01*
X035429Y020941D01*
X035588Y020875D01*
X035762Y020875D01*
X035921Y020941D01*
X036044Y021064D01*
X036110Y021223D01*
X036110Y021877D01*
X036044Y022036D01*
X035921Y022159D01*
X035762Y022225D01*
X035588Y022225D01*
X035429Y022159D01*
X035270Y021950D02*
X035080Y021950D01*
X035110Y021802D02*
X035240Y021802D01*
X035240Y021653D02*
X035110Y021653D01*
X035110Y021505D02*
X035240Y021505D01*
X035240Y021356D02*
X035110Y021356D01*
X035103Y021208D02*
X035247Y021208D01*
X035311Y021059D02*
X035039Y021059D01*
X034847Y020911D02*
X035503Y020911D01*
X035847Y020911D02*
X036503Y020911D01*
X036429Y020941D02*
X036588Y020875D01*
X036762Y020875D01*
X036921Y020941D01*
X037044Y021064D01*
X037110Y021223D01*
X037110Y021877D01*
X037044Y022036D01*
X036921Y022159D01*
X036762Y022225D01*
X036588Y022225D01*
X036429Y022159D01*
X036306Y022036D01*
X036240Y021877D01*
X036240Y021223D01*
X036306Y021064D01*
X036429Y020941D01*
X036311Y021059D02*
X036039Y021059D01*
X036103Y021208D02*
X036247Y021208D01*
X036240Y021356D02*
X036110Y021356D01*
X036110Y021505D02*
X036240Y021505D01*
X036240Y021653D02*
X036110Y021653D01*
X036110Y021802D02*
X036240Y021802D01*
X036270Y021950D02*
X036080Y021950D01*
X035982Y022099D02*
X036368Y022099D01*
X036982Y022099D02*
X039000Y022099D01*
X039000Y022247D02*
X000850Y022247D01*
X000850Y022099D02*
X002868Y022099D01*
X002929Y022159D02*
X002806Y022036D01*
X002740Y021877D01*
X002740Y021223D01*
X002806Y021064D01*
X002929Y020941D01*
X003088Y020875D01*
X003262Y020875D01*
X003421Y020941D01*
X003544Y021064D01*
X003610Y021223D01*
X003610Y021877D01*
X003544Y022036D01*
X003421Y022159D01*
X003262Y022225D01*
X003088Y022225D01*
X002929Y022159D01*
X002770Y021950D02*
X000850Y021950D01*
X000850Y021802D02*
X002740Y021802D01*
X002740Y021653D02*
X000850Y021653D01*
X000850Y021505D02*
X002740Y021505D01*
X002740Y021356D02*
X000850Y021356D01*
X000850Y021208D02*
X002747Y021208D01*
X002811Y021059D02*
X000850Y021059D01*
X000850Y020911D02*
X003003Y020911D01*
X003347Y020911D02*
X004003Y020911D01*
X003929Y020941D02*
X004088Y020875D01*
X004262Y020875D01*
X004421Y020941D01*
X004544Y021064D01*
X004610Y021223D01*
X004610Y021877D01*
X004544Y022036D01*
X004421Y022159D01*
X004262Y022225D01*
X004088Y022225D01*
X003929Y022159D01*
X003806Y022036D01*
X003740Y021877D01*
X003740Y021223D01*
X003806Y021064D01*
X003929Y020941D01*
X003811Y021059D02*
X003539Y021059D01*
X003603Y021208D02*
X003747Y021208D01*
X003740Y021356D02*
X003610Y021356D01*
X003610Y021505D02*
X003740Y021505D01*
X003740Y021653D02*
X003610Y021653D01*
X003610Y021802D02*
X003740Y021802D01*
X003770Y021950D02*
X003580Y021950D01*
X003482Y022099D02*
X003868Y022099D01*
X004482Y022099D02*
X004868Y022099D01*
X004929Y022159D02*
X004806Y022036D01*
X004740Y021877D01*
X004740Y021223D01*
X004806Y021064D01*
X004929Y020941D01*
X005088Y020875D01*
X005262Y020875D01*
X005421Y020941D01*
X005544Y021064D01*
X005610Y021223D01*
X005610Y021877D01*
X005544Y022036D01*
X005421Y022159D01*
X005262Y022225D01*
X005088Y022225D01*
X004929Y022159D01*
X004770Y021950D02*
X004580Y021950D01*
X004610Y021802D02*
X004740Y021802D01*
X004740Y021653D02*
X004610Y021653D01*
X004610Y021505D02*
X004740Y021505D01*
X004740Y021356D02*
X004610Y021356D01*
X004603Y021208D02*
X004747Y021208D01*
X004811Y021059D02*
X004539Y021059D01*
X004347Y020911D02*
X005003Y020911D01*
X005347Y020911D02*
X006003Y020911D01*
X005929Y020941D02*
X006088Y020875D01*
X006262Y020875D01*
X006421Y020941D01*
X006544Y021064D01*
X006610Y021223D01*
X006610Y021877D01*
X006544Y022036D01*
X006421Y022159D01*
X006262Y022225D01*
X006088Y022225D01*
X005929Y022159D01*
X005806Y022036D01*
X005740Y021877D01*
X005740Y021223D01*
X005806Y021064D01*
X005929Y020941D01*
X005811Y021059D02*
X005539Y021059D01*
X005603Y021208D02*
X005747Y021208D01*
X005740Y021356D02*
X005610Y021356D01*
X005610Y021505D02*
X005740Y021505D01*
X005740Y021653D02*
X005610Y021653D01*
X005610Y021802D02*
X005740Y021802D01*
X005770Y021950D02*
X005580Y021950D01*
X005482Y022099D02*
X005868Y022099D01*
X006482Y022099D02*
X006868Y022099D01*
X006770Y021950D02*
X006580Y021950D01*
X006610Y021802D02*
X006740Y021802D01*
X006740Y021653D02*
X006610Y021653D01*
X006610Y021505D02*
X006740Y021505D01*
X006740Y021356D02*
X006610Y021356D01*
X006603Y021208D02*
X006747Y021208D01*
X006811Y021059D02*
X006539Y021059D01*
X006577Y020911D02*
X006347Y020911D01*
X006401Y020762D02*
X000850Y020762D01*
X000850Y020614D02*
X006253Y020614D01*
X006104Y020465D02*
X000850Y020465D01*
X000850Y020317D02*
X005958Y020317D01*
X005920Y020168D02*
X000850Y020168D01*
X000850Y020020D02*
X005920Y020020D01*
X005920Y019871D02*
X000850Y019871D01*
X000850Y019723D02*
X005920Y019723D01*
X005920Y019574D02*
X000850Y019574D01*
X000850Y019426D02*
X005920Y019426D01*
X005920Y019277D02*
X000850Y019277D01*
X000850Y019129D02*
X002898Y019129D01*
X002929Y019159D02*
X002806Y019036D01*
X002740Y018877D01*
X002740Y018223D01*
X002806Y018064D01*
X002929Y017941D01*
X003088Y017875D01*
X003262Y017875D01*
X003421Y017941D01*
X003544Y018064D01*
X003610Y018223D01*
X003610Y018877D01*
X003544Y019036D01*
X003421Y019159D01*
X003262Y019225D01*
X003088Y019225D01*
X002929Y019159D01*
X002783Y018980D02*
X000850Y018980D01*
X000850Y018832D02*
X002740Y018832D01*
X002740Y018683D02*
X000850Y018683D01*
X000850Y018535D02*
X002740Y018535D01*
X002740Y018386D02*
X000850Y018386D01*
X000850Y018238D02*
X002740Y018238D01*
X002796Y018089D02*
X000850Y018089D01*
X000850Y017941D02*
X002930Y017941D01*
X003420Y017941D02*
X003930Y017941D01*
X003929Y017941D02*
X004088Y017875D01*
X004262Y017875D01*
X004421Y017941D01*
X004544Y018064D01*
X004610Y018223D01*
X004610Y018877D01*
X004544Y019036D01*
X004421Y019159D01*
X004262Y019225D01*
X004088Y019225D01*
X003929Y019159D01*
X003806Y019036D01*
X003740Y018877D01*
X003740Y018223D01*
X003806Y018064D01*
X003929Y017941D01*
X003796Y018089D02*
X003554Y018089D01*
X003610Y018238D02*
X003740Y018238D01*
X003740Y018386D02*
X003610Y018386D01*
X003610Y018535D02*
X003740Y018535D01*
X003740Y018683D02*
X003610Y018683D01*
X003610Y018832D02*
X003740Y018832D01*
X003783Y018980D02*
X003567Y018980D01*
X003452Y019129D02*
X003898Y019129D01*
X004452Y019129D02*
X004898Y019129D01*
X004929Y019159D02*
X004806Y019036D01*
X004740Y018877D01*
X004740Y018223D01*
X004806Y018064D01*
X004929Y017941D01*
X005088Y017875D01*
X005262Y017875D01*
X005421Y017941D01*
X005544Y018064D01*
X005610Y018223D01*
X005610Y018877D01*
X005544Y019036D01*
X005421Y019159D01*
X005262Y019225D01*
X005088Y019225D01*
X004929Y019159D01*
X004783Y018980D02*
X004567Y018980D01*
X004610Y018832D02*
X004740Y018832D01*
X004740Y018683D02*
X004610Y018683D01*
X004610Y018535D02*
X004740Y018535D01*
X004740Y018386D02*
X004610Y018386D01*
X004610Y018238D02*
X004740Y018238D01*
X004796Y018089D02*
X004554Y018089D01*
X004420Y017941D02*
X004930Y017941D01*
X005420Y017941D02*
X005930Y017941D01*
X005796Y018089D02*
X005554Y018089D01*
X005610Y018238D02*
X005740Y018238D01*
X005740Y018386D02*
X005610Y018386D01*
X005610Y018535D02*
X005740Y018535D01*
X005740Y018683D02*
X005610Y018683D01*
X005610Y018832D02*
X005740Y018832D01*
X005783Y018980D02*
X005567Y018980D01*
X005452Y019129D02*
X005898Y019129D01*
X006430Y019426D02*
X012065Y019426D01*
X012213Y019574D02*
X006430Y019574D01*
X006430Y019723D02*
X012362Y019723D01*
X012510Y019871D02*
X006430Y019871D01*
X006430Y020020D02*
X012659Y020020D01*
X012807Y020168D02*
X006529Y020168D01*
X006677Y020317D02*
X012956Y020317D01*
X013232Y019871D02*
X014510Y019871D01*
X014362Y019723D02*
X013083Y019723D01*
X012935Y019574D02*
X014213Y019574D01*
X014065Y019426D02*
X012786Y019426D01*
X014489Y019129D02*
X014935Y019129D01*
X014957Y019145D02*
X014905Y019107D01*
X014858Y019060D01*
X014820Y019008D01*
X014790Y018949D01*
X014770Y018887D01*
X014760Y018823D01*
X014760Y018555D01*
X015170Y018555D01*
X015170Y019205D01*
X015142Y019205D01*
X015078Y019195D01*
X015016Y019175D01*
X014957Y019145D01*
X015170Y019129D02*
X015180Y019129D01*
X015180Y019205D02*
X015180Y018555D01*
X015170Y018555D01*
X015170Y018545D01*
X014760Y018545D01*
X014760Y018277D01*
X014770Y018213D01*
X014790Y018151D01*
X014820Y018092D01*
X014858Y018040D01*
X014905Y017993D01*
X014957Y017955D01*
X015016Y017925D01*
X015078Y017905D01*
X015142Y017895D01*
X015170Y017895D01*
X015170Y018545D01*
X015180Y018545D01*
X015180Y018555D01*
X015590Y018555D01*
X015590Y018823D01*
X015580Y018887D01*
X015560Y018949D01*
X015530Y019008D01*
X015492Y019060D01*
X015445Y019107D01*
X015393Y019145D01*
X015334Y019175D01*
X015272Y019195D01*
X015208Y019205D01*
X015180Y019205D01*
X015170Y018980D02*
X015180Y018980D01*
X015170Y018832D02*
X015180Y018832D01*
X015170Y018683D02*
X015180Y018683D01*
X015180Y018545D02*
X015590Y018545D01*
X015590Y018277D01*
X015580Y018213D01*
X015560Y018151D01*
X015530Y018092D01*
X015492Y018040D01*
X015445Y017993D01*
X015393Y017955D01*
X015334Y017925D01*
X015272Y017905D01*
X015208Y017895D01*
X015180Y017895D01*
X015180Y018545D01*
X015180Y018535D02*
X015170Y018535D01*
X015170Y018386D02*
X015180Y018386D01*
X015170Y018238D02*
X015180Y018238D01*
X015170Y018089D02*
X015180Y018089D01*
X015170Y017941D02*
X015180Y017941D01*
X015364Y017941D02*
X015930Y017941D01*
X015929Y017941D02*
X016088Y017875D01*
X016262Y017875D01*
X016421Y017941D01*
X016544Y018064D01*
X016610Y018223D01*
X016610Y018877D01*
X016544Y019036D01*
X016421Y019159D01*
X016262Y019225D01*
X016088Y019225D01*
X015929Y019159D01*
X015806Y019036D01*
X015740Y018877D01*
X015740Y018223D01*
X015806Y018064D01*
X015929Y017941D01*
X015796Y018089D02*
X015527Y018089D01*
X015584Y018238D02*
X015740Y018238D01*
X015740Y018386D02*
X015590Y018386D01*
X015590Y018535D02*
X015740Y018535D01*
X015740Y018683D02*
X015590Y018683D01*
X015589Y018832D02*
X015740Y018832D01*
X015783Y018980D02*
X015544Y018980D01*
X015415Y019129D02*
X015898Y019129D01*
X016452Y019129D02*
X018010Y019129D01*
X018010Y019055D02*
X018420Y019055D01*
X018420Y019465D01*
X018253Y019465D01*
X018010Y019222D01*
X018010Y019055D01*
X018010Y019045D02*
X018010Y018878D01*
X018253Y018635D01*
X018420Y018635D01*
X018420Y019045D01*
X018010Y019045D01*
X018010Y018980D02*
X016567Y018980D01*
X016610Y018832D02*
X018057Y018832D01*
X018205Y018683D02*
X016610Y018683D01*
X016610Y018535D02*
X023240Y018535D01*
X023240Y018683D02*
X021645Y018683D01*
X021597Y018635D02*
X021840Y018878D01*
X021840Y019045D01*
X021430Y019045D01*
X021430Y019055D01*
X021420Y019055D01*
X021420Y019465D01*
X021253Y019465D01*
X021010Y019222D01*
X021010Y019055D01*
X021420Y019055D01*
X021420Y019045D01*
X021010Y019045D01*
X021010Y018878D01*
X021253Y018635D01*
X021420Y018635D01*
X021420Y019045D01*
X021430Y019045D01*
X021430Y018635D01*
X021597Y018635D01*
X021430Y018683D02*
X021420Y018683D01*
X021420Y018832D02*
X021430Y018832D01*
X021420Y018980D02*
X021430Y018980D01*
X021430Y019055D02*
X021840Y019055D01*
X021840Y019222D01*
X021597Y019465D01*
X021430Y019465D01*
X021430Y019055D01*
X021420Y019129D02*
X021430Y019129D01*
X021420Y019277D02*
X021430Y019277D01*
X021420Y019426D02*
X021430Y019426D01*
X021636Y019426D02*
X025064Y019426D01*
X025212Y019277D02*
X021785Y019277D01*
X021840Y019129D02*
X023398Y019129D01*
X023429Y019159D02*
X023306Y019036D01*
X023240Y018877D01*
X023240Y018223D01*
X023306Y018064D01*
X023429Y017941D01*
X023588Y017875D01*
X023762Y017875D01*
X023921Y017941D01*
X024044Y018064D01*
X024110Y018223D01*
X024110Y018877D01*
X024044Y019036D01*
X023921Y019159D01*
X023762Y019225D01*
X023588Y019225D01*
X023429Y019159D01*
X023283Y018980D02*
X021840Y018980D01*
X021793Y018832D02*
X023240Y018832D01*
X023240Y018386D02*
X016610Y018386D01*
X016610Y018238D02*
X023240Y018238D01*
X023296Y018089D02*
X016554Y018089D01*
X016420Y017941D02*
X023430Y017941D01*
X023920Y017941D02*
X024430Y017941D01*
X024429Y017941D02*
X024588Y017875D01*
X024762Y017875D01*
X024921Y017941D01*
X025044Y018064D01*
X025110Y018223D01*
X025110Y018877D01*
X025044Y019036D01*
X024921Y019159D01*
X024762Y019225D01*
X024588Y019225D01*
X024429Y019159D01*
X024306Y019036D01*
X024240Y018877D01*
X024240Y018223D01*
X024306Y018064D01*
X024429Y017941D01*
X024296Y018089D02*
X024054Y018089D01*
X024110Y018238D02*
X024240Y018238D01*
X024240Y018386D02*
X024110Y018386D01*
X024110Y018535D02*
X024240Y018535D01*
X024240Y018683D02*
X024110Y018683D01*
X024110Y018832D02*
X024240Y018832D01*
X024283Y018980D02*
X024067Y018980D01*
X023952Y019129D02*
X024398Y019129D01*
X024952Y019129D02*
X025361Y019129D01*
X025283Y018980D02*
X025067Y018980D01*
X025110Y018832D02*
X025240Y018832D01*
X025240Y018683D02*
X025110Y018683D01*
X025110Y018535D02*
X025240Y018535D01*
X025240Y018386D02*
X025110Y018386D01*
X025110Y018238D02*
X025240Y018238D01*
X025296Y018089D02*
X025054Y018089D01*
X024920Y017941D02*
X025430Y017941D01*
X025783Y017644D02*
X012430Y017644D01*
X012430Y017495D02*
X025634Y017495D01*
X025486Y017347D02*
X021744Y017347D01*
X021860Y017230D02*
X021605Y017485D01*
X021245Y017485D01*
X020990Y017230D01*
X020990Y016870D01*
X021245Y016615D01*
X021605Y016615D01*
X021860Y016870D01*
X021860Y017230D01*
X021860Y017198D02*
X025337Y017198D01*
X025189Y017050D02*
X021860Y017050D01*
X021860Y016901D02*
X025040Y016901D01*
X024892Y016753D02*
X021743Y016753D01*
X021107Y016753D02*
X018743Y016753D01*
X018860Y016901D02*
X020990Y016901D01*
X020990Y017050D02*
X018860Y017050D01*
X018860Y017198D02*
X020990Y017198D01*
X021106Y017347D02*
X018744Y017347D01*
X018106Y017347D02*
X012419Y017347D01*
X012309Y017198D02*
X017990Y017198D01*
X017990Y017050D02*
X012160Y017050D01*
X014420Y017941D02*
X014986Y017941D01*
X014823Y018089D02*
X014554Y018089D01*
X014610Y018238D02*
X014766Y018238D01*
X014760Y018386D02*
X014610Y018386D01*
X014610Y018535D02*
X014760Y018535D01*
X014760Y018683D02*
X014610Y018683D01*
X014610Y018832D02*
X014761Y018832D01*
X014806Y018980D02*
X014567Y018980D01*
X014638Y019277D02*
X018065Y019277D01*
X018214Y019426D02*
X014786Y019426D01*
X014811Y021059D02*
X014539Y021059D01*
X014603Y021208D02*
X014747Y021208D01*
X014740Y021356D02*
X014610Y021356D01*
X014610Y021505D02*
X014740Y021505D01*
X014740Y021653D02*
X014610Y021653D01*
X014610Y021802D02*
X014740Y021802D01*
X014770Y021950D02*
X014580Y021950D01*
X014482Y022099D02*
X014868Y022099D01*
X015482Y022099D02*
X015868Y022099D01*
X015770Y021950D02*
X015580Y021950D01*
X015610Y021802D02*
X015740Y021802D01*
X015740Y021653D02*
X015610Y021653D01*
X015610Y021505D02*
X015740Y021505D01*
X015740Y021356D02*
X015610Y021356D01*
X015603Y021208D02*
X015747Y021208D01*
X015811Y021059D02*
X015539Y021059D01*
X016539Y021059D02*
X023311Y021059D01*
X023247Y021208D02*
X016603Y021208D01*
X016610Y021356D02*
X023240Y021356D01*
X023240Y021505D02*
X016610Y021505D01*
X016610Y021653D02*
X023240Y021653D01*
X023240Y021802D02*
X016610Y021802D01*
X016580Y021950D02*
X023270Y021950D01*
X023368Y022099D02*
X016482Y022099D01*
X017067Y023630D02*
X017283Y023630D01*
X017484Y023713D01*
X017637Y023866D01*
X017720Y024067D01*
X017720Y024283D01*
X017637Y024484D01*
X017484Y024637D01*
X017283Y024720D01*
X017067Y024720D01*
X016866Y024637D01*
X016713Y024484D01*
X016630Y024283D01*
X016630Y024067D01*
X016713Y023866D01*
X016866Y023713D01*
X017067Y023630D01*
X016847Y023732D02*
X016003Y023732D01*
X015984Y023713D02*
X016137Y023866D01*
X016220Y024067D01*
X016220Y024283D01*
X016137Y024484D01*
X015984Y024637D01*
X015783Y024720D01*
X015567Y024720D01*
X015366Y024637D01*
X015213Y024484D01*
X015130Y024283D01*
X015130Y024067D01*
X015213Y023866D01*
X015366Y023713D01*
X015567Y023630D01*
X015783Y023630D01*
X015984Y023713D01*
X016143Y023881D02*
X016707Y023881D01*
X016646Y024029D02*
X016204Y024029D01*
X016220Y024178D02*
X016630Y024178D01*
X016648Y024326D02*
X016202Y024326D01*
X016141Y024475D02*
X016709Y024475D01*
X016852Y024623D02*
X015998Y024623D01*
X015352Y024623D02*
X013998Y024623D01*
X013984Y024637D02*
X013783Y024720D01*
X013567Y024720D01*
X013366Y024637D01*
X013213Y024484D01*
X013130Y024283D01*
X013130Y024067D01*
X013213Y023866D01*
X013366Y023713D01*
X013567Y023630D01*
X013783Y023630D01*
X013984Y023713D01*
X014137Y023866D01*
X014220Y024067D01*
X014220Y024283D01*
X014137Y024484D01*
X013984Y024637D01*
X014141Y024475D02*
X015209Y024475D01*
X015148Y024326D02*
X014202Y024326D01*
X014220Y024178D02*
X015130Y024178D01*
X015146Y024029D02*
X014204Y024029D01*
X014143Y023881D02*
X015207Y023881D01*
X015347Y023732D02*
X014003Y023732D01*
X013347Y023732D02*
X012503Y023732D01*
X012484Y023713D02*
X012637Y023866D01*
X012720Y024067D01*
X012720Y024283D01*
X012637Y024484D01*
X012484Y024637D01*
X012283Y024720D01*
X012067Y024720D01*
X011866Y024637D01*
X011713Y024484D01*
X011630Y024283D01*
X011630Y024067D01*
X011713Y023866D01*
X011866Y023713D01*
X012067Y023630D01*
X012283Y023630D01*
X012484Y023713D01*
X012643Y023881D02*
X013207Y023881D01*
X013146Y024029D02*
X012704Y024029D01*
X012720Y024178D02*
X013130Y024178D01*
X013148Y024326D02*
X012702Y024326D01*
X012641Y024475D02*
X013209Y024475D01*
X013352Y024623D02*
X012498Y024623D01*
X011852Y024623D02*
X010498Y024623D01*
X010484Y024637D02*
X010283Y024720D01*
X010067Y024720D01*
X009866Y024637D01*
X009713Y024484D01*
X009630Y024283D01*
X009630Y024067D01*
X009713Y023866D01*
X009866Y023713D01*
X010067Y023630D01*
X010283Y023630D01*
X010484Y023713D01*
X010637Y023866D01*
X010720Y024067D01*
X010720Y024283D01*
X010637Y024484D01*
X010484Y024637D01*
X010641Y024475D02*
X011709Y024475D01*
X011648Y024326D02*
X010702Y024326D01*
X010720Y024178D02*
X011630Y024178D01*
X011646Y024029D02*
X010704Y024029D01*
X010643Y023881D02*
X011707Y023881D01*
X011847Y023732D02*
X010503Y023732D01*
X009847Y023732D02*
X009003Y023732D01*
X008984Y023713D02*
X009137Y023866D01*
X009220Y024067D01*
X009220Y024283D01*
X009137Y024484D01*
X008984Y024637D01*
X008783Y024720D01*
X008567Y024720D01*
X008366Y024637D01*
X008213Y024484D01*
X008130Y024283D01*
X008130Y024067D01*
X008213Y023866D01*
X008366Y023713D01*
X008567Y023630D01*
X008783Y023630D01*
X008984Y023713D01*
X009143Y023881D02*
X009707Y023881D01*
X009646Y024029D02*
X009204Y024029D01*
X009220Y024178D02*
X009630Y024178D01*
X009648Y024326D02*
X009202Y024326D01*
X009141Y024475D02*
X009709Y024475D01*
X009852Y024623D02*
X008998Y024623D01*
X008352Y024623D02*
X006998Y024623D01*
X006984Y024637D02*
X006783Y024720D01*
X006567Y024720D01*
X006366Y024637D01*
X006213Y024484D01*
X006130Y024283D01*
X006130Y024067D01*
X006213Y023866D01*
X006366Y023713D01*
X006567Y023630D01*
X006783Y023630D01*
X006984Y023713D01*
X007137Y023866D01*
X007220Y024067D01*
X007220Y024283D01*
X007137Y024484D01*
X006984Y024637D01*
X007141Y024475D02*
X008209Y024475D01*
X008148Y024326D02*
X007202Y024326D01*
X007220Y024178D02*
X008130Y024178D01*
X008146Y024029D02*
X007204Y024029D01*
X007143Y023881D02*
X008207Y023881D01*
X008347Y023732D02*
X007003Y023732D01*
X006347Y023732D02*
X005503Y023732D01*
X005484Y023713D02*
X005637Y023866D01*
X005720Y024067D01*
X005720Y024283D01*
X005637Y024484D01*
X005484Y024637D01*
X005283Y024720D01*
X005067Y024720D01*
X004866Y024637D01*
X004713Y024484D01*
X004630Y024283D01*
X004630Y024067D01*
X004713Y023866D01*
X004866Y023713D01*
X005067Y023630D01*
X005283Y023630D01*
X005484Y023713D01*
X005643Y023881D02*
X006207Y023881D01*
X006146Y024029D02*
X005704Y024029D01*
X005720Y024178D02*
X006130Y024178D01*
X006148Y024326D02*
X005702Y024326D01*
X005641Y024475D02*
X006209Y024475D01*
X006352Y024623D02*
X005498Y024623D01*
X004852Y024623D02*
X003498Y024623D01*
X003484Y024637D02*
X003283Y024720D01*
X003067Y024720D01*
X002866Y024637D01*
X002713Y024484D01*
X002630Y024283D01*
X002630Y024067D01*
X002713Y023866D01*
X002866Y023713D01*
X003067Y023630D01*
X003283Y023630D01*
X003484Y023713D01*
X003637Y023866D01*
X003720Y024067D01*
X003720Y024283D01*
X003637Y024484D01*
X003484Y024637D01*
X003641Y024475D02*
X004709Y024475D01*
X004648Y024326D02*
X003702Y024326D01*
X003720Y024178D02*
X004630Y024178D01*
X004646Y024029D02*
X003704Y024029D01*
X003643Y023881D02*
X004707Y023881D01*
X004847Y023732D02*
X003503Y023732D01*
X002847Y023732D02*
X000850Y023732D01*
X000850Y023584D02*
X039000Y023584D01*
X039000Y023732D02*
X037003Y023732D01*
X036984Y023713D02*
X037137Y023866D01*
X037220Y024067D01*
X037220Y024283D01*
X037137Y024484D01*
X036984Y024637D01*
X036783Y024720D01*
X036567Y024720D01*
X036366Y024637D01*
X036213Y024484D01*
X036130Y024283D01*
X036130Y024067D01*
X036213Y023866D01*
X036366Y023713D01*
X036567Y023630D01*
X036783Y023630D01*
X036984Y023713D01*
X037143Y023881D02*
X039000Y023881D01*
X039000Y024029D02*
X037204Y024029D01*
X037220Y024178D02*
X039000Y024178D01*
X039000Y024326D02*
X037202Y024326D01*
X037141Y024475D02*
X039000Y024475D01*
X039000Y024623D02*
X036998Y024623D01*
X036352Y024623D02*
X034998Y024623D01*
X034984Y024637D02*
X034783Y024720D01*
X034567Y024720D01*
X034366Y024637D01*
X034213Y024484D01*
X034130Y024283D01*
X034130Y024067D01*
X034213Y023866D01*
X034366Y023713D01*
X034567Y023630D01*
X034783Y023630D01*
X034984Y023713D01*
X035137Y023866D01*
X035220Y024067D01*
X035220Y024283D01*
X035137Y024484D01*
X034984Y024637D01*
X035141Y024475D02*
X036209Y024475D01*
X036148Y024326D02*
X035202Y024326D01*
X035220Y024178D02*
X036130Y024178D01*
X036146Y024029D02*
X035204Y024029D01*
X035143Y023881D02*
X036207Y023881D01*
X036347Y023732D02*
X035003Y023732D01*
X034347Y023732D02*
X033503Y023732D01*
X033484Y023713D02*
X033637Y023866D01*
X033720Y024067D01*
X033720Y024283D01*
X033637Y024484D01*
X033484Y024637D01*
X033283Y024720D01*
X033067Y024720D01*
X032866Y024637D01*
X032713Y024484D01*
X032630Y024283D01*
X032630Y024067D01*
X032713Y023866D01*
X032866Y023713D01*
X033067Y023630D01*
X033283Y023630D01*
X033484Y023713D01*
X033643Y023881D02*
X034207Y023881D01*
X034146Y024029D02*
X033704Y024029D01*
X033720Y024178D02*
X034130Y024178D01*
X034148Y024326D02*
X033702Y024326D01*
X033641Y024475D02*
X034209Y024475D01*
X034352Y024623D02*
X033498Y024623D01*
X032852Y024623D02*
X031498Y024623D01*
X031484Y024637D02*
X031283Y024720D01*
X031067Y024720D01*
X030866Y024637D01*
X030713Y024484D01*
X030630Y024283D01*
X030630Y024067D01*
X030713Y023866D01*
X030866Y023713D01*
X031067Y023630D01*
X031283Y023630D01*
X031484Y023713D01*
X031637Y023866D01*
X031720Y024067D01*
X031720Y024283D01*
X031637Y024484D01*
X031484Y024637D01*
X031641Y024475D02*
X032709Y024475D01*
X032648Y024326D02*
X031702Y024326D01*
X031720Y024178D02*
X032630Y024178D01*
X032646Y024029D02*
X031704Y024029D01*
X031643Y023881D02*
X032707Y023881D01*
X032847Y023732D02*
X031503Y023732D01*
X030847Y023732D02*
X030003Y023732D01*
X029984Y023713D02*
X030137Y023866D01*
X030220Y024067D01*
X030220Y024283D01*
X030137Y024484D01*
X029984Y024637D01*
X029783Y024720D01*
X029567Y024720D01*
X029366Y024637D01*
X029213Y024484D01*
X029130Y024283D01*
X029130Y024067D01*
X029213Y023866D01*
X029366Y023713D01*
X029567Y023630D01*
X029783Y023630D01*
X029984Y023713D01*
X030143Y023881D02*
X030707Y023881D01*
X030646Y024029D02*
X030204Y024029D01*
X030220Y024178D02*
X030630Y024178D01*
X030648Y024326D02*
X030202Y024326D01*
X030141Y024475D02*
X030709Y024475D01*
X030852Y024623D02*
X029998Y024623D01*
X029352Y024623D02*
X027998Y024623D01*
X027984Y024637D02*
X027783Y024720D01*
X027567Y024720D01*
X027366Y024637D01*
X027213Y024484D01*
X027130Y024283D01*
X027130Y024067D01*
X027213Y023866D01*
X027366Y023713D01*
X027567Y023630D01*
X027783Y023630D01*
X027984Y023713D01*
X028137Y023866D01*
X028220Y024067D01*
X028220Y024283D01*
X028137Y024484D01*
X027984Y024637D01*
X028141Y024475D02*
X029209Y024475D01*
X029148Y024326D02*
X028202Y024326D01*
X028220Y024178D02*
X029130Y024178D01*
X029146Y024029D02*
X028204Y024029D01*
X028143Y023881D02*
X029207Y023881D01*
X029347Y023732D02*
X028003Y023732D01*
X027347Y023732D02*
X026503Y023732D01*
X026484Y023713D02*
X026637Y023866D01*
X026720Y024067D01*
X026720Y024283D01*
X026637Y024484D01*
X026484Y024637D01*
X026283Y024720D01*
X026067Y024720D01*
X025866Y024637D01*
X025713Y024484D01*
X025630Y024283D01*
X025630Y024067D01*
X025713Y023866D01*
X025866Y023713D01*
X026067Y023630D01*
X026283Y023630D01*
X026484Y023713D01*
X026643Y023881D02*
X027207Y023881D01*
X027146Y024029D02*
X026704Y024029D01*
X026720Y024178D02*
X027130Y024178D01*
X027148Y024326D02*
X026702Y024326D01*
X026641Y024475D02*
X027209Y024475D01*
X027352Y024623D02*
X026498Y024623D01*
X025852Y024623D02*
X024498Y024623D01*
X024484Y024637D02*
X024283Y024720D01*
X024067Y024720D01*
X023866Y024637D01*
X023713Y024484D01*
X023630Y024283D01*
X023630Y024067D01*
X023713Y023866D01*
X023866Y023713D01*
X024067Y023630D01*
X024283Y023630D01*
X024484Y023713D01*
X024637Y023866D01*
X024720Y024067D01*
X024720Y024283D01*
X024637Y024484D01*
X024484Y024637D01*
X024641Y024475D02*
X025709Y024475D01*
X025648Y024326D02*
X024702Y024326D01*
X024720Y024178D02*
X025630Y024178D01*
X025646Y024029D02*
X024704Y024029D01*
X024643Y023881D02*
X025707Y023881D01*
X025847Y023732D02*
X024503Y023732D01*
X023847Y023732D02*
X023003Y023732D01*
X022984Y023713D02*
X023137Y023866D01*
X023220Y024067D01*
X023220Y024283D01*
X023137Y024484D01*
X022984Y024637D01*
X022783Y024720D01*
X022567Y024720D01*
X022366Y024637D01*
X022213Y024484D01*
X022130Y024283D01*
X022130Y024067D01*
X022213Y023866D01*
X022366Y023713D01*
X022567Y023630D01*
X022783Y023630D01*
X022984Y023713D01*
X023143Y023881D02*
X023707Y023881D01*
X023646Y024029D02*
X023204Y024029D01*
X023220Y024178D02*
X023630Y024178D01*
X023648Y024326D02*
X023202Y024326D01*
X023141Y024475D02*
X023709Y024475D01*
X023852Y024623D02*
X022998Y024623D01*
X022352Y024623D02*
X020998Y024623D01*
X020984Y024637D02*
X020783Y024720D01*
X020567Y024720D01*
X020366Y024637D01*
X020213Y024484D01*
X020130Y024283D01*
X020130Y024067D01*
X020213Y023866D01*
X020366Y023713D01*
X020567Y023630D01*
X020783Y023630D01*
X020984Y023713D01*
X021137Y023866D01*
X021220Y024067D01*
X021220Y024283D01*
X021137Y024484D01*
X020984Y024637D01*
X021141Y024475D02*
X022209Y024475D01*
X022148Y024326D02*
X021202Y024326D01*
X021220Y024178D02*
X022130Y024178D01*
X022146Y024029D02*
X021204Y024029D01*
X021143Y023881D02*
X022207Y023881D01*
X022347Y023732D02*
X021003Y023732D01*
X020347Y023732D02*
X019503Y023732D01*
X019484Y023713D02*
X019637Y023866D01*
X019720Y024067D01*
X019720Y024283D01*
X019637Y024484D01*
X019484Y024637D01*
X019283Y024720D01*
X019067Y024720D01*
X018866Y024637D01*
X018713Y024484D01*
X018630Y024283D01*
X018630Y024067D01*
X018713Y023866D01*
X018866Y023713D01*
X019067Y023630D01*
X019283Y023630D01*
X019484Y023713D01*
X019643Y023881D02*
X020207Y023881D01*
X020146Y024029D02*
X019704Y024029D01*
X019720Y024178D02*
X020130Y024178D01*
X020148Y024326D02*
X019702Y024326D01*
X019641Y024475D02*
X020209Y024475D01*
X020352Y024623D02*
X019498Y024623D01*
X018852Y024623D02*
X017498Y024623D01*
X017641Y024475D02*
X018709Y024475D01*
X018648Y024326D02*
X017702Y024326D01*
X017720Y024178D02*
X018630Y024178D01*
X018646Y024029D02*
X017704Y024029D01*
X017643Y023881D02*
X018707Y023881D01*
X018847Y023732D02*
X017503Y023732D01*
X017283Y025630D02*
X017067Y025630D01*
X016866Y025713D01*
X016713Y025866D01*
X016630Y026067D01*
X016630Y026283D01*
X016713Y026484D01*
X016866Y026637D01*
X017067Y026720D01*
X017283Y026720D01*
X017484Y026637D01*
X017637Y026484D01*
X017720Y026283D01*
X017720Y026067D01*
X017637Y025866D01*
X017484Y025713D01*
X017283Y025630D01*
X017362Y025663D02*
X018988Y025663D01*
X019067Y025630D02*
X019283Y025630D01*
X019484Y025713D01*
X019637Y025866D01*
X019720Y026067D01*
X019720Y026283D01*
X019637Y026484D01*
X019484Y026637D01*
X019283Y026720D01*
X019067Y026720D01*
X018866Y026637D01*
X018713Y026484D01*
X018630Y026283D01*
X018630Y026067D01*
X018713Y025866D01*
X018866Y025713D01*
X019067Y025630D01*
X019362Y025663D02*
X020488Y025663D01*
X020567Y025630D02*
X020783Y025630D01*
X020984Y025713D01*
X021137Y025866D01*
X021220Y026067D01*
X021220Y026283D01*
X021137Y026484D01*
X020984Y026637D01*
X020783Y026720D01*
X020567Y026720D01*
X020366Y026637D01*
X020213Y026484D01*
X020130Y026283D01*
X020130Y026067D01*
X020213Y025866D01*
X020366Y025713D01*
X020567Y025630D01*
X020862Y025663D02*
X022488Y025663D01*
X022567Y025630D02*
X022783Y025630D01*
X022984Y025713D01*
X023137Y025866D01*
X023220Y026067D01*
X023220Y026283D01*
X023137Y026484D01*
X022984Y026637D01*
X022783Y026720D01*
X022567Y026720D01*
X022366Y026637D01*
X022213Y026484D01*
X022130Y026283D01*
X022130Y026067D01*
X022213Y025866D01*
X022366Y025713D01*
X022567Y025630D01*
X022862Y025663D02*
X023988Y025663D01*
X024067Y025630D02*
X024283Y025630D01*
X024484Y025713D01*
X024637Y025866D01*
X024720Y026067D01*
X024720Y026283D01*
X024637Y026484D01*
X024484Y026637D01*
X024283Y026720D01*
X024067Y026720D01*
X023866Y026637D01*
X023713Y026484D01*
X023630Y026283D01*
X023630Y026067D01*
X023713Y025866D01*
X023866Y025713D01*
X024067Y025630D01*
X024362Y025663D02*
X025988Y025663D01*
X026067Y025630D02*
X026283Y025630D01*
X026484Y025713D01*
X026637Y025866D01*
X026720Y026067D01*
X026720Y026283D01*
X026637Y026484D01*
X026484Y026637D01*
X026283Y026720D01*
X026067Y026720D01*
X025866Y026637D01*
X025713Y026484D01*
X025630Y026283D01*
X025630Y026067D01*
X025713Y025866D01*
X025866Y025713D01*
X026067Y025630D01*
X026362Y025663D02*
X027488Y025663D01*
X027567Y025630D02*
X027366Y025713D01*
X027213Y025866D01*
X027130Y026067D01*
X027130Y026283D01*
X027213Y026484D01*
X027366Y026637D01*
X027567Y026720D01*
X027783Y026720D01*
X027984Y026637D01*
X028137Y026484D01*
X028220Y026283D01*
X028220Y026067D01*
X028137Y025866D01*
X027984Y025713D01*
X027783Y025630D01*
X027567Y025630D01*
X027862Y025663D02*
X029488Y025663D01*
X029567Y025630D02*
X029366Y025713D01*
X029213Y025866D01*
X029130Y026067D01*
X029130Y026283D01*
X029213Y026484D01*
X029366Y026637D01*
X029567Y026720D01*
X029783Y026720D01*
X029984Y026637D01*
X030137Y026484D01*
X030220Y026283D01*
X030220Y026067D01*
X030137Y025866D01*
X029984Y025713D01*
X029783Y025630D01*
X029567Y025630D01*
X029862Y025663D02*
X030988Y025663D01*
X031067Y025630D02*
X031283Y025630D01*
X031484Y025713D01*
X031637Y025866D01*
X031720Y026067D01*
X031720Y026283D01*
X031637Y026484D01*
X031484Y026637D01*
X031283Y026720D01*
X031067Y026720D01*
X030866Y026637D01*
X030713Y026484D01*
X030630Y026283D01*
X030630Y026067D01*
X030713Y025866D01*
X030866Y025713D01*
X031067Y025630D01*
X031362Y025663D02*
X032988Y025663D01*
X033067Y025630D02*
X033283Y025630D01*
X033484Y025713D01*
X033637Y025866D01*
X033720Y026067D01*
X033720Y026283D01*
X033637Y026484D01*
X033484Y026637D01*
X033283Y026720D01*
X033067Y026720D01*
X032866Y026637D01*
X032713Y026484D01*
X032630Y026283D01*
X032630Y026067D01*
X032713Y025866D01*
X032866Y025713D01*
X033067Y025630D01*
X033362Y025663D02*
X034488Y025663D01*
X034567Y025630D02*
X034783Y025630D01*
X034984Y025713D01*
X035137Y025866D01*
X035220Y026067D01*
X035220Y026283D01*
X035137Y026484D01*
X034984Y026637D01*
X034783Y026720D01*
X034567Y026720D01*
X034366Y026637D01*
X034213Y026484D01*
X034130Y026283D01*
X034130Y026067D01*
X034213Y025866D01*
X034366Y025713D01*
X034567Y025630D01*
X034862Y025663D02*
X036488Y025663D01*
X036567Y025630D02*
X036783Y025630D01*
X036984Y025713D01*
X037137Y025866D01*
X037220Y026067D01*
X037220Y026283D01*
X037137Y026484D01*
X036984Y026637D01*
X036783Y026720D01*
X036567Y026720D01*
X036366Y026637D01*
X036213Y026484D01*
X036130Y026283D01*
X036130Y026067D01*
X036213Y025866D01*
X036366Y025713D01*
X036567Y025630D01*
X036862Y025663D02*
X039000Y025663D01*
X039000Y025811D02*
X037082Y025811D01*
X037176Y025960D02*
X039000Y025960D01*
X039000Y026108D02*
X037220Y026108D01*
X037220Y026257D02*
X039000Y026257D01*
X039000Y026405D02*
X037170Y026405D01*
X037067Y026554D02*
X039000Y026554D01*
X039000Y026702D02*
X036827Y026702D01*
X036523Y026702D02*
X034827Y026702D01*
X035067Y026554D02*
X036283Y026554D01*
X036180Y026405D02*
X035170Y026405D01*
X035220Y026257D02*
X036130Y026257D01*
X036130Y026108D02*
X035220Y026108D01*
X035176Y025960D02*
X036174Y025960D01*
X036268Y025811D02*
X035082Y025811D01*
X034283Y026554D02*
X033567Y026554D01*
X033670Y026405D02*
X034180Y026405D01*
X034130Y026257D02*
X033720Y026257D01*
X033720Y026108D02*
X034130Y026108D01*
X034174Y025960D02*
X033676Y025960D01*
X033582Y025811D02*
X034268Y025811D01*
X034523Y026702D02*
X033327Y026702D01*
X033023Y026702D02*
X031327Y026702D01*
X031567Y026554D02*
X032783Y026554D01*
X032680Y026405D02*
X031670Y026405D01*
X031720Y026257D02*
X032630Y026257D01*
X032630Y026108D02*
X031720Y026108D01*
X031676Y025960D02*
X032674Y025960D01*
X032768Y025811D02*
X031582Y025811D01*
X030768Y025811D02*
X030082Y025811D01*
X030176Y025960D02*
X030674Y025960D01*
X030630Y026108D02*
X030220Y026108D01*
X030220Y026257D02*
X030630Y026257D01*
X030680Y026405D02*
X030170Y026405D01*
X030067Y026554D02*
X030783Y026554D01*
X031023Y026702D02*
X029827Y026702D01*
X029523Y026702D02*
X027827Y026702D01*
X028067Y026554D02*
X029283Y026554D01*
X029180Y026405D02*
X028170Y026405D01*
X028220Y026257D02*
X029130Y026257D01*
X029130Y026108D02*
X028220Y026108D01*
X028176Y025960D02*
X029174Y025960D01*
X029268Y025811D02*
X028082Y025811D01*
X027268Y025811D02*
X026582Y025811D01*
X026676Y025960D02*
X027174Y025960D01*
X027130Y026108D02*
X026720Y026108D01*
X026720Y026257D02*
X027130Y026257D01*
X027180Y026405D02*
X026670Y026405D01*
X026567Y026554D02*
X027283Y026554D01*
X027523Y026702D02*
X026327Y026702D01*
X026023Y026702D02*
X024327Y026702D01*
X024567Y026554D02*
X025783Y026554D01*
X025680Y026405D02*
X024670Y026405D01*
X024720Y026257D02*
X025630Y026257D01*
X025630Y026108D02*
X024720Y026108D01*
X024676Y025960D02*
X025674Y025960D01*
X025768Y025811D02*
X024582Y025811D01*
X023768Y025811D02*
X023082Y025811D01*
X023176Y025960D02*
X023674Y025960D01*
X023630Y026108D02*
X023220Y026108D01*
X023220Y026257D02*
X023630Y026257D01*
X023680Y026405D02*
X023170Y026405D01*
X023067Y026554D02*
X023783Y026554D01*
X024023Y026702D02*
X022827Y026702D01*
X022523Y026702D02*
X020827Y026702D01*
X021067Y026554D02*
X022283Y026554D01*
X022180Y026405D02*
X021170Y026405D01*
X021220Y026257D02*
X022130Y026257D01*
X022130Y026108D02*
X021220Y026108D01*
X021176Y025960D02*
X022174Y025960D01*
X022268Y025811D02*
X021082Y025811D01*
X020268Y025811D02*
X019582Y025811D01*
X019676Y025960D02*
X020174Y025960D01*
X020130Y026108D02*
X019720Y026108D01*
X019720Y026257D02*
X020130Y026257D01*
X020180Y026405D02*
X019670Y026405D01*
X019567Y026554D02*
X020283Y026554D01*
X020523Y026702D02*
X019327Y026702D01*
X019023Y026702D02*
X017327Y026702D01*
X017567Y026554D02*
X018783Y026554D01*
X018680Y026405D02*
X017670Y026405D01*
X017720Y026257D02*
X018630Y026257D01*
X018630Y026108D02*
X017720Y026108D01*
X017676Y025960D02*
X018674Y025960D01*
X018768Y025811D02*
X017582Y025811D01*
X016988Y025663D02*
X015862Y025663D01*
X015783Y025630D02*
X015984Y025713D01*
X016137Y025866D01*
X016220Y026067D01*
X016220Y026283D01*
X016137Y026484D01*
X015984Y026637D01*
X015783Y026720D01*
X015567Y026720D01*
X015366Y026637D01*
X015213Y026484D01*
X015130Y026283D01*
X015130Y026067D01*
X015213Y025866D01*
X015366Y025713D01*
X015567Y025630D01*
X015783Y025630D01*
X015488Y025663D02*
X013862Y025663D01*
X013783Y025630D02*
X013984Y025713D01*
X014137Y025866D01*
X014220Y026067D01*
X014220Y026283D01*
X014137Y026484D01*
X013984Y026637D01*
X013783Y026720D01*
X013567Y026720D01*
X013366Y026637D01*
X013213Y026484D01*
X013130Y026283D01*
X013130Y026067D01*
X013213Y025866D01*
X013366Y025713D01*
X013567Y025630D01*
X013783Y025630D01*
X013488Y025663D02*
X012362Y025663D01*
X012283Y025630D02*
X012484Y025713D01*
X012637Y025866D01*
X012720Y026067D01*
X012720Y026283D01*
X012637Y026484D01*
X012484Y026637D01*
X012283Y026720D01*
X012067Y026720D01*
X011866Y026637D01*
X011713Y026484D01*
X011630Y026283D01*
X011630Y026067D01*
X011713Y025866D01*
X011866Y025713D01*
X012067Y025630D01*
X012283Y025630D01*
X011988Y025663D02*
X010362Y025663D01*
X010283Y025630D02*
X010484Y025713D01*
X010637Y025866D01*
X010720Y026067D01*
X010720Y026283D01*
X010637Y026484D01*
X010484Y026637D01*
X010283Y026720D01*
X010067Y026720D01*
X009866Y026637D01*
X009713Y026484D01*
X009630Y026283D01*
X009630Y026067D01*
X009713Y025866D01*
X009866Y025713D01*
X010067Y025630D01*
X010283Y025630D01*
X009988Y025663D02*
X008862Y025663D01*
X008783Y025630D02*
X008984Y025713D01*
X009137Y025866D01*
X009220Y026067D01*
X009220Y026283D01*
X009137Y026484D01*
X008984Y026637D01*
X008783Y026720D01*
X008567Y026720D01*
X008366Y026637D01*
X008213Y026484D01*
X008130Y026283D01*
X008130Y026067D01*
X008213Y025866D01*
X008366Y025713D01*
X008567Y025630D01*
X008783Y025630D01*
X008488Y025663D02*
X006862Y025663D01*
X006783Y025630D02*
X006984Y025713D01*
X007137Y025866D01*
X007220Y026067D01*
X007220Y026283D01*
X007137Y026484D01*
X006984Y026637D01*
X006783Y026720D01*
X006567Y026720D01*
X006366Y026637D01*
X006213Y026484D01*
X006130Y026283D01*
X006130Y026067D01*
X006213Y025866D01*
X006366Y025713D01*
X006567Y025630D01*
X006783Y025630D01*
X006488Y025663D02*
X005362Y025663D01*
X005283Y025630D02*
X005484Y025713D01*
X005637Y025866D01*
X005720Y026067D01*
X005720Y026283D01*
X005637Y026484D01*
X005484Y026637D01*
X005283Y026720D01*
X005067Y026720D01*
X004866Y026637D01*
X004713Y026484D01*
X004630Y026283D01*
X004630Y026067D01*
X004713Y025866D01*
X004866Y025713D01*
X005067Y025630D01*
X005283Y025630D01*
X004988Y025663D02*
X003362Y025663D01*
X003283Y025630D02*
X003484Y025713D01*
X003637Y025866D01*
X003720Y026067D01*
X003720Y026283D01*
X003637Y026484D01*
X003484Y026637D01*
X003283Y026720D01*
X003067Y026720D01*
X002866Y026637D01*
X002713Y026484D01*
X002630Y026283D01*
X002630Y026067D01*
X002713Y025866D01*
X002866Y025713D01*
X003067Y025630D01*
X003283Y025630D01*
X002988Y025663D02*
X000850Y025663D01*
X000850Y025811D02*
X002768Y025811D01*
X002674Y025960D02*
X000850Y025960D01*
X000850Y026108D02*
X002630Y026108D01*
X002630Y026257D02*
X000850Y026257D01*
X000850Y026405D02*
X002680Y026405D01*
X002783Y026554D02*
X000850Y026554D01*
X000850Y026702D02*
X003023Y026702D01*
X003327Y026702D02*
X005023Y026702D01*
X004783Y026554D02*
X003567Y026554D01*
X003670Y026405D02*
X004680Y026405D01*
X004630Y026257D02*
X003720Y026257D01*
X003720Y026108D02*
X004630Y026108D01*
X004674Y025960D02*
X003676Y025960D01*
X003582Y025811D02*
X004768Y025811D01*
X005567Y026554D02*
X006283Y026554D01*
X006180Y026405D02*
X005670Y026405D01*
X005720Y026257D02*
X006130Y026257D01*
X006130Y026108D02*
X005720Y026108D01*
X005676Y025960D02*
X006174Y025960D01*
X006268Y025811D02*
X005582Y025811D01*
X005327Y026702D02*
X006523Y026702D01*
X006827Y026702D02*
X008523Y026702D01*
X008283Y026554D02*
X007067Y026554D01*
X007170Y026405D02*
X008180Y026405D01*
X008130Y026257D02*
X007220Y026257D01*
X007220Y026108D02*
X008130Y026108D01*
X008174Y025960D02*
X007176Y025960D01*
X007082Y025811D02*
X008268Y025811D01*
X009082Y025811D02*
X009768Y025811D01*
X009674Y025960D02*
X009176Y025960D01*
X009220Y026108D02*
X009630Y026108D01*
X009630Y026257D02*
X009220Y026257D01*
X009170Y026405D02*
X009680Y026405D01*
X009783Y026554D02*
X009067Y026554D01*
X008827Y026702D02*
X010023Y026702D01*
X010327Y026702D02*
X012023Y026702D01*
X011783Y026554D02*
X010567Y026554D01*
X010670Y026405D02*
X011680Y026405D01*
X011630Y026257D02*
X010720Y026257D01*
X010720Y026108D02*
X011630Y026108D01*
X011674Y025960D02*
X010676Y025960D01*
X010582Y025811D02*
X011768Y025811D01*
X012582Y025811D02*
X013268Y025811D01*
X013174Y025960D02*
X012676Y025960D01*
X012720Y026108D02*
X013130Y026108D01*
X013130Y026257D02*
X012720Y026257D01*
X012670Y026405D02*
X013180Y026405D01*
X013283Y026554D02*
X012567Y026554D01*
X012327Y026702D02*
X013523Y026702D01*
X013827Y026702D02*
X015523Y026702D01*
X015283Y026554D02*
X014067Y026554D01*
X014170Y026405D02*
X015180Y026405D01*
X015130Y026257D02*
X014220Y026257D01*
X014220Y026108D02*
X015130Y026108D01*
X015174Y025960D02*
X014176Y025960D01*
X014082Y025811D02*
X015268Y025811D01*
X016082Y025811D02*
X016768Y025811D01*
X016674Y025960D02*
X016176Y025960D01*
X016220Y026108D02*
X016630Y026108D01*
X016630Y026257D02*
X016220Y026257D01*
X016170Y026405D02*
X016680Y026405D01*
X016783Y026554D02*
X016067Y026554D01*
X015827Y026702D02*
X017023Y026702D01*
X013868Y022099D02*
X013482Y022099D01*
X013580Y021950D02*
X013770Y021950D01*
X013740Y021802D02*
X013610Y021802D01*
X013610Y021653D02*
X013740Y021653D01*
X013740Y021505D02*
X013610Y021505D01*
X013610Y021356D02*
X013740Y021356D01*
X013747Y021208D02*
X013603Y021208D01*
X013539Y021059D02*
X013811Y021059D01*
X012811Y021059D02*
X012539Y021059D01*
X012603Y021208D02*
X012747Y021208D01*
X012740Y021356D02*
X012610Y021356D01*
X012610Y021505D02*
X012740Y021505D01*
X012740Y021653D02*
X012610Y021653D01*
X012610Y021802D02*
X012740Y021802D01*
X012770Y021950D02*
X012580Y021950D01*
X012482Y022099D02*
X012868Y022099D01*
X011868Y022099D02*
X011482Y022099D01*
X011580Y021950D02*
X011770Y021950D01*
X011740Y021802D02*
X011610Y021802D01*
X011610Y021653D02*
X011740Y021653D01*
X011740Y021505D02*
X011610Y021505D01*
X011610Y021356D02*
X011740Y021356D01*
X011747Y021208D02*
X011603Y021208D01*
X011539Y021059D02*
X011811Y021059D01*
X010811Y021059D02*
X010539Y021059D01*
X010603Y021208D02*
X010747Y021208D01*
X010740Y021356D02*
X010610Y021356D01*
X010610Y021505D02*
X010740Y021505D01*
X010740Y021653D02*
X010610Y021653D01*
X010610Y021802D02*
X010740Y021802D01*
X010770Y021950D02*
X010580Y021950D01*
X010482Y022099D02*
X010868Y022099D01*
X009868Y022099D02*
X009482Y022099D01*
X009580Y021950D02*
X009770Y021950D01*
X009740Y021802D02*
X009610Y021802D01*
X009610Y021653D02*
X009740Y021653D01*
X009740Y021505D02*
X009610Y021505D01*
X009610Y021356D02*
X009740Y021356D01*
X009747Y021208D02*
X009603Y021208D01*
X009539Y021059D02*
X009811Y021059D01*
X008811Y021059D02*
X008539Y021059D01*
X008603Y021208D02*
X008747Y021208D01*
X008740Y021356D02*
X008610Y021356D01*
X008610Y021505D02*
X008740Y021505D01*
X008740Y021653D02*
X008610Y021653D01*
X008610Y021802D02*
X008740Y021802D01*
X008770Y021950D02*
X008580Y021950D01*
X008482Y022099D02*
X008868Y022099D01*
X007868Y022099D02*
X007482Y022099D01*
X007580Y021950D02*
X007770Y021950D01*
X007740Y021802D02*
X007610Y021802D01*
X007610Y021653D02*
X007740Y021653D01*
X007740Y021505D02*
X007610Y021505D01*
X007610Y021356D02*
X007740Y021356D01*
X007747Y021208D02*
X007603Y021208D01*
X007539Y021059D02*
X007811Y021059D01*
X007898Y019129D02*
X007452Y019129D01*
X007567Y018980D02*
X007783Y018980D01*
X007740Y018832D02*
X007610Y018832D01*
X007610Y018683D02*
X007740Y018683D01*
X007740Y018535D02*
X007610Y018535D01*
X007610Y018386D02*
X007740Y018386D01*
X007740Y018238D02*
X007610Y018238D01*
X007570Y018089D02*
X007796Y018089D01*
X007930Y017941D02*
X007570Y017941D01*
X007570Y017792D02*
X008108Y017792D01*
X007960Y017644D02*
X007570Y017644D01*
X007570Y017495D02*
X007811Y017495D01*
X007663Y017347D02*
X007570Y017347D01*
X008186Y016753D02*
X008791Y016753D01*
X008760Y016604D02*
X008038Y016604D01*
X007889Y016456D02*
X008760Y016456D01*
X008831Y016307D02*
X007741Y016307D01*
X007512Y016159D02*
X008980Y016159D01*
X008939Y016901D02*
X008335Y016901D01*
X002674Y014674D02*
X002524Y014674D01*
X002524Y014822D02*
X000850Y014822D01*
X000850Y014674D02*
X001693Y014674D01*
X001737Y014525D02*
X000850Y014525D01*
X000850Y014377D02*
X001812Y014377D01*
X001925Y014228D02*
X000850Y014228D01*
X000850Y014080D02*
X002106Y014080D01*
X002524Y014080D02*
X002674Y014080D01*
X002674Y014228D02*
X002524Y014228D01*
X002524Y014377D02*
X002674Y014377D01*
X002674Y014525D02*
X002524Y014525D01*
X001681Y014971D02*
X000850Y014971D01*
X000850Y015119D02*
X001709Y015119D01*
X001768Y015268D02*
X000850Y015268D01*
X000850Y015416D02*
X001858Y015416D01*
X001997Y015565D02*
X000850Y015565D01*
X000850Y015713D02*
X002234Y015713D01*
X000850Y022396D02*
X039000Y022396D01*
X039000Y022544D02*
X000850Y022544D01*
X000850Y022693D02*
X039000Y022693D01*
X039000Y022841D02*
X000850Y022841D01*
X000850Y022990D02*
X039000Y022990D01*
X039000Y023138D02*
X000850Y023138D01*
X000850Y023287D02*
X039000Y023287D01*
X039000Y023435D02*
X000850Y023435D01*
X000850Y023881D02*
X002707Y023881D01*
X002646Y024029D02*
X000850Y024029D01*
X000850Y024178D02*
X002630Y024178D01*
X002648Y024326D02*
X000850Y024326D01*
X000850Y024475D02*
X002709Y024475D01*
X002852Y024623D02*
X000850Y024623D01*
X000850Y024772D02*
X039000Y024772D01*
X039000Y024920D02*
X000850Y024920D01*
X000850Y025069D02*
X039000Y025069D01*
X039000Y025217D02*
X000850Y025217D01*
X000850Y025366D02*
X039000Y025366D01*
X039000Y025514D02*
X000850Y025514D01*
X000850Y026851D02*
X039000Y026851D01*
X039000Y026999D02*
X000850Y026999D01*
X000850Y027148D02*
X039000Y027148D01*
X039000Y027296D02*
X000850Y027296D01*
X000850Y027445D02*
X039000Y027445D01*
X039000Y021950D02*
X037080Y021950D01*
X037110Y021802D02*
X039000Y021802D01*
X039000Y021653D02*
X037110Y021653D01*
X037110Y021505D02*
X039000Y021505D01*
X039000Y021356D02*
X037110Y021356D01*
X037103Y021208D02*
X039000Y021208D01*
X039000Y021059D02*
X037039Y021059D01*
X036847Y020911D02*
X039000Y020911D01*
X039000Y020465D02*
X026746Y020465D01*
X026892Y020317D02*
X039000Y020317D01*
X039000Y020168D02*
X026930Y020168D01*
X026930Y020020D02*
X039000Y020020D01*
X039000Y019871D02*
X026930Y019871D01*
X026930Y019723D02*
X039000Y019723D01*
X039000Y019574D02*
X026930Y019574D01*
X026930Y019426D02*
X039000Y019426D01*
X039000Y019277D02*
X026930Y019277D01*
X026952Y019129D02*
X027398Y019129D01*
X027429Y019159D02*
X027306Y019036D01*
X027240Y018877D01*
X027240Y018223D01*
X027306Y018064D01*
X027429Y017941D01*
X027588Y017875D01*
X027762Y017875D01*
X027921Y017941D01*
X028044Y018064D01*
X028110Y018223D01*
X028110Y018877D01*
X028044Y019036D01*
X027921Y019159D01*
X027762Y019225D01*
X027588Y019225D01*
X027429Y019159D01*
X027283Y018980D02*
X027067Y018980D01*
X027110Y018832D02*
X027240Y018832D01*
X027240Y018683D02*
X027110Y018683D01*
X027110Y018535D02*
X027240Y018535D01*
X027240Y018386D02*
X027110Y018386D01*
X027110Y018238D02*
X027240Y018238D01*
X027296Y018089D02*
X027054Y018089D01*
X026920Y017941D02*
X027430Y017941D01*
X027819Y017680D02*
X026874Y017680D01*
X026781Y017641D01*
X026709Y017569D01*
X024240Y015100D01*
X024105Y015235D01*
X023745Y015235D01*
X023490Y014980D01*
X023490Y014620D01*
X023745Y014365D01*
X024105Y014365D01*
X024285Y014545D01*
X024351Y014545D01*
X024444Y014584D01*
X027031Y017170D01*
X027976Y017170D01*
X028069Y017209D01*
X028736Y017875D01*
X028762Y017875D01*
X028921Y017941D01*
X029044Y018064D01*
X029110Y018223D01*
X029110Y018877D01*
X029044Y019036D01*
X028921Y019159D01*
X028762Y019225D01*
X028588Y019225D01*
X028429Y019159D01*
X028306Y019036D01*
X028240Y018877D01*
X028240Y018223D01*
X028276Y018137D01*
X027819Y017680D01*
X027931Y017792D02*
X026653Y017792D01*
X026786Y017644D02*
X026504Y017644D01*
X026634Y017495D02*
X026356Y017495D01*
X026486Y017347D02*
X026207Y017347D01*
X026337Y017198D02*
X026059Y017198D01*
X026189Y017050D02*
X025910Y017050D01*
X026040Y016901D02*
X025762Y016901D01*
X025892Y016753D02*
X025613Y016753D01*
X025743Y016604D02*
X025465Y016604D01*
X025595Y016456D02*
X025316Y016456D01*
X025446Y016307D02*
X025168Y016307D01*
X025298Y016159D02*
X025019Y016159D01*
X025149Y016010D02*
X024871Y016010D01*
X025001Y015862D02*
X024222Y015862D01*
X024074Y015713D02*
X024852Y015713D01*
X024704Y015565D02*
X023925Y015565D01*
X023777Y015416D02*
X024555Y015416D01*
X024407Y015268D02*
X023628Y015268D01*
X023629Y015119D02*
X023480Y015119D01*
X023490Y014971D02*
X023430Y014971D01*
X023430Y014822D02*
X023490Y014822D01*
X023490Y014674D02*
X023430Y014674D01*
X023430Y014525D02*
X023585Y014525D01*
X023733Y014377D02*
X023430Y014377D01*
X023430Y014228D02*
X028117Y014228D01*
X028097Y014385D02*
X028340Y014628D01*
X028340Y014795D01*
X027930Y014795D01*
X027930Y014805D01*
X028340Y014805D01*
X028340Y014972D01*
X028097Y015215D01*
X027930Y015215D01*
X027930Y014805D01*
X027920Y014805D01*
X027920Y015215D01*
X027753Y015215D01*
X027510Y014972D01*
X027510Y014805D01*
X027920Y014805D01*
X027920Y014795D01*
X027930Y014795D01*
X027930Y014385D01*
X028097Y014385D01*
X028266Y014377D02*
X024117Y014377D01*
X024265Y014525D02*
X027613Y014525D01*
X027510Y014628D02*
X027753Y014385D01*
X027920Y014385D01*
X027920Y014795D01*
X027510Y014795D01*
X027510Y014628D01*
X027510Y014674D02*
X024534Y014674D01*
X024683Y014822D02*
X027510Y014822D01*
X027510Y014971D02*
X024831Y014971D01*
X024980Y015119D02*
X027657Y015119D01*
X027920Y015119D02*
X027930Y015119D01*
X027920Y014971D02*
X027930Y014971D01*
X027920Y014822D02*
X027930Y014822D01*
X027920Y014674D02*
X027930Y014674D01*
X027920Y014525D02*
X027930Y014525D01*
X028237Y014525D02*
X028414Y014525D01*
X028340Y014674D02*
X028563Y014674D01*
X028711Y014822D02*
X028340Y014822D01*
X028340Y014971D02*
X028860Y014971D01*
X029008Y015119D02*
X028193Y015119D01*
X029157Y015268D02*
X025128Y015268D01*
X025277Y015416D02*
X029305Y015416D01*
X029454Y015565D02*
X025425Y015565D01*
X025574Y015713D02*
X029602Y015713D01*
X029751Y015862D02*
X025722Y015862D01*
X025871Y016010D02*
X029899Y016010D01*
X029847Y016135D02*
X030090Y016378D01*
X030090Y016545D01*
X029680Y016545D01*
X029680Y016555D01*
X030090Y016555D01*
X030090Y016722D01*
X029847Y016965D01*
X029680Y016965D01*
X029680Y016555D01*
X029670Y016555D01*
X029670Y016965D01*
X029503Y016965D01*
X029260Y016722D01*
X029260Y016555D01*
X029670Y016555D01*
X029670Y016545D01*
X029680Y016545D01*
X029680Y016135D01*
X029847Y016135D01*
X029870Y016159D02*
X030048Y016159D01*
X030019Y016307D02*
X030196Y016307D01*
X030090Y016456D02*
X030840Y016456D01*
X030989Y016604D02*
X030090Y016604D01*
X030059Y016753D02*
X032892Y016753D01*
X033040Y016901D02*
X029911Y016901D01*
X029680Y016901D02*
X029670Y016901D01*
X029670Y016753D02*
X029680Y016753D01*
X029670Y016604D02*
X029680Y016604D01*
X029670Y016545D02*
X029260Y016545D01*
X029260Y016378D01*
X029503Y016135D01*
X029670Y016135D01*
X029670Y016545D01*
X029670Y016456D02*
X029680Y016456D01*
X029670Y016307D02*
X029680Y016307D01*
X029670Y016159D02*
X029680Y016159D01*
X029480Y016159D02*
X027899Y016159D01*
X027855Y016115D02*
X028110Y016370D01*
X028110Y016730D01*
X027855Y016985D01*
X027495Y016985D01*
X027240Y016730D01*
X027240Y016370D01*
X027495Y016115D01*
X027855Y016115D01*
X028047Y016307D02*
X029331Y016307D01*
X029260Y016456D02*
X028110Y016456D01*
X028110Y016604D02*
X029260Y016604D01*
X029291Y016753D02*
X028088Y016753D01*
X027939Y016901D02*
X029439Y016901D01*
X028356Y017495D02*
X033420Y017495D01*
X033420Y017347D02*
X028207Y017347D01*
X028043Y017198D02*
X033337Y017198D01*
X033420Y017281D02*
X031069Y014930D01*
X030624Y014930D01*
X030531Y014891D01*
X030459Y014819D01*
X028687Y013048D01*
X028601Y013048D01*
X028464Y012991D01*
X028359Y012886D01*
X028302Y012749D01*
X028302Y012601D01*
X028359Y012464D01*
X028464Y012359D01*
X028601Y012302D01*
X028749Y012302D01*
X028886Y012359D01*
X028991Y012464D01*
X029048Y012601D01*
X029048Y012687D01*
X030781Y014420D01*
X031226Y014420D01*
X031319Y014459D01*
X033819Y016959D01*
X033891Y017031D01*
X033930Y017124D01*
X033930Y017950D01*
X034044Y018064D01*
X034110Y018223D01*
X034110Y018877D01*
X034044Y019036D01*
X033921Y019159D01*
X033762Y019225D01*
X033588Y019225D01*
X033429Y019159D01*
X033306Y019036D01*
X033240Y018877D01*
X033240Y018223D01*
X033306Y018064D01*
X033420Y017950D01*
X033420Y017281D01*
X033189Y017050D02*
X026910Y017050D01*
X026762Y016901D02*
X027411Y016901D01*
X027262Y016753D02*
X026613Y016753D01*
X026465Y016604D02*
X027240Y016604D01*
X027240Y016456D02*
X026316Y016456D01*
X026168Y016307D02*
X027303Y016307D01*
X027451Y016159D02*
X026019Y016159D01*
X024258Y015119D02*
X024221Y015119D01*
X023411Y014080D02*
X027969Y014080D01*
X027820Y013931D02*
X023292Y013931D01*
X023143Y013783D02*
X027672Y013783D01*
X027523Y013634D02*
X022995Y013634D01*
X022846Y013486D02*
X027424Y013486D01*
X027420Y013337D02*
X022698Y013337D01*
X022680Y013189D02*
X023250Y013189D01*
X023060Y013040D02*
X022790Y013040D01*
X022854Y012892D02*
X022996Y012892D01*
X022990Y012743D02*
X022860Y012743D01*
X022860Y012595D02*
X022990Y012595D01*
X022990Y012446D02*
X022860Y012446D01*
X022860Y012298D02*
X022990Y012298D01*
X023021Y012149D02*
X022829Y012149D01*
X022731Y012001D02*
X023119Y012001D01*
X023731Y012001D02*
X024119Y012001D01*
X024021Y012149D02*
X023829Y012149D01*
X023860Y012298D02*
X023990Y012298D01*
X023990Y012446D02*
X023860Y012446D01*
X023860Y012595D02*
X023990Y012595D01*
X023990Y012743D02*
X023860Y012743D01*
X023854Y012892D02*
X023996Y012892D01*
X024060Y013040D02*
X023790Y013040D01*
X023600Y013189D02*
X024250Y013189D01*
X024600Y013189D02*
X025250Y013189D01*
X025060Y013040D02*
X024790Y013040D01*
X024854Y012892D02*
X024996Y012892D01*
X024990Y012743D02*
X024860Y012743D01*
X024860Y012595D02*
X024990Y012595D01*
X024990Y012446D02*
X024860Y012446D01*
X024860Y012298D02*
X024990Y012298D01*
X025021Y012149D02*
X024829Y012149D01*
X024731Y012001D02*
X025119Y012001D01*
X025731Y012001D02*
X026119Y012001D01*
X026021Y012149D02*
X025829Y012149D01*
X025860Y012298D02*
X025990Y012298D01*
X025990Y012446D02*
X025860Y012446D01*
X025860Y012595D02*
X025990Y012595D01*
X025990Y012743D02*
X025860Y012743D01*
X025854Y012892D02*
X025996Y012892D01*
X026060Y013040D02*
X025790Y013040D01*
X025600Y013189D02*
X026250Y013189D01*
X026600Y013189D02*
X027420Y013189D01*
X027420Y013040D02*
X026790Y013040D01*
X026854Y012892D02*
X027420Y012892D01*
X027382Y012743D02*
X026860Y012743D01*
X026860Y012595D02*
X027234Y012595D01*
X027085Y012446D02*
X026860Y012446D01*
X026860Y012298D02*
X026937Y012298D01*
X027361Y012001D02*
X028640Y012001D01*
X028788Y012149D02*
X027510Y012149D01*
X027658Y012298D02*
X028937Y012298D01*
X028974Y012446D02*
X029085Y012446D01*
X029046Y012595D02*
X029234Y012595D01*
X029104Y012743D02*
X029382Y012743D01*
X029252Y012892D02*
X029531Y012892D01*
X029401Y013040D02*
X029679Y013040D01*
X029549Y013189D02*
X029828Y013189D01*
X029698Y013337D02*
X029976Y013337D01*
X029846Y013486D02*
X031625Y013486D01*
X031773Y013634D02*
X029995Y013634D01*
X030143Y013783D02*
X031922Y013783D01*
X032070Y013931D02*
X030292Y013931D01*
X030440Y014080D02*
X032219Y014080D01*
X032367Y014228D02*
X030589Y014228D01*
X030737Y014377D02*
X032516Y014377D01*
X032664Y014525D02*
X031386Y014525D01*
X031534Y014674D02*
X032813Y014674D01*
X032961Y014822D02*
X031683Y014822D01*
X031831Y014971D02*
X033110Y014971D01*
X033258Y015119D02*
X031980Y015119D01*
X032128Y015268D02*
X033407Y015268D01*
X033555Y015416D02*
X032277Y015416D01*
X032425Y015565D02*
X033704Y015565D01*
X033852Y015713D02*
X032574Y015713D01*
X032722Y015862D02*
X034001Y015862D01*
X034149Y016010D02*
X032871Y016010D01*
X033019Y016159D02*
X034298Y016159D01*
X034420Y016307D02*
X033168Y016307D01*
X033316Y016456D02*
X034420Y016456D01*
X034420Y016604D02*
X033465Y016604D01*
X033613Y016753D02*
X034420Y016753D01*
X034420Y016901D02*
X033762Y016901D01*
X033899Y017050D02*
X034420Y017050D01*
X034420Y017198D02*
X033930Y017198D01*
X033930Y017347D02*
X034420Y017347D01*
X034420Y017495D02*
X033930Y017495D01*
X033930Y017644D02*
X034420Y017644D01*
X034420Y017792D02*
X033930Y017792D01*
X033930Y017941D02*
X034420Y017941D01*
X034296Y018089D02*
X034054Y018089D01*
X034110Y018238D02*
X034240Y018238D01*
X034240Y018386D02*
X034110Y018386D01*
X034110Y018535D02*
X034240Y018535D01*
X034240Y018683D02*
X034110Y018683D01*
X034110Y018832D02*
X034240Y018832D01*
X034283Y018980D02*
X034067Y018980D01*
X033952Y019129D02*
X034398Y019129D01*
X034952Y019129D02*
X035435Y019129D01*
X035457Y019145D02*
X035405Y019107D01*
X035358Y019060D01*
X035320Y019008D01*
X035290Y018949D01*
X035270Y018887D01*
X035260Y018823D01*
X035260Y018555D01*
X035670Y018555D01*
X035670Y019205D01*
X035642Y019205D01*
X035578Y019195D01*
X035516Y019175D01*
X035457Y019145D01*
X035670Y019129D02*
X035680Y019129D01*
X035680Y019205D02*
X035680Y018555D01*
X035670Y018555D01*
X035670Y018545D01*
X035260Y018545D01*
X035260Y018277D01*
X035270Y018213D01*
X035290Y018151D01*
X035320Y018092D01*
X035358Y018040D01*
X035405Y017993D01*
X035457Y017955D01*
X035516Y017925D01*
X035578Y017905D01*
X035642Y017895D01*
X035670Y017895D01*
X035670Y018545D01*
X035680Y018545D01*
X035680Y018555D01*
X036090Y018555D01*
X036090Y018823D01*
X036080Y018887D01*
X036060Y018949D01*
X036030Y019008D01*
X035992Y019060D01*
X035945Y019107D01*
X035893Y019145D01*
X035834Y019175D01*
X035772Y019195D01*
X035708Y019205D01*
X035680Y019205D01*
X035670Y018980D02*
X035680Y018980D01*
X035670Y018832D02*
X035680Y018832D01*
X035670Y018683D02*
X035680Y018683D01*
X035680Y018545D02*
X036090Y018545D01*
X036090Y018277D01*
X036080Y018213D01*
X036060Y018151D01*
X036030Y018092D01*
X035992Y018040D01*
X035945Y017993D01*
X035893Y017955D01*
X035834Y017925D01*
X035772Y017905D01*
X035708Y017895D01*
X035680Y017895D01*
X035680Y018545D01*
X035680Y018535D02*
X035670Y018535D01*
X035670Y018386D02*
X035680Y018386D01*
X035670Y018238D02*
X035680Y018238D01*
X035670Y018089D02*
X035680Y018089D01*
X035670Y017941D02*
X035680Y017941D01*
X035864Y017941D02*
X036430Y017941D01*
X036429Y017941D02*
X036588Y017875D01*
X036762Y017875D01*
X036921Y017941D01*
X037044Y018064D01*
X037110Y018223D01*
X037110Y018877D01*
X037044Y019036D01*
X036921Y019159D01*
X036762Y019225D01*
X036588Y019225D01*
X036429Y019159D01*
X036306Y019036D01*
X036240Y018877D01*
X036240Y018223D01*
X036306Y018064D01*
X036429Y017941D01*
X036296Y018089D02*
X036027Y018089D01*
X036084Y018238D02*
X036240Y018238D01*
X036240Y018386D02*
X036090Y018386D01*
X036090Y018535D02*
X036240Y018535D01*
X036240Y018683D02*
X036090Y018683D01*
X036089Y018832D02*
X036240Y018832D01*
X036283Y018980D02*
X036044Y018980D01*
X035915Y019129D02*
X036398Y019129D01*
X036952Y019129D02*
X039000Y019129D01*
X039000Y018980D02*
X037067Y018980D01*
X037110Y018832D02*
X039000Y018832D01*
X039000Y018683D02*
X037110Y018683D01*
X037110Y018535D02*
X039000Y018535D01*
X039000Y018386D02*
X037110Y018386D01*
X037110Y018238D02*
X039000Y018238D01*
X039000Y018089D02*
X037054Y018089D01*
X036920Y017941D02*
X039000Y017941D01*
X039000Y017792D02*
X034930Y017792D01*
X034930Y017644D02*
X039000Y017644D01*
X039000Y017495D02*
X034930Y017495D01*
X034930Y017347D02*
X039000Y017347D01*
X039000Y017198D02*
X034930Y017198D01*
X034930Y017050D02*
X039000Y017050D01*
X039000Y016901D02*
X034930Y016901D01*
X034930Y016753D02*
X039000Y016753D01*
X039000Y016604D02*
X034930Y016604D01*
X034930Y016456D02*
X039000Y016456D01*
X039000Y016307D02*
X034930Y016307D01*
X034930Y016159D02*
X039000Y016159D01*
X039000Y016010D02*
X034871Y016010D01*
X034722Y015862D02*
X039000Y015862D01*
X039000Y015713D02*
X034574Y015713D01*
X034425Y015565D02*
X039000Y015565D01*
X039000Y015416D02*
X037818Y015416D01*
X037960Y015268D02*
X039000Y015268D01*
X039000Y015119D02*
X038021Y015119D01*
X038050Y014971D02*
X039000Y014971D01*
X039000Y014822D02*
X038050Y014822D01*
X037997Y014674D02*
X039000Y014674D01*
X039000Y014525D02*
X037909Y014525D01*
X037734Y014377D02*
X039000Y014377D01*
X039000Y014228D02*
X037287Y014228D01*
X037138Y014080D02*
X039000Y014080D01*
X039000Y013931D02*
X036990Y013931D01*
X036841Y013783D02*
X039000Y013783D01*
X039000Y013634D02*
X036693Y013634D01*
X036544Y013486D02*
X037145Y013486D01*
X037071Y013455D02*
X036895Y013279D01*
X036800Y013049D01*
X036800Y012801D01*
X036895Y012571D01*
X037030Y012436D01*
X037030Y012089D01*
X035951Y011010D01*
X035840Y010899D01*
X035780Y010754D01*
X035780Y010647D01*
X035730Y010597D01*
X035650Y010404D01*
X035650Y010196D01*
X035730Y010003D01*
X035878Y009855D01*
X036071Y009775D01*
X036279Y009775D01*
X036472Y009855D01*
X036620Y010003D01*
X036700Y010196D01*
X036700Y010404D01*
X036631Y010572D01*
X037760Y011701D01*
X037820Y011846D01*
X037820Y012436D01*
X037955Y012571D01*
X038050Y012801D01*
X038050Y013049D01*
X037955Y013279D01*
X037779Y013455D01*
X037549Y013550D01*
X037301Y013550D01*
X037071Y013455D01*
X036953Y013337D02*
X036396Y013337D01*
X036247Y013189D02*
X036858Y013189D01*
X036800Y013040D02*
X036099Y013040D01*
X035950Y012892D02*
X036800Y012892D01*
X036824Y012743D02*
X035802Y012743D01*
X035653Y012595D02*
X036885Y012595D01*
X037020Y012446D02*
X035505Y012446D01*
X035356Y012298D02*
X037030Y012298D01*
X037030Y012149D02*
X035208Y012149D01*
X035059Y012001D02*
X036942Y012001D01*
X036793Y011852D02*
X034911Y011852D01*
X034536Y012595D02*
X031371Y012595D01*
X030979Y012595D02*
X029955Y012595D01*
X030104Y012743D02*
X034684Y012743D01*
X034833Y012892D02*
X030252Y012892D01*
X029807Y012446D02*
X030831Y012446D01*
X030740Y012298D02*
X029658Y012298D01*
X029510Y012149D02*
X030740Y012149D01*
X030740Y012001D02*
X029361Y012001D01*
X029213Y011852D02*
X030780Y011852D01*
X030780Y011704D02*
X029064Y011704D01*
X028916Y011555D02*
X030780Y011555D01*
X030780Y011407D02*
X028767Y011407D01*
X028619Y011258D02*
X030780Y011258D01*
X030780Y011110D02*
X028470Y011110D01*
X028194Y011555D02*
X026916Y011555D01*
X027064Y011704D02*
X028343Y011704D01*
X028491Y011852D02*
X027213Y011852D01*
X027807Y012446D02*
X028376Y012446D01*
X028304Y012595D02*
X027918Y012595D01*
X027930Y012743D02*
X028302Y012743D01*
X028364Y012892D02*
X027930Y012892D01*
X027930Y013040D02*
X028581Y013040D01*
X028828Y013189D02*
X027930Y013189D01*
X027948Y013337D02*
X028976Y013337D01*
X029125Y013486D02*
X028096Y013486D01*
X028245Y013634D02*
X029273Y013634D01*
X029422Y013783D02*
X028393Y013783D01*
X028542Y013931D02*
X029570Y013931D01*
X029719Y014080D02*
X028690Y014080D01*
X028839Y014228D02*
X029867Y014228D01*
X030016Y014377D02*
X028987Y014377D01*
X029136Y014525D02*
X030164Y014525D01*
X030313Y014674D02*
X029284Y014674D01*
X029433Y014822D02*
X030461Y014822D01*
X031110Y014971D02*
X029581Y014971D01*
X029730Y015119D02*
X031258Y015119D01*
X031407Y015268D02*
X029878Y015268D01*
X030027Y015416D02*
X031555Y015416D01*
X031704Y015565D02*
X030175Y015565D01*
X030324Y015713D02*
X031852Y015713D01*
X032001Y015862D02*
X031477Y015862D01*
X031610Y016010D02*
X032149Y016010D01*
X032298Y016159D02*
X031610Y016159D01*
X031610Y016307D02*
X032446Y016307D01*
X032595Y016456D02*
X031510Y016456D01*
X031361Y016604D02*
X032743Y016604D01*
X033420Y017644D02*
X028504Y017644D01*
X028653Y017792D02*
X033420Y017792D01*
X033420Y017941D02*
X032920Y017941D01*
X032921Y017941D02*
X033044Y018064D01*
X033110Y018223D01*
X033110Y018877D01*
X033044Y019036D01*
X032921Y019159D01*
X032762Y019225D01*
X032588Y019225D01*
X032429Y019159D01*
X032306Y019036D01*
X032240Y018877D01*
X032240Y018223D01*
X032306Y018064D01*
X032429Y017941D01*
X032588Y017875D01*
X032762Y017875D01*
X032921Y017941D01*
X033054Y018089D02*
X033296Y018089D01*
X033240Y018238D02*
X033110Y018238D01*
X033110Y018386D02*
X033240Y018386D01*
X033240Y018535D02*
X033110Y018535D01*
X033110Y018683D02*
X033240Y018683D01*
X033240Y018832D02*
X033110Y018832D01*
X033067Y018980D02*
X033283Y018980D01*
X033398Y019129D02*
X032952Y019129D01*
X032398Y019129D02*
X031952Y019129D01*
X031921Y019159D02*
X031762Y019225D01*
X031588Y019225D01*
X031429Y019159D01*
X031306Y019036D01*
X031240Y018877D01*
X031240Y018223D01*
X031306Y018064D01*
X031429Y017941D01*
X031588Y017875D01*
X031762Y017875D01*
X031921Y017941D01*
X032044Y018064D01*
X032110Y018223D01*
X032110Y018877D01*
X032044Y019036D01*
X031921Y019159D01*
X032067Y018980D02*
X032283Y018980D01*
X032240Y018832D02*
X032110Y018832D01*
X032110Y018683D02*
X032240Y018683D01*
X032240Y018535D02*
X032110Y018535D01*
X032110Y018386D02*
X032240Y018386D01*
X032240Y018238D02*
X032110Y018238D01*
X032054Y018089D02*
X032296Y018089D01*
X032430Y017941D02*
X031920Y017941D01*
X031430Y017941D02*
X030864Y017941D01*
X030893Y017955D02*
X030945Y017993D01*
X030992Y018040D01*
X031030Y018092D01*
X031060Y018151D01*
X031080Y018213D01*
X031090Y018277D01*
X031090Y018545D01*
X030680Y018545D01*
X030680Y018555D01*
X030670Y018555D01*
X030670Y019205D01*
X030642Y019205D01*
X030578Y019195D01*
X030516Y019175D01*
X030457Y019145D01*
X030405Y019107D01*
X030358Y019060D01*
X030320Y019008D01*
X030290Y018949D01*
X030270Y018887D01*
X030260Y018823D01*
X030260Y018555D01*
X030670Y018555D01*
X030670Y018545D01*
X030260Y018545D01*
X030260Y018277D01*
X030270Y018213D01*
X030290Y018151D01*
X030320Y018092D01*
X030358Y018040D01*
X030405Y017993D01*
X030457Y017955D01*
X030516Y017925D01*
X030578Y017905D01*
X030642Y017895D01*
X030670Y017895D01*
X030670Y018545D01*
X030680Y018545D01*
X030680Y017895D01*
X030708Y017895D01*
X030772Y017905D01*
X030834Y017925D01*
X030893Y017955D01*
X031027Y018089D02*
X031296Y018089D01*
X031240Y018238D02*
X031084Y018238D01*
X031090Y018386D02*
X031240Y018386D01*
X031240Y018535D02*
X031090Y018535D01*
X031090Y018555D02*
X031090Y018823D01*
X031080Y018887D01*
X031060Y018949D01*
X031030Y019008D01*
X030992Y019060D01*
X030945Y019107D01*
X030893Y019145D01*
X030834Y019175D01*
X030772Y019195D01*
X030708Y019205D01*
X030680Y019205D01*
X030680Y018555D01*
X031090Y018555D01*
X031090Y018683D02*
X031240Y018683D01*
X031240Y018832D02*
X031089Y018832D01*
X031044Y018980D02*
X031283Y018980D01*
X031398Y019129D02*
X030915Y019129D01*
X030680Y019129D02*
X030670Y019129D01*
X030670Y018980D02*
X030680Y018980D01*
X030670Y018832D02*
X030680Y018832D01*
X030670Y018683D02*
X030680Y018683D01*
X030670Y018535D02*
X030680Y018535D01*
X030670Y018386D02*
X030680Y018386D01*
X030670Y018238D02*
X030680Y018238D01*
X030670Y018089D02*
X030680Y018089D01*
X030670Y017941D02*
X030680Y017941D01*
X030486Y017941D02*
X029920Y017941D01*
X029921Y017941D02*
X030044Y018064D01*
X030110Y018223D01*
X030110Y018877D01*
X030044Y019036D01*
X029921Y019159D01*
X029762Y019225D01*
X029588Y019225D01*
X029429Y019159D01*
X029306Y019036D01*
X029240Y018877D01*
X029240Y018223D01*
X029306Y018064D01*
X029429Y017941D01*
X029588Y017875D01*
X029762Y017875D01*
X029921Y017941D01*
X030054Y018089D02*
X030323Y018089D01*
X030266Y018238D02*
X030110Y018238D01*
X030110Y018386D02*
X030260Y018386D01*
X030260Y018535D02*
X030110Y018535D01*
X030110Y018683D02*
X030260Y018683D01*
X030261Y018832D02*
X030110Y018832D01*
X030067Y018980D02*
X030306Y018980D01*
X030435Y019129D02*
X029952Y019129D01*
X029398Y019129D02*
X028952Y019129D01*
X029067Y018980D02*
X029283Y018980D01*
X029240Y018832D02*
X029110Y018832D01*
X029110Y018683D02*
X029240Y018683D01*
X029240Y018535D02*
X029110Y018535D01*
X029110Y018386D02*
X029240Y018386D01*
X029240Y018238D02*
X029110Y018238D01*
X029054Y018089D02*
X029296Y018089D01*
X029430Y017941D02*
X028920Y017941D01*
X028228Y018089D02*
X028054Y018089D01*
X028080Y017941D02*
X027920Y017941D01*
X028110Y018238D02*
X028240Y018238D01*
X028240Y018386D02*
X028110Y018386D01*
X028110Y018535D02*
X028240Y018535D01*
X028240Y018683D02*
X028110Y018683D01*
X028110Y018832D02*
X028240Y018832D01*
X028283Y018980D02*
X028067Y018980D01*
X027952Y019129D02*
X028398Y019129D01*
X025311Y021059D02*
X025039Y021059D01*
X025103Y021208D02*
X025247Y021208D01*
X025240Y021356D02*
X025110Y021356D01*
X025110Y021505D02*
X025240Y021505D01*
X025240Y021653D02*
X025110Y021653D01*
X025110Y021802D02*
X025240Y021802D01*
X025270Y021950D02*
X025080Y021950D01*
X024982Y022099D02*
X025368Y022099D01*
X024368Y022099D02*
X023982Y022099D01*
X024080Y021950D02*
X024270Y021950D01*
X024240Y021802D02*
X024110Y021802D01*
X024110Y021653D02*
X024240Y021653D01*
X024240Y021505D02*
X024110Y021505D01*
X024110Y021356D02*
X024240Y021356D01*
X024247Y021208D02*
X024103Y021208D01*
X024039Y021059D02*
X024311Y021059D01*
X021214Y019426D02*
X018636Y019426D01*
X018597Y019465D02*
X018430Y019465D01*
X018430Y019055D01*
X018420Y019055D01*
X018420Y019045D01*
X018430Y019045D01*
X018430Y019055D01*
X018840Y019055D01*
X018840Y019222D01*
X018597Y019465D01*
X018430Y019426D02*
X018420Y019426D01*
X018420Y019277D02*
X018430Y019277D01*
X018420Y019129D02*
X018430Y019129D01*
X018430Y019045D02*
X018840Y019045D01*
X018840Y018878D01*
X018597Y018635D01*
X018430Y018635D01*
X018430Y019045D01*
X018420Y018980D02*
X018430Y018980D01*
X018420Y018832D02*
X018430Y018832D01*
X018420Y018683D02*
X018430Y018683D01*
X018645Y018683D02*
X021205Y018683D01*
X021057Y018832D02*
X018793Y018832D01*
X018840Y018980D02*
X021010Y018980D01*
X021010Y019129D02*
X018840Y019129D01*
X018785Y019277D02*
X021065Y019277D01*
X030472Y015862D02*
X030873Y015862D01*
X032792Y013931D02*
X035872Y013931D01*
X035724Y013783D02*
X032643Y013783D01*
X032495Y013634D02*
X035575Y013634D01*
X035427Y013486D02*
X032346Y013486D01*
X032198Y013337D02*
X035278Y013337D01*
X035130Y013189D02*
X032049Y013189D01*
X031901Y013040D02*
X034981Y013040D01*
X036021Y014080D02*
X032940Y014080D01*
X033089Y014228D02*
X036169Y014228D01*
X036318Y014377D02*
X033237Y014377D01*
X033386Y014525D02*
X036466Y014525D01*
X036615Y014674D02*
X033534Y014674D01*
X033683Y014822D02*
X036763Y014822D01*
X036800Y014971D02*
X033831Y014971D01*
X033980Y015119D02*
X036829Y015119D01*
X036890Y015268D02*
X034128Y015268D01*
X034277Y015416D02*
X037032Y015416D01*
X037705Y013486D02*
X039000Y013486D01*
X039000Y013337D02*
X037897Y013337D01*
X037992Y013189D02*
X039000Y013189D01*
X039000Y013040D02*
X038050Y013040D01*
X038050Y012892D02*
X039000Y012892D01*
X039000Y012743D02*
X038026Y012743D01*
X037965Y012595D02*
X039000Y012595D01*
X039000Y012446D02*
X037830Y012446D01*
X037820Y012298D02*
X039000Y012298D01*
X039000Y012149D02*
X037820Y012149D01*
X037820Y012001D02*
X039000Y012001D01*
X039000Y011852D02*
X037820Y011852D01*
X037761Y011704D02*
X039000Y011704D01*
X039000Y011555D02*
X037614Y011555D01*
X037465Y011407D02*
X039000Y011407D01*
X039000Y011258D02*
X037317Y011258D01*
X037168Y011110D02*
X039000Y011110D01*
X039000Y010961D02*
X037020Y010961D01*
X036871Y010813D02*
X039000Y010813D01*
X039000Y010664D02*
X036723Y010664D01*
X036654Y010516D02*
X039000Y010516D01*
X039000Y010367D02*
X036700Y010367D01*
X036700Y010219D02*
X039000Y010219D01*
X039000Y010070D02*
X036648Y010070D01*
X036539Y009922D02*
X039000Y009922D01*
X039000Y009773D02*
X031570Y009773D01*
X031570Y009625D02*
X039000Y009625D01*
X039000Y009476D02*
X031570Y009476D01*
X031581Y009328D02*
X039000Y009328D01*
X039000Y009179D02*
X031730Y009179D01*
X031878Y009031D02*
X039000Y009031D01*
X039000Y008882D02*
X032017Y008882D01*
X032107Y008734D02*
X039000Y008734D01*
X039000Y008585D02*
X032110Y008585D01*
X032110Y008437D02*
X039000Y008437D01*
X039000Y008288D02*
X032028Y008288D01*
X031880Y008140D02*
X039000Y008140D01*
X035811Y009922D02*
X032511Y009922D01*
X032504Y009915D02*
X032560Y009971D01*
X032607Y010035D01*
X032643Y010106D01*
X032668Y010182D01*
X032680Y010260D01*
X032680Y010265D01*
X032210Y010265D01*
X032210Y010335D01*
X032680Y010335D01*
X032680Y010340D01*
X032668Y010418D01*
X032643Y010494D01*
X032607Y010565D01*
X032560Y010629D01*
X032504Y010685D01*
X032440Y010732D01*
X032369Y010768D01*
X032293Y010793D01*
X032215Y010805D01*
X032210Y010805D01*
X032210Y010335D01*
X032140Y010335D01*
X032140Y010805D01*
X032135Y010805D01*
X032057Y010793D01*
X031981Y010768D01*
X031910Y010732D01*
X031846Y010685D01*
X031790Y010629D01*
X031743Y010565D01*
X031707Y010494D01*
X031682Y010418D01*
X031670Y010340D01*
X031670Y010335D01*
X032140Y010335D01*
X032140Y010265D01*
X032210Y010265D01*
X032210Y009795D01*
X032215Y009795D01*
X032293Y009807D01*
X032369Y009832D01*
X032440Y009868D01*
X032504Y009915D01*
X032625Y010070D02*
X035702Y010070D01*
X035650Y010219D02*
X032673Y010219D01*
X032676Y010367D02*
X035650Y010367D01*
X035696Y010516D02*
X032632Y010516D01*
X032525Y010664D02*
X035780Y010664D01*
X035804Y010813D02*
X031570Y010813D01*
X031570Y010961D02*
X035902Y010961D01*
X036051Y011110D02*
X031570Y011110D01*
X031570Y011258D02*
X036199Y011258D01*
X036348Y011407D02*
X031570Y011407D01*
X031570Y011555D02*
X036496Y011555D01*
X036645Y011704D02*
X031570Y011704D01*
X031570Y010664D02*
X031825Y010664D01*
X031718Y010516D02*
X031570Y010516D01*
X031570Y010367D02*
X031674Y010367D01*
X031670Y010265D02*
X031670Y010260D01*
X031682Y010182D01*
X031707Y010106D01*
X031743Y010035D01*
X031790Y009971D01*
X031846Y009915D01*
X031910Y009868D01*
X031981Y009832D01*
X032057Y009807D01*
X032135Y009795D01*
X032140Y009795D01*
X032140Y010265D01*
X031670Y010265D01*
X031677Y010219D02*
X031570Y010219D01*
X031570Y010070D02*
X031725Y010070D01*
X031839Y009922D02*
X031570Y009922D01*
X032140Y009922D02*
X032210Y009922D01*
X032210Y010070D02*
X032140Y010070D01*
X032140Y010219D02*
X032210Y010219D01*
X032210Y010367D02*
X032140Y010367D01*
X032140Y010516D02*
X032210Y010516D01*
X032210Y010664D02*
X032140Y010664D01*
X034930Y017941D02*
X035486Y017941D01*
X035323Y018089D02*
X035054Y018089D01*
X035110Y018238D02*
X035266Y018238D01*
X035260Y018386D02*
X035110Y018386D01*
X035110Y018535D02*
X035260Y018535D01*
X035260Y018683D02*
X035110Y018683D01*
X035110Y018832D02*
X035261Y018832D01*
X035306Y018980D02*
X035067Y018980D01*
D24*
X034675Y018550D02*
X034675Y016175D01*
X031675Y013175D01*
X030175Y013175D01*
X028175Y011175D01*
X015800Y011175D01*
X015425Y010800D01*
X015425Y009550D01*
X014425Y009550D02*
X014425Y011050D01*
X015050Y011675D01*
X026675Y011675D01*
X027675Y012675D01*
X027675Y013425D01*
X030425Y016175D01*
X031175Y016175D01*
X031175Y014675D02*
X030675Y014675D01*
X028675Y012675D01*
X031175Y014675D02*
X033675Y017175D01*
X033675Y018550D01*
X028675Y018550D02*
X028675Y018175D01*
X027925Y017425D01*
X026925Y017425D01*
X024300Y014800D01*
X023925Y014800D01*
X023175Y015175D02*
X023175Y014175D01*
X022425Y013425D01*
X022425Y012550D01*
X023175Y015175D02*
X024175Y016175D01*
X024675Y016175D01*
X026675Y018175D01*
X026675Y018550D01*
X026675Y020175D01*
X026175Y020675D01*
X006675Y020675D01*
X006175Y020175D01*
X006175Y018550D01*
X010425Y015675D02*
X010425Y013925D01*
X013425Y010925D01*
X013425Y009550D01*
X012300Y008550D02*
X027675Y008550D01*
X026300Y007675D02*
X032675Y007675D01*
X035050Y005300D01*
X035050Y004925D01*
X028675Y010425D02*
X018425Y010425D01*
X017550Y009550D01*
X017425Y009550D01*
X014425Y011050D02*
X013925Y011550D01*
X013925Y014300D01*
X013300Y014925D01*
X013300Y015675D01*
X012550Y016425D01*
X012175Y017425D02*
X010425Y015675D01*
X012175Y017425D02*
X012175Y018550D01*
X012175Y019175D01*
X013175Y020175D01*
X025675Y020175D01*
X025050Y019800D02*
X025675Y019175D01*
X025675Y018550D01*
X025050Y019800D02*
X014800Y019800D01*
X014175Y019175D01*
X014175Y018550D01*
X011175Y011675D02*
X010175Y011675D01*
X011175Y011675D02*
X011675Y011175D01*
X011675Y009175D01*
X012300Y008550D01*
X006175Y006675D02*
X004425Y004925D01*
X004300Y004925D01*
X006175Y006675D02*
X022425Y006675D01*
X023425Y007675D01*
D25*
X023425Y007675D03*
X026300Y007675D03*
X028675Y010425D03*
X028675Y012675D03*
X025675Y020175D03*
X012550Y016425D03*
M02*
