G75*
%MOIN*%
%OFA0B0*%
%FSLAX24Y24*%
%IPPOS*%
%LPD*%
%AMOC8*
5,1,8,0,0,1.08239X$1,22.5*
%
%ADD10C,0.0000*%
%ADD11C,0.0060*%
%ADD12R,0.0340X0.0240*%
%ADD13C,0.0050*%
%ADD14C,0.0040*%
%ADD15C,0.0080*%
%ADD16C,0.0070*%
%ADD17C,0.0100*%
%ADD18C,0.0120*%
%ADD19R,0.0200X0.1000*%
%ADD20R,0.0750X0.0300*%
%ADD21R,0.0240X0.0340*%
D10*
X000675Y000675D02*
X039175Y000675D01*
X039175Y027675D01*
X000675Y027675D01*
X000675Y000675D01*
D11*
X012625Y009950D02*
X012625Y012150D01*
X027225Y012150D01*
X027225Y011300D01*
X027195Y011298D01*
X027165Y011293D01*
X027136Y011284D01*
X027109Y011271D01*
X027083Y011256D01*
X027059Y011237D01*
X027038Y011216D01*
X027019Y011192D01*
X027004Y011166D01*
X026991Y011139D01*
X026982Y011110D01*
X026977Y011080D01*
X026975Y011050D01*
X026977Y011020D01*
X026982Y010990D01*
X026991Y010961D01*
X027004Y010934D01*
X027019Y010908D01*
X027038Y010884D01*
X027059Y010863D01*
X027083Y010844D01*
X027109Y010829D01*
X027136Y010816D01*
X027165Y010807D01*
X027195Y010802D01*
X027225Y010800D01*
X027225Y009950D01*
X012625Y009950D01*
X006200Y013800D02*
X006202Y013866D01*
X006208Y013931D01*
X006218Y013996D01*
X006231Y014061D01*
X006249Y014124D01*
X006270Y014187D01*
X006295Y014247D01*
X006324Y014307D01*
X006356Y014364D01*
X006391Y014420D01*
X006430Y014473D01*
X006472Y014524D01*
X006516Y014572D01*
X006564Y014617D01*
X006614Y014660D01*
X006667Y014699D01*
X006722Y014736D01*
X006779Y014769D01*
X006838Y014798D01*
X006898Y014824D01*
X006960Y014846D01*
X007023Y014865D01*
X007087Y014879D01*
X007152Y014890D01*
X007218Y014897D01*
X007284Y014900D01*
X007349Y014899D01*
X007415Y014894D01*
X007480Y014885D01*
X007545Y014872D01*
X007608Y014856D01*
X007671Y014836D01*
X007732Y014811D01*
X007792Y014784D01*
X007850Y014753D01*
X007906Y014718D01*
X007960Y014680D01*
X008011Y014639D01*
X008060Y014595D01*
X008106Y014548D01*
X008150Y014499D01*
X008190Y014447D01*
X008227Y014392D01*
X008261Y014336D01*
X008291Y014277D01*
X008318Y014217D01*
X008341Y014156D01*
X008360Y014093D01*
X008376Y014029D01*
X008388Y013964D01*
X008396Y013899D01*
X008400Y013833D01*
X008400Y013767D01*
X008396Y013701D01*
X008388Y013636D01*
X008376Y013571D01*
X008360Y013507D01*
X008341Y013444D01*
X008318Y013383D01*
X008291Y013323D01*
X008261Y013264D01*
X008227Y013208D01*
X008190Y013153D01*
X008150Y013101D01*
X008106Y013052D01*
X008060Y013005D01*
X008011Y012961D01*
X007960Y012920D01*
X007906Y012882D01*
X007850Y012847D01*
X007792Y012816D01*
X007732Y012789D01*
X007671Y012764D01*
X007608Y012744D01*
X007545Y012728D01*
X007480Y012715D01*
X007415Y012706D01*
X007349Y012701D01*
X007284Y012700D01*
X007218Y012703D01*
X007152Y012710D01*
X007087Y012721D01*
X007023Y012735D01*
X006960Y012754D01*
X006898Y012776D01*
X006838Y012802D01*
X006779Y012831D01*
X006722Y012864D01*
X006667Y012901D01*
X006614Y012940D01*
X006564Y012983D01*
X006516Y013028D01*
X006472Y013076D01*
X006430Y013127D01*
X006391Y013180D01*
X006356Y013236D01*
X006324Y013293D01*
X006295Y013353D01*
X006270Y013413D01*
X006249Y013476D01*
X006231Y013539D01*
X006218Y013604D01*
X006208Y013669D01*
X006202Y013734D01*
X006200Y013800D01*
X006650Y014150D02*
X006650Y014300D01*
X006650Y014450D01*
X006650Y014300D02*
X006800Y014300D01*
X006650Y014300D02*
X006500Y014300D01*
X006825Y016050D02*
X009525Y016050D01*
X009542Y016052D01*
X009559Y016056D01*
X009575Y016063D01*
X009589Y016073D01*
X009602Y016086D01*
X009612Y016100D01*
X009619Y016116D01*
X009623Y016133D01*
X009625Y016150D01*
X009625Y016950D01*
X009623Y016967D01*
X009619Y016984D01*
X009612Y017000D01*
X009602Y017014D01*
X009589Y017027D01*
X009575Y017037D01*
X009559Y017044D01*
X009542Y017048D01*
X009525Y017050D01*
X006825Y017050D01*
X006808Y017048D01*
X006791Y017044D01*
X006775Y017037D01*
X006761Y017027D01*
X006748Y017014D01*
X006738Y017000D01*
X006731Y016984D01*
X006727Y016967D01*
X006725Y016950D01*
X006725Y016150D01*
X006727Y016133D01*
X006731Y016116D01*
X006738Y016100D01*
X006748Y016086D01*
X006761Y016073D01*
X006775Y016063D01*
X006791Y016056D01*
X006808Y016052D01*
X006825Y016050D01*
X007575Y016550D02*
X008055Y016550D01*
X008305Y016550D02*
X008775Y016550D01*
X012675Y015150D02*
X012675Y014450D01*
X012677Y014433D01*
X012681Y014416D01*
X012688Y014400D01*
X012698Y014386D01*
X012711Y014373D01*
X012725Y014363D01*
X012741Y014356D01*
X012758Y014352D01*
X012775Y014350D01*
X012925Y014350D01*
X012975Y014400D01*
X014875Y014400D01*
X014925Y014350D01*
X015075Y014350D01*
X015092Y014352D01*
X015109Y014356D01*
X015125Y014363D01*
X015139Y014373D01*
X015152Y014386D01*
X015162Y014400D01*
X015169Y014416D01*
X015173Y014433D01*
X015175Y014450D01*
X015175Y015150D01*
X015173Y015167D01*
X015169Y015184D01*
X015162Y015200D01*
X015152Y015214D01*
X015139Y015227D01*
X015125Y015237D01*
X015109Y015244D01*
X015092Y015248D01*
X015075Y015250D01*
X014925Y015250D01*
X014875Y015200D01*
X012975Y015200D01*
X012925Y015250D01*
X012775Y015250D01*
X012758Y015248D01*
X012741Y015244D01*
X012725Y015237D01*
X012711Y015227D01*
X012698Y015214D01*
X012688Y015200D01*
X012681Y015184D01*
X012677Y015167D01*
X012675Y015150D01*
X017925Y016700D02*
X017925Y019400D01*
X017927Y019417D01*
X017931Y019434D01*
X017938Y019450D01*
X017948Y019464D01*
X017961Y019477D01*
X017975Y019487D01*
X017991Y019494D01*
X018008Y019498D01*
X018025Y019500D01*
X018825Y019500D01*
X018842Y019498D01*
X018859Y019494D01*
X018875Y019487D01*
X018889Y019477D01*
X018902Y019464D01*
X018912Y019450D01*
X018919Y019434D01*
X018923Y019417D01*
X018925Y019400D01*
X018925Y016700D01*
X018923Y016683D01*
X018919Y016666D01*
X018912Y016650D01*
X018902Y016636D01*
X018889Y016623D01*
X018875Y016613D01*
X018859Y016606D01*
X018842Y016602D01*
X018825Y016600D01*
X018025Y016600D01*
X018008Y016602D01*
X017991Y016606D01*
X017975Y016613D01*
X017961Y016623D01*
X017948Y016636D01*
X017938Y016650D01*
X017931Y016666D01*
X017927Y016683D01*
X017925Y016700D01*
X018425Y017450D02*
X018425Y017930D01*
X018425Y018180D02*
X018425Y018650D01*
X016675Y018900D02*
X016675Y019650D01*
X016636Y019652D01*
X016597Y019658D01*
X016559Y019667D01*
X016522Y019680D01*
X016486Y019697D01*
X016453Y019717D01*
X016421Y019741D01*
X016392Y019767D01*
X016366Y019796D01*
X016342Y019828D01*
X016322Y019861D01*
X016305Y019897D01*
X016292Y019934D01*
X016283Y019972D01*
X016277Y020011D01*
X016275Y020050D01*
X016277Y020089D01*
X016283Y020128D01*
X016292Y020166D01*
X016305Y020203D01*
X016322Y020239D01*
X016342Y020272D01*
X016366Y020304D01*
X016392Y020333D01*
X016421Y020359D01*
X016453Y020383D01*
X016486Y020403D01*
X016522Y020420D01*
X016559Y020433D01*
X016597Y020442D01*
X016636Y020448D01*
X016675Y020450D01*
X016675Y021200D01*
X002675Y021200D01*
X002675Y018900D01*
X016675Y018900D01*
X020925Y019400D02*
X020925Y016700D01*
X020927Y016683D01*
X020931Y016666D01*
X020938Y016650D01*
X020948Y016636D01*
X020961Y016623D01*
X020975Y016613D01*
X020991Y016606D01*
X021008Y016602D01*
X021025Y016600D01*
X021825Y016600D01*
X021842Y016602D01*
X021859Y016606D01*
X021875Y016613D01*
X021889Y016623D01*
X021902Y016636D01*
X021912Y016650D01*
X021919Y016666D01*
X021923Y016683D01*
X021925Y016700D01*
X021925Y019400D01*
X021923Y019417D01*
X021919Y019434D01*
X021912Y019450D01*
X021902Y019464D01*
X021889Y019477D01*
X021875Y019487D01*
X021859Y019494D01*
X021842Y019498D01*
X021825Y019500D01*
X021025Y019500D01*
X021008Y019498D01*
X020991Y019494D01*
X020975Y019487D01*
X020961Y019477D01*
X020948Y019464D01*
X020938Y019450D01*
X020931Y019434D01*
X020927Y019417D01*
X020925Y019400D01*
X021425Y018650D02*
X021425Y018180D01*
X021425Y017930D02*
X021425Y017450D01*
X023175Y018900D02*
X023175Y021200D01*
X037175Y021200D01*
X037175Y020450D01*
X037136Y020448D01*
X037097Y020442D01*
X037059Y020433D01*
X037022Y020420D01*
X036986Y020403D01*
X036953Y020383D01*
X036921Y020359D01*
X036892Y020333D01*
X036866Y020304D01*
X036842Y020272D01*
X036822Y020239D01*
X036805Y020203D01*
X036792Y020166D01*
X036783Y020128D01*
X036777Y020089D01*
X036775Y020050D01*
X036777Y020011D01*
X036783Y019972D01*
X036792Y019934D01*
X036805Y019897D01*
X036822Y019861D01*
X036842Y019828D01*
X036866Y019796D01*
X036892Y019767D01*
X036921Y019741D01*
X036953Y019717D01*
X036986Y019697D01*
X037022Y019680D01*
X037059Y019667D01*
X037097Y019658D01*
X037136Y019652D01*
X037175Y019650D01*
X037175Y018900D01*
X023175Y018900D01*
X027225Y016950D02*
X027225Y016150D01*
X027227Y016133D01*
X027231Y016116D01*
X027238Y016100D01*
X027248Y016086D01*
X027261Y016073D01*
X027275Y016063D01*
X027291Y016056D01*
X027308Y016052D01*
X027325Y016050D01*
X030025Y016050D01*
X030042Y016052D01*
X030059Y016056D01*
X030075Y016063D01*
X030089Y016073D01*
X030102Y016086D01*
X030112Y016100D01*
X030119Y016116D01*
X030123Y016133D01*
X030125Y016150D01*
X030125Y016950D01*
X030123Y016967D01*
X030119Y016984D01*
X030112Y017000D01*
X030102Y017014D01*
X030089Y017027D01*
X030075Y017037D01*
X030059Y017044D01*
X030042Y017048D01*
X030025Y017050D01*
X027325Y017050D01*
X027308Y017048D01*
X027291Y017044D01*
X027275Y017037D01*
X027261Y017027D01*
X027248Y017014D01*
X027238Y017000D01*
X027231Y016984D01*
X027227Y016967D01*
X027225Y016950D01*
X028075Y016550D02*
X028555Y016550D01*
X028805Y016550D02*
X029275Y016550D01*
X030725Y015325D02*
X030725Y015175D01*
X030775Y015125D01*
X030775Y013225D01*
X030725Y013175D01*
X030725Y013025D01*
X030727Y013008D01*
X030731Y012991D01*
X030738Y012975D01*
X030748Y012961D01*
X030761Y012948D01*
X030775Y012938D01*
X030791Y012931D01*
X030808Y012927D01*
X030825Y012925D01*
X031525Y012925D01*
X031542Y012927D01*
X031559Y012931D01*
X031575Y012938D01*
X031589Y012948D01*
X031602Y012961D01*
X031612Y012975D01*
X031619Y012991D01*
X031623Y013008D01*
X031625Y013025D01*
X031625Y013175D01*
X031575Y013225D01*
X031575Y015125D01*
X031625Y015175D01*
X031625Y015325D01*
X031623Y015342D01*
X031619Y015359D01*
X031612Y015375D01*
X031602Y015389D01*
X031589Y015402D01*
X031575Y015412D01*
X031559Y015419D01*
X031542Y015423D01*
X031525Y015425D01*
X030825Y015425D01*
X030808Y015423D01*
X030791Y015419D01*
X030775Y015412D01*
X030761Y015402D01*
X030748Y015389D01*
X030738Y015375D01*
X030731Y015359D01*
X030727Y015342D01*
X030725Y015325D01*
X027175Y015150D02*
X027175Y014450D01*
X027173Y014433D01*
X027169Y014416D01*
X027162Y014400D01*
X027152Y014386D01*
X027139Y014373D01*
X027125Y014363D01*
X027109Y014356D01*
X027092Y014352D01*
X027075Y014350D01*
X026925Y014350D01*
X026875Y014400D01*
X024975Y014400D01*
X024925Y014350D01*
X024775Y014350D01*
X024758Y014352D01*
X024741Y014356D01*
X024725Y014363D01*
X024711Y014373D01*
X024698Y014386D01*
X024688Y014400D01*
X024681Y014416D01*
X024677Y014433D01*
X024675Y014450D01*
X024675Y015150D01*
X024677Y015167D01*
X024681Y015184D01*
X024688Y015200D01*
X024698Y015214D01*
X024711Y015227D01*
X024725Y015237D01*
X024741Y015244D01*
X024758Y015248D01*
X024775Y015250D01*
X024925Y015250D01*
X024975Y015200D01*
X026875Y015200D01*
X026925Y015250D01*
X027075Y015250D01*
X027092Y015248D01*
X027109Y015244D01*
X027125Y015237D01*
X027139Y015227D01*
X027152Y015214D01*
X027162Y015200D01*
X027169Y015184D01*
X027173Y015167D01*
X027175Y015150D01*
X033375Y010800D02*
X033375Y009800D01*
X034975Y009800D01*
X034975Y010800D01*
X033375Y010800D01*
X033775Y010550D02*
X034175Y010300D01*
X034175Y010550D01*
X034175Y010300D02*
X033575Y010300D01*
X033775Y010050D02*
X034175Y010300D01*
X034175Y010050D01*
X034175Y010300D02*
X034425Y010300D01*
X033775Y010050D02*
X033775Y010550D01*
X030925Y008900D02*
X030925Y008200D01*
X030923Y008183D01*
X030919Y008166D01*
X030912Y008150D01*
X030902Y008136D01*
X030889Y008123D01*
X030875Y008113D01*
X030859Y008106D01*
X030842Y008102D01*
X030825Y008100D01*
X030675Y008100D01*
X030625Y008150D01*
X028725Y008150D01*
X028675Y008100D01*
X028525Y008100D01*
X028508Y008102D01*
X028491Y008106D01*
X028475Y008113D01*
X028461Y008123D01*
X028448Y008136D01*
X028438Y008150D01*
X028431Y008166D01*
X028427Y008183D01*
X028425Y008200D01*
X028425Y008900D01*
X028427Y008917D01*
X028431Y008934D01*
X028438Y008950D01*
X028448Y008964D01*
X028461Y008977D01*
X028475Y008987D01*
X028491Y008994D01*
X028508Y008998D01*
X028525Y009000D01*
X028675Y009000D01*
X028725Y008950D01*
X030625Y008950D01*
X030675Y009000D01*
X030825Y009000D01*
X030842Y008998D01*
X030859Y008994D01*
X030875Y008987D01*
X030889Y008977D01*
X030902Y008964D01*
X030912Y008950D01*
X030919Y008934D01*
X030923Y008917D01*
X030925Y008900D01*
X021375Y008075D02*
X021375Y007275D01*
X021373Y007258D01*
X021369Y007241D01*
X021362Y007225D01*
X021352Y007211D01*
X021339Y007198D01*
X021325Y007188D01*
X021309Y007181D01*
X021292Y007177D01*
X021275Y007175D01*
X018575Y007175D01*
X018558Y007177D01*
X018541Y007181D01*
X018525Y007188D01*
X018511Y007198D01*
X018498Y007211D01*
X018488Y007225D01*
X018481Y007241D01*
X018477Y007258D01*
X018475Y007275D01*
X018475Y008075D01*
X018477Y008092D01*
X018481Y008109D01*
X018488Y008125D01*
X018498Y008139D01*
X018511Y008152D01*
X018525Y008162D01*
X018541Y008169D01*
X018558Y008173D01*
X018575Y008175D01*
X021275Y008175D01*
X021292Y008173D01*
X021309Y008169D01*
X021325Y008162D01*
X021339Y008152D01*
X021352Y008139D01*
X021362Y008125D01*
X021369Y008109D01*
X021373Y008092D01*
X021375Y008075D01*
X020525Y007675D02*
X020055Y007675D01*
X019805Y007675D02*
X019325Y007675D01*
X018971Y026875D02*
X018804Y026875D01*
X018721Y026958D01*
X018721Y027125D02*
X018887Y027209D01*
X018971Y027209D01*
X019054Y027125D01*
X019054Y026958D01*
X018971Y026875D01*
X018721Y027125D02*
X018721Y027375D01*
X019054Y027375D01*
X018539Y027292D02*
X018539Y026958D01*
X018455Y026875D01*
X018205Y026875D01*
X018205Y027375D01*
X018455Y027375D01*
X018539Y027292D01*
X018023Y027375D02*
X017689Y027375D01*
X017689Y026875D01*
X018023Y026875D01*
X017856Y027125D02*
X017689Y027125D01*
X017507Y026875D02*
X017174Y026875D01*
X017174Y027375D01*
X015554Y027125D02*
X015221Y027125D01*
X015471Y027375D01*
X015471Y026875D01*
X015039Y026958D02*
X015039Y027292D01*
X014955Y027375D01*
X014705Y027375D01*
X014705Y026875D01*
X014955Y026875D01*
X015039Y026958D01*
X014523Y026875D02*
X014189Y026875D01*
X014189Y027375D01*
X014523Y027375D01*
X014356Y027125D02*
X014189Y027125D01*
X014007Y026875D02*
X013674Y026875D01*
X013674Y027375D01*
X012054Y027292D02*
X012054Y027209D01*
X011971Y027125D01*
X012054Y027042D01*
X012054Y026958D01*
X011971Y026875D01*
X011804Y026875D01*
X011721Y026958D01*
X011539Y026958D02*
X011455Y026875D01*
X011205Y026875D01*
X011205Y027375D01*
X011455Y027375D01*
X011539Y027292D01*
X011539Y026958D01*
X011721Y027292D02*
X011804Y027375D01*
X011971Y027375D01*
X012054Y027292D01*
X011971Y027125D02*
X011887Y027125D01*
X011023Y026875D02*
X010689Y026875D01*
X010689Y027375D01*
X011023Y027375D01*
X010856Y027125D02*
X010689Y027125D01*
X010507Y026875D02*
X010174Y026875D01*
X010174Y027375D01*
X008554Y027292D02*
X008554Y027209D01*
X008221Y026875D01*
X008554Y026875D01*
X008039Y026958D02*
X008039Y027292D01*
X007955Y027375D01*
X007705Y027375D01*
X007705Y026875D01*
X007955Y026875D01*
X008039Y026958D01*
X008221Y027292D02*
X008304Y027375D01*
X008471Y027375D01*
X008554Y027292D01*
X007523Y027375D02*
X007189Y027375D01*
X007189Y026875D01*
X007523Y026875D01*
X007356Y027125D02*
X007189Y027125D01*
X007007Y026875D02*
X006674Y026875D01*
X006674Y027375D01*
X005054Y026875D02*
X004721Y026875D01*
X004887Y026875D02*
X004887Y027375D01*
X004721Y027209D01*
X004539Y027292D02*
X004539Y026958D01*
X004455Y026875D01*
X004205Y026875D01*
X004205Y027375D01*
X004455Y027375D01*
X004539Y027292D01*
X004023Y027375D02*
X003689Y027375D01*
X003689Y026875D01*
X004023Y026875D01*
X003856Y027125D02*
X003689Y027125D01*
X003507Y026875D02*
X003174Y026875D01*
X003174Y027375D01*
X020674Y027375D02*
X020674Y026875D01*
X021007Y026875D01*
X021189Y026875D02*
X021523Y026875D01*
X021705Y026875D02*
X021955Y026875D01*
X022039Y026958D01*
X022039Y027292D01*
X021955Y027375D01*
X021705Y027375D01*
X021705Y026875D01*
X021356Y027125D02*
X021189Y027125D01*
X021189Y027375D02*
X021189Y026875D01*
X021189Y027375D02*
X021523Y027375D01*
X022221Y027125D02*
X022471Y027125D01*
X022554Y027042D01*
X022554Y026958D01*
X022471Y026875D01*
X022304Y026875D01*
X022221Y026958D01*
X022221Y027125D01*
X022387Y027292D01*
X022554Y027375D01*
X024174Y027375D02*
X024174Y026875D01*
X024507Y026875D01*
X024689Y026875D02*
X025023Y026875D01*
X025205Y026875D02*
X025455Y026875D01*
X025539Y026958D01*
X025539Y027292D01*
X025455Y027375D01*
X025205Y027375D01*
X025205Y026875D01*
X024856Y027125D02*
X024689Y027125D01*
X024689Y027375D02*
X024689Y026875D01*
X024689Y027375D02*
X025023Y027375D01*
X025721Y027375D02*
X026054Y027375D01*
X026054Y027292D01*
X025721Y026958D01*
X025721Y026875D01*
X027674Y026875D02*
X028007Y026875D01*
X028189Y026875D02*
X028523Y026875D01*
X028705Y026875D02*
X028955Y026875D01*
X029039Y026958D01*
X029039Y027292D01*
X028955Y027375D01*
X028705Y027375D01*
X028705Y026875D01*
X028356Y027125D02*
X028189Y027125D01*
X028189Y027375D02*
X028189Y026875D01*
X027674Y026875D02*
X027674Y027375D01*
X028189Y027375D02*
X028523Y027375D01*
X029221Y027292D02*
X029221Y027209D01*
X029304Y027125D01*
X029471Y027125D01*
X029554Y027042D01*
X029554Y026958D01*
X029471Y026875D01*
X029304Y026875D01*
X029221Y026958D01*
X029221Y027042D01*
X029304Y027125D01*
X029471Y027125D02*
X029554Y027209D01*
X029554Y027292D01*
X029471Y027375D01*
X029304Y027375D01*
X029221Y027292D01*
X031174Y027375D02*
X031174Y026875D01*
X031507Y026875D01*
X031689Y026875D02*
X032023Y026875D01*
X032205Y026875D02*
X032455Y026875D01*
X032539Y026958D01*
X032539Y027292D01*
X032455Y027375D01*
X032205Y027375D01*
X032205Y026875D01*
X031856Y027125D02*
X031689Y027125D01*
X031689Y027375D02*
X031689Y026875D01*
X031689Y027375D02*
X032023Y027375D01*
X032721Y027292D02*
X032721Y027209D01*
X032804Y027125D01*
X033054Y027125D01*
X033054Y026958D02*
X033054Y027292D01*
X032971Y027375D01*
X032804Y027375D01*
X032721Y027292D01*
X032721Y026958D02*
X032804Y026875D01*
X032971Y026875D01*
X033054Y026958D01*
X034416Y026875D02*
X034750Y026875D01*
X034932Y026875D02*
X035265Y026875D01*
X035447Y026875D02*
X035697Y026875D01*
X035781Y026958D01*
X035781Y027292D01*
X035697Y027375D01*
X035447Y027375D01*
X035447Y026875D01*
X035098Y027125D02*
X034932Y027125D01*
X034932Y027375D02*
X034932Y026875D01*
X034416Y026875D02*
X034416Y027375D01*
X034932Y027375D02*
X035265Y027375D01*
X035963Y027209D02*
X036130Y027375D01*
X036130Y026875D01*
X036296Y026875D02*
X035963Y026875D01*
X036478Y026958D02*
X036812Y027292D01*
X036812Y026958D01*
X036729Y026875D01*
X036562Y026875D01*
X036478Y026958D01*
X036478Y027292D01*
X036562Y027375D01*
X036729Y027375D01*
X036812Y027292D01*
D12*
X027345Y014800D03*
X024505Y014800D03*
X028255Y008550D03*
X031095Y008550D03*
X015345Y014800D03*
X012505Y014800D03*
D13*
X013528Y014950D02*
X013603Y015025D01*
X013753Y015025D01*
X013828Y014950D01*
X013828Y014875D01*
X013528Y014575D01*
X013828Y014575D01*
X013988Y014575D02*
X013988Y015025D01*
X014214Y014875D02*
X013988Y014725D01*
X014214Y014575D01*
X014250Y015450D02*
X013950Y015450D01*
X014100Y015450D02*
X014100Y015900D01*
X013950Y015750D01*
X013790Y015675D02*
X013715Y015600D01*
X013490Y015600D01*
X013640Y015600D02*
X013790Y015450D01*
X013790Y015675D02*
X013790Y015825D01*
X013715Y015900D01*
X013490Y015900D01*
X013490Y015450D01*
X009136Y014425D02*
X008835Y014425D01*
X008986Y014425D02*
X008986Y014875D01*
X008835Y014725D01*
X008675Y014800D02*
X008600Y014875D01*
X008450Y014875D01*
X008375Y014800D01*
X008375Y014500D01*
X008450Y014425D01*
X008600Y014425D01*
X008675Y014500D01*
X008975Y012175D02*
X010375Y012175D01*
X010675Y011875D01*
X010675Y011375D01*
X010475Y011175D01*
X010675Y010975D01*
X010675Y010375D01*
X010475Y010175D01*
X010675Y009975D01*
X010675Y009475D01*
X010375Y009175D01*
X008975Y009175D01*
X008675Y009475D01*
X008675Y009975D01*
X008875Y010175D01*
X008675Y010375D01*
X008675Y010975D01*
X008875Y011175D01*
X008675Y011375D01*
X008675Y011875D01*
X008975Y012175D01*
X004430Y011890D02*
X004430Y012598D01*
X003446Y011890D02*
X002619Y011890D01*
X000808Y011890D02*
X000808Y014960D01*
X002383Y014960D02*
X003446Y014960D01*
X004430Y014960D02*
X004430Y014252D01*
X004172Y015901D02*
X003946Y015901D01*
X003946Y016351D01*
X004172Y016351D01*
X004247Y016276D01*
X004247Y016201D01*
X004172Y016126D01*
X003946Y016126D01*
X003786Y016051D02*
X003786Y015976D01*
X003711Y015901D01*
X003561Y015901D01*
X003486Y015976D01*
X003326Y015976D02*
X003326Y016351D01*
X003486Y016276D02*
X003486Y016201D01*
X003561Y016126D01*
X003711Y016126D01*
X003786Y016051D01*
X003786Y016276D02*
X003711Y016351D01*
X003561Y016351D01*
X003486Y016276D01*
X003326Y015976D02*
X003251Y015901D01*
X003101Y015901D01*
X003026Y015976D01*
X003026Y016351D01*
X002865Y016126D02*
X002565Y016126D01*
X002408Y016351D02*
X002258Y016351D01*
X002333Y016351D02*
X002333Y015901D01*
X002258Y015901D02*
X002408Y015901D01*
X002098Y015901D02*
X002098Y016351D01*
X001798Y016351D02*
X001798Y015901D01*
X001641Y015901D02*
X001491Y015901D01*
X001566Y015901D02*
X001566Y016351D01*
X001491Y016351D02*
X001641Y016351D01*
X001798Y016351D02*
X002098Y015901D01*
X001331Y015901D02*
X001331Y016351D01*
X001181Y016201D01*
X001031Y016351D01*
X001031Y015901D01*
X004172Y015901D02*
X004247Y015976D01*
X004247Y016051D01*
X004172Y016126D01*
X002675Y023675D02*
X002675Y026275D01*
X003075Y026675D01*
X005675Y026675D01*
X005675Y023675D01*
X002675Y023675D01*
X003175Y025175D02*
X003177Y025238D01*
X003183Y025300D01*
X003193Y025362D01*
X003206Y025424D01*
X003224Y025484D01*
X003245Y025543D01*
X003270Y025601D01*
X003299Y025657D01*
X003331Y025711D01*
X003366Y025763D01*
X003404Y025812D01*
X003446Y025860D01*
X003490Y025904D01*
X003538Y025946D01*
X003587Y025984D01*
X003639Y026019D01*
X003693Y026051D01*
X003749Y026080D01*
X003807Y026105D01*
X003866Y026126D01*
X003926Y026144D01*
X003988Y026157D01*
X004050Y026167D01*
X004112Y026173D01*
X004175Y026175D01*
X004238Y026173D01*
X004300Y026167D01*
X004362Y026157D01*
X004424Y026144D01*
X004484Y026126D01*
X004543Y026105D01*
X004601Y026080D01*
X004657Y026051D01*
X004711Y026019D01*
X004763Y025984D01*
X004812Y025946D01*
X004860Y025904D01*
X004904Y025860D01*
X004946Y025812D01*
X004984Y025763D01*
X005019Y025711D01*
X005051Y025657D01*
X005080Y025601D01*
X005105Y025543D01*
X005126Y025484D01*
X005144Y025424D01*
X005157Y025362D01*
X005167Y025300D01*
X005173Y025238D01*
X005175Y025175D01*
X005173Y025112D01*
X005167Y025050D01*
X005157Y024988D01*
X005144Y024926D01*
X005126Y024866D01*
X005105Y024807D01*
X005080Y024749D01*
X005051Y024693D01*
X005019Y024639D01*
X004984Y024587D01*
X004946Y024538D01*
X004904Y024490D01*
X004860Y024446D01*
X004812Y024404D01*
X004763Y024366D01*
X004711Y024331D01*
X004657Y024299D01*
X004601Y024270D01*
X004543Y024245D01*
X004484Y024224D01*
X004424Y024206D01*
X004362Y024193D01*
X004300Y024183D01*
X004238Y024177D01*
X004175Y024175D01*
X004112Y024177D01*
X004050Y024183D01*
X003988Y024193D01*
X003926Y024206D01*
X003866Y024224D01*
X003807Y024245D01*
X003749Y024270D01*
X003693Y024299D01*
X003639Y024331D01*
X003587Y024366D01*
X003538Y024404D01*
X003490Y024446D01*
X003446Y024490D01*
X003404Y024538D01*
X003366Y024587D01*
X003331Y024639D01*
X003299Y024693D01*
X003270Y024749D01*
X003245Y024807D01*
X003224Y024866D01*
X003206Y024926D01*
X003193Y024988D01*
X003183Y025050D01*
X003177Y025112D01*
X003175Y025175D01*
X006175Y026275D02*
X006175Y023675D01*
X009175Y023675D01*
X009175Y026675D01*
X006575Y026675D01*
X006175Y026275D01*
X006675Y025175D02*
X006677Y025238D01*
X006683Y025300D01*
X006693Y025362D01*
X006706Y025424D01*
X006724Y025484D01*
X006745Y025543D01*
X006770Y025601D01*
X006799Y025657D01*
X006831Y025711D01*
X006866Y025763D01*
X006904Y025812D01*
X006946Y025860D01*
X006990Y025904D01*
X007038Y025946D01*
X007087Y025984D01*
X007139Y026019D01*
X007193Y026051D01*
X007249Y026080D01*
X007307Y026105D01*
X007366Y026126D01*
X007426Y026144D01*
X007488Y026157D01*
X007550Y026167D01*
X007612Y026173D01*
X007675Y026175D01*
X007738Y026173D01*
X007800Y026167D01*
X007862Y026157D01*
X007924Y026144D01*
X007984Y026126D01*
X008043Y026105D01*
X008101Y026080D01*
X008157Y026051D01*
X008211Y026019D01*
X008263Y025984D01*
X008312Y025946D01*
X008360Y025904D01*
X008404Y025860D01*
X008446Y025812D01*
X008484Y025763D01*
X008519Y025711D01*
X008551Y025657D01*
X008580Y025601D01*
X008605Y025543D01*
X008626Y025484D01*
X008644Y025424D01*
X008657Y025362D01*
X008667Y025300D01*
X008673Y025238D01*
X008675Y025175D01*
X008673Y025112D01*
X008667Y025050D01*
X008657Y024988D01*
X008644Y024926D01*
X008626Y024866D01*
X008605Y024807D01*
X008580Y024749D01*
X008551Y024693D01*
X008519Y024639D01*
X008484Y024587D01*
X008446Y024538D01*
X008404Y024490D01*
X008360Y024446D01*
X008312Y024404D01*
X008263Y024366D01*
X008211Y024331D01*
X008157Y024299D01*
X008101Y024270D01*
X008043Y024245D01*
X007984Y024224D01*
X007924Y024206D01*
X007862Y024193D01*
X007800Y024183D01*
X007738Y024177D01*
X007675Y024175D01*
X007612Y024177D01*
X007550Y024183D01*
X007488Y024193D01*
X007426Y024206D01*
X007366Y024224D01*
X007307Y024245D01*
X007249Y024270D01*
X007193Y024299D01*
X007139Y024331D01*
X007087Y024366D01*
X007038Y024404D01*
X006990Y024446D01*
X006946Y024490D01*
X006904Y024538D01*
X006866Y024587D01*
X006831Y024639D01*
X006799Y024693D01*
X006770Y024749D01*
X006745Y024807D01*
X006724Y024866D01*
X006706Y024926D01*
X006693Y024988D01*
X006683Y025050D01*
X006677Y025112D01*
X006675Y025175D01*
X009675Y026275D02*
X009675Y023675D01*
X012675Y023675D01*
X012675Y026675D01*
X010075Y026675D01*
X009675Y026275D01*
X010175Y025175D02*
X010177Y025238D01*
X010183Y025300D01*
X010193Y025362D01*
X010206Y025424D01*
X010224Y025484D01*
X010245Y025543D01*
X010270Y025601D01*
X010299Y025657D01*
X010331Y025711D01*
X010366Y025763D01*
X010404Y025812D01*
X010446Y025860D01*
X010490Y025904D01*
X010538Y025946D01*
X010587Y025984D01*
X010639Y026019D01*
X010693Y026051D01*
X010749Y026080D01*
X010807Y026105D01*
X010866Y026126D01*
X010926Y026144D01*
X010988Y026157D01*
X011050Y026167D01*
X011112Y026173D01*
X011175Y026175D01*
X011238Y026173D01*
X011300Y026167D01*
X011362Y026157D01*
X011424Y026144D01*
X011484Y026126D01*
X011543Y026105D01*
X011601Y026080D01*
X011657Y026051D01*
X011711Y026019D01*
X011763Y025984D01*
X011812Y025946D01*
X011860Y025904D01*
X011904Y025860D01*
X011946Y025812D01*
X011984Y025763D01*
X012019Y025711D01*
X012051Y025657D01*
X012080Y025601D01*
X012105Y025543D01*
X012126Y025484D01*
X012144Y025424D01*
X012157Y025362D01*
X012167Y025300D01*
X012173Y025238D01*
X012175Y025175D01*
X012173Y025112D01*
X012167Y025050D01*
X012157Y024988D01*
X012144Y024926D01*
X012126Y024866D01*
X012105Y024807D01*
X012080Y024749D01*
X012051Y024693D01*
X012019Y024639D01*
X011984Y024587D01*
X011946Y024538D01*
X011904Y024490D01*
X011860Y024446D01*
X011812Y024404D01*
X011763Y024366D01*
X011711Y024331D01*
X011657Y024299D01*
X011601Y024270D01*
X011543Y024245D01*
X011484Y024224D01*
X011424Y024206D01*
X011362Y024193D01*
X011300Y024183D01*
X011238Y024177D01*
X011175Y024175D01*
X011112Y024177D01*
X011050Y024183D01*
X010988Y024193D01*
X010926Y024206D01*
X010866Y024224D01*
X010807Y024245D01*
X010749Y024270D01*
X010693Y024299D01*
X010639Y024331D01*
X010587Y024366D01*
X010538Y024404D01*
X010490Y024446D01*
X010446Y024490D01*
X010404Y024538D01*
X010366Y024587D01*
X010331Y024639D01*
X010299Y024693D01*
X010270Y024749D01*
X010245Y024807D01*
X010224Y024866D01*
X010206Y024926D01*
X010193Y024988D01*
X010183Y025050D01*
X010177Y025112D01*
X010175Y025175D01*
X013175Y026275D02*
X013175Y023675D01*
X016175Y023675D01*
X016175Y026675D01*
X013575Y026675D01*
X013175Y026275D01*
X013675Y025175D02*
X013677Y025238D01*
X013683Y025300D01*
X013693Y025362D01*
X013706Y025424D01*
X013724Y025484D01*
X013745Y025543D01*
X013770Y025601D01*
X013799Y025657D01*
X013831Y025711D01*
X013866Y025763D01*
X013904Y025812D01*
X013946Y025860D01*
X013990Y025904D01*
X014038Y025946D01*
X014087Y025984D01*
X014139Y026019D01*
X014193Y026051D01*
X014249Y026080D01*
X014307Y026105D01*
X014366Y026126D01*
X014426Y026144D01*
X014488Y026157D01*
X014550Y026167D01*
X014612Y026173D01*
X014675Y026175D01*
X014738Y026173D01*
X014800Y026167D01*
X014862Y026157D01*
X014924Y026144D01*
X014984Y026126D01*
X015043Y026105D01*
X015101Y026080D01*
X015157Y026051D01*
X015211Y026019D01*
X015263Y025984D01*
X015312Y025946D01*
X015360Y025904D01*
X015404Y025860D01*
X015446Y025812D01*
X015484Y025763D01*
X015519Y025711D01*
X015551Y025657D01*
X015580Y025601D01*
X015605Y025543D01*
X015626Y025484D01*
X015644Y025424D01*
X015657Y025362D01*
X015667Y025300D01*
X015673Y025238D01*
X015675Y025175D01*
X015673Y025112D01*
X015667Y025050D01*
X015657Y024988D01*
X015644Y024926D01*
X015626Y024866D01*
X015605Y024807D01*
X015580Y024749D01*
X015551Y024693D01*
X015519Y024639D01*
X015484Y024587D01*
X015446Y024538D01*
X015404Y024490D01*
X015360Y024446D01*
X015312Y024404D01*
X015263Y024366D01*
X015211Y024331D01*
X015157Y024299D01*
X015101Y024270D01*
X015043Y024245D01*
X014984Y024224D01*
X014924Y024206D01*
X014862Y024193D01*
X014800Y024183D01*
X014738Y024177D01*
X014675Y024175D01*
X014612Y024177D01*
X014550Y024183D01*
X014488Y024193D01*
X014426Y024206D01*
X014366Y024224D01*
X014307Y024245D01*
X014249Y024270D01*
X014193Y024299D01*
X014139Y024331D01*
X014087Y024366D01*
X014038Y024404D01*
X013990Y024446D01*
X013946Y024490D01*
X013904Y024538D01*
X013866Y024587D01*
X013831Y024639D01*
X013799Y024693D01*
X013770Y024749D01*
X013745Y024807D01*
X013724Y024866D01*
X013706Y024926D01*
X013693Y024988D01*
X013683Y025050D01*
X013677Y025112D01*
X013675Y025175D01*
X016675Y026275D02*
X016675Y023675D01*
X019675Y023675D01*
X019675Y026675D01*
X017075Y026675D01*
X016675Y026275D01*
X017175Y025175D02*
X017177Y025238D01*
X017183Y025300D01*
X017193Y025362D01*
X017206Y025424D01*
X017224Y025484D01*
X017245Y025543D01*
X017270Y025601D01*
X017299Y025657D01*
X017331Y025711D01*
X017366Y025763D01*
X017404Y025812D01*
X017446Y025860D01*
X017490Y025904D01*
X017538Y025946D01*
X017587Y025984D01*
X017639Y026019D01*
X017693Y026051D01*
X017749Y026080D01*
X017807Y026105D01*
X017866Y026126D01*
X017926Y026144D01*
X017988Y026157D01*
X018050Y026167D01*
X018112Y026173D01*
X018175Y026175D01*
X018238Y026173D01*
X018300Y026167D01*
X018362Y026157D01*
X018424Y026144D01*
X018484Y026126D01*
X018543Y026105D01*
X018601Y026080D01*
X018657Y026051D01*
X018711Y026019D01*
X018763Y025984D01*
X018812Y025946D01*
X018860Y025904D01*
X018904Y025860D01*
X018946Y025812D01*
X018984Y025763D01*
X019019Y025711D01*
X019051Y025657D01*
X019080Y025601D01*
X019105Y025543D01*
X019126Y025484D01*
X019144Y025424D01*
X019157Y025362D01*
X019167Y025300D01*
X019173Y025238D01*
X019175Y025175D01*
X019173Y025112D01*
X019167Y025050D01*
X019157Y024988D01*
X019144Y024926D01*
X019126Y024866D01*
X019105Y024807D01*
X019080Y024749D01*
X019051Y024693D01*
X019019Y024639D01*
X018984Y024587D01*
X018946Y024538D01*
X018904Y024490D01*
X018860Y024446D01*
X018812Y024404D01*
X018763Y024366D01*
X018711Y024331D01*
X018657Y024299D01*
X018601Y024270D01*
X018543Y024245D01*
X018484Y024224D01*
X018424Y024206D01*
X018362Y024193D01*
X018300Y024183D01*
X018238Y024177D01*
X018175Y024175D01*
X018112Y024177D01*
X018050Y024183D01*
X017988Y024193D01*
X017926Y024206D01*
X017866Y024224D01*
X017807Y024245D01*
X017749Y024270D01*
X017693Y024299D01*
X017639Y024331D01*
X017587Y024366D01*
X017538Y024404D01*
X017490Y024446D01*
X017446Y024490D01*
X017404Y024538D01*
X017366Y024587D01*
X017331Y024639D01*
X017299Y024693D01*
X017270Y024749D01*
X017245Y024807D01*
X017224Y024866D01*
X017206Y024926D01*
X017193Y024988D01*
X017183Y025050D01*
X017177Y025112D01*
X017175Y025175D01*
X020175Y026275D02*
X020175Y023675D01*
X023175Y023675D01*
X023175Y026675D01*
X020575Y026675D01*
X020175Y026275D01*
X020675Y025175D02*
X020677Y025238D01*
X020683Y025300D01*
X020693Y025362D01*
X020706Y025424D01*
X020724Y025484D01*
X020745Y025543D01*
X020770Y025601D01*
X020799Y025657D01*
X020831Y025711D01*
X020866Y025763D01*
X020904Y025812D01*
X020946Y025860D01*
X020990Y025904D01*
X021038Y025946D01*
X021087Y025984D01*
X021139Y026019D01*
X021193Y026051D01*
X021249Y026080D01*
X021307Y026105D01*
X021366Y026126D01*
X021426Y026144D01*
X021488Y026157D01*
X021550Y026167D01*
X021612Y026173D01*
X021675Y026175D01*
X021738Y026173D01*
X021800Y026167D01*
X021862Y026157D01*
X021924Y026144D01*
X021984Y026126D01*
X022043Y026105D01*
X022101Y026080D01*
X022157Y026051D01*
X022211Y026019D01*
X022263Y025984D01*
X022312Y025946D01*
X022360Y025904D01*
X022404Y025860D01*
X022446Y025812D01*
X022484Y025763D01*
X022519Y025711D01*
X022551Y025657D01*
X022580Y025601D01*
X022605Y025543D01*
X022626Y025484D01*
X022644Y025424D01*
X022657Y025362D01*
X022667Y025300D01*
X022673Y025238D01*
X022675Y025175D01*
X022673Y025112D01*
X022667Y025050D01*
X022657Y024988D01*
X022644Y024926D01*
X022626Y024866D01*
X022605Y024807D01*
X022580Y024749D01*
X022551Y024693D01*
X022519Y024639D01*
X022484Y024587D01*
X022446Y024538D01*
X022404Y024490D01*
X022360Y024446D01*
X022312Y024404D01*
X022263Y024366D01*
X022211Y024331D01*
X022157Y024299D01*
X022101Y024270D01*
X022043Y024245D01*
X021984Y024224D01*
X021924Y024206D01*
X021862Y024193D01*
X021800Y024183D01*
X021738Y024177D01*
X021675Y024175D01*
X021612Y024177D01*
X021550Y024183D01*
X021488Y024193D01*
X021426Y024206D01*
X021366Y024224D01*
X021307Y024245D01*
X021249Y024270D01*
X021193Y024299D01*
X021139Y024331D01*
X021087Y024366D01*
X021038Y024404D01*
X020990Y024446D01*
X020946Y024490D01*
X020904Y024538D01*
X020866Y024587D01*
X020831Y024639D01*
X020799Y024693D01*
X020770Y024749D01*
X020745Y024807D01*
X020724Y024866D01*
X020706Y024926D01*
X020693Y024988D01*
X020683Y025050D01*
X020677Y025112D01*
X020675Y025175D01*
X023675Y026275D02*
X023675Y023675D01*
X026675Y023675D01*
X026675Y026675D01*
X024075Y026675D01*
X023675Y026275D01*
X024175Y025175D02*
X024177Y025238D01*
X024183Y025300D01*
X024193Y025362D01*
X024206Y025424D01*
X024224Y025484D01*
X024245Y025543D01*
X024270Y025601D01*
X024299Y025657D01*
X024331Y025711D01*
X024366Y025763D01*
X024404Y025812D01*
X024446Y025860D01*
X024490Y025904D01*
X024538Y025946D01*
X024587Y025984D01*
X024639Y026019D01*
X024693Y026051D01*
X024749Y026080D01*
X024807Y026105D01*
X024866Y026126D01*
X024926Y026144D01*
X024988Y026157D01*
X025050Y026167D01*
X025112Y026173D01*
X025175Y026175D01*
X025238Y026173D01*
X025300Y026167D01*
X025362Y026157D01*
X025424Y026144D01*
X025484Y026126D01*
X025543Y026105D01*
X025601Y026080D01*
X025657Y026051D01*
X025711Y026019D01*
X025763Y025984D01*
X025812Y025946D01*
X025860Y025904D01*
X025904Y025860D01*
X025946Y025812D01*
X025984Y025763D01*
X026019Y025711D01*
X026051Y025657D01*
X026080Y025601D01*
X026105Y025543D01*
X026126Y025484D01*
X026144Y025424D01*
X026157Y025362D01*
X026167Y025300D01*
X026173Y025238D01*
X026175Y025175D01*
X026173Y025112D01*
X026167Y025050D01*
X026157Y024988D01*
X026144Y024926D01*
X026126Y024866D01*
X026105Y024807D01*
X026080Y024749D01*
X026051Y024693D01*
X026019Y024639D01*
X025984Y024587D01*
X025946Y024538D01*
X025904Y024490D01*
X025860Y024446D01*
X025812Y024404D01*
X025763Y024366D01*
X025711Y024331D01*
X025657Y024299D01*
X025601Y024270D01*
X025543Y024245D01*
X025484Y024224D01*
X025424Y024206D01*
X025362Y024193D01*
X025300Y024183D01*
X025238Y024177D01*
X025175Y024175D01*
X025112Y024177D01*
X025050Y024183D01*
X024988Y024193D01*
X024926Y024206D01*
X024866Y024224D01*
X024807Y024245D01*
X024749Y024270D01*
X024693Y024299D01*
X024639Y024331D01*
X024587Y024366D01*
X024538Y024404D01*
X024490Y024446D01*
X024446Y024490D01*
X024404Y024538D01*
X024366Y024587D01*
X024331Y024639D01*
X024299Y024693D01*
X024270Y024749D01*
X024245Y024807D01*
X024224Y024866D01*
X024206Y024926D01*
X024193Y024988D01*
X024183Y025050D01*
X024177Y025112D01*
X024175Y025175D01*
X027175Y026275D02*
X027175Y023675D01*
X030175Y023675D01*
X030175Y026675D01*
X027575Y026675D01*
X027175Y026275D01*
X027675Y025175D02*
X027677Y025238D01*
X027683Y025300D01*
X027693Y025362D01*
X027706Y025424D01*
X027724Y025484D01*
X027745Y025543D01*
X027770Y025601D01*
X027799Y025657D01*
X027831Y025711D01*
X027866Y025763D01*
X027904Y025812D01*
X027946Y025860D01*
X027990Y025904D01*
X028038Y025946D01*
X028087Y025984D01*
X028139Y026019D01*
X028193Y026051D01*
X028249Y026080D01*
X028307Y026105D01*
X028366Y026126D01*
X028426Y026144D01*
X028488Y026157D01*
X028550Y026167D01*
X028612Y026173D01*
X028675Y026175D01*
X028738Y026173D01*
X028800Y026167D01*
X028862Y026157D01*
X028924Y026144D01*
X028984Y026126D01*
X029043Y026105D01*
X029101Y026080D01*
X029157Y026051D01*
X029211Y026019D01*
X029263Y025984D01*
X029312Y025946D01*
X029360Y025904D01*
X029404Y025860D01*
X029446Y025812D01*
X029484Y025763D01*
X029519Y025711D01*
X029551Y025657D01*
X029580Y025601D01*
X029605Y025543D01*
X029626Y025484D01*
X029644Y025424D01*
X029657Y025362D01*
X029667Y025300D01*
X029673Y025238D01*
X029675Y025175D01*
X029673Y025112D01*
X029667Y025050D01*
X029657Y024988D01*
X029644Y024926D01*
X029626Y024866D01*
X029605Y024807D01*
X029580Y024749D01*
X029551Y024693D01*
X029519Y024639D01*
X029484Y024587D01*
X029446Y024538D01*
X029404Y024490D01*
X029360Y024446D01*
X029312Y024404D01*
X029263Y024366D01*
X029211Y024331D01*
X029157Y024299D01*
X029101Y024270D01*
X029043Y024245D01*
X028984Y024224D01*
X028924Y024206D01*
X028862Y024193D01*
X028800Y024183D01*
X028738Y024177D01*
X028675Y024175D01*
X028612Y024177D01*
X028550Y024183D01*
X028488Y024193D01*
X028426Y024206D01*
X028366Y024224D01*
X028307Y024245D01*
X028249Y024270D01*
X028193Y024299D01*
X028139Y024331D01*
X028087Y024366D01*
X028038Y024404D01*
X027990Y024446D01*
X027946Y024490D01*
X027904Y024538D01*
X027866Y024587D01*
X027831Y024639D01*
X027799Y024693D01*
X027770Y024749D01*
X027745Y024807D01*
X027724Y024866D01*
X027706Y024926D01*
X027693Y024988D01*
X027683Y025050D01*
X027677Y025112D01*
X027675Y025175D01*
X030675Y026275D02*
X030675Y023675D01*
X033675Y023675D01*
X033675Y026675D01*
X031075Y026675D01*
X030675Y026275D01*
X031175Y025175D02*
X031177Y025238D01*
X031183Y025300D01*
X031193Y025362D01*
X031206Y025424D01*
X031224Y025484D01*
X031245Y025543D01*
X031270Y025601D01*
X031299Y025657D01*
X031331Y025711D01*
X031366Y025763D01*
X031404Y025812D01*
X031446Y025860D01*
X031490Y025904D01*
X031538Y025946D01*
X031587Y025984D01*
X031639Y026019D01*
X031693Y026051D01*
X031749Y026080D01*
X031807Y026105D01*
X031866Y026126D01*
X031926Y026144D01*
X031988Y026157D01*
X032050Y026167D01*
X032112Y026173D01*
X032175Y026175D01*
X032238Y026173D01*
X032300Y026167D01*
X032362Y026157D01*
X032424Y026144D01*
X032484Y026126D01*
X032543Y026105D01*
X032601Y026080D01*
X032657Y026051D01*
X032711Y026019D01*
X032763Y025984D01*
X032812Y025946D01*
X032860Y025904D01*
X032904Y025860D01*
X032946Y025812D01*
X032984Y025763D01*
X033019Y025711D01*
X033051Y025657D01*
X033080Y025601D01*
X033105Y025543D01*
X033126Y025484D01*
X033144Y025424D01*
X033157Y025362D01*
X033167Y025300D01*
X033173Y025238D01*
X033175Y025175D01*
X033173Y025112D01*
X033167Y025050D01*
X033157Y024988D01*
X033144Y024926D01*
X033126Y024866D01*
X033105Y024807D01*
X033080Y024749D01*
X033051Y024693D01*
X033019Y024639D01*
X032984Y024587D01*
X032946Y024538D01*
X032904Y024490D01*
X032860Y024446D01*
X032812Y024404D01*
X032763Y024366D01*
X032711Y024331D01*
X032657Y024299D01*
X032601Y024270D01*
X032543Y024245D01*
X032484Y024224D01*
X032424Y024206D01*
X032362Y024193D01*
X032300Y024183D01*
X032238Y024177D01*
X032175Y024175D01*
X032112Y024177D01*
X032050Y024183D01*
X031988Y024193D01*
X031926Y024206D01*
X031866Y024224D01*
X031807Y024245D01*
X031749Y024270D01*
X031693Y024299D01*
X031639Y024331D01*
X031587Y024366D01*
X031538Y024404D01*
X031490Y024446D01*
X031446Y024490D01*
X031404Y024538D01*
X031366Y024587D01*
X031331Y024639D01*
X031299Y024693D01*
X031270Y024749D01*
X031245Y024807D01*
X031224Y024866D01*
X031206Y024926D01*
X031193Y024988D01*
X031183Y025050D01*
X031177Y025112D01*
X031175Y025175D01*
X034175Y026275D02*
X034175Y023675D01*
X037175Y023675D01*
X037175Y026675D01*
X034575Y026675D01*
X034175Y026275D01*
X034675Y025175D02*
X034677Y025238D01*
X034683Y025300D01*
X034693Y025362D01*
X034706Y025424D01*
X034724Y025484D01*
X034745Y025543D01*
X034770Y025601D01*
X034799Y025657D01*
X034831Y025711D01*
X034866Y025763D01*
X034904Y025812D01*
X034946Y025860D01*
X034990Y025904D01*
X035038Y025946D01*
X035087Y025984D01*
X035139Y026019D01*
X035193Y026051D01*
X035249Y026080D01*
X035307Y026105D01*
X035366Y026126D01*
X035426Y026144D01*
X035488Y026157D01*
X035550Y026167D01*
X035612Y026173D01*
X035675Y026175D01*
X035738Y026173D01*
X035800Y026167D01*
X035862Y026157D01*
X035924Y026144D01*
X035984Y026126D01*
X036043Y026105D01*
X036101Y026080D01*
X036157Y026051D01*
X036211Y026019D01*
X036263Y025984D01*
X036312Y025946D01*
X036360Y025904D01*
X036404Y025860D01*
X036446Y025812D01*
X036484Y025763D01*
X036519Y025711D01*
X036551Y025657D01*
X036580Y025601D01*
X036605Y025543D01*
X036626Y025484D01*
X036644Y025424D01*
X036657Y025362D01*
X036667Y025300D01*
X036673Y025238D01*
X036675Y025175D01*
X036673Y025112D01*
X036667Y025050D01*
X036657Y024988D01*
X036644Y024926D01*
X036626Y024866D01*
X036605Y024807D01*
X036580Y024749D01*
X036551Y024693D01*
X036519Y024639D01*
X036484Y024587D01*
X036446Y024538D01*
X036404Y024490D01*
X036360Y024446D01*
X036312Y024404D01*
X036263Y024366D01*
X036211Y024331D01*
X036157Y024299D01*
X036101Y024270D01*
X036043Y024245D01*
X035984Y024224D01*
X035924Y024206D01*
X035862Y024193D01*
X035800Y024183D01*
X035738Y024177D01*
X035675Y024175D01*
X035612Y024177D01*
X035550Y024183D01*
X035488Y024193D01*
X035426Y024206D01*
X035366Y024224D01*
X035307Y024245D01*
X035249Y024270D01*
X035193Y024299D01*
X035139Y024331D01*
X035087Y024366D01*
X035038Y024404D01*
X034990Y024446D01*
X034946Y024490D01*
X034904Y024538D01*
X034866Y024587D01*
X034831Y024639D01*
X034799Y024693D01*
X034770Y024749D01*
X034745Y024807D01*
X034724Y024866D01*
X034706Y024926D01*
X034693Y024988D01*
X034683Y025050D01*
X034677Y025112D01*
X034675Y025175D01*
X035456Y015909D02*
X035456Y011665D01*
X039000Y011665D01*
X039000Y015909D01*
X035456Y015909D01*
X031400Y014694D02*
X031250Y014469D01*
X031100Y014694D01*
X030950Y014469D02*
X031400Y014469D01*
X031325Y014308D02*
X031025Y014308D01*
X031325Y014008D01*
X031400Y014083D01*
X031400Y014233D01*
X031325Y014308D01*
X031325Y014008D02*
X031025Y014008D01*
X030950Y014083D01*
X030950Y014233D01*
X031025Y014308D01*
X030525Y014425D02*
X030075Y014425D01*
X030300Y014200D01*
X030300Y014500D01*
X030300Y014040D02*
X030150Y014040D01*
X030075Y013965D01*
X030075Y013740D01*
X030525Y013740D01*
X030375Y013740D02*
X030375Y013965D01*
X030300Y014040D01*
X030375Y013890D02*
X030525Y014040D01*
X030950Y013698D02*
X031400Y013698D01*
X031400Y013548D02*
X031400Y013848D01*
X031100Y013548D02*
X030950Y013698D01*
X026214Y014575D02*
X025988Y014725D01*
X026214Y014875D01*
X025988Y015025D02*
X025988Y014575D01*
X025828Y014575D02*
X025528Y014575D01*
X025828Y014875D01*
X025828Y014950D01*
X025753Y015025D01*
X025603Y015025D01*
X025528Y014950D01*
X025490Y015450D02*
X025490Y015900D01*
X025715Y015900D01*
X025790Y015825D01*
X025790Y015675D01*
X025715Y015600D01*
X025490Y015600D01*
X025640Y015600D02*
X025790Y015450D01*
X025950Y015450D02*
X026250Y015750D01*
X026250Y015825D01*
X026175Y015900D01*
X026025Y015900D01*
X025950Y015825D01*
X025950Y015450D02*
X026250Y015450D01*
X021066Y014000D02*
X020766Y013700D01*
X021066Y013700D01*
X021066Y014000D02*
X020766Y014000D01*
X020605Y013925D02*
X020305Y013925D01*
X020305Y013700D02*
X020305Y014150D01*
X020145Y014150D02*
X020145Y013700D01*
X019845Y013700D02*
X019845Y014150D01*
X019995Y014000D01*
X020145Y014150D01*
X019685Y014150D02*
X019535Y014075D01*
X019384Y013925D01*
X019610Y013925D01*
X019685Y013850D01*
X019685Y013775D01*
X019610Y013700D01*
X019459Y013700D01*
X019384Y013775D01*
X019384Y013925D01*
X019224Y013700D02*
X018924Y013700D01*
X019074Y013700D02*
X019074Y014150D01*
X018924Y014000D01*
X020605Y014150D02*
X020605Y013700D01*
X020250Y016450D02*
X019950Y016450D01*
X020100Y016450D02*
X020100Y016900D01*
X019950Y016750D01*
X019790Y016825D02*
X019640Y016675D01*
X019640Y016450D01*
X019640Y016675D02*
X019490Y016825D01*
X019490Y016900D01*
X019790Y016900D02*
X019790Y016825D01*
X029240Y009650D02*
X029465Y009650D01*
X029540Y009575D01*
X029540Y009425D01*
X029465Y009350D01*
X029240Y009350D01*
X029390Y009350D02*
X029540Y009200D01*
X029700Y009275D02*
X029775Y009200D01*
X029925Y009200D01*
X030000Y009275D01*
X030000Y009350D01*
X029925Y009425D01*
X029850Y009425D01*
X029925Y009425D02*
X030000Y009500D01*
X030000Y009575D01*
X029925Y009650D01*
X029775Y009650D01*
X029700Y009575D01*
X029240Y009650D02*
X029240Y009200D01*
X029198Y008775D02*
X029048Y008625D01*
X029198Y008775D02*
X029198Y008325D01*
X029048Y008325D02*
X029348Y008325D01*
X029508Y008400D02*
X029808Y008700D01*
X029808Y008400D01*
X029733Y008325D01*
X029583Y008325D01*
X029508Y008400D01*
X029508Y008700D01*
X029583Y008775D01*
X029733Y008775D01*
X029808Y008700D01*
X029969Y008775D02*
X029969Y008325D01*
X029969Y008475D02*
X030194Y008625D01*
X029969Y008475D02*
X030194Y008325D01*
X032869Y009175D02*
X033169Y009175D01*
X033019Y009175D02*
X033019Y009625D01*
X032869Y009475D01*
X033329Y009625D02*
X033329Y009175D01*
X033629Y009175D02*
X033329Y009625D01*
X033629Y009625D02*
X033629Y009175D01*
X033790Y009400D02*
X034090Y009400D01*
X034250Y009250D02*
X034250Y009550D01*
X034325Y009625D01*
X034475Y009625D01*
X034550Y009550D01*
X034250Y009250D01*
X034325Y009175D01*
X034475Y009175D01*
X034550Y009250D01*
X034550Y009550D01*
X034710Y009550D02*
X034710Y009250D01*
X035011Y009550D01*
X035011Y009250D01*
X034936Y009175D01*
X034785Y009175D01*
X034710Y009250D01*
X034710Y009550D02*
X034785Y009625D01*
X034936Y009625D01*
X035011Y009550D01*
X035171Y009400D02*
X035471Y009400D01*
X035396Y009175D02*
X035396Y009625D01*
X035171Y009400D01*
X034015Y009175D02*
X034015Y009625D01*
X033790Y009400D01*
D14*
X028925Y017195D02*
X028772Y017195D01*
X028695Y017272D01*
X028695Y017425D02*
X028848Y017502D01*
X028925Y017502D01*
X029002Y017425D01*
X029002Y017272D01*
X028925Y017195D01*
X028695Y017425D02*
X028695Y017655D01*
X029002Y017655D01*
X028542Y017579D02*
X028465Y017655D01*
X028311Y017655D01*
X028235Y017579D01*
X028235Y017272D01*
X028311Y017195D01*
X028465Y017195D01*
X028542Y017272D01*
X020780Y017686D02*
X020780Y017840D01*
X020703Y017917D01*
X020703Y018070D02*
X020780Y018147D01*
X020780Y018300D01*
X020703Y018377D01*
X020627Y018377D01*
X020550Y018300D01*
X020550Y018223D01*
X020550Y018300D02*
X020473Y018377D01*
X020396Y018377D01*
X020320Y018300D01*
X020320Y018147D01*
X020396Y018070D01*
X020396Y017917D02*
X020320Y017840D01*
X020320Y017686D01*
X020396Y017610D01*
X020703Y017610D01*
X020780Y017686D01*
X017780Y017686D02*
X017780Y017840D01*
X017703Y017917D01*
X017780Y018070D02*
X017473Y018377D01*
X017396Y018377D01*
X017320Y018300D01*
X017320Y018147D01*
X017396Y018070D01*
X017396Y017917D02*
X017320Y017840D01*
X017320Y017686D01*
X017396Y017610D01*
X017703Y017610D01*
X017780Y017686D01*
X017780Y018070D02*
X017780Y018377D01*
X008502Y017425D02*
X008195Y017425D01*
X008425Y017655D01*
X008425Y017195D01*
X008042Y017272D02*
X007965Y017195D01*
X007811Y017195D01*
X007735Y017272D01*
X007735Y017579D01*
X007811Y017655D01*
X007965Y017655D01*
X008042Y017579D01*
X001239Y013834D02*
X001239Y013834D01*
X008851Y008905D02*
X009004Y008905D01*
X008928Y008905D02*
X008928Y008445D01*
X009004Y008445D02*
X008851Y008445D01*
X009158Y008522D02*
X009235Y008445D01*
X009388Y008445D01*
X009465Y008522D01*
X009465Y008598D01*
X009388Y008675D01*
X009235Y008675D01*
X009158Y008752D01*
X009158Y008829D01*
X009235Y008905D01*
X009388Y008905D01*
X009465Y008829D01*
X009618Y008905D02*
X009848Y008905D01*
X009925Y008829D01*
X009925Y008675D01*
X009848Y008598D01*
X009618Y008598D01*
X009618Y008445D02*
X009618Y008905D01*
X010079Y008752D02*
X010232Y008905D01*
X010232Y008445D01*
X010079Y008445D02*
X010386Y008445D01*
X019485Y008397D02*
X019561Y008320D01*
X019715Y008320D01*
X019792Y008397D01*
X019945Y008397D02*
X019945Y008550D01*
X020175Y008550D01*
X020252Y008473D01*
X020252Y008397D01*
X020175Y008320D01*
X020022Y008320D01*
X019945Y008397D01*
X019945Y008550D02*
X020098Y008704D01*
X020252Y008780D01*
X019792Y008704D02*
X019715Y008780D01*
X019561Y008780D01*
X019485Y008704D01*
X019485Y008397D01*
D15*
X018575Y014400D02*
X021275Y014400D01*
X021334Y014402D01*
X021392Y014408D01*
X021451Y014417D01*
X021508Y014431D01*
X021564Y014448D01*
X021619Y014469D01*
X021673Y014493D01*
X021725Y014521D01*
X021775Y014552D01*
X021823Y014586D01*
X021868Y014623D01*
X021911Y014664D01*
X021952Y014707D01*
X021989Y014752D01*
X022023Y014800D01*
X022054Y014850D01*
X022082Y014902D01*
X022106Y014956D01*
X022127Y015011D01*
X022144Y015067D01*
X022158Y015124D01*
X022167Y015183D01*
X022173Y015241D01*
X022175Y015300D01*
X022173Y015359D01*
X022167Y015417D01*
X022158Y015476D01*
X022144Y015533D01*
X022127Y015589D01*
X022106Y015644D01*
X022082Y015698D01*
X022054Y015750D01*
X022023Y015800D01*
X021989Y015848D01*
X021952Y015893D01*
X021911Y015936D01*
X021868Y015977D01*
X021823Y016014D01*
X021775Y016048D01*
X021725Y016079D01*
X021673Y016107D01*
X021619Y016131D01*
X021564Y016152D01*
X021508Y016169D01*
X021451Y016183D01*
X021392Y016192D01*
X021334Y016198D01*
X021275Y016200D01*
X018575Y016200D01*
X018516Y016198D01*
X018458Y016192D01*
X018399Y016183D01*
X018342Y016169D01*
X018286Y016152D01*
X018231Y016131D01*
X018177Y016107D01*
X018125Y016079D01*
X018075Y016048D01*
X018027Y016014D01*
X017982Y015977D01*
X017939Y015936D01*
X017898Y015893D01*
X017861Y015848D01*
X017827Y015800D01*
X017796Y015750D01*
X017768Y015698D01*
X017744Y015644D01*
X017723Y015589D01*
X017706Y015533D01*
X017692Y015476D01*
X017683Y015417D01*
X017677Y015359D01*
X017675Y015300D01*
X017677Y015241D01*
X017683Y015183D01*
X017692Y015124D01*
X017706Y015067D01*
X017723Y015011D01*
X017744Y014956D01*
X017768Y014902D01*
X017796Y014850D01*
X017827Y014800D01*
X017861Y014752D01*
X017898Y014707D01*
X017939Y014664D01*
X017982Y014623D01*
X018027Y014586D01*
X018075Y014552D01*
X018125Y014521D01*
X018177Y014493D01*
X018231Y014469D01*
X018286Y014448D01*
X018342Y014431D01*
X018399Y014417D01*
X018458Y014408D01*
X018516Y014402D01*
X018575Y014400D01*
X007587Y007051D02*
X007587Y003468D01*
X001013Y003468D01*
X001013Y007051D01*
X007587Y007051D01*
X007587Y004256D02*
X001013Y004256D01*
X001013Y003468D02*
X001013Y002681D01*
X001446Y002681D01*
X001446Y003429D01*
X002961Y003429D02*
X002961Y001027D01*
X003158Y000909D01*
X005442Y000909D01*
X005639Y001027D01*
X005639Y003429D01*
X005599Y003350D02*
X003001Y003144D01*
X003001Y002947D02*
X005599Y003153D01*
X005599Y002956D02*
X003001Y002750D01*
X003001Y002553D02*
X005599Y002760D01*
X005599Y002563D02*
X003001Y002356D01*
X003001Y002159D02*
X005599Y002366D01*
X005599Y002169D02*
X003001Y001962D01*
X003001Y001766D02*
X005599Y001972D01*
X005599Y001775D02*
X003001Y001569D01*
X003001Y001372D02*
X005599Y001579D01*
X005599Y001382D02*
X003001Y001175D01*
X003089Y000978D02*
X005599Y001185D01*
X031763Y002681D02*
X031763Y003468D01*
X031763Y007051D01*
X038337Y007051D01*
X038337Y003468D01*
X031763Y003468D01*
X032196Y003429D02*
X032196Y002681D01*
X031763Y002681D01*
X033751Y002750D02*
X036349Y002956D01*
X036349Y002760D02*
X033751Y002553D01*
X033751Y002356D02*
X036349Y002563D01*
X036349Y002366D02*
X033751Y002159D01*
X033751Y001962D02*
X036349Y002169D01*
X036349Y001972D02*
X033751Y001766D01*
X033751Y001569D02*
X036349Y001775D01*
X036349Y001579D02*
X033751Y001372D01*
X033751Y001175D02*
X036349Y001382D01*
X036349Y001185D02*
X033839Y000978D01*
X033908Y000909D02*
X033711Y001027D01*
X033711Y003429D01*
X033751Y003144D02*
X036349Y003350D01*
X036389Y003429D02*
X036389Y001027D01*
X036192Y000909D01*
X033908Y000909D01*
X033751Y002947D02*
X036349Y003153D01*
X038337Y004256D02*
X031763Y004256D01*
D16*
X034172Y005860D02*
X034592Y005860D01*
X034382Y005860D02*
X034382Y006491D01*
X034172Y006280D01*
X034816Y006385D02*
X034816Y005965D01*
X035237Y006385D01*
X035237Y005965D01*
X035132Y005860D01*
X034922Y005860D01*
X034816Y005965D01*
X034816Y006385D02*
X034922Y006491D01*
X035132Y006491D01*
X035237Y006385D01*
X035461Y006491D02*
X035461Y005860D01*
X035461Y006070D02*
X035776Y006280D01*
X035461Y006070D02*
X035776Y005860D01*
X035828Y007485D02*
X035407Y007485D01*
X035407Y008116D01*
X035828Y008116D01*
X036052Y008116D02*
X036367Y008116D01*
X036472Y008010D01*
X036472Y007590D01*
X036367Y007485D01*
X036052Y007485D01*
X036052Y008116D01*
X035617Y007800D02*
X035407Y007800D01*
X035183Y007485D02*
X034763Y007485D01*
X034763Y008116D01*
X035183Y008116D01*
X034973Y007800D02*
X034763Y007800D01*
X034539Y007800D02*
X034539Y008010D01*
X034433Y008116D01*
X034118Y008116D01*
X034118Y007485D01*
X034118Y007695D02*
X034433Y007695D01*
X034539Y007800D01*
X033894Y007695D02*
X033894Y007590D01*
X033789Y007485D01*
X033579Y007485D01*
X033474Y007590D01*
X033579Y007800D02*
X033474Y007905D01*
X033474Y008010D01*
X033579Y008116D01*
X033789Y008116D01*
X033894Y008010D01*
X033789Y007800D02*
X033894Y007695D01*
X033789Y007800D02*
X033579Y007800D01*
X007226Y007695D02*
X007226Y007590D01*
X007121Y007485D01*
X006911Y007485D01*
X006806Y007590D01*
X006582Y007590D02*
X006582Y007695D01*
X006476Y007800D01*
X006266Y007800D01*
X006161Y007905D01*
X006161Y008010D01*
X006266Y008116D01*
X006476Y008116D01*
X006582Y008010D01*
X006806Y008010D02*
X006806Y007905D01*
X006911Y007800D01*
X007121Y007800D01*
X007226Y007695D01*
X007226Y008010D02*
X007121Y008116D01*
X006911Y008116D01*
X006806Y008010D01*
X006582Y007590D02*
X006476Y007485D01*
X006266Y007485D01*
X006161Y007590D01*
X005937Y007485D02*
X005517Y007485D01*
X005517Y008116D01*
X005937Y008116D01*
X005727Y007800D02*
X005517Y007800D01*
X005292Y007485D02*
X004872Y008116D01*
X004872Y007485D01*
X005292Y007485D02*
X005292Y008116D01*
X004648Y008116D02*
X004228Y008116D01*
X004438Y008116D02*
X004438Y007485D01*
X004003Y007485D02*
X004003Y008116D01*
X004003Y007800D02*
X003583Y007800D01*
X003359Y007800D02*
X003149Y007800D01*
X003359Y007800D02*
X003359Y007590D01*
X003254Y007485D01*
X003044Y007485D01*
X002938Y007590D01*
X002938Y008010D01*
X003044Y008116D01*
X003254Y008116D01*
X003359Y008010D01*
X003583Y008116D02*
X003583Y007485D01*
X002719Y007485D02*
X002509Y007485D01*
X002614Y007485D02*
X002614Y008116D01*
X002509Y008116D02*
X002719Y008116D01*
X002285Y008010D02*
X002285Y007800D01*
X002179Y007695D01*
X001864Y007695D01*
X001864Y007485D02*
X001864Y008116D01*
X002179Y008116D01*
X002285Y008010D01*
X002074Y007695D02*
X002285Y007485D01*
X001640Y007590D02*
X001640Y007695D01*
X001535Y007800D01*
X001220Y007800D01*
X001535Y007800D02*
X001640Y007905D01*
X001640Y008010D01*
X001535Y008116D01*
X001220Y008116D01*
X001220Y007485D01*
X001535Y007485D01*
X001640Y007590D01*
X003422Y006280D02*
X003632Y006491D01*
X003632Y005860D01*
X003422Y005860D02*
X003842Y005860D01*
X004066Y005965D02*
X004487Y006385D01*
X004487Y005965D01*
X004382Y005860D01*
X004172Y005860D01*
X004066Y005965D01*
X004066Y006385D01*
X004172Y006491D01*
X004382Y006491D01*
X004487Y006385D01*
X004711Y006491D02*
X004711Y005860D01*
X004711Y006070D02*
X005026Y006280D01*
X004711Y006070D02*
X005026Y005860D01*
D17*
X032463Y012625D02*
X032613Y012475D01*
X032913Y012475D01*
X033063Y012625D01*
X033063Y012925D01*
X032763Y012925D01*
X032463Y013226D02*
X032463Y012625D01*
X032463Y013226D02*
X032613Y013376D01*
X032913Y013376D01*
X033063Y013226D01*
X033383Y013076D02*
X033834Y013076D01*
X033984Y012925D01*
X033984Y012475D01*
X034304Y012625D02*
X034304Y012925D01*
X034454Y013076D01*
X034905Y013076D01*
X034905Y013376D02*
X034905Y012475D01*
X034454Y012475D01*
X034304Y012625D01*
X033383Y012475D02*
X033383Y013076D01*
X033690Y014475D02*
X033991Y014475D01*
X033840Y014475D02*
X033840Y015076D01*
X033690Y015076D01*
X033840Y015376D02*
X033840Y015526D01*
X033370Y015376D02*
X033370Y014775D01*
X033070Y014475D01*
X032770Y014775D01*
X032770Y015376D01*
X034304Y015076D02*
X034304Y014475D01*
X034905Y014475D02*
X034905Y014925D01*
X034755Y015076D01*
X034304Y015076D01*
D18*
X028805Y016300D02*
X028805Y016550D01*
X028805Y016800D01*
X028555Y016800D02*
X028555Y016550D01*
X028555Y016300D01*
X021675Y017930D02*
X021425Y017930D01*
X021175Y017930D01*
X021175Y018180D02*
X021425Y018180D01*
X021675Y018180D01*
X018675Y018180D02*
X018425Y018180D01*
X018175Y018180D01*
X018175Y017930D02*
X018425Y017930D01*
X018675Y017930D01*
X008305Y016800D02*
X008305Y016550D01*
X008305Y016300D01*
X008055Y016300D02*
X008055Y016550D01*
X008055Y016800D01*
X019805Y007925D02*
X019805Y007675D01*
X019805Y007425D01*
X020055Y007425D02*
X020055Y007675D01*
X020055Y007925D01*
D19*
X034725Y010300D03*
D20*
X035350Y010300D03*
X033000Y010300D03*
D21*
X031175Y012755D03*
X031175Y015595D03*
M02*
